<svg version="1.0" xmlns="http://www.w3.org/2000/svg" width="603" height="368" viewBox="0 0 603 368"><path style="fill:#000000" d="M417 9.9c0 .5.7 1.1 1.4 1.4 1 .4 1.3.1.9-.9-.6-1.5-2.3-1.9-2.3-.5zM421 10.1c.8.5 2.7.9 4.1.9 1.5 0 3.2.7 3.9 1.5 1 1.3 5.2 1.5 26.4 1.5l25.1-.1 1.8-2.4 1.7-2.4h-32.2c-19.9 0-31.6.4-30.8 1zM511.9 9.3c0 .1-.3 1.8-.5 3.7l-.3 3.5 1.1-3c1.5-4.1 1.6-4.1 3.8-1.7 1.9 2 2.7 2.1 26.2 2 22.6-.1 24.7-.3 30.3-2.4l6-2.2-33.2-.1c-18.3 0-33.3.1-33.4.2zM21.3 11.2c1.1.5 2.4 1.1 3 1.3.7.1 2.1.6 3.2 1.1 1.1.5 22.3.9 47.3.8 40.5-.1 45.4-.3 47-1.8 2.6-2.3 3.2-2.1 7.7 2.1 2.3 2.1 5.9 5.3 8.2 7.1 2.6 2.1 4 3.9 3.6 4.8-.3 1 0 1.2 1 .8.8-.3 1.8-.1 2.1.4.3.5-.5 1.2-1.9 1.4-1.3.3-2.2.2-2-.3.3-.4 0-1.1-.6-1.4-.5-.4-.8-1.4-.4-2.2.4-1.2.2-1.3-.8-.5-1.1.9-1.8.5-3.6-1.8-1.2-1.7-2.9-3-3.8-3-1.3 0-1.3.3-.3 1.5.7.9 1.5 1.3 1.7 1.1.3-.3 1.8 1 3.4 2.9l2.9 3.3-.6 94.4c-.5 68.2-.4 94.9.4 96.4.9 1.8.7 2.4-1.8 4.3-1.7 1.2-3 1.8-3 1.4 0-.8-26-.9-68.5-.3-10.4.1-18.4.5-17.7.7.6.3.9 1 .5 1.6-.5.9-.3.9.8 0 1.9-1.6 13.2-1.2 13.5.5.1.7 0 .8-.2.3-.3-.6-1.2-.7-2-.4-1.3.5-1.3.8.1 2.3 1.6 1.7 1.5 1.9-.7 3.1-1.3.7-2.5 1.2-2.8 1.1-.2-.1-.5.9-.6 2.3 0 1.3.3 2.2.8 1.9 1.9-1.2.5 2.2-1.5 3.7l-2.3 1.7-.2-6.6c-.4-11.4-1.2-8.1-1.2 4.9v12.5l4 .2 3.9.3-.4-8.3c-.2-4.6-.4-8.3-.5-8.3-.1 0-.3-.8-.5-1.8-.5-2.7 1.1-2 2.3 1 1.8 4.8 2.2 8.2 1.2 8.8-1.7 1-1.2 7.5.5 7.5.8 0 1.5-.7 1.5-1.6 0-.8-.3-1.3-.7-1.1-.5.3-.8-.5-.8-1.8s.5-2.1 1.2-1.8c.9.3 1.1-2.4 1-10.4-.2-9 0-10.8 1.3-10.8.8 0 1.7.9 2 2 .4 1.3 1.5 2 3.3 2 1.4.1 3 .5 3.4.9.4.5-.9.7-2.9.4-2.2-.2-3.8 0-3.9.7-.1.5-.5-.1-.9-1.5-.6-2-.8-1.6-.9 2.3-.1 2.7.3 4.6.8 4.2.5-.3 1.2-.1 1.6.5.3.5-.1 1-1 1-1.3 0-1.6.9-1.5 3.7.1 2.1.2 5.9.1 8.5L66 256H36.1l.1 4.5.1 4.6 14.1-.3 14.1-.3-.2-3.8c-.1-2 .3-3.7.8-3.7.6 0 .9 2 .8 4.5l-.3 4.5-10 .2-10.1.2 10 .6c8.7.5 9.3.6 4.5 1-5.3.5-5.5.6-5.8 3.7-.3 3.3-2.4 5-4 3-1.3-1.7-1.1-4.6.4-4 .6.2 1.5-.1 2-.8.4-.7.3-1-.4-.5-.6.3-1.3.2-1.6-.2-.3-.5-1.5-.8-2.8-.6-1.3.1-4.4.3-7 .3l-4.7.1v16c0 8.8.3 16 .7 16 .4 0 2.1-1.3 3.9-2.8 1.7-1.5 5.4-4.5 8.2-6.7l5.2-4-5.3-.6-5.3-.6 6.5-.3c6.3-.4 6.3-.4-3-1l-9.5-.6 10.4-.2c9.5-.2 10.7-.4 13.8-2.8 2.6-2 3.3-3.3 3.4-6.2.2-3 .3-3.2.6-1 .2 1.6.7 2.8 1 2.8.7 0 11.3-8.1 11.3-8.6 0-.2-2.5-.1-5.6.2-3.8.4-5.4.2-4.9-.5.3-.6 3.4-1.2 6.8-1.3l6.2-.1-6.5-.7c-5.9-.6-6.1-.7-1.8-.8 5.7-.2 7.8-1 7.8-2.8 0-.8 1.1-1.9 2.5-2.4s2.5-1.5 2.5-2.2c0-.8.3-.9.8-.3 1 1.4 4.6 1.9 3.7.6-.3-.7.3-1.1 1.5-1.1 1.5 0 2-.5 1.7-1.4-.4-1 .4-1.5 2.6-1.9 1.8-.2 3.3-.4 3.4-.3.2.1-16.5 13.4-30.2 24.1-11.1 8.6-11.9 9.2-16.4 13.1-4 3.4-16.9 13.4-17.3 13.4-.2 0-.3-53.6-.3-119s-.3-119-.6-119c-1.1 0-1.5 4.2-1.3 12.7.2 7.5 0 8.4-1.9 9.9-2.1 1.4-2.1 1.5-.2 1.2 1.6-.2 2.1.3 2.3 3.1.2 2-.1 3.1-.6 2.7-1.1-.7-1 .8.3 3.7 1 2.3-.2 6.8-2.3 8.4-1.4 1.1-1.4 1.3-.2 1.1 1.1-.2 1.4.4 1.2 2.1-.2 1.3 0 2.1.5 1.8.5-.3.9.5.9 1.7s-.6 2.3-1.3 2.3c-.6 0-1-.4-.7-.9.3-.4 0-.8-.5-.8-.6 0-1.1 1.2-1.1 2.6 0 1.7.4 2.3 1.2 1.8 1-.6 1-.4.2.7-1.7 2.1-1.9 18.9-.2 18.9.9 0 1 .2.1.8-1.5 1-1.5 25.1.1 27.1.8 1.1.8 1.3-.1.8-.8-.5-1.1.8-1.1 4.3-.1 2.7.4 5.2.9 5.6.6.4.5 1.1-.3 2.1-1 1.2-1.3 16-1.6 67.7-.4 53.8-.7 66.6-1.8 68.8-1.7 3.2-2 7.3-.4 4.8.5-.8 1-1.1 1-.7 0 .4 4.6-2.9 10.3-7.4 13.2-10.7 12.7-10.3 12.7-9.3 0 .5-1.6 2-3.5 3.3-3.5 2.3-3.8 4.4-.7 3.9.9-.2 1.6.3 1.4.9-.1.7.7 1.3 1.8 1.3 2.2 0 2.7-1.6.8-2.3-.7-.2-1-.8-.5-1.3.4-.4 1.5 0 2.5 1 1.6 1.6 1.6 1.8-.1 2.7-1 .6-1.4 1.5-1 2.2.4.7-.1.6-1-.2-1.5-1.2-1.7-1.2-1.2.1.3.9 1.8 2.1 3.2 2.7 1.4.7 3.4 2.3 4.5 3.6 1.7 2.2 5 2.7 6.7 1 1-1.1-4.2-4.3-5.8-3.7-1.4.5-1.4.4-.1-1 1.1-1.2 2-1.3 3.3-.6 1.5.7 3 .1 7.3-3.3 3-2.3 5.4-4.3 5.4-4.6 0-.8-2.8-3.3-3.7-3.3-.4 0-1.4-.9-2.1-2-.7-1.1-1.9-2-2.7-2-.8 0-1.5-.4-1.5-.8 0-.5-1.1-1.4-2.4-2.2-2.2-1.1-2.8-.9-6.3 1.6-2.6 1.9-3.2 2.1-1.8.6 3.3-3.5 33.9-27.1 34.5-26.5.3.2-.9 1.4-2.5 2.6-1.7 1.2-4 3.1-5.2 4.3-1.1 1.2-2.8 2.4-3.7 2.7-1.4.5-1.5 1.1-.6 2.7.6 1.1 1.6 1.7 2.2 1.4.6-.4.8-.3.5.3-.4.6.5 1.8 1.9 2.8 1.4.9 2.3 1.9 2 2.2-.3.3-2.5-1.1-5-3.1-2.4-2-4.6-3.6-4.9-3.6-.2 0-1.6 1.1-3.2 2.6-2.5 2.3-2.6 2.6-1.1 4.3 2.3 2.5 2 3-1.4 2.9-1.6-.1-3-.5-3-1 0-.4-.4-.8-1-.8-.5 0-1 .5-1 1.1 0 1.6 2.6 3.9 4.5 3.9.9 0 1.3.4 1 1-.3.5.1 1 .9 1 .9 0 2.1.9 2.8 2 .7 1.1 1.8 2 2.5 2 .6 0 1.3.5 1.5 1.1.5 1.4 4.8-.6 4.8-2.1 0-1.4-2.4-1.2-3.8.2-.9.9-1.3.7-1.8-.5-.3-.9-1.3-1.7-2.2-1.7-.8 0-1.2-.3-.9-.7.4-.3-.1-1.1-1-1.8-1.3-.9-1.3-1.4-.3-2 .9-.5 1.1-.4.6.3-.5.8.1 1.2 1.4 1.2 1.2 0 1.8-.5 1.5-1-.3-.6.1-1 .9-1 .9 0 1.6.6 1.6 1.4 0 .7 1 1.6 2.3 2 3.4.9 3.7.8 3.7-1.4 0-1.6.5-1.9 2.5-1.6 2 .4 2.5.1 2.5-1.5 0-1.1.4-1.8.9-1.4.5.3 1.2.1 1.6-.4.7-1.3-1.6-5.1-3.1-5.1-.6 0-1.7-.6-2.3-1.4-.9-1.1-.7-1.5 1-1.9 1.1-.3 1.8-1 1.5-1.5-.3-.5.3-2 1.3-3.3 1-1.3 1.7-3 1.5-3.7-.1-.7 0-.8.3-.2.2.5 1 1 1.7 1s2.8 1.4 4.7 3.1c3.3 3 3.3 3 .7 2.4-1.9-.5-3.2-.1-4.7 1.4-1.2 1.2-2.6 2.1-3.1 2.1-1.2 0-1.3 1-.2 2.8.9 1.4 3.8.7 6.2-1.5.8-.8 2.4-2 3.5-2.8 1.8-1.2 1.8-1.6.6-3.6-1.2-2-1.1-2.5.8-4 2.7-2.2 2.7-3.5-.4-5.5-3.6-2.4-3.1-3.8 1.1-3.1 4.9.8 6.6 0 5.2-2.3-.9-1.4-.9-2.2.1-3.3 2.7-3.3-1-2.5-5.8 1.3-2.8 2.2-5.5 4-6.1 4-.5 0-1 .4-1 .9s-.7 1.2-1.6 1.5c-2.5.9-.6-1.2 4.1-4.7 2.3-1.8 7.8-6 12.1-9.4 32.7-25.7 43.9-34.1 44.3-33.7.3.3-.2 1-1.2 1.5-.9.6-1.7 1.4-1.7 2 0 .5 1.1.2 2.6-.7 1.7-1.2 2.8-1.4 3.6-.6.7.7.5 1-.8.9-1.1-.1-2 .5-2 1.3-.1.8-.2 1.9-.3 2.4 0 .4-1.3.1-2.7-.9-1.5-.9-2.9-1.3-3.3-.9-.3.5-3.9 3.4-7.8 6.3-6.5 4.9-9 8.1-6.4 8.1 1.2 0 2.1 3.9 1 4.6-1.5.9-1 2.1 1 2.7 1.4.3 2.3-.3 3.1-2.4 1.2-2.8 2-3.3 4.8-3 .6.1 1.2-.3 1.2-.9 0-.5-.4-1-1-1-2.2 0-.8-2 3.5-5.1 4.3-3.1 4.4-3.3 2.8-5.1-1-1.1-1.2-1.8-.4-1.8.7 0 2.3 1.2 3.6 2.6 1.8 1.9 3 2.4 4.2 1.9 2.6-1.2 10.3-1.4 10.3-.3 0 .5-.8 1.2-1.7 1.5-1 .4-2 .9-2.3 1.3-.3.3-2.7 2.3-5.5 4.5-7.1 5.6-7.1 5.5-5.5 5.5.8 0 3.1-1.5 5.1-3.3 6.3-5.5 10.2-8.2 12-8.2 3.1 0 2.8-1-.9-3.5-2-1.4-4.3-3.3-5-4.2-.7-1-2-1.8-2.8-1.8-.8 0-1.4-.3-1.4-.8 0-.4-2.5-2.5-5.6-4.7l-5.6-4 .6-96.3c.7-85.5.6-96.2-.8-96.2-.8 0-1.9-.6-2.3-1.3-.4-.7-4.7-4.3-9.5-8l-8.6-6.7H72.3c-37.5.1-52.3.4-51 1.2zm12.2 1.6c-.3.3-1.1 0-1.8-.7-.9-1-.8-1.1.6-.5 1 .3 1.5.9 1.2 1.2zM145 42.2c0 6.7-.2 11.9-.4 11.7-.2-.2-.7-3.8-1.1-7.9-.3-4.1-.8-7.7-1.1-7.9-.4-.5-.7 2.9-.6 6.6.1 1.3-.3 2.3-.8 2.3-1.5 0-1.3-15.7.3-16.3 3.5-1.5 3.7-.9 3.7 11.5zm-1.4 23.6c-1.1 1-1.5-.4-.8-2.8l.7-2.5.3 2.3c.2 1.3.1 2.6-.2 3zm.4 3.7c-1.4 1.7-3 2-3 .4 0-.5.5-.7 1-.4.6.3 1 .1 1-.4 0-.6.5-1.1 1.1-1.1.8 0 .8.5-.1 1.5zm.7 10.1c0 2.4-.5 4.4-1 4.4s-.6-.7-.3-1.6c.4-1.1.2-1.5-.8-1.1-1.6.6-3-3-1.4-3.9.5-.3.7-1.2.4-1.9-.3-.8.2-1.1 1.4-.8 1.4.4 1.8 1.4 1.7 4.9zm.1 9c.1.1-.5.4-1.6.6-1.2.4-1.8-.1-1.9-1.4-.2-1.7 0-1.8 1.5-.7.9.8 1.8 1.4 2 1.5zM32.7 123.5c0 .8-.4 1.2-.9.9-.5-.3-.6-1-.3-1.5.9-1.3 1.2-1.1 1.2.6zm61.3 112c0 5.2-.4 9.5-.8 9.5-.9 0-1.3-16.9-.5-18.3 1-1.8 1.3-.1 1.3 8.8zm21-2.3v6l3.8-2.8c2-1.5 3.9-3.1 4.2-3.4 1.8-2.1 9.2-7.1 9.7-6.6.4.3.4.7.2.9-.2.2-3.3 2.5-6.9 5.2-3.6 2.7-10.6 8.2-15.7 12.2-5 4-9.5 7.3-9.9 7.3-1 0 7.2-7 10.8-9.3 2.9-1.7 2.9-1.8 2.2-9.3-.4-5.5-.3-7.5.5-7 .6.4 1.1 3.4 1.1 6.8zm3-3.9c0 .5-.4.5-1 .2-.5-.3-1-1.4-1-2.3 0-1.5.2-1.5 1-.2.5.8 1 1.9 1 2.3zm-13 1.3c0 .9-.6 1.4-1.2 1.1-.7-.2-2.6.7-4.2 2.2l-2.8 2.6 1.6-3.2c.8-1.7 2.1-3.3 2.8-3.6 2.5-1 3.8-.7 3.8.9zm-25 1c0 .8-1.9 1.3-2.4.6-.3-.5.1-.9.9-.9s1.5.2 1.5.3zm80.6 1.6c.3.4-.1.5-1 .4-.8-.1-1.8-.5-2.2-.8-.3-.4.1-.5 1-.4.8.1 1.8.5 2.2.8zm-50.3 3.3c-.3.9-.8 1.4-1 1.1-.3-.3-.2-.9.2-1.5.9-1.6 1.5-1.3.8.4zM88 238c0 1.1.5 2 1 2 .6 0 1 1 1 2.3 0 2.1-.5 2.3-6.6 2.5-4.3.2-6.3-.1-5.9-.8.3-.5 1.1-1 1.7-1 .6 0 2.4-1.6 4.1-3.5 3.4-4 4.7-4.4 4.7-1.5zm-13 6.2c0 .5-1.8.8-4 .8s-4-.4-4-.9 1.8-.9 4-.8c2.2.1 4 .5 4 .9zM54.7 250c.1 1.1-.2 2.2-.8 2.5-1 .7-1.3-2.8-.2-3.8.9-.9.9-1 1 1.3zm15.5 6.2c-.9.9-1.5.9-2.4 0-.9-.9-.7-1.2 1.2-1.2s2.1.3 1.2 1.2zm14.3-.1c-3.8 1.1-12.5.9-12.5-.2 0-.4 3.5-.8 7.8-.7 5.9.1 7 .3 4.7.9zm11 29.9c.3.5.1 1-.4 1-.6 0-1.1-.5-1.1-1 0-.6.2-1 .4-1 .3 0 .8.4 1.1 1zm-52.5.8c0 .5-1.3.7-3 .4-1.6-.2-3-.6-3-.8 0-.2 1.4-.4 3-.4 1.7 0 3 .4 3 .8zm32 4.2c0 .5-.7 1-1.6 1-.8 0-1.2-.5-.9-1 .3-.6 1-1 1.6-1 .5 0 .9.4.9 1zm2 2c0 .5-.5 1-1.1 1-.5 0-.7-.5-.4-1 .3-.6.8-1 1.1-1 .2 0 .4.4.4 1zm-19.3 12c-.1 1.5-.8 2-2.9 2-3 0-3.5-.9-1.6-2.8s4.7-1.5 4.5.8zm8.3 4.5c0 .5-.8 1.1-1.8 1.1-.9.1-2 .2-2.4.3-.5.1-1.1.1-1.5.2-.5 0-1.5.5-2.3 1.1-.8.6-.3-.1 1.2-1.4 2.6-2.5 6.9-3.3 6.8-1.3z"/><path style="fill:#000000" d="M83.8 242.7c.6.2 1.8.2 2.5 0 .6-.3.1-.5-1.3-.5-1.4 0-1.9.2-1.2.5zM182.8 12c1.9 2 2.9 2.1 39.1 2.1 20.5-.1 37.7-.3 38.2-.6.5-.4.9-1.3.9-2.1 0-1.2-5.8-1.4-40-1.4h-40.1l1.9 2zM311.2 11.8c.3 1.6 3.5 1.7 40.3 2 30.5.1 40.2.5 41 1.5 2.3 2.9 10.6 8.8 11.5 8.2 1.1-.7-.5-4.6-1.8-4.3-.4.2-2-1-3.6-2.4-1.5-1.5-3.1-2.7-3.5-2.6-1.9.2-2.9-.4-3.4-2.2-.5-2-1.2-2-40.7-2-37.3.1-40.1.2-39.8 1.8zm87.8 5.6c0 .3-.4.8-1 1.1-.5.3-1 .1-1-.4 0-.6.5-1.1 1-1.1.6 0 1 .2 1 .4zm3.5 2.8c.5-.4.5-.1.1.6-.6 1-1.1 1-2.2.1-.8-.6-1.4-1.4-1.4-1.6 0-.3.6 0 1.3.6.8.6 1.8.7 2.2.3zM423 14c1.2 1.2 1.8 2.5 1.5 2.9-.2.5.3.8 1.3.7 1.1-.1 1.6.5 1.5 1.9-.3 2.8-.3 134 0 166.8.2 24.5.1 26.9-1.5 27.8-2.4 1.3-1.9 4.4 1.1 6.6 4.1 3 22.5 17.4 23.5 18.3.4.5.4 1.4 0 2.2-1.4 2.1-1.2 11.8.2 11.8.7 0 1.5-.6 1.8-1.3.3-.7.5-.7.3.3-.1.8 0 1.7.3 1.8.7.5 6-2 6-2.8 0-.4-1.6-2.7-3.5-5.1-1.9-2.4-3.5-4.7-3.5-5.2 0-.4 4 2.4 9 6.3 4.9 3.8 9.1 7 9.4 7 .2 0 .2-25.2 0-56-.1-34.4.1-55.8.7-55.5.5.4.9 2.6.9 5 0 2.5 1.2 9.5 2.6 15.7 1.4 6.2 4.3 18.9 6.4 28.3 2.1 9.3 6 26.4 8.5 38 2.5 11.5 5 22.7 5.5 24.7.6 2.1 1.5 5.6 2 7.8 1 3.8 2.3 5 3.4 3.1.3-.4 1.6-5 3-10.2 2.4-9.3 4-15.4 9-33.9 1.4-5.2 4.5-17 6.8-26.2 2.4-9.3 4.7-16.8 5.1-16.8.5 0 .6.4.3.9-.3.4-.5 15-.4 32.2.1 17.3.2 41.2.2 53.2l.1 21.8-3 2.8c-1.6 1.5-3.4 2.7-3.9 2.8-.5.1-1.2.6-1.5 1.2-.4.6-3.8 3.4-7.6 6.3-6.7 5.2-9.5 8.5-5.9 7.1 1.3-.5 1.5-.3.9.7-.5.9-.4 1.1.4.6.6-.4.9-1.2.5-1.7-.3-.6.2-.9 1.2-.7 1.1.2 1.8-.2 1.7-.9-.2-.6 1.3-2.1 3.2-3.3 1.9-1.2 4.6-3.5 5.9-5.1l2.6-3 7.9 6c4.3 3.3 8.5 6.6 9.2 7.3.8.7 4.8 3.9 9 7s8.9 6.9 10.5 8.4c4.3 4 17.5 13.7 18 13.1.2-.2-.4-2.4-1.3-4.8-1.6-4-1.8-10.6-2.3-70.5-.4-56.7-.7-66.4-2-67.9-.9-1.1-1-1.6-.2-1.1.9.5 1.2-1.2 1.2-7.4s-.3-8-1.2-7.4c-1 .6-1 .4 0-.7 1.5-1.6 1.6-5.5.2-6.4-.7-.4-.7-1.1-.2-1.8 1.5-1.9 1.5-3.5 1.6-37 .1-27.2-.1-31.9-1.4-32.7-1-.7-1.1-1-.2-1 .6 0 1.2-.5 1.2-1.1 0-.5-.4-.8-.8-.5-.4.2-.8-.4-.8-1.4 0-1 .4-1.6.8-1.4.4.3.8.1.8-.4 0-1.5-2.6-2.2-3.8-1-.7.7-1 .4-.9-.8.1-1.1.7-2.2 1.3-2.6 1.6-1 1.1-7.4-.5-7-.9.2-1.2-.5-.9-2.3.3-1.4.1-2.8-.3-3.1-.5-.3-.5-1.4.1-2.4.5-1 1-3.4 1-5.4 0-1.9.4-3.7 1-4.1 1.1-.7.2-3.5-1.2-3.5-.6 0-.7.7-.4 1.6.3.8.2 1.3-.3 1-1-.7-.7-8.3.4-9.4.4-.4.5.5.3 2-.5 2.9.1 3.5 1.7 1.9.6-.6 1 2.3 1.1 8 .1 8.1-.6 11-1.9 7.6-.4-.9-.6-.9-.6.1-.1.7.5 1.5 1.2 1.8.7.2 1.4 2.3 1.6 4.7.1 2.3.4 4.3.7 4.6.2.2.4-14.1.4-31.8 0-21.8-.3-32-1-31.6-.6.4-.9 1.3-.8 2 .2.8-.1 1.4-.7 1.3-.5 0-.9-.5-.7-1.1.2-.7 0-.8-.4-.4-1.6 1.6-1.2 3.5.7 3.2 1.9-.4 2 .2 1.8 8.6-.1 8.4-1.1 11.6-1.4 4.9-.2-3.5-1.5-5.4-1.5-2.1 0 1.2-.4 2-.9 1.6-1.6-.9-.8-4.5.9-4.5 1 0 1.6-.9 1.6-2.5 0-1.3-.2-2.2-.5-1.9-.4.3-.6 1-.6 1.5s-.4.9-1 .9c-.5 0-1.1-2.1-1.3-4.7-.2-2.9-.6-4.2-1.1-3.4-.9 1.4-.4 278.5.5 284.1.3 1.9.7 4.8 1 6.4.2 1.6 1.1 4 1.9 5.3 2.3 3.5.5 2.8-6.1-2.3-8.1-6.3-8.7-7.7-.8-1.8 3.6 2.7 4.7 2.3 3.3-1.3-.5-1.3-.9-6-.9-10.4 0-4.3-.4-7.9-.9-7.9s-1.1.6-1.4 1.2c-.3 1-.7 1-1.8.2-.8-.7-3.5-1.2-6.1-1.2-3.7-.1-4.6.2-4.1 1.3.3.8 0 1.5-.6 1.5s-1.1-.7-1.1-1.5c0-1.1-1.2-1.5-4.5-1.5-3.2 0-4.5.4-4.5 1.4 0 1.6 2.7 2.9 4.1 2 .5-.3.9 0 .9.7s.8 2.1 1.8 3.2c.9 1.1 1.3 1.8.7 1.6-1.5-.6-13.4-9.3-13.4-9.9-.1-.3 3.9-.4 8.9-.2l9 .2-.4-17.1c-.4-16.4-.3-17.1 1.5-16.6 1 .3 2.2.1 2.5-.4.7-1.1-4.9-1.1-9.7 0-2.1.5-4.3.4-5.3-.1-1.1-.6-2.2-.6-3.2.2-1 .9-1.4.9-1.4.1 0-.6-.1-1.4-.2-1.8-.2-.4 2.2-.6 5.2-.5 5.6.1 9.6-.6 8.6-1.5-.3-.3.1-2 .8-3.8 1.4-3.2 1.4-3.3-1.2-3.1-1.5 0-3.2.7-3.8 1.4-.8 1.1-1.6.7-3.7-2.1-1.4-1.9-2.3-3.7-2-4.1.4-.3-.7-.6-2.3-.6-2 0-2.5-.3-1.5-.9 1.1-.7 1.1-.9 0-1.3-2.1-.8-.3-2.1 2.8-2.3 2.4-.1 3.6-1.4 1.6-1.6-.5 0-1.4-.6-2.2-1.2-1.2-1-1.3-.9-.6.3.6 1.2.5 1.3-.6.2-.7-.7-1.4-2.8-1.6-4.7-.2-3.9 1.6-5.5 5.5-4.9 2.1.4 2.2.3.8-1.2-.9-.8-2-1.2-2.6-.9-.9.6-1.4-.8-1.1-2.8.1-.5-.3-.6-.9-.2-.7.4-.7 1.3.1 2.8 1 2.1.9 2.1-.5.3-1.3-1.6-1.5-7.1-1.6-35.5-.1-18.5-.5-37-.9-41.1-.6-6.8-.7-7.2-1.5-4-1 4.3-5.4 17.8-6.7 20.5-.5 1.1-2.1 6.5-3.5 12-1.3 5.5-2.9 11.3-3.4 13-8.7 30.3-14 49.3-14.6 52.7l-.7 4.3-.9-3c-.4-1.7-.6-4-.3-5.2.3-1.2.1-2.4-.4-2.7-1.7-1.1-2.2-6-.9-10.3.7-2.4 1.6-4.3 2-4.3.4 0 1.1 1.8 1.4 4 .8 4.6 1.9 5.2 2.7 1.3.4-2-.2-3.4-2.4-5.7-2.8-3-2.9-3-4.4-1.1-1.2 1.6-1.4 1.7-.9.2.4-1.1.1-1.7-.8-1.7-1.6 0-2-3.2-.5-4.1.6-.4.5-2-.3-4.4-.9-2.6-.9-4.3-.2-5.9.6-1.1 1.3-3 1.6-4 .6-1.6.4-1.7-.9-.6-1.1.9-1.5.9-1.5.1 0-.7-.5-.9-1-.6-.7.4-.7 1.2 0 2.5s.7 2.1 0 2.5c-.6.4-.8 1.6-.5 2.8.5 1.7.4 1.9-.4.7-.6-.8-1.1-2.7-1.1-4.2s-.4-3.8-1-5.2l-.9-2.5 5 .6c4.6.5 5.1.4 4.7-1.3-.3-2-.7-2.1-7.1-2.3-2.2-.1-3.6-.5-3.2-1.1.3-.5.2-1.8-.4-2.8-.5-1-2.5-9-4.4-17.7-2-8.8-4.7-21.4-6.1-27.9-1.5-6.6-2.9-13.1-3.1-14.5-.2-1.4-1.1-5.3-1.9-8.6-.9-3.3-2.7-11.3-4.2-17.8-1.4-6.4-2.7-11.7-2.8-11.7-.5 0-.8 47.9-.7 97.8.1 45.2 0 53.2-1.2 52.5-.8-.4-5.2-3.7-9.8-7.2l-8.4-6.5.3-14.4c.2-13.2.1-14.3-1.5-14.2-1 .1-2 .1-2.3 0-.3-.1-1.6-.3-2.9-.6-1.8-.3-2.2-.1-1.7 1.1.3.9.2 1.3-.4 1-.6-.3-1-1.4-1-2.4 0-1.3 1-1.8 4.2-2 2.3-.1 4.5-.4 5-.7 1.2-.7.8-13.3-.4-14-.6-.4-1.5-.1-2.1.6-.9.9-.9 1.1.2.8 1.8-.4 2.2 2.7.6 4.8-.7 1-2.5 1.9-3.9 2-1.8 0-2.4-.2-1.7-.9.5-.5.7-1.5.5-2.2-.3-.6.2-1.2 1.1-1.2.8 0 1.4.6 1.3 1.3-.2.7.2 1.3.7 1.3.6.1 1.1-.8 1.1-1.9.1-1.1-.1-1.8-.4-1.5-.3.2-1.1 0-1.9-.6-.7-.6-1.3-.8-1.3-.3s-.5.2-1.1-.6c-.9-1.3-1-1.3-.6.1.3.9.2 2.2-.3 2.9-.5.7-.8-1.3-.8-4.8.1-3.4.5-5.9 1-5.6.4.3.6.9.3 1.4-.3.5-.1 1.2.5 1.5.6.4.9.1.8-.7-.2-.8.5-1.2 1.7-1.1 1.8.2 1.8.2-.2-.9-1.6-.8-2.2-1.8-1.9-3.4.3-1.3.1-2.6-.4-2.9-.5-.3-.7.4-.5 1.6.3 1.5.1 1.9-.6 1.2-.6-.6-1.2-20.6-1.5-54.9-.3-29.6-.8-54.1-1-54.3-.9-.9-.3-3.2.6-2.6.6.3 1 .2 1-.4 0-.5-.4-1.1-1-1.3-1.1-.3-1.4-3.6-.7-8.8.5-3.7-.7-8-2.1-8-.5 0-.9.7-.9 1.5s.5 1.5 1 1.5c.6 0 .7.3.4.7-.4.3-.1 1.3.6 2.2 1 1.4 1 1.4-.4.4-1.2-1-1.8-1-2.8 0-1.1 1-1.2.8-.4-.8 1.1-2.3 1.1-3.5-.1-5.3-.4-.7-.5-1.6-.2-1.9.3-.4.6-.1.6.6 0 .9.5.9 2.3 0 1.2-.7 2.4-1.3 2.7-1.3.3-.1.4-.5.2-1.1-.2-.5-.4-5.4-.4-10.7 0-9.3-.1-9.9-2.5-11.8-1.4-1.1-3-1.7-3.5-1.4-.5.3-2-.1-3.3-1-3.3-2.2-3.9-2-1.5.4zm8.5 7.9c-.3.6-1.1.8-1.7.5-.7-.4-.8-.2-.4.4 1.2 2 1.5 9.9.2 9.9-1.6 0-1.5-10.9.2-11.5.7-.2.9-.9.6-1.5-.5-.9-.4-.9.6 0 .7.6.9 1.6.5 2.2zm1.3 6.8c.1 3.1-.1 5.4-.4 5-.9-.9-1.5-10.7-.6-10.7.4 0 .9 2.5 1 5.7zm-.6 6.8c.3-.3.5.2.5 1s-.2 1.3-.5 1c-.3-.2-1.3 0-2.3.6-1.3.6-1.9.6-1.9-.1 0-.5.6-1 1.3-1.1 1 0 1-.2 0-.6-.7-.2-1.3-.9-1.3-1.4 0-.6.7-.6 1.9 0 1 .6 2 .8 2.3.6zm133.3 5.9c0 .9.7 2.1 1.5 2.6 1.4.9 1.2 1-1.5 1-.3 0-.6-.3-.6-.8-.1-.4-.5-1.8-1-3-.7-1.8-.6-2.3.3-1.9.7.2 1.3 1.1 1.3 2.1zm2.2 6.8c-.3.8-.6.5-.6-.6-.1-1.1.2-1.7.5-1.3.3.3.4 1.2.1 1.9zm-2.4.9c-.4 1.3-.9 1.7-1.5 1.1-1.1-1.1-.3-3.2 1.2-3.2.4 0 .6.9.3 2.1zm-134.7 5.6c-.7 8.9-.9 9.3-1.5 2.8-.5-5.1.1-8.5 1.5-8.5.3 0 .2 2.6 0 5.7zm.4 9.8c-.9 1-.9 1.5-.1 1.5.6 0 1.1.7 1.1 1.5s-.5 1.5-1.1 1.5c-.8 0-.8.5.1 1.5 1 1.2 1 1.5-.2 1.5-1.7 0-2-7.1-.4-8.2 1.7-1.2 1.9-.9.6.7zm134.5 18.2c-.2 1-.4 2.2-.4 2.6-.1.5-.5.6-1 .3-1.1-.7-.3-4.6.9-4.6.5 0 .7.8.5 1.7zm-134.1 22.1c.3.5-.1.9-.9.9s-1.2-.4-.9-.9c.3-.4.7-.8.9-.8.2 0 .6.4.9.8zm135.6 1.5c-1.4.8-2.7 1.2-3 1-.7-.6 2.3-2.3 4-2.3.8 0 .4.6-1 1.3zm-136.3 10.9c-.3.8-.6.5-.6-.6-.1-1.1.2-1.7.5-1.3.3.3.4 1.2.1 1.9zm.8 14.7c.3.5.2 1.2-.3 1.5-.5.3-.9-.1-.9-.9 0-1.7.3-1.9 1.2-.6zm93.2 43.3c-.3.8-.6.5-.6-.6-.1-1.1.2-1.7.5-1.3.3.3.4 1.2.1 1.9zM441 192.6c0 .8-1.9 1.3-2.4.6-.3-.5.1-.9.9-.9s1.5.2 1.5.3zm.3 7.9c.9-.2 1.5.1 1.1.6-.3.5-1 .7-1.5.4-.5-.3-.6.1-.3.9.3.9 1.1 1.3 1.8.9.6-.4.6 0-.2.9-1 1.3-1 1.7 0 2.1.8.4.5.8-.9 1.2-1.3.4-2.1 1.1-1.8 1.5.8 1.2-.6 4.1-1.6 3.4-.5-.3-.6-1-.3-1.6.4-.7.2-.8-.4-.4-.7.4-1.2 1.6-1.2 2.6s-.4 2.2-1 2.5c-1.8 1.1-1 2.3 4 6 2.8 2.1 4.9 4 4.6 4.3-.5.4-5.1-2.8-9.8-6.7-1.5-1.3-1.5-1.6-.1-3.7.8-1.3 1.5-3.8 1.6-5.6.2-2.9.5-3.3 2.8-3 1.8.2 2.6-.2 2.6-1.2 0-1.2-.4-1.3-1.4-.5-.9.9-1.7.8-2.8-.1-1.7-1.4-2.1-3.5-.5-2.5.9.6 1.5-.8 1.1-2.9-.1-.5.4-.5 1.1.1.7.6 2.1.9 3.1.8zM543 254c0 .5-.4 1-1 1-.5 0-1-.5-1-1 0-.6.5-1 1-1 .6 0 1 .4 1 1zm-2.5 14.8c-.2.2-1.9-.4-3.8-1.2-2.7-1.1-3.7-1.1-4-.3-.2.7-.4-.3-.5-2l-.1-3.3 4.4 3.3c2.3 1.7 4.2 3.3 4 3.5zm-2.5 2.1c1.3 1.9 3.6 1.9 2.5 0-.4-.5-.1-.9.4-.9 1.5 0 1.4.6-.5 3.5-1.6 2.5-4.4 2.4-4.4-.1 0-.8-.7-1.4-1.5-1.4-.9 0-1.2-.6-.9-1.5.8-2.1 2.7-1.9 4.4.4zm3.8 8.2c-.2.6-.8 1-1.3 1s-1.1-.4-1.3-1c-.2-.6.4-1.1 1.3-1.1s1.5.5 1.3 1.1zm9.3 29.1c.8.3 1.1.9.7 1.3-.9.9-6.7-3.5-6.7-5.2-.1-.7.9-.2 2.2 1.1 1.3 1.3 3 2.5 3.8 2.8z"/><path style="fill:#000000" d="M508.5 12.8c-.6.4-1.1 2-1.2 3.7l-.2 3 1.5-3.4c1.6-3.5 1.5-4.5-.1-3.3zM308 15.2c0 .6-.3.8-.6.5-.4-.4-2.1.6-3.8 2.1-1.7 1.5-4.3 3.4-5.6 4.3-1.4.9-2.2 2-1.8 2.4.9 1 12.8-7.5 12.8-9.1 0-.8-.2-1.4-.5-1.4s-.5.5-.5 1.2zM410.1 16.3c-.8 1-.7 1.4.2 1.4.8 0 1.4-.6 1.4-1.4 0-.7-.1-1.3-.2-1.3-.2 0-.8.6-1.4 1.3zM416.4 17.2l-1.9 2.3 2.3-1.9c1.2-1.1 2.2-2.1 2.2-2.3 0-.8-.8-.2-2.6 1.9zM25.7 18c1.7 1.8 2.5 2.1 3.6 1.2.8-.7 1.8-.8 2.2-.4.5.4.5.2.1-.5-.3-.6-1.6-1-2.8-.8-1.2.3-2.9-.1-3.7-.7-.9-.7-.6-.1.6 1.2zM268.8 16.7c.6.2.9 1 .6 1.5-.4.7-.2.8.5.4 1.3-.9.5-2.6-1.2-2.5-.9 0-.8.2.1.6zM174.2 18.2c-.7.7-1.2 1.7-1.2 2.4s-1 .9-2.5.6c-1.8-.3-2.5 0-2.3.8.2.7-.8 1.6-2.2 2-2.1.6-2.2.8-.8 1.5 2.1.9 10-4.2 10.4-6.8.3-2 .2-2.1-1.4-.5zM564.6 18.1c.2.4-.2.9-.8 1.2-.7.2-1 .7-.7 1.1.3.3 1.6-.3 2.8-1.3 2.2-1.9 2.2-2 .3-1.8-1.2 0-1.9.4-1.6.8z"/><path style="fill:#000000" d="M271.2 19.6c-.9 1-.6 1.7 1.6 3.2 1.5 1.1 3.3 1.7 3.9 1.5.7-.3 1.8.8 2.3 2.3 1 2.5.9 6.3-.3 31.1 0 .7-.3 1-.7.8-.3-.2-.5-4.8-.3-10.3.2-7.5 0-10.2-1.1-11.1-1.5-1.2-1.4-5.4-1.5 107.9l-.1 60.6-3 1.7c-1.6 1-7.2 5.1-12.4 9.2s-9.9 7.5-10.4 7.5-1.7.9-2.7 2c-2.1 2.3-4.4 2.8-2.5.5 1.6-1.9 1.4-2.1-3-3.3-2.4-.7-2.8-1-1.3-1.1 1.2-.1 2.5-.5 2.8-1.1.3-.6-.1-.7-.9-.4-2 .7-2.1-.9-.3-2.5 1.8-1.4 2.6-.5 2.1 2.4-.3 1.6.2 2.4 1.6 2.8 1.1.3 2.3.1 2.6-.4.3-.5 1.2-.9 2.1-.9.9 0 2.3-.7 3.2-1.5.9-.8 3.4-3.1 5.6-5.1 2.2-2 3.4-3.3 2.6-2.9-1.1.6-1.3.4-.8-1 .4-.9.2-2.5-.5-3.4-1.1-1.4-1.1-1.4.3-.3 1.3 1 1.9.9 2.9-.3 1.4-1.7 4-2 4-.5 0 1.7 1.6 1.1 4.4-1.7 2.7-2.6 2.9-4.6.2-2.4-1.1.9-1.6.9-2.2 0-.5-.8-.3-1 .7-.4.8.5 1.1.4.6 0-.4-.5-2.1-.9-3.7-1-2.3-.1-2.7.1-1.9 1.2.6.7 1.6 1 2.2.6.6-.3.7-.1.3.5-.5.9-1.3.8-3-.3-2.1-1.4-2.4-1.4-3.7.2-1.3 1.7-1.3 1.7.6.3s1.9-1.4.6.3c-1.4 1.7-1.5 1.7-3.5-.5-1.2-1.3-1.7-1.8-1.2-1.1 1 1.5.1 2.8-1.7 2.8-.7 0-1.1.8-.9 1.7.1.8-.6 1.8-1.5 2-1.5.4-1.8-.3-2-4.4-.2-5.7.3-5.9 11.2-5.5 3.9.2 8.1 0 9.5-.4 1.4-.4-2.8-.7-9.4-.8-9.4-.1-11.7-.4-11.3-1.4.3-.8.1-2-.4-2.8-.5-.9-.9 4.1-.9 12.8 0 12.6-.2 14.2-1.6 13.6-1-.4-1.2-.8-.4-1.3 1.6-1 .1-4-2.1-4-1 0-1.9-.3-2-.8 0-.4-.2-1.8-.3-3-.2-1.3.3-2.6 1.1-2.9.7-.3 1.3-1 1.3-1.6 0-.6.7-1.8 1.6-2.8 1.9-2.1 1.2-3.8-1.4-3.4-.9.1-1.6.9-1.4 1.9.2.9-.2 1.6-.7 1.6-.5 0-.8-.9-.6-2 .2-1.2-.2-2-1-2s-1.2.6-1 1.2c.3.7.1 2.6-.5 4.3-.6 2-.9-23.4-.7-74.5l.2-77.5-16.7-.3c-11-.2-16.8.1-16.8.8 0 .5.5 1 1 1 .6 0 1 .7 1 1.5 0 .9-.6 1.2-1.5.9-.8-.4-1.5-1.6-1.5-2.7 0-1.3-.3-1.8-1-1.1-.5.5-1 12.2-1.1 27.7-.1 23.6-.3 26.8-1.8 27.8s-1.5 1 .1.5 1.7 2 1.7 34.6c0 19.3.3 35.3.6 35.6.2.3 0 1-.5 1.7-.7.8-.5 1.2.5 1.2.8 0 1.2-.4.9-.9-.3-.4-.1-.8.5-.8.5 0 1.1.3 1.3.8.2.4 2.4 2.5 5.1 4.6 2.6 2.1 4.7 4.5 4.7 5.2 0 .8.5 1.5 1 1.5.6.1 1.4.2 1.9.3.5 0 1.3.5 1.8 1s.2.6-.7.2c-.8-.4-.7-.1.3.8 1.1.8 2.5 1.2 3.3.9.8-.3 1.4-.1 1.4.5s-5.8 1.1-15.5 1.1c-8.5.1-15.5-.2-15.5-.6 0-.5 2.9-.8 6.5-.7 3.6.1 6.8-.2 7.1-.7.3-.5 1-.7 1.5-.4.5.4.9.1.9-.4 0-1.4-1.3-1.4-2.6-.1-.6.6-1.4.2-2.2-1.1-.8-1.2-.9-1.8-.4-1.5 1.4.8 4.5-3.1 3.9-4.8-.7-1.7-3.8-1.1-3.4.6.1.6-.6 1.2-1.6 1.3-1.4.3-1.5 0-.8-.9.6-.7.7-1.7.3-2.1-.4-.5-.1-.5.6-.1.6.4 1.2.2 1.2-.4 0-.6.4-.9.9-.5.5.3 1.2.1 1.6-.4.3-.6-.4-.8-1.7-.5-4.8 1.1-5.3 1-5.1-1.6l.3-2.5-1 2.3c-.5 1.3-1.4 2.1-1.9 1.7-.6-.3-1.5.4-2.1 1.6-1 1.7-.9 2 .1 1.4.8-.6 1-.4.4.5-.5.9-.4 1.1.4.6.6-.4.9-1.2.6-1.7-.7-1.1 3.1-.7 4.2.5.5.4.3.7-.2.6-2-.4-3.6 0-3.1.8.2.4-.6.8-1.9.8-1.7 0-2.2-.5-2-1.8.2-1 0-1.8-.6-1.8-.5 0-.9 2.7-.9 6v6h-13.7c-7.5 0-13.4-.3-13-.6.3-.4 5.9-.8 12.4-.9 6.5-.2 12.2-.3 12.6-.4.5 0 .8-2 .7-4.4-.3-7 0-11.1.7-10.4.3.4 1.2.2 2-.5.8-.6 1.3-.7 1.1-.2-.2.5 0 1 .5 1.1.4.2.7 0 .6-.3 0-.4.5-1.1 1.3-1.6 1-.8 1-.9-.2-.5-.8.2-2.3 0-3.2-.5-1.2-.6-1.8-.5-1.8.3 0 .6-.9.9-2 .6-1.3-.3-2 0-2 .9 0 .8.5 1.4 1 1.4.6 0 1 .5 1 1.1 0 .5-.4.8-.8.5-.5-.3-1 1.8-1.1 4.7-.1 2.8-.4 5.3-.6 5.5-.2.3-5.4.6-11.5.9l-11 .4v-6c0-6.2.5-6.8 5.1-6.3.3.1.6-.5.6-1.2s-.6-1.3-1.4-1.3c-.7 0-1.3.4-1.3.9 0 .4-.7.8-1.5.8-1.9 0-2.2-21.3-1.5-93.5.6-57.3.5-59.5-1.6-59.5-.8 0-1.4.4-1.4 1 0 .5.4 1 .9 1 1 0 .8 4-.3 5.8-.3.6-.2 1.3.4 1.7 1.3.8.7 11.4-.7 12.3-.6.4-1.3 1.6-1.6 2.7-.3 1.1-.5-4.3-.5-12-.1-16.4-.2-17.7-1.2-11-.5 2.7-.9 45.9-.9 96l-.1 91 11.6 9c10.4 8 11.4 9.1 9.8 10.2-1 .7-1.3 1.3-.7 1.3.6 0 2.7 1.6 4.6 3.5 1.9 1.9 4 3.5 4.7 3.5.6 0 .9.4.6.9-.3.5.1 1.2.9 1.5 1.2.4 1.3.2.6-1.3-.6-1-.7-2.1-.4-2.5.3-.3.2-.6-.3-.6s-2.2-1.1-3.8-2.5c-1.6-1.4-3.6-2.5-4.5-2.5-1.1 0-1.2-.3-.4-1.1.8-.8 3.6.9 10.5 6.4l9.4 7.4 13.8.1h13.8l5.2-4.7c6.5-5.7 21.8-17.9 26.6-21.1 4.4-3 11.7-8.6 15.8-12.1l4.2-3.6.1-8.9c0-6.1.3-8.2.9-6.8.5 1.2 1.3 2.5 1.9 2.9 1.6.9 1.3 2.5-.4 2.5-.9 0-1.5.9-1.5 2.5s.6 2.5 1.5 2.5c1.7 0 1.9 1.4.5 4-.7 1.3-.6 1.9.5 2.4 1.3.4 1.5-1.1 1.5-10.4 0-9.6-.2-11-1.9-11.9-1-.6-2.1-.7-2.5-.4-.3.3-.5-2.7-.5-6.8.1-4.1.3-6.5.6-5.4.2 1.1.7 2.7 1 3.5.3.8.5 1.8.5 2.2-.1.5.2.8.8.8 1.3 0 1.3-1.3-.2-2.8-.9-.9-.7-1.3.5-1.8 2.5-.9 2.1-3.9-.8-5.4-2.2-1.2-2.5-2-2.4-6.4.1-4.1.3-4.6.9-2.6.8 2.4.8 2.3.9-.8.1-2-.3-3.1-.9-2.7-.6.4-1-1.9-.9-6.2.1-3.7.4-5.7.6-4.3.3 1.3 1.1 2.9 1.9 3.5.8.6 1.5 3.5 1.7 7 .3 4.8.4 4.2.5-2.9.2-7.5 0-8.7-1.3-8.2-.9.3-1.5 0-1.5-.9 0-.8-.4-1.5-1-1.5-.7 0-1-20.3-1.1-58.8-.1-32.3-.4-59.7-.7-60.9-.4-1.2-2.5-3.5-4.7-5.1-3.3-2.3-4.3-2.6-5.3-1.6zM166 53c0 .5-.5 1-1.1 1-.5 0-.7-.5-.4-1 .3-.6.8-1 1.1-1 .2 0 .4.4.4 1zm56 2.4c.8.2-1.6.4-5.3.5-3.8 0-6.6-.2-6.3-.7.4-.7 8.1-.5 11.6.2zm11.5-.4c-.3.5-1.1 1-1.6 1-.6 0-.7-.5-.4-1 .3-.6 1.1-1 1.6-1 .6 0 .7.4.4 1zm5.2 6c.1 4.2-.2 7-.8 7-.6 0-.8-1.3-.5-3 .2-1.7.1-3-.2-3-3.2.1-3.3 1.3-3.6 60.1-.1 32.1 0 61.9.3 66.2.3 4.2.5 7.7.5 7.7-.1 0-5.7-4.3-12.5-9.6-9.9-7.6-12.4-10.1-12.6-12.3-.1-1.4-.3-17.8-.3-36.4-.1-25.2-.4-33.7-1.3-33.7-.8 0-.8-.3.1-.9 1.6-1 1.3-12.7-.4-12.4-.6.1-1.1-.5-1.1-1.2 0-1.1.4-1.2 1.4-.3 1.1.9 1.3.2 1.2-4.1-.2-3.5-.6-5.1-1.6-5.1s-1.3-2.3-1.2-10.5c0-5.8.4-10.5.8-10.5.3 0 .6 4.2.5 9.2-.2 13.2 1 13.4 1.6.3l.5-11h12.3c7.8 0 12.5-.4 13-1.1.4-.6 1.4-1.4 2.2-1.7.8-.3 1.5-.6 1.5-.6 0-.1.1 3.1.2 6.9zm-9.4-5.3c-.7.2-1.9.2-2.5 0-.7-.3-.2-.5 1.2-.5s1.9.2 1.3.5zM165 57.5c0 .8-.6 1.5-1.2 1.5-.9 0-.9.3-.2.8 1.3.9 1.2 10.4-.2 10.9-.7.2-1-2.2-1-7.2 0-5.4.4-7.5 1.3-7.5.7 0 1.3.7 1.3 1.5zM279 64c0 .5-.5 1-1.1 1-.5 0-.7-.5-.4-1 .3-.6.8-1 1.1-1 .2 0 .4.4.4 1zm0 4.6c0 .8-.4 1.2-1 .9-.5-.3-1-1-1-1.6 0-.5.5-.9 1-.9.6 0 1 .7 1 1.6zm-40.4 4.8c-.2 1.7-.5 3.5-.6 4.1-.1.5-.1 1.2 0 1.5.6 1.6.7 7 .1 7-.4 0-.7-1.2-.6-2.8.1-1.5-.1-3.2-.4-3.7-1-1.8-1-7.6 0-7 .5.4.9.1.9-.4 0-.6-.4-1.1-1-1.1-.5 0-1-.4-1-1 0-.5.7-.7 1.5-.4 1 .4 1.4 1.6 1.1 3.8zm-74.8 5.7c-1.1.7-1 .9.1.9 1 0 1.1.3.2 1.4-.8 1-.9 1.6-.1 2.1.5.3 1 1.2 1 1.8 0 .7-.7.3-1.5-.7-1.8-2.4-1.9-7.7-.2-9.5 1-1.1 1-1.3 0-.7-.8.4-1.3.1-1.3-.8 0-.8.6-1.6 1.3-1.9 1.7-.6 2.2 6.3.5 7.4zM279 72.5c0 .8-.2 1.5-.4 1.5s-.6-.7-1-1.5c-.3-.8-.1-1.5.4-1.5.6 0 1 .7 1 1.5zm-.3 4.7c-.3.8-.6.5-.6-.6-.1-1.1.2-1.7.5-1.3.3.3.4 1.2.1 1.9zM165 87.4c0 1.1-1.9 1.5-2.5.6-.3-.5.1-1 .9-1 .9 0 1.6.2 1.6.4zm120.7 106.3c-.3 1-.5.2-.5-1.7s.2-2.7.5-1.8c.2 1 .2 2.6 0 3.5zm-95.2 6.3c.4.6 1.2.7 1.8.3.7-.5 4.5-.8 8.5-.8h7.2v7.7c0 6.7-.2 7.8-1.7 7.9-1 0-6.4 0-12-.1-9-.1-10.2.1-10.6 1.7-.3 1.3-.5 1.1-.6-.7l-.1-2.5 11.9.3 11.9.4-.3-6.2c-.1-3.4-.7-6.6-1.3-7.2-.7-.7-.9.1-.7 2.6.1 1.9-.2 3.3-.6 3.1-.4-.3-.6-1.6-.4-3 .1-1.4-.2-2.5-.6-2.5-.5 0-.9.8-.9 1.8s-.7 2.8-1.6 4c-.8 1.2-1.2 2.2-.8 2.2.3 0 .1.7-.6 1.5s-1.6 1.2-2.2.9c-.5-.4-.5-1 0-1.7s1.3-2.7 1.7-4.5c.5-2.5.3-3.2-.9-3.2-.9 0-1.6.7-1.6 1.6 0 .9-.6 1.4-1.2 1.1-.7-.2-2.8.4-4.5 1.5-1.8 1.1-3.4 1.6-3.4 1.1-.1-.4-.2-2.2-.3-3.8-.2-2.2-.7-2.9-1.9-2.7-.9.2-1.7-.2-1.7-.8 0-1.3 6.7-1.3 7.5 0zm23.3.3c.7.5.9 1.4.5 2.2-.5.7-.7 5.7-.5 10.9.3 9.5.4 9.6 2.8 9.6h2.5l-.2-10.3c-.1-5.9-.6-10.8-1.3-11.6-.8-1.1-.8-1.3.1-.8.6.4 1.4.3 1.8-.3.4-.6 1.1-.8 1.6-.4.5.3.6 1.1.2 1.7-1 1.5-1.3 7.9-.5 9.2 1 1.6 1.1 3.6.1 2.9-.5-.3-.9 1.7-.9 4.5 0 3.7.5 5.3 1.8 6.1 1.6 1.1 1.6 1.1-.1.6-1-.3-4.4-.7-7.5-.7-3.1-.1-4.7-.4-3.4-.6 2.2-.4 2.3-.8 2-8.6-.2-5.1-.7-8-1.3-7.7-.5.3-1 1-1 1.7 0 .6-.4 1.5-.8 1.9-.4.4-.7-.5-.7-1.9 0-1.5.4-2.7.8-2.7 1 0 .9-3.6-.1-4.6-2.1-2.2 1-2.9 4.1-1.1zm13.6.8c-.8.9-1.4 2-1.3 2.5.1.5 0 1.1-.1 1.4-.2.3-.4 3.2-.5 6.5-.2 3.3-.4 6.9-.4 7.9-.2 3.8-1.3.6-1.3-3.6.1-2.3-.5-4.9-1.1-5.7-1-1.2-.9-1.3.3-.6 1.2.7 1.3.6.5-.6-.9-1.2-1.1-4.3-.6-8.5 0-.7 1.4-1.1 3-1 2.7.1 2.8.2 1.5 1.7zm-46.2 5c-.4 11-.4 10.9-5.7 8.9-2-.8-2.4-1.4-1.7-2.3.5-.6 1.3-2.7 1.7-4.5.3-1.8 1.5-3.7 2.6-4.3 1.1-.5 1.7-1.4 1.4-2-.4-.5-1-.7-1.5-.4-.5.3-1.1.1-1.4-.3-.3-.5.7-.8 2.2-.7 2.6.1 2.6.3 2.4 5.6zm4.2-4c-.4.6-.8 2.5-.9 4.1-.4 4.5-1.5 4.6-1.5 0 0-3.4.6-4.6 2.8-5.1.2-.1 0 .4-.4 1zm49.2 1c1.3 2.2-1.3 3.2-3.8 1.4-1.5-1.1-1.7-1.5-.5-1.2.9.4 1.7.2 1.7-.3 0-1.3 1.7-1.3 2.6.1zm3.4 3.3c0 .3-.4.8-1 1.1-.5.3-1 .1-1-.4 0-.6.5-1.1 1-1.1.6 0 1 .2 1 .4zm-46.3 1.9c0 .8-.6 1.4-1.4 1.4-.9 0-1-.4-.2-1.4.6-.7 1.2-1.3 1.4-1.3.1 0 .2.6.2 1.3zm2.8 2.4c-.2 1-.4 1.9-.4 2.1-.1.2-.6 0-1.1-.3-.8-.5-.7-1.1.1-2.1 1.5-1.8 1.8-1.8 1.4.3zm61.3 1.8c-.3.3-.9-.2-1.2-1.2-.6-1.4-.5-1.5.5-.6.7.7 1 1.5.7 1.8zm-81.6 6c1.2 1.1 3.9 3.1 5.8 4.5 1.9 1.3 4 2.9 4.5 3.6.6.6 3 2.5 5.5 4.2 2.5 1.7 6.1 4.4 8 6.1 3.7 3.3 5.5 4 4.7 1.7-.3-.7 0-1.9.6-2.5.7-.7.8-1.1.2-1-1.4.4-5.5-1.1-5.5-2 0-.4.7-.8 1.5-.8s1.2.4.9.9c-.3.4.4.8 1.5.8 1.2 0 2.1-.7 2.1-1.5 0-.9-.9-1.5-2.4-1.5-1.3 0-2.9-.7-3.6-1.5-1.1-1.4-.7-1.9 1.3-1.6.4.1 1-.6 1.3-1.4.4-.9 1.9-1.5 4-1.5h3.4v6.6c0 4.9.3 6.3 1.3 5.8.8-.5.8-.2-.2.9-1.2 1.5-1 1.7 2 1.8 2.9.1 2.5.3-2 1.3l-5.4 1.1 4.6 3c2.6 1.6 4.7 3.3 4.7 3.8 0 1-.8.4-27.9-20.7-10.5-8.1-19.1-15.5-19.1-16.3 0-1 .9-.6 2.9 1.3 1.6 1.6 4 3.8 5.3 4.9zm18.2-1.6c-.8.8-3.4 1-3.8.2-.3-.4.6-.7 1.9-.7 1.4 0 2.2.2 1.9.5zm7-.1c.3.5-.1.9-.9.9s-1.2-.4-.9-.9c.3-.4.7-.8.9-.8.2 0 .6.4.9.8zm8.6 3.2v4l-6.7-.2-6.8-.2 6.4-.3 6.3-.4-.5-2.8c-.5-2.5-.1-4.1 1-4.1.2 0 .3 1.8.3 4zm-27-1.5c1 1.2 1 1.5-.4 1.5-.9 0-1.6-.7-1.6-1.5s.2-1.5.4-1.5.9.7 1.6 1.5zm56 3.5c0 .5-1.2 1-2.7.9l-2.8-.1 2.5-.8c1.4-.4 2.6-.8 2.8-.9.1-.1.2.3.2.9zm-6.7.7c-.7.2-2.1.2-3 0-1-.3-.4-.5 1.2-.5 1.7 0 2.4.2 1.8.5zm-38.6.9c-.3.3-1.2.4-1.9.1-.8-.3-.5-.6.6-.6 1.1-.1 1.7.2 1.3.5zm35 1c-.3.3-1.2.4-1.9.1-.8-.3-.5-.6.6-.6 1.1-.1 1.7.2 1.3.5zm6.8.4c-.3.5-1.3 1-2.1 1s-1.4-.5-1.4-1c0-.6.9-1 2.1-1 1.1 0 1.7.4 1.4 1zm3.5 1.1c0 1.5.5 1.9 1.9 1.4 1.2-.4 2.1 0 2.5 1.1.4 1.2-.6 2.8-3.6 5.3-2.3 2-6.2 5.5-8.6 7.9-6.1 5.8-10.4 8.8-9.6 6.8.3-.9 1-1.6 1.4-1.6.9 0 9-7.5 9-8.3 0-.3-2.4-.8-5.2-1l-5.3-.3 5.8-.2c6.3-.2 8.2-.9 12.3-4.7 3-2.8 2.7-3.8-1.2-3.8-1.4 0-2.2-.2-1.6-.6.5-.3.8-1.4.6-2.4-.1-.9.2-1.7.7-1.7.5 0 .9.9.9 2.1zm-45.3-.5c-.3.3-1.2.4-1.9.1-.8-.3-.5-.6.6-.6 1.1-.1 1.7.2 1.3.5zm6 0c-.3.3-1.2.4-1.9.1-.8-.3-.5-.6.6-.6 1.1-.1 1.7.2 1.3.5zm16.3.9c-1 1.2-1 1.5.1 1.5 1.2 0 1.2.2 0 .9-.9.6-1.4 2.4-1.3 5 .2 3.8.1 4-1.8 2.9-1.3-.8-1.5-1.5-.8-1.9 1.9-1.2 1.9-4.2.1-3.5-1.2.5-1.3.4-.5-.7.7-.8.9-1.7.5-2.1-.4-.4.1-.4 1.2 0 1.1.4 1.7.4 1.3-.1-.7-.8.8-3.5 1.9-3.5.3 0 0 .7-.7 1.5zm5.5-.5c-.4.6-.1 1.8.7 2.7.9 1.2.9 1.5.1.9-1-.5-1.3.5-1.3 4.3 0 3 .5 5.1 1.3 5.4.6.2.9.8.5 1.2-.4.5-1.8.3-3-.3-1.3-.6-1.7-1.1-1-1.1.8-.1 1.2-2.1 1.2-6.7 0-4.1-.4-6.3-1-5.9-.5.3-1 .1-1-.4 0-.6.9-1.1 2.1-1.1 1.1 0 1.7.4 1.4 1zm13.5 2.6c0 2.2-1.6 2.4-3.2.5-1.5-1.7-1.4-1.9.8-1.9 1.3 0 2.4.6 2.4 1.4zm-6.5 1.4c.3.5.1 1-.4 1-.6 0-1.1-.5-1.1-1 0-.6.2-1 .4-1 .3 0 .8.4 1.1 1zm-2.8 1.5c0 .8-.4 1.2-.9.9-.4-.3-.8-.9-.8-1.5 0-.5.4-.9.8-.9.5 0 .9.7.9 1.5zm.8 8.5c-.3.5-1.2 1-1.8 1-.7 0-.6-.4.3-1 1.9-1.2 2.3-1.2 1.5 0zm-3.5 3.6c0 1.3-.3 1.4-1.5.4-1.2-1-1.4-.8-1 .8.2 1.2-.4 2.7-1.2 3.4-1.4 1.1-1.5.9-1.1-1.9.3-2.4 0-3.3-1.1-3.6-.9-.3.1-.5 2.2-.6 2.8-.1 3.7.3 3.7 1.5z"/><path style="fill:#000000" d="M234.6 60.5c-.3.8-.1 1.5.4 1.5 1.3 0 2.2-1.8 1.1-2.4-.5-.3-1.1.1-1.5.9zM210.5 132c-.3.5.3 2 1.5 3.2 1.1 1.2 1.8 2.8 1.6 3.5-.3.7.1 1.3.9 1.3.9 0 1.2.8 1 2.2-.3 1.2.1 2.6.8 3 .9.6.9.8 0 .8-.8 0-1 .7-.6 1.7.5 1.4.1 1.3-1.9-.5-3.2-2.9-4-2.8-3.6.5.2 1.6.8 2.6 1.3 2.4.6-.1.9-.7.7-1.3-.3-1 1.2-.4 3.6 1.5 1.1.8 1.1 1.2 0 1.8-1 .7-.9 1.2.5 2.6 1.6 1.6 1.7 1.6 1.7-.8 0-1.4-.5-3-1.2-3.7-.7-.7-.8-1.2-.2-1.2 2 0 .9-7.8-1.4-10.9-1.2-1.7-1.8-3.1-1.2-3.1 1.6 0 1.2-1.4-1-2.7-1.2-.8-2.1-.9-2.5-.3zM219.3 140c-.1 1.1.2 2.2.8 2.5.5.4.8-.3.6-1.4-.4-2.8-1.2-3.4-1.4-1.1zM210.6 153.7c-.6 1.4-.5 1.5.5.6.7-.7 1-1.5.7-1.8-.3-.3-.9.2-1.2 1.2zM219.4 156.9c.1 2.5.4 2.8 1.8 2 1.3-.7 1.6-.6 1.3.3-.3.7.3 1.8 1.4 2.5 1.6 1 2 .9 2.4-.8.3-1 .1-1.7-.4-1.4-.9.6-4.9-3-4.9-4.5 0-.6-.4-1-.9-1s-.8 1.3-.7 2.9zM210.2 163c.3 4.1.9 8.4 1.3 9.4.6 1.4.5 1.7-.3 1.2-.7-.4-1.2-.1-1.2.8 0 .8.6 1.3 1.3 1.2 2.4-.3 3.6-1.7 3-3.4-.3-.9-.3-1.4.2-1 .4.4.8 1.8.9 3 .1 1.4.8 2.4 2 2.6 1.7.4 1.8 0 1.3-3.2-.7-4.2.7-5.5 3.3-3.1 2.3 2.1 1.6 5.3-.7 3.3-1.3-1-1.5-.9-1.2.7.3 1.3 1.3 1.9 3.6 2 2.9.1 3.2-.1 3.1-2.4-.1-1.4-.6-3.2-1.2-4-.6-.7-.9-2.6-.8-4.1.2-1.6-.1-3.1-.7-3.5-.7-.3-1.1.2-1.1 1.4 0 1.5-.6 2.1-2.2 2.1-1.9 0-2-.2-.8-1 .9-.6 1-1 .3-1s-1.7.8-2.3 1.7c-.9 1.6-1.2 1.6-3.3-.9-1.2-1.6-2.3-3.8-2.4-4.9-.1-1.2-.7-2.7-1.3-3.3-.9-.8-1.1.8-.8 6.4zm4.8 6.3c0 .6-.9.2-2-.8s-2-2.3-2-2.8c0-.6.9-.2 2 .8s2 2.3 2 2.8zM230.3 158c-.1 1.1.2 2 .7 2 .4 0 .7-.7.6-1.5-.3-2.3-1.2-2.6-1.3-.5zM228 167.8c0 1.6.4 2.1 1.3 1.6.8-.5.8-.3-.2.9-1.1 1.4-1.1 1.8.2 2.3.9.3 1.3 1.2 1.1 1.9-.3.7 0 1.6.6 2 1.8 1.1.4-7.6-1.5-9.4-1.3-1.4-1.5-1.3-1.5.7zM192.5 201c-.3.5-1.5 1-2.5 1-1.1 0-1.7.6-1.6 1.5.1.9.6 1.4 1.2 1.3.5-.2.8-.7.6-1.1-.1-.4.5-.7 1.4-.5 1 .2 1.8-.4 1.9-1.5.4-1.9-.1-2.2-1-.7zM211 201.5c.7.8.9 1.9.6 2.4-.4.5-.3 1.2.2 1.5.5.3.9 0 .9-.7s.2-1.8.4-2.6c.2-.7-.4-1.5-1.4-1.6-1.4-.3-1.6-.1-.7 1zM176.6 210.5c-.3.8-.1 1.5.4 1.5.6 0 .9.4.8.9-.2.5 0 .9.5 1 .4.1.6 0 .5-.2-.1-.1.4-1.2 1.1-2.5 1-1.9.9-2.2-.8-2.2-1 0-2.1.7-2.5 1.5zM202 227.5c-.7.9-2 1.3-2.9 1-.8-.3-1.2-.2-.7.2.4.4 2.2.8 3.9.8 2.9 0 3.1.3 3.2 3.8.1 2.1-.2 4-.7 4.3-.4.3-.8 1.2-.8 2.1 0 1.3.3 1.3 1.5.3 2.3-1.9 1.7-14-.6-14-.9 0-2.2.7-2.9 1.5zM497.4 22.6c-4.3 3.9-4.6 4.4-2.4 4.2 1.6-.2 2.5-.9 2.5-2 0-.9.4-2 .9-2.5.5-.4.6-.3.2.4-1.2 2.2 1.2 1.4 3.7-1.1 4.6-4.6.2-3.6-4.9 1zM409.6 19.9c-.3.5-1.6.7-2.9.4-2-.5-1.9-.3.7 1.9 1.9 1.6 2.5 2.7 1.8 3.2-.6.3-1.5-.2-2.1-1.1-.8-1.5-1.2-1.6-2.3-.5-1.1 1.1-1 1.5.2 2.2.8.5 2.3 1 3.2 1 1.2 0 1.6.6 1.2 1.7-.5 1.7-.5 1.7.9 0 1.4-1.6 1.5-1.5 1.9 1.3.3 1.6.1 3-.4 3-.4 0-.8-.5-.8-1 0-.6-.4-1-1-1-.5 0-.7.7-.4 1.5.4.8 1.2 1.5 1.8 1.5.7 0 1.3.7 1.3 1.5 0 1-.4 1.2-1.2.5-.7-.5-1.5-.7-1.8-.3-1.3 1.3-.7 2.3 1.6 2.4 1.2 0 1.6.3 1 .6-.9.3-1 1-.3 2.4.6 1.1.7 1.9.2 1.9-.6 0-1.2-1-1.5-2.2-1-3.6-1.6-1.7-2.1 7-.4 7.9-.4 8.2 1.7 8.1 1.7-.1 1.8-.2.5-.6-1-.2-1.8-.9-1.8-1.4 0-.6.6-.7 1.3-.3.7.5.7.2-.2-1-1.2-1.5-1.2-1.7 0-1.4 1.4.3 2.9 3.7 2.2 5-.2.5-1.3.8-2.3.8-1.7 0-1.8 1-1.7 18 .1 11.2-.2 18.2-.8 18.4-.5.3-.4.5.3.5.7.1 1.1.5.8 1-.6.9-.9 107.1-.4 110.2.2 1.1-8.8 8.6-27.2 22.8-15.1 11.7-28.1 21.5-28.8 21.8-.7.3-2.8-.7-4.5-2.3-1.8-1.6-5-4.3-7.2-6-2.2-1.7-7.7-5.9-12.3-9.4-4.5-3.4-8.5-6.8-8.9-7.4-.3-.6 0-.5.8.1.7.7 2 1.3 3 1.3 1.4 0 1.6-1 1.4-5.9-.2-5 0-5.9 1.4-5.6 1 .1 1.6 1.2 1.6 2.7 0 2 .4 2.4 2.4 2.3 2-.1 2.5-.6 2.6-3.3.2-4.1 1.5-5.4 1.6-1.6.1 1.6.2 4 .3 5.4.1 1.6.6 2.4 1.6 2.2 1.1-.3 1 .2-.4 1.7-1.9 2.1-1.9 2.1 1.8 2.1h3.8l-.4-8c-.2-4.4 0-8 .5-8 .4 0 .7 7.1.7 15.7l.1 15.8 2.6 1.9c1.8 1.4 2.8 1.6 3.1.8.2-.7 1-1.2 1.8-1.2s1.3-.6 1.2-1.3c-.2-.7.6-1.1 2.3-.9l2.6.2-.4-11.5c-.4-10.1-.2-11.4 1.1-10.9.9.3 1.6.1 1.6-.5s-.6-1-1.2-.9c-.8.2-1.4-1-1.6-2.9-.3-3.1-.4-3.2-6-3.6l-5.7-.3 6.3-.2c6-.2 6.2-.1 6.2 2.3 0 2.9 1.7 3.3 3.5.8.9-1.3 1.4-1.3 2-.3.5.9.4 1.1-.3.6-.7-.4-1.2-.2-1.2.3 0 .6.4 1.1.9 1.1s1.1.9 1.4 2.1c.4 1.4 1 1.8 1.8 1.3.9-.5 1-.2.6.9-.3.9-.2 1.9.3 2.2.5.3.7 1.4.5 2.4-.4 1.9 2 3.7 2.9 2.2.3-.4.5-6.5.4-13.5 0-6.9.2-12.9.6-13.3.7-.7 1 7.8.7 16.9-.2 3.9.1 5.8 1 5.8.8 0 .9.4.1 1.3-.6.7-.9 2.5-.6 4 .4 2.6-.5 3.5-2 1.9-.4-.4-1.2-.8-1.7-.8-.5-.1-1.2-.3-1.6-.4-.5-.2-2.1-.3-3.8-.4-2.1-.1-3.1-.7-3.3-2.1-.2-1.1-.7-2.3-1-2.7-.5-.5-.6 16.5-.2 22.2 0 .3.4 0 .8-.5.4-.6 4.2-3.7 8.5-6.9 4.3-3.3 8.1-6.4 8.4-6.9.3-.6-.2-1.6-1.2-2.4-1.1-.7-1.3-1.3-.7-1.3h1.7c.3 0 1.9-1.5 3.5-3.2 2.8-3.1 3.1-3.2 4.4-1.5 1.3 1.7 5.1 1.4 4-.4-.3-.5.2-.9 1.1-.9.9 0 1.3-.5 1-1-.4-.6-.3-1 .2-.9 2.6.4 3.4-.3 3.1-2.8-.3-2.9-4-4.6-6.9-3.2-.8.4-2.2.3-3-.2-1.1-.7-1-.9.6-1 1.1-.1 2.3-.1 2.7-.1.3.1 1.2-.5 1.8-1.3 1-1.2 1-1.8 0-3-1.1-1.3-.8-1.5 1.9-1.5 2.1 0 3.1-.5 3.1-1.6 0-.8-.5-1.2-1.1-.9-.6.4-.6-.1.2-1.2 1.3-2.2 3.6-2.6 3.6-.6 0 .7-.4 1.3-.9 1.3s-.4 1 .3 2.1c.8 1.5.8 1.9 0 1.5-.6-.4-1.1 0-1.1.8 0 .9.5 1.6 1.1 1.6.8 0 .8.4 0 1.4-.9 1.1-.9 1.6 0 2.1.8.6.8.9-.1 1.5-.7.4-.8 1-.3 1.3.8.5 3.2-1.1 10.1-6.9 1.9-1.6 2.6-3.1 2.7-6.3l.1-4.2-25.3.2c-22.9.1-25.3.3-25.3 1.8 0 .9.5 2.2 1.1 2.8.8.8.8 1.3 0 1.7-.6.4-1.1 1.6-1.1 2.7 0 1.8-.9 1.9-19 1.9-18.4 0-19 .1-18.1 1.9.8 1.5.7 2-.5 2.5-.8.3-1.3 1-1 1.5.3.5-.1 1.2-1 1.5-.9.4-1.4 1.2-1 2.1 2 4.9 2 4.8 0 3.5-1.6-1-1.9-2.2-1.7-7.1l.2-5.9h-6.2l-6.2.1 2.5 2.2c1.4 1.2 3.8 3.2 5.4 4.5 1.6 1.2 2.7 2.4 2.5 2.6-.2.3-3.4-1.9-7.2-4.7-4.7-3.6-6.7-5.9-6.7-7.4 0-1.2.4-2.4.9-2.7.5-.4.7.3.4 1.4-.5 1.9 0 2 7 2h7.6l-.2-4.2c-.2-3.1-.6-4.2-1.9-4.4-1.1-.1-1.8.4-1.8 1.5 0 1.6-3.3 5.1-4.8 5.1-.5 0-1.5-1.2-2.3-2.8-2-3.9-3.3-4.5-4.1-1.9-.3 1.2-.6-12.9-.7-31.3-.1-24.9.2-33.9 1.1-34.8.9-.9.9-1.2 0-1.2-1.4 0-1.6-4.6-.2-5.5 1.6-1 1.2-2.5-.6-1.8-1.2.4-1.4 0-1-2.3.2-1.6.5-3.1.6-3.4.1-.3.1-5.2 0-11s-.3-20.6-.4-33c-.1-12.4-.6-23.2-1-23.9-.6-1-.5-1.2.2-.7.8.5 1.2-.1 1.2-1.6 0-1.6-.3-1.9-.9-1-.5.9-.7-.3-.5-3 .4-5-.3-8.1-1.7-7.3-.5.4-1 0-1.1-.7-.1-.7-.4 1.4-.8 4.7-.6 5.1-.7 4.4-.6-4 .1-8.9.3-10 2-10.3 1.1-.2 1.6 0 1.2.6-.3.6-.3 1.3.2 1.6.4.2.9-.5.9-1.6.1-1.2-.6-2.2-1.7-2.5-1.1-.3-1.7-1-1.3-1.7.3-.6-.2-.3-1.3.6-1.7 1.7-1.8 6.1-2.1 95.5-.2 51.6-.6 97.6-.9 102.3-.3 5.3-.2 8 .4 7.2.7-1 1.1-1 2.2.3 2.3 2.8 5 3.8 6.6 2.4 1.9-1.6 1.9.3-.1 4.1-1.4 2.7-1.4 3 0 3 .8 0 1.5.4 1.5 1 0 .5.8 1 1.8 1 1.6-.1 1.6-.1 0-1.4-1-.7-1.8-1.6-1.8-2 0-1.1 2.3-.6 4 .9 2.3 2.1 4.9 1 4.3-1.8-.4-2.2-.4-2.2 1.2-.2.9 1.1 2.6 2 3.8 2 1.6 0 2.1.5 2 2.1-.2 1.5.3 2 1.8 1.9 1-.1 2.5-.7 3.1-1.3 1.8-1.8 2.8-1.5 2.1.5-.4 1-.9 2-1.2 2.3-1.7 1.4-3 5-2.1 5.5.6.3 1 0 1-.7 0-.8.3-.9.8-.3 1.1 1.7 4.6 1.2 5-.7.2-1-.2-1.8-.8-1.8-.6 0-.8-.5-.5-1 1.1-1.7 2.3-1.1 3.3 1.7.6 1.6 1.1 2.3 1.1 1.7.1-.6 1.2-.9 2.6-.6 1.4.2 2.5.1 2.5-.3 0-1-3-3.8-3-2.8 0 .4-.6.1-1.3-.7-.7-.8-3.2-3.1-5.7-4.9-2.5-1.9-6.1-4.9-8-6.6-4.8-4.4-11.2-8.1-10.4-6.2.3.9 0 2.6-.7 3.8-.9 1.7-.9 2.4 0 2.7.6.2 1.1.8 1.1 1.4 0 .5-3-1.4-6.7-4.3-9-6.9-9.3-7.3-6.4-6.6 1.6.4 2.9 0 3.8-1.1 1.3-1.5 1.4-1.5.9.7-.5 2.5 1.6 5.5 2.9 4.3.5-.4.5-.1.1.5-.4.8-.1 1.3.8 1.3 1.9 0 2-1.3.6-4.1-.8-1.4-.7-1.9.2-1.9.7 0-.1-1-1.9-2.1-3.8-2.4-4.6-2.5-4.9-.3-.4 2.4-1 2.6-2.8.9-1.7-1.8-2.1-5.2-.7-7.4.7-1.2 10.6 5.8 27.1 19.2.8.7 6.1 4.7 11.7 9l10.2 7.7H363.2l4.1-3.5c2.3-2 4.7-3.3 5.4-3.1.6.3 1 0 .8-.7-.5-1.6 13.2-12 14.7-11.1.6.4.8.3.4-.4-.6-1.1 11-11.2 12.9-11.2.5 0-.6 1.3-2.5 2.9-6.3 5.3-8.5 7.3-7.3 6.7.6-.4 1.4-.2 1.8.4.9 1.5 2.5.2 1.8-1.6-.3-.8-.2-1.4.3-1.3.5.2 2.8-1.6 5.2-3.9 2.3-2.3 3.5-3.9 2.7-3.6-3.3 1.3-1.1-1.3 4.5-5.4 3.3-2.4 6-4.9 6.1-5.5.1-.7 0-42.4 0-92.7l-.2-91.5-2.4-2.1c-1.7-1.6-2-2.5-1.2-3.3.6-.6.8-1.1.5-1.1-.4 0-.9.4-1.2.9zm3.2 27.3c-.2.6-1 1.4-1.6 1.6-.7.2-1-.2-.6-1.2.7-1.8 2.8-2.2 2.2-.4zm-1 17.4c-.1 3-.6 5.8-1.1 6.1-.6.3-.7.1-.3-.5.4-.7.1-1.2-.6-1.3-1 0-1-.2 0-.6.6-.2 1-.8.8-1.2-1.1-1.7-1.4-6.1-.5-6.7.5-.3.6-1 .3-1.6-.4-.6-.2-.8.4-.4.6.3 1 3.1 1 6.2zm-.2 12.2c-.4.3-1.2 0-1.8-.6-.9-.9-.9-1.2 0-1.2.7 0 1.3-.8 1.3-1.8.1-1 .3-.8.6.6.3 1.3.2 2.6-.1 3zm-.4 4c.3.9.2 2.6-.2 3.7-.6 1.5-.8 1-.8-1.8 0-4 .3-4.7 1-1.9zM382 199.3c0 .2-1 1.2-2.2 2.3l-2.3 1.9 1.9-2.3c1.8-2.1 2.6-2.7 2.6-1.9zm-20 1.9c0 .4-.4.8-.9.8-.6 0-1.2-.4-1.5-.8-.3-.5.1-.9.9-.9s1.5.4 1.5.9zm26.4-.3c-.5.6-.9.7-3.5 1-.5 0-.7.7-.3 1.3.4.7.4 1-.1.6-.4-.4-1.3-.3-2 .2-.8.7-1.2.5-1.2-.5 0-.8.2-1.3.5-1 .3.2 1.3-.2 2.3-.9 1.8-1.2 5.5-1.8 4.3-.7zm15.1 1.9c-.3.3-1.1 0-1.8-.7-.9-1-.8-1.1.6-.5 1 .3 1.5.9 1.2 1.2zm-4 .9c-.2 1-.4 1.9-.4 2.1-.1.2-.6 0-1.1-.3-.8-.5-.7-1.1.1-2.1 1.5-1.8 1.8-1.8 1.4.3zm-21 1.1c-.3.3-1.1 0-1.8-.7-.9-1-.8-1.1.6-.5 1 .3 1.5.9 1.2 1.2zm7.5 2.7c.8 1.1 1 1.7.5 1.2-.4-.4-1.8.1-2.9 1-1.2 1-1.8 1.4-1.4.9 1.1-1.3-1.2-3.7-2.5-2.9-1.9 1.2-4.7 1-4.7-.2 0-1.7 6.3-1.4 7.7.4 1.1 1.4 1.2 1.3 1.3-.8 0-1.3.1-2.2.3-2 .1.2.9 1.3 1.7 2.4zm-75.9 3.6c-1.6.6-2.8.6-3.5-.1-.7-.7.1-1 2.5-.9 3.2 0 3.3.1 1 1zm15.9-.7c0 1.1-1.9 1.5-2.5.6-.3-.5.1-1 .9-1 .9 0 1.6.2 1.6.4zm6 0c0 1.1-1.9 1.5-2.5.6-.3-.5.1-1 .9-1 .9 0 1.6.2 1.6.4zm43.3 9.3c-.7.2-1.9.2-2.5 0-.7-.3-.2-.5 1.2-.5s1.9.2 1.3.5zm6 0c-.7.2-2.1.2-3 0-1-.3-.4-.5 1.2-.5 1.7 0 2.4.2 1.8.5zm-19.6 13.5c-.3.8-.6.5-.6-.6-.1-1.1.2-1.7.5-1.3.3.3.4 1.2.1 1.9zM30.5 21.1c-1.8.9-1.8.9.3.5 1.9-.4 2.3-.1 2 1.7-.2 1.2-.9 2.1-1.6 1.9-.8-.1-1.1.2-.7.8.3.6 1 .8 1.5.5 1.5-.9 1.7 4.4.3 6.5-1.1 1.5-1.1 2-.2 1.8.8-.2 1.2.8 1.2 2.7-.1 5-.3 5.6-1.3 5-.7-.4-.7-1.2 0-2.5s.7-2.1 0-2.5c-.5-.3-1.1-.3-1.1.2-.4 2.9-.3 3.9.4 4.9.4.7.6 1.8.5 2.5-.2.8.3 1.3 1.1 1.1 1.1-.2 1.2 0 .3 1.1-1.1 1.3-.7 2.7.8 2.7.4 0 .7-6.8.6-15 0-15.4-.1-15.8-4.1-13.9zM505 21.3c-.8.7-2 2.1-2.5 3.2-1.1 2.1-.9 6.5.4 6.5.6 0 5.1-9.2 5.1-10.5 0-.9-1.5-.5-3 .8zM490.7 27.7c-.4.3-.7 1.1-.7 1.7 0 .6.5.5 1.2-.2.6-.6.9-1.4.7-1.7-.3-.3-.9-.2-1.2.2zM495.6 28.7c-1 1-.7 6.3.4 6.3.6 0 1-1 1-2.1 0-1.7.3-1.9 1.3-1 1 .8 1.4.7 1.4-.3 0-1.5-3.2-3.8-4.1-2.9zM45.6 30.8c-.3.5.1.9.9.9s1.2-.4.9-.9c-.3-.4-.7-.8-.9-.8-.2 0-.6.4-.9.8zM125 31c0 .5.5 1 1.1 1 .5 0 .7-.5.4-1-.3-.6-.8-1-1.1-1-.2 0-.4.4-.4 1zM503.1 33.6c0 1.1.3 1.4.6.6.3-.7.2-1.6-.1-1.9-.3-.4-.6.2-.5 1.3z"/><path style="fill:#000000" d="M293.3 34.6c0 .8.3 1.2.5.9.3-.3 1.1 0 1.8.6.9.7 1.2.6 1-.7-.3-2.1-3.3-2.8-3.3-.8zM491.7 35c.6 2.3 3.3 4.9 3.3 3.1 0-.6-.4-1.1-1-1.1-.5 0-1-.6-1-1.4 0-.8-.4-1.7-.9-2-.5-.4-.7.3-.4 1.4zM361 35c0 .5.5 1 1.1 1 .5 0 .7-.5.4-1-.3-.6-.8-1-1.1-1-.2 0-.4.4-.4 1zM500.6 51.1c-1.5 5.6-2.5 10.4-2.2 10.7.3.2.7-.1 1-.9 3.3-10.9 5.2-19.9 4.4-19.9-.3 0-1.7 4.6-3.2 10.1zM29.7 47.6c-.4.4-.3 1.2.1 1.8.7 1.1.8 1.7 1.1 3.7 0 .5.6.7 1.1.4.6-.4.7-1.2.4-1.8-.4-.7-.3-.8.1-.4 2.2 1.9 1.2 4.2-1.6 3.9-.3-.1-.6.6-.6 1.4 0 .7.2 1.2.5 1 .2-.3 1 .1 1.7.7 1.6 1.5 0 5.1-1.8 4-.7-.4-.6 0 .2 1 2.4 3 3.6 1.3 3.8-5.5.1-6.1 0-6.6-2.3-7.7-1.4-.6-2.2-1.6-1.9-2.1.7-1.1.2-1.3-.8-.4z"/><path style="fill:#000000" d="M505.8 50.4c-.9 1.8-2.4 6.4-3.3 10.2-1.9 7.5-4.4 13.2-4.5 10.1 0-.9-.4-1.7-1-1.7-.5 0-1-2.6-1.2-5.7-.3-4.9-.6-5.8-2.3-6.1-1.2-.2-1.6 0-.9.5.6.4 1.4 3.2 1.8 6.2.4 3 1.4 7.2 2.1 9.5.8 2.3 1.5 5 1.6 6.1.1 2.4 0 2.6 5.9-17.3 4.2-14.5 4.7-18 1.8-11.8zM68.6 60.1c-.3 4-.6 38.5-.6 76.6.1 53.9.4 69.3 1.3 68.5 7-5.4 12.9-9.2 14.3-9.2 1 0 1.4-.3 1.1-.6-.7-.7.9-2.2 5.8-5.8 1.4-1.1 3.6-2.8 4.8-3.9 1.2-1 3.3-2.8 4.7-3.9l2.5-2V53.5l-16.6-.3-16.6-.2-.7 7.1zm9.9-4.3c-1.6.2-3.4.8-4 1.3-.7.7 3.2.9 11.2.7 14.3-.4 13.4-1.1 12.8 11.7-.3 4.4-.5 30.4-.5 57.7v49.6l-11.8 9.6c-6.6 5.3-12.2 9.6-12.6 9.6-.4 0-.6-30.8-.4-68.5.1-37.6-.1-68.7-.5-69.1-.4-.4-.7.3-.7 1.6 0 3.3-1 1.9-1.5-2.1l-.5-3.4 5.8.5c3.7.3 4.7.5 2.7.8zm23.5.3c0 .7-1.6.8-4.7.3-6.5-.9-6.7-1.4-.5-1.4 3 0 5.2.4 5.2 1.1zM71.7 66.2c-.3.8-.6.5-.6-.6-.1-1.1.2-1.7.5-1.3.3.3.4 1.2.1 1.9zm29.6 3.3c-.3.9-.8 1.4-1 1.1-.3-.3-.2-.9.2-1.5.9-1.6 1.5-1.3.8.4zM71.9 80.9c-.2 15.3-1.5 15.7-1.7.6-.2-8.6.1-12.4.8-12 .7.4 1 4.9.9 11.4zm28.8-.7c-.3.8-.6.5-.6-.6-.1-1.1.2-1.7.5-1.3.3.3.4 1.2.1 1.9zm0 7c-.2 1.3-.4.5-.4-1.7-.1-2.2.1-3.2.4-2.3.2 1 .2 2.8 0 4zm0 7c-.3.8-.6.5-.6-.6-.1-1.1.2-1.7.5-1.3.3.3.4 1.2.1 1.9z"/><path style="fill:#000000" d="M77.8 136.7c-.2 2.1-.8 3.7-1.4 3.6-1.4-.3-1.2 9.6.3 10.5 1.5.9 3.2 13.6 2.1 15.6-.5.8-.4 1.7.2 2.1.6.4.7 1.1.4 1.7-1 1.5-1.1 8.8-.1 8.8.4 0 .7-.6.7-1.4 0-.7.7-1.9 1.5-2.6 2.2-1.9 2.2-19-.1-19-.8 0-1.2-.5-.9-1 .4-.6 1.1-.8 1.6-.5.5.4.7-.4.5-1.7-.3-1.3-.5-2.6-.5-3-.1-.4-1-.9-2.1-1.3-1.8-.6-1.9-.8-.4-3.1 1.4-2 1.4-2.4.2-2.4-1.1 0-1.3-1-.8-5 .4-2.8.3-5-.1-5s-.9 1.7-1.1 3.7zm0 8.8c-.3.3-.9-.2-1.2-1.2-.6-1.4-.5-1.5.5-.6.7.7 1 1.5.7 1.8z"/><path style="fill:#000000" d="M81.3 143.7c0 2.7.2 3.8.4 2.5.3-1.2 1.1-2.2 1.8-2.2.8 0 1.9-.9 2.5-2 .9-1.6.8-1.8-.5-1.4-.8.4-1.5.1-1.5-.5s-.6-1.1-1.4-1.1c-1.1 0-1.4 1.3-1.3 4.7zM87 146.1c0 2.7 1.7 3.2 2.2.6.3-1.5 0-2.4-.9-2.4-.7 0-1.3.8-1.3 1.8zM83.6 153.5c.4.8 1 1.2 1.5.9 1.4-.8 1-2.4-.6-2.4-.9 0-1.2.6-.9 1.5zM88 155.8c0 .5.7 1.5 1.5 2.2.8.7 1.5.8 1.5.2 0-.5-.7-1.5-1.5-2.2-.8-.7-1.5-.8-1.5-.2zM92.7 156.7c.3.7.6 1.3.8 1.3.2 0 .5-.6.8-1.3.3-.8-.1-1.4-.8-1.4-.7 0-1.1.6-.8 1.4zM75 160.9c0 2.8.5 5.1 1 5.1.6 0 .9-.3.8-.8 0-.4.2-1.5.6-2.4 1-2.3.4-6.1-1.1-6.6-.9-.2-1.3 1.1-1.3 4.7z"/><path style="fill:#000000" d="M84 157.1c0 .6.9 1.3 2 1.6 1.1.3 2 .8 2 1.2 0 .4 1.4.8 3.1.9 1.9.2 2.8-.1 2.4-.8-.3-.6-1.1-.8-1.6-.5-.5.4-2.2-.3-3.8-1.4-3.3-2.4-4.1-2.6-4.1-1zM84.7 163.6c-1.5 1.5-.6 5.2 1.6 6.7 1.8 1.3 2 1.8 1 3.4-.9 1.6-.8 2 .3 2 .8 0 1.2-.2.9-.5-.2-.3 0-1.3.5-2.3.7-1.1.7-2 0-2.4-.5-.3-.7-1.1-.5-1.8.6-1.5-2.8-6-3.8-5.1zM93 166c0 .5.5 1 1.1 1 .5 0 .7-.5.4-1-.3-.6-.8-1-1.1-1-.2 0-.4.4-.4 1zM75 169.4c0 1.4.5 2.6 1.1 2.6.5 0 .8.4.5.8-.2.4-.1 1.4.5 2.2.6 1 .8.1.6-2.9-.2-4.8-2.7-7.2-2.7-2.7z"/><path style="fill:#000000" d="M84 172c0 .5.5 1 1.1 1 .5 0 .7-.5.4-1-.3-.6-.8-1-1.1-1-.2 0-.4.4-.4 1zM82 176.3c0 .7-.7 2.3-1.6 3.5l-1.5 2.2-1.9-2.2-1.9-2.3-.2 6.2c-.1 3.5-.2 6.7-.3 7.3-.1.5.4.9.9.7.6-.1.9-.8.9-1.4-.1-.7.2-1 .7-.8 1.2.8 4.2-4.3 3.5-6-.3-.9-.2-1.4.3-1.1.4.3 1.8-.6 3.1-1.9 1.9-2 2.1-2.7 1-4-1.5-1.8-3-2-3-.2zm1.7 1.9c-.3.8-.6.5-.6-.6-.1-1.1.2-1.7.5-1.3.3.3.4 1.2.1 1.9zM334.6 55.2c-1 3.7-.7 148.8.3 150.6.8 1.5 2.3 1.7 10.5 1.4l9.7-.3-.3-3.5c-.3-4.1-1.2-4.9-5-4.6-1.5.1-2.8-.2-2.8-.7 0-1.3 3.9-2.1 4.6-1 .9 1.5 3.4-1 3.4-3.3 0-2.8 10.2-11.4 12.2-10.2.5.3.8-.1.8-.9 0-.7.7-1.4 1.5-1.4s1.5.6 1.5 1.4c0 1.3.8 1.6 4.3 1.6 1.1 0 1.7.7 1.7 2.3 0 1.6-.4 2.2-1.4 1.8-.8-.3-1.7-.1-2.1.5-1 1.8-2.1 1.3-3.4-1.5-.9-2.1-1.4-2.4-2.6-1.4-1.1.9-1.5.9-1.5.1 0-.7-.9-.6-2.5.5-2.9 1.9-3.4 5.1-.7 5.1 6.1 0 6.6.5 2.3 1.8-2.5.8-4.8 1.2-5.3.9-.4-.3-.8-.1-.8.4 0 1.7 2.9 2.2 12.1 2.2h8.9v-7c0-5.1-.3-7-1.2-6.8-.7.1-2.3-.3-3.5-1-1.3-.7-2.3-1-2.3-.6s-.8 0-1.7-.9c-1.7-1.5-1.8-5.8-1.8-63.6 0-34.2-.3-62.1-.7-62.1-.5 0-.8.6-.8 1.4 0 .8-.6 1.6-1.2 1.9-1.5.4-1.4-4.9-1.6 64.7l-.3 54.5-11.6 9c-6.4 4.9-11.9 9.1-12.2 9.2-.3.2-.6-30.3-.6-67.8V59.8l-2.2-1.8c-1.3-1-2.3-2.3-2.3-3 0-1.3 3.2-1 4.2.4.4.6 2 .6 4.2-.1s3.6-.7 3.6-.1c0 .5.6.6 1.3.1.6-.4 2.1-.9 3.2-1 1.6-.3 1.7-.1.5.7-.9.6-1 1-.3 1 .6 0 1.9.3 2.9.7 1.3.5 1.6.3 1.1-1-.3-.9-.2-1.7.3-1.7.6 0 1 .7 1 1.5s.5 1.5 1.1 1.5c.5 0 .8-.4.4-.9-.9-1.6 3.5-2.4 5.2-.9 1 .8 1.4.8 1 .1-.5-.7.1-1.3 1.5-1.6 1.3-.2-5.4-.5-14.8-.6-17-.1-17.2-.1-17.8 2.1zm4.4 9.9c0 3.7-.3 4.8-1.2 4.3-1-.6-1-.4 0 .7 1.4 1.6 1.6 4.9.2 4.9-1.1 0-1.2-.8-1.4-9.3-.1-4 .2-5.7 1.1-5.7.9 0 1.3 1.6 1.3 5.1zm29-3.5c0 .8-.5 1.2-1 .9-.6-.4-.8-1.1-.5-1.6.9-1.4 1.5-1.1 1.5.7zm-.3 10.1c-.2 1.6-.4.3-.4-2.7s.2-4.3.4-2.8c.2 1.6.2 4 0 5.5zm-29.1 8.7c-.1 5.3-1.1 6.7-2 3-.5-1.7-.3-3 .4-3.4.9-.5.9-.9.1-1.4-1.5-1-1.4-2.6.2-2.6 1 0 1.4 1.3 1.3 4.4zm29.1.8c-.3.8-.6.5-.6-.6-.1-1.1.2-1.7.5-1.3.3.3.4 1.2.1 1.9zM339 87.4c0 .2-.7.9-1.5 1.6-1.3 1.1-1.4 1-.9-.4.5-1.4 2.4-2.3 2.4-1.2zm29 100.1c-1.2 1.4-.7 2 1.5 1.5.6-.1.6.2.2.7-.5.4-2.1.8-3.6.9-2.3.1-2.7-.2-2.3-1.8.2-1.1 1-1.7 1.8-1.4.7.3 1.6.1 1.9-.4.4-.6.9-1 1.2-1 .3 0 0 .7-.7 1.5zm8.7 4c0 .6-1.4 1.1-3.1 1.2-2.1 0-2.4-.1-.8-.4 1.2-.2 2-.8 1.8-1.2-.3-.4.1-.8.8-.8.7 0 1.3.5 1.3 1.2zM376.8 54.7c.6.2 1.8.2 2.5 0 .6-.3.1-.5-1.3-.5-1.4 0-1.9.2-1.2.5z"/><path style="fill:#000000" d="M361 56c0 .5.7 1 1.5 1s1.5-.5 1.5-1c0-.6-.7-1-1.5-1s-1.5.4-1.5 1zM110 70.1c0 .5.5.7 1 .4.6-.3 1-.8 1-1.1 0-.2-.4-.4-1-.4-.5 0-1 .5-1 1.1zM44 73.1c0 .5.5.7 1 .4.6-.3 1-.8 1-1.1 0-.2-.4-.4-1-.4-.5 0-1 .5-1 1.1zM373.3 81.5c0 3.3.2 4.5.4 2.7.2-1.8.2-4.5 0-6s-.4 0-.4 3.3zM390.2 78c0 1.4.2 1.9.5 1.2.2-.6.2-1.8 0-2.5-.3-.6-.5-.1-.5 1.3zM172.9 79.2c1.1 1.5 4.1 1.5 4.1.1 0-.3-.6-.3-1.4 0-.7.3-2 0-2.7-.6-1.1-1-1.1-.9 0 .5zM377.5 79c-.3.5-.1 1 .4 1 .6 0 1.1-.5 1.1-1 0-.6-.2-1-.4-1-.3 0-.8.4-1.1 1zM318.5 80c-.3.5-.1 1 .4 1 .6 0 1.1-.5 1.1-1 0-.6-.2-1-.4-1-.3 0-.8.4-1.1 1zM441.5 80c-.3.5-.1 1 .4 1 .6 0 1.1-.5 1.1-1 0-.6-.2-1-.4-1-.3 0-.8.4-1.1 1zM534.8 79.7c.6.2 1.8.2 2.5 0 .6-.3.1-.5-1.3-.5-1.4 0-1.9.2-1.2.5zM185 80.9c0 .5.5 1.3 1 1.6.6.3 1 .2 1-.4 0-.5-.4-1.3-1-1.6-.5-.3-1-.2-1 .4zM50.9 81.2c-.5 1.7-.4 4.8.3 4.8.4 0 .8-1.1.8-2.5 0-2-.7-3.4-1.1-2.3zM504.5 83c-.3.5-.1 1 .4 1 .6 0 1.1-.5 1.1-1 0-.6-.2-1-.4-1-.3 0-.8.4-1.1 1zM170 84.1c0 .5.5.7 1 .4.6-.3 1-.8 1-1.1 0-.2-.4-.4-1-.4-.5 0-1 .5-1 1.1zM377.8 83.7c1.2.2 3.2.2 4.5 0 1.2-.2.2-.4-2.3-.4s-3.5.2-2.2.4zM387.5 84c.3.5.8 1 1.1 1 .2 0 .4-.5.4-1 0-.6-.5-1-1.1-1-.5 0-.7.4-.4 1zM449 84.5c0 .4.8 1.4 1.8 2.2 2 1.6 6.1 3.9 4.7 2.7-5.2-4.7-6.5-5.6-6.5-4.9zM519.1 85.6c0 1.1.3 1.4.6.6.3-.7.2-1.6-.1-1.9-.3-.4-.6.2-.5 1.3zM544.5 85c.3.5.8 1 1.1 1 .2 0 .4-.5.4-1 0-.6-.5-1-1.1-1-.5 0-.7.4-.4 1zM551 85.1c0 .5.5.7 1 .4.6-.3 1-.8 1-1.1 0-.2-.4-.4-1-.4-.5 0-1 .5-1 1.1zM557 85c0 .5.5 1 1.1 1 .5 0 .7-.5.4-1-.3-.6-.8-1-1.1-1-.2 0-.4.4-.4 1zM533.6 85.9c-.3.5.1 1.1.9 1.5 1.5.6 2.9-.7 1.8-1.8-.9-.9-2.1-.8-2.7.3zM169.7 88.1c.4 1.3.8 1.8 1.1 1 .2-.7-.1-1.8-.6-2.3-.8-.8-.9-.4-.5 1.3zM388.3 86.8c-1.3.2-2.3.7-2.3 1.2 0 1.4 3.5 1.7 4.8.4 1.4-1.6.5-2.1-2.5-1.6zM461 86.9c0 .5.5 1.3 1 1.6.6.3 1 .2 1-.4 0-.5-.4-1.3-1-1.6-.5-.3-1-.2-1 .4zM497.9 89.7c-1.3 1.6-1.2 1.7.4.4.9-.7 1.7-1.5 1.7-1.7 0-.8-.8-.3-2.1 1.3zM373.2 92c0 1.9.2 2.7.5 1.7.2-.9.2-2.5 0-3.5-.3-.9-.5-.1-.5 1.8zM489.5 91c-1 1.2-2.5 1.8-3.2 1.6-.8-.3-1.3.2-1.3 1.2s-.5 2.3-1.2 3c-.7.7-1 1.2-.7 1.2.3 0 2.5-2 4.9-4.5 2.4-2.5 4.2-4.5 3.9-4.5-.3 0-1.4.9-2.4 2zM516 90c0 .5.5 1 1 1 .6 0 1-.5 1-1 0-.6-.4-1-1-1-.5 0-1 .4-1 1zM169.3 93.2c.1 1.5.6 2.3 1.1 1.8.4-.4.4-1.6-.2-2.6-.9-1.6-1-1.4-.9.8zM384.9 92.7c-1.3 1.7-1.3 1.7.6.3 1.1-.8 2.2-1.6 2.4-1.7.2-.2 0-.3-.6-.3s-1.7.8-2.4 1.7zM451.2 92.6c1 1 2 1.6 2.2 1.3.3-.3-.5-1.1-1.7-1.8-2.1-1.3-2.1-1.2-.5.5zM481 93c0 .5.5 1 1 1 .6 0 1-.5 1-1 0-.6-.4-1-1-1-.5 0-1 .4-1 1zM304.2 96c0 1.9.2 2.7.5 1.7.2-.9.2-2.5 0-3.5-.3-.9-.5-.1-.5 1.8zM379.5 94c-.3.6.1 1.3 1 1.6 2.1.9 2.6.2 1-1.3-.9-.8-1.6-.9-2-.3zM195.5 94.9c-.3.5-.1 1.2.5 1.6.5.3 1-.1 1-.9 0-1.8-.6-2.1-1.5-.7zM518.6 96.6c-.5 1.4-.4 1.5.9.4 1.7-1.4 1.9-2 .6-2-.5 0-1.2.7-1.5 1.6zM544.5 96c-.3.5-.1 1 .4 1 .6 0 1.1-.5 1.1-1 0-.6-.2-1-.4-1-.3 0-.8.4-1.1 1zM60.5 97c-.3.5-.1 1 .4 1 .6 0 1.1-.5 1.1-1 0-.6-.2-1-.4-1-.3 0-.8.4-1.1 1zM134.9 97.3c-1.7 1.3-1.5 3.7.3 3.7.6 0 .8-.6.5-1.4-.3-.7 0-1.9.6-2.5 1.5-1.5.6-1.4-1.4.2zM374.8 96.8c-1 .2-1.8.8-1.8 1.3 0 1.3 2.7 1.1 3.5-.2.9-1.3.4-1.6-1.7-1.1zM549.8 97.7c1.2.2 3 .2 4 0 .9-.3-.1-.5-2.3-.4-2.2 0-3 .2-1.7.4zM40 100c0 1.1.5 2 1 2 .6 0 1-.9 1-2s-.4-2-1-2c-.5 0-1 .9-1 2zM200 98.9c0 .6.4 1.3 1 1.6.6.3.7-.1.4-.9-.7-1.8-1.4-2.1-1.4-.7zM307.8 98.7c.7.3 1.6.2 1.9-.1.4-.3-.2-.6-1.3-.5-1.1 0-1.4.3-.6.6zM330.3 103.5c0 3.3.2 4.5.4 2.7.2-1.8.2-4.5 0-6s-.4 0-.4 3.3zM195.9 101.4c1.3 1.3 3.2 2.7 4.3 3 1.6.3 1.2-.3-1.3-2.4-4.1-3.5-6.1-3.9-3-.6zM479.5 100c.4.6 1.1.8 1.6.5 1.4-.9 1.1-1.5-.7-1.5-.8 0-1.2.5-.9 1zM61 100.9c0 .6.5 1.3 1 1.6.6.3 1-.1 1-.9 0-.9-.4-1.6-1-1.6-.5 0-1 .4-1 .9zM120 101c0 .5.5 1 1.1 1 .5 0 .7-.5.4-1-.3-.6-.8-1-1.1-1-.2 0-.4.4-.4 1zM175.2 101.6c1 1 2 1.5 2.4 1.2.3-.4-.5-1.2-1.8-1.8-2.2-1.2-2.2-1.2-.6.6zM531.3 101.8c0 .7.7 1.2 1.5 1 2.2-.4 2.5-2.4.4-2.4-1 0-1.9.6-1.9 1.4zM322.2 103c0 1.4.2 1.9.5 1.2.2-.6.2-1.8 0-2.5-.3-.6-.5-.1-.5 1.3zM399 102c0 .5-.7 1-1.5 1s-1.5.4-1.5 1c0 1.6 1.5 1.2 3.5-1 1-1.1 1.3-2 .7-2-.7 0-1.2.4-1.2 1zM255.5 103c-.3.5-.1 1 .4 1 .6 0 1.1-.5 1.1-1 0-.6-.2-1-.4-1-.3 0-.8.4-1.1 1zM382.1 103.6c0 1.1.3 1.4.6.6.3-.7.2-1.6-.1-1.9-.3-.4-.6.2-.5 1.3zM129 104c0 1.3 1.1 1.3 3 0 1.2-.8 1.1-1-.7-1-1.3 0-2.3.4-2.3 1zM195 105c.6 1.1 1.6 2 2.2 2 .6 0 .3-.9-.7-2s-2-2-2.2-2c-.2 0 .1.9.7 2zM313.1 104.6c0 1.1.3 1.4.6.6.3-.7.2-1.6-.1-1.9-.3-.4-.6.2-.5 1.3zM374.9 104c-.5 9.5-.4 14 .2 14 1 0 1.6-12.9.7-14.4-.5-.7-.8-.6-.9.4zM493.8 103.7c.7.3 1.6.2 1.9-.1.4-.3-.2-.6-1.3-.5-1.1 0-1.4.3-.6.6zM502 104c0 1.3 1.2 1.9 2.6 1.3 2.1-.8 1.7-1.9-.6-1.9-1.1 0-2 .3-2 .6zM40.5 105c-.3.5-.1 1 .4 1 .6 0 1.1-.5 1.1-1 0-.6-.2-1-.4-1-.3 0-.8.4-1.1 1zM190 106.4c0 1.3-.3 3.3-.6 4.3-.5 1.3-.4 1.5.4.8 1.5-1.4 2.3-6.3 1.1-7-.5-.4-.9.5-.9 1.9zM307 108c0 2.2.5 4 1 4 .6 0 1-1.8 1-4s-.4-4-1-4c-.5 0-1 1.8-1 4zM480.5 105c.3.5.8 1 1.1 1 .2 0 .4-.5.4-1 0-.6-.5-1-1.1-1-.5 0-.7.4-.4 1zM511.4 105.4c-.3.8-.4 3.1-.2 5.2.3 3.6.4 3.5.8-1.4.5-5.3.4-6.3-.6-3.8zM120 107c0 1.7.3 1.9 1.9.8 2.1-1.3 1.9-2.8-.5-2.8-.8 0-1.4.9-1.4 2zM390 106.6c0 .8.5 1.2 1 .9.6-.4.8-1.1.5-1.6-.9-1.4-1.5-1.1-1.5.7zM521.1 106.6c0 1.1.3 1.4.6.6.3-.7.2-1.6-.1-1.9-.3-.4-.6.2-.5 1.3zM115 108.8c0 1.8.5 3.2 1 3.2.6 0 .8-1.1.4-2.8-1-3.9-1.4-4-1.4-.4zM183 106.8c0 .4.9 1.8 2 3.2 2.1 2.8 3.7 2.2 2.1-.8-1-2-4.1-3.8-4.1-2.4zM260 106c-.1.3-.4 1.8-.6 3.4-.3 3.1-2.1 4.9-4.1 4.1-.7-.2-1.3.2-1.3 1 0 2.1 3.4 1.8 5.4-.4 1.2-1.3 1.6-3 1.3-5.3-.2-1.8-.5-3.1-.7-2.8zM322.1 107.6c0 1.1.3 1.4.6.6.3-.7.2-1.6-.1-1.9-.3-.4-.6.2-.5 1.3zM460.2 108c-.1 1.5-.7 3.1-1.4 3.8-1.4 1.4-.7 2.4 1.1 1.3.8-.5 1.1-2.1.8-4.2-.3-2.5-.4-2.7-.5-.9zM486 107.1c0 .5.5.7 1 .4.6-.3 1-.8 1-1.1 0-.2-.4-.4-1-.4-.5 0-1 .5-1 1.1zM317.5 108.4c-2 2.2-1.4 4.6 1.1 4.6 1.3 0 2.4-.5 2.4-1 0-.6-.4-1-.9-1s-1.1-.9-1.3-1.9c-.2-1.4-.6-1.6-1.3-.7zM382.2 109.7c.1 3.8-.1 3.7 3.2 2.2 2.7-1.3 4-3.5 2.6-4.4-.6-.4-1 0-1 .8 0 2.6-3 2.9-3.9.4-.8-1.9-.9-1.8-.9 1zM481 107.7c0 .5 1.3 1.7 2.8 2.7l2.7 1.9-2.4-2.6c-2.6-2.8-3.1-3.2-3.1-2zM194.3 108.8c.4.6 2.2 2.1 3.9 3.4 1.7 1.2 2.8 1.7 2.5 1-.4-.6-2.2-2.1-3.9-3.4-1.7-1.2-2.8-1.7-2.5-1zM255 109c0 .5.5 1 1.1 1 .5 0 .7-.5.4-1-.3-.6-.8-1-1.1-1-.2 0-.4.4-.4 1zM60.5 110c-.3.5-.2 1 .4 1 .5 0 1.3-.5 1.6-1 .3-.6.2-1-.4-1-.5 0-1.3.4-1.6 1zM148.1 110.6c0 1.1.3 1.4.6.6.3-.7.2-1.6-.1-1.9-.3-.4-.6.2-.5 1.3zM521.3 115c0 3.6.2 5 .4 3.2.2-1.7.2-4.7 0-6.5-.2-1.7-.4-.3-.4 3.3zM543.5 109.9c-.3.6.4.8 1.5.6 1.5-.3 2.4.3 3 1.8.5 1.2.9 1.7.9 1 .2-3.5-3.7-6-5.4-3.4zM496 111c0 .5.5 1 1.1 1 .5 0 .7-.5.4-1-.3-.6-.8-1-1.1-1-.2 0-.4.4-.4 1zM55.5 111.9c-.3.5-.2 1.2.3 1.5.5.3.9-.1.9-.9 0-1.7-.3-1.9-1.2-.6zM40 114c0 .5.7 1 1.6 1 .8 0 1.2-.5.9-1-.3-.6-1-1-1.6-1-.5 0-.9.4-.9 1zM44.8 114.7c.6.2 1.8.2 2.5 0 .6-.3.1-.5-1.3-.5-1.4 0-1.9.2-1.2.5zM111.2 115.7c.2 1.1-.3 2.7-1.1 3.6-1.2 1.5-1.1 1.7.3 1.7.9 0 1.9-.6 2.1-1.3 1-3 .9-5-.3-5.5-.9-.3-1.2.3-1 1.5zM245 114.9c0 .5.7 1.1 1.4 1.4 1 .4 1.3.1.9-.9-.6-1.5-2.3-1.9-2.3-.5zM307 115c0 .5.5 1 1 1 .6 0 1-.5 1-1 0-.6-.4-1-1-1-.5 0-1 .4-1 1zM189.8 115.7c.7.3 1.6.2 1.9-.1.4-.3-.2-.6-1.3-.5-1.1 0-1.4.3-.6.6zM317.7 116.4c-1.1.8-1.4 1.7-.8 2 .5.4 1.5-.3 2.1-1.4 1.3-2.3 1.1-2.4-1.3-.6zM509.6 115.8c-.3.6 1.3 2.4 3.6 4.1 4.7 3.4 6 3.9 5.1 1.6-.3-.9-.8-1.3-1.1-1-.3.3-2-.9-3.8-2.6-1.8-1.7-3.4-2.6-3.8-2.1zM43.8 116.7c2.3.2 5.9.2 8 0 2-.2.1-.4-4.3-.4-4.4 0-6.1.2-3.7.4zM326 117.5c0 .8.2 1.5.4 1.5s.6-.7 1-1.5c.3-.8.1-1.5-.4-1.5-.6 0-1 .7-1 1.5zM38.3 118.1c1.3.8 1.7 1.8 1.3 3.5-.5 1.8-.2 2.4.9 2.4 1.2 0 1.4-.7.9-2.8-.7-2.7-2.1-4.2-3.9-4.2-.5.1-.2.5.8 1.1zM249.3 119.5c0 1.4.3 2.8.8 3.1.5.3.9-.9.9-2.5 0-1.7-.4-3.1-.9-3.1s-.8 1.1-.8 2.5zM312.3 118.8c1 1 1.7 2.8 1.7 4 0 1.2.5 2.2 1 2.2 1.7 0 1.1-4.6-.8-6.3-2.5-2.3-3.9-2.2-1.9.1zM256 122.5c0 2.7.3 4.5.7 4.1.7-.7.5-7.7-.3-8.5-.2-.2-.4 1.7-.4 4.4zM491 121.3c0 1.4.5 2.9 1 3.2.7.4.8-.3.4-2.2-.9-3.8-1.4-4.2-1.4-1zM327 122.9c-3.1 2.5-3.5 3.4-3.7 8.2-.1 3 .3 5.7.9 6 .7.4.7 1.3 0 2.6-1.1 2-.6 6.3.8 6.3.4 0 1.5-1 2.6-2.2 1-1.2 1.3-1.8.7-1.4-2 1.1-1.6-4.4.5-6.8l1.7-2.1-2.3 2c-1.9 1.6-2.5 1.7-3.2.6-1.2-2 0-4.3 1.7-3.7.9.4 1.7-.1 2-1.4.3-1.1 1.2-2 2.1-2 1.2 0 1.3-.3.4-1.2-.9-.9-1.6-.8-3 .5-2.3 2.1-2.8 2.1-3.6 0-.5-1.2.4-2.7 3.1-5 2.1-1.8 3.6-3.2 3.3-3.3-.3 0-2.1 1.3-4 2.9zM475.4 121.5c-1.1 2.9.2 3.7 1.9 1.1 1.5-2.3 1.6-2.6.2-2.6-.9 0-1.8.7-2.1 1.5zM197.3 122.5c0 .8.4 1.2.9.9.5-.3.6-1 .3-1.5-.9-1.3-1.2-1.1-1.2.6zM286.1 122.6c0 1.1.3 1.4.6.6.3-.7.2-1.6-.1-1.9-.3-.4-.6.2-.5 1.3zM148.3 124.2c.2 3.4 4.4 5.6 4.4 2.4 0-.8-.8-1.3-1.8-1.1-1.2.2-1.6-.1-1.3-1 .3-.7.1-1.6-.5-1.9-.5-.4-.9.3-.8 1.6zM310.2 125c.1 1.6.5 3 1 3 .4 0 .8-1.4.8-3 0-1.7-.4-3-.9-3s-.9 1.3-.9 3zM360.6 122.9c-.4.5.3.7 1.4.4 2.3-.6 2.6-1.3.6-1.3-.8 0-1.7.4-2 .9zM61.2 125c0 1.4.2 1.9.5 1.2.2-.6.2-1.8 0-2.5-.3-.6-.5-.1-.5 1.3zM509 123.5c0 .5.5 1.7 1 2.5s1 1 1 .5c0-.6-.5-1.7-1-2.5s-1-1.1-1-.5zM262.9 133.2c-.1 5.1-.2 10.4-.3 11.8 0 1.4.4 2.6.9 2.7.6.2 1.1-4.3 1.2-11.7.1-7-.2-12-.8-12-.5 0-.9 4.2-1 9.2zM424.9 124.2c-.6 1.1-.3 13.6.2 13.2.5-.2.7-3.4.7-6.9-.1-5.6-.4-7.3-.9-6.3zM513.1 125.5c0 1.1.4 2.9.8 3.9.7 1.8.8 1.8 1.4-.4.4-1.6.1-3-.8-4-1.3-1.3-1.5-1.2-1.4.5zM520 124.7c0 .6-.3 2-.6 3-.7 1.7-.6 1.7 1.2.1 1.4-1.4 1.6-2.1.6-3-.8-.8-1.2-.9-1.2-.1zM551 126.5c0 1.4.4 2.5.9 2.5.4 0 .6-1.1.3-2.5-.2-1.4-.6-2.5-.8-2.5-.2 0-.4 1.1-.4 2.5zM356.5 126.5c-.3.8-.7 2.2-1 3-.2.8-.1 1.6.3 1.9.4.2 1.2-1.1 1.8-3 .6-1.9.7-3.4.2-3.4-.5 0-1.1.7-1.3 1.5zM498.1 126.6c0 1.1.3 1.4.6.6.3-.7.2-1.6-.1-1.9-.3-.4-.6.2-.5 1.3zM526.5 127c-.3.5.1 1 .9 1 .9 0 1.6-.5 1.6-1 0-.6-.4-1-.9-1-.6 0-1.3.4-1.6 1zM45.6 128.3c.3 1 .9 1.5 1.2 1.2.3-.3 0-1.1-.7-1.8-1-.9-1.1-.8-.5.6zM243.5 132.5c0 3 .4 5.7.8 6.1.4.4.7-1.8.7-4.9 0-3.1-.4-5.8-.8-6.1-.5-.3-.8 1.9-.7 4.9zM268 128.9c0 2.9 1.5 3.3 1.8.5.1-1.3-.3-2.4-.8-2.4-.6 0-1 .9-1 1.9zM271.1 128.6c0 1.1.3 1.4.6.6.3-.7.2-1.6-.1-1.9-.3-.4-.6.2-.5 1.3zM314.1 128.6c0 1.1.3 1.4.6.6.3-.7.2-1.6-.1-1.9-.3-.4-.6.2-.5 1.3zM361 128v1.5c0 .3.2.5.5.5s.5-.3.4-.6c0-.4.5-1.1 1.3-1.5 1-.7.9-.9-.4-.9-1 0-1.8.4-1.8 1zM547.7 127.7c-.4.3-1.5.7-2.5.8-2.9.2-2.4 1.9.8 2.3 2.5.3 3 0 3-1.7 0-2.2-.3-2.5-1.3-1.4zM54.4 129.1c-.3.6-.1 1.6.5 2.2.8.8 1.1.5 1.1-1.1 0-2.4-.5-2.8-1.6-1.1zM61.3 129.1c-2.2.8-3.2 2-1.5 1.8 2.1-.4 3 .3 3.4 2.6.5 2.3-.4 3.7-2.4 4.1-2.1.4-2.1.7.2 1.3 1.9.5 2.4 1.3 2.3 3.6-.1 5.2-.2 5.3-2.5 4.7-1.4-.3-1.9-.2-1.4.6.4.7 1.8 1.2 3.1 1.2 2.4 0 2.4-.1 2.3-10 0-5.5-.3-10.2-.7-10.4-.3-.2-1.6 0-2.8.5zM154 128.9c-.8.6-1.9.7-2.5.4-.5-.4-.6-.2-.2.3.5.5 1.4.9 2 .9.8 0 1.1 1.4 1 3.8-.2 2 .2 3.7.7 3.7.6 0 1-2.3 1-5 0-2.8-.1-5-.2-5-.2 0-1 .4-1.8.9zM248.8 129.1c.6.7 1.2 1.7 1.2 2.2 0 .4-.6.5-1.2.1-1-.6-1-.4 0 .8.9 1.1.9 1.7.2 2-.7.2-.5 1 .4 2.3 1.4 1.9 1.5 1.7 1.6-2.6 0-3.6-.4-4.8-1.7-5.4-1.5-.5-1.6-.4-.5.6zM307.2 129.7c.2.8.6 1.4 1.1 1.4.4-.1 1.6-.1 2.8-.1 2.7 0 1.6-1.6-1.6-2.3-1.9-.3-2.5 0-2.3 1zM256.2 131.5c0 1.6.2 2.2.5 1.2.2-.9.2-2.3 0-3-.3-.6-.5.1-.5 1.8zM491 131c0 .6.7 1 1.5 1s1.5-.2 1.5-.4-.7-.6-1.5-1c-.8-.3-1.5-.1-1.5.4zM510 130.9c0 .6.4 1.3 1 1.6.6.3.7-.1.4-.9-.7-1.8-1.4-2.1-1.4-.7zM520.6 131.4c2.1 1.5 3 1.4 1.9-.3-.3-.6-1.4-1.1-2.3-1.1-1.3 0-1.3.2.4 1.4zM362.5 132c-.4.6-1 .8-1.4.6-.4-.3-.8.1-.8.9 0 1 .5 1.1 1.9.4 1-.5 1.8-1.4 1.8-1.9 0-1.3-.7-1.3-1.5 0zM553 132c0 .5.7.7 1.5.4.8-.4 1.5-.8 1.5-1 0-.2-.7-.4-1.5-.4s-1.5.4-1.5 1zM148.6 134.9c-1.4 1.6-1.5 2-.2 3 .8.7 2.1.9 2.7.5.7-.4.9-.3.6.3-.3.5 1.2 2.7 3.3 4.7 5.2 4.9 4 1.5-1.2-3.8-2.2-2.1-3.7-4.5-3.4-5.2.7-1.9.2-1.8-1.8.5zM268 134c0 .5.5 1 1 1 .6 0 1-.5 1-1 0-.6-.4-1-1-1-.5 0-1 .4-1 1zM354.9 135.7c-.7 1.9-.6 2.8.3 3.4 1.4.9 3.1.1 2.3-1.1-.3-.5-.1-1.1.5-1.5 1.5-.9 1.2-2.2-.5-2.9-1.1-.4-1.9.3-2.6 2.1zM499.8 135.7c.5 2.1.7 2.3 1 .9.2-1 0-2.2-.6-2.8-.6-.6-.7 0-.4 1.9zM524.6 134.7c-.6 1.4-.5 1.5.5.6.7-.7 1-1.5.7-1.8-.3-.3-.9.2-1.2 1.2zM47.5 135c-.3.5-.1 1 .4 1 .6 0 1.1-.5 1.1-1 0-.6-.2-1-.4-1-.3 0-.8.4-1.1 1zM53.7 135.1c.7.7 1.5 1 1.8.7.3-.3-.2-.9-1.2-1.2-1.4-.6-1.5-.5-.6.5zM486.6 134.8c-.3.5.1 1.5.9 2.2 1.6 1.4 2 .3.6-1.9-.5-.8-1.1-.9-1.5-.3zM515.6 137.6c.3 2.2 1 5.5 1.5 7.4.5 1.9.9 4.8.9 6.5.1 2.7.2 2.8 1.4 1.3 1-1.4 1.6-1.5 2.7-.5.8.7.4.2-.9-1.1-1.7-1.6-2.7-4.2-3.6-9.2-1.2-7.2-2.9-11-2-4.4zM256 136.4c0 .9.5 1.6 1 1.6.6 0 1-.4 1-.9 0-.6-.4-1.3-1-1.6-.5-.3-1 .1-1 .9zM271.2 138.5c0 1.6.2 2.2.5 1.2.2-.9.2-2.3 0-3-.3-.6-.5.1-.5 1.8zM303.1 137.6c0 1.1.3 1.4.6.6.3-.7.2-1.6-.1-1.9-.3-.4-.6.2-.5 1.3zM420 136.4c0 .2.7.7 1.6 1 .8.3 1.2.2.9-.4-.6-1-2.5-1.4-2.5-.6zM512 136.9c0 .5.5 1.3 1 1.6.6.3 1 .2 1-.4 0-.5-.4-1.3-1-1.6-.5-.3-1-.2-1 .4zM558 138.5c.1 2.6.2 2.8 1.1 1.2.8-1.4.8-2.2 0-3-.8-.8-1.1-.3-1.1 1.8zM51.3 137.7c-2.3.9-1.4 2 1.4 1.8 1.5 0 2.8-.6 3.1-1.3.4-1.2-2.2-1.5-4.5-.5zM349.3 138.6c-.3.8-.1 2 .5 2.6.7.7 1 .2.9-1.6-.2-3-.5-3.2-1.4-1zM545.3 139c.5 3.1 1.7 3.6 1.7.7 0-1.5-.4-2.7-1-2.7-.5 0-.9.9-.7 2zM45.4 139.9c.1 1.3 6.6 4.8 6.6 3.6 0-.4-1.3-1.1-2.9-1.6-1.7-.6-3.2-1.6-3.4-2.2-.2-.7-.3-.6-.3.2zM308.5 138.8c-1.3 1.3-.3 2.2 2 1.9 3.5-.4 4-1.4 1.1-1.9-1.4-.3-2.8-.3-3.1 0zM361.1 139.7c-2.4 2-3.6 6-1.7 6 .7 0 1.2-1.2 1.1-2.6 0-1.6.5-2.6 1.4-2.6.8 0 1.6-.6 1.9-1.3.5-1.7-.2-1.5-2.7.5zM523.1 139.9c-.6 1.1-1.1 2.8-1.1 3.9 0 2.3 2.5 4.8 3.4 3.4.3-.6-.1-1.2-.9-1.6-1.5-.5-2.1-3.7-.8-4.9.3-.4 1.2-.2 2 .4.8.7 1.3.8 1.3.1 0-.5-.6-1.5-1.4-2.1-1.2-1-1.7-.8-2.5.8zM256.1 140.6c0 1.1.3 1.4.6.6.3-.7.2-1.6-.1-1.9-.3-.4-.6.2-.5 1.3zM268 140.1c0 .5.5.7 1 .4.6-.3 1-.8 1-1.1 0-.2-.4-.4-1-.4-.5 0-1 .5-1 1.1zM423.9 140.7c-1.3 1.6-1.2 1.7.4.4 1.6-1.3 2.1-2.1 1.3-2.1-.2 0-1 .8-1.7 1.7zM533 140.5c0 .8.7 1.5 1.6 1.5 1.4 0 1.4-.3.4-1.5-.7-.8-1.4-1.5-1.6-1.5-.2 0-.4.7-.4 1.5zM316.3 145c0 3 .2 4.3.4 2.7.2-1.5.2-3.9 0-5.5-.2-1.5-.4-.2-.4 2.8zM53.6 141.8c-.3.6-.1 1.4.5 1.7 1.5 1 2.5-.3 1.2-1.6-.7-.7-1.3-.7-1.7-.1zM501.1 141.5c.1 1.9 1.8 5.1 1.8 3.5 0-.8-.4-2.2-.9-3-.5-.8-.9-1.1-.9-.5zM43.2 143.2c.3.7 1.3 1.5 2.4 1.7 1.6.3 1.7.1.5-1.3-1.6-1.9-3.4-2.1-2.9-.4z"/><path style="fill:#000000" d="M61.1 143.6c0 1.1.3 1.4.6.6.3-.7.2-1.6-.1-1.9-.3-.4-.6.2-.5 1.3zM249 145.4c0 1.9.5 3.8 1 4.1.6.4 1-.8 1-2.9 0-1.9-.4-3.8-1-4.1-.6-.4-1 .8-1 2.9zM306.4 151c0 5.2.1 7.4.3 4.7.2-2.6.2-6.8 0-9.5-.2-2.6-.3-.4-.3 4.8zM362.9 142.5c-.4.5-.6 3.1-.6 5.8 0 2.6-.4 5.1-.8 5.5-.5.4-.5.1 0-.7.5-1 .4-1.2-.4-.7-.6.4-.9 1.1-.6 1.6.3.5-.2 1.6-1.1 2.4-1.3 1.4-1.4 1.6 0 1.6.8 0 1.8.6 2.2 1.2.4.7.4 1-.1.6-.4-.4-1.6.4-2.7 1.7-3.7 4.8-6.7 1.7-3.2-3.3.8-1.2 1.2-2.2.8-2.2-.3 0-.1-.6.5-1.3.6-.8.7-1.7.3-2.1-.7-.7-.8-1.1-1.1-3.7 0-.7-1.2-.9-2.6-.7-1.4.3-2.5.1-2.5-.6 0-.6-.5-.4-1 .4s-.7 2.3-.4 3.4c.4 1 .2 1.6-.3 1.3-.5-.4-1 0-1 .7 0 1.1.4 1.2 1.9.3 1-.7 1.8-1.6 1.9-2.2.1-.5.4.1.8 1.5s.4 3.6-.1 4.9c-.5 1.4-.6 3.1-.4 3.8.3.8.2 1.2-.3.9-.5-.3-1.5.2-2.2 1.2-1.3 1.5-1.2 1.6.3.4 2.3-1.9 3.5.4 1.3 2.8-1.1 1.2-1.3 2-.6 2.5.6.3 1.1-.1 1.1-.9 0-.9.3-1.5.8-1.5 1.9.3 3.1-.3 6.1-3.1 1.7-1.7 3.1-2.6 3.1-2.2 0 1.3-3.6 5.2-4.3 4.6-.5-.5-2 2.9-2.2 5.1 0 .5-.7.8-1.5.6-.8-.2-2.3-.3-3.2-.3-1 0-1.5-.5-1.2-1.2.3-.7-.1-1.8-.8-2.4-1-.8-1.3-.2-1.3 3 0 3.1-.4 4.2-1.7 4.4-2 .2-2.4-1.6-.8-3.2.6-.6.3-1-.8-1-2 0-2.5 2.3-1 4.3.5.6 1.7 1 2.6.8.9-.2 2-.4 2.4-.4.3-.1.8-.8 1-1.7.2-1.3.8-1.2 3.3.7 1.6 1.3 2.5 1.8 2.1 1.1-.6-.9-.3-1.2 1-1 1.4.2 1.9-.3 1.9-2.1 0-1.3.6-2.6 1.3-2.9.7-.2 1.1.2 1 1-.2.7.3 1.2 1 1 .8-.1 1.1.1.9.5-.3.5.1 1.7.9 2.8 1.2 1.7 1.4.6 1.4-9.1 0-7.1-.4-10.4-1-9.4-.5.8-1.3 1.1-1.7.6-.4-.4 0-1.4 1-2.1 1.5-1.1 1.7-2.5 1.5-7.6-.2-3.5-.6-6-.9-5.4zm-8.9 31.7c0 .6-.6.5-1.5-.2-.8-.7-1.5-1.4-1.5-1.6 0-.2.7-.1 1.5.2.8.4 1.5 1.1 1.5 1.6zm2.7-.7c0 .8-.4 1.2-.9.9-.5-.3-.6-1-.3-1.5.9-1.3 1.2-1.1 1.2.6zM245.1 143.9c-.8.5-.9 1.1-.3 1.5.5.3 1.2-.1 1.6-.9.6-1.7.6-1.8-1.3-.6zM256.2 149.5c.1 4.6.3 5.6.5 3 .3-2.2.9-4.3 1.5-4.6.7-.5.5-1.5-.6-3-1.5-2.3-1.6-2.1-1.4 4.6z"/><path style="fill:#000000" d="M352.5 144.3c-.4 1-.5 2.1-.1 2.4 1 1 1.8-.4 1.3-2.4-.4-1.7-.4-1.7-1.2 0zM421.1 144.4c-.8 1-.9 1.6-.1 2.1.5.3 1 .5 1.1.3.4-1.8.7-3.8.4-3.8-.1 0-.8.6-1.4 1.4zM510.2 146c0 1.9.2 2.7.5 1.7.2-.9.2-2.5 0-3.5-.3-.9-.5-.1-.5 1.8zM546 155.8c0 8.5-.4 13.2-1 13.2s-1 .8-.8 1.7c.2 1.2-.4 1.9-1.9 2.1-1.7.3-2.3-.3-2.6-2.5-.2-1.5-.2-.3 0 2.7.6 6.8 1 7.5 3.3 5.5 1.6-1.4 1.8-1.4 2.3 0 .4.8 1.1 1.5 1.7 1.5.6 0 .4-.7-.4-1.6-.9-.8-1.6-2-1.6-2.6 0-.6-1-.3-2.2.8-2.1 1.7-2.1 1.6.1-.9 2.4-2.7 3.8-3.6 2.6-1.7-.3.5-.2 1 .3 1 1 0 1 0 1.1-18.5 0-7.1-.2-13.1-.4-13.4-.3-.2-.5 5.5-.5 12.7zM330 145c0 .5.5 1 1 1 .6 0 1-.5 1-1 0-.6-.4-1-1-1-.5 0-1 .4-1 1zM554.8 146.5c.2 1.4.6 2.5.8 2.5.2 0 .4-1.1.4-2.5s-.4-2.5-.9-2.5c-.4 0-.6 1.1-.3 2.5zM558 156.6c0 7.1.4 13.4.8 14.1.4.6.7-4.9.6-12.3-.1-7.4-.4-13.7-.8-14.1-.3-.3-.6 5.2-.6 12.3zM309 146.1c0 .5.5.7 1 .4.6-.3 1-.8 1-1.1 0-.2-.4-.4-1-.4-.5 0-1 .5-1 1.1zM401.3 146.5c0 .8.4 1.2.9.9.5-.3.6-1 .3-1.5-.9-1.3-1.2-1.1-1.2.6zM148 150.1c-.2 46.6-.1 51.4.9 51.7 1.6.5 1.4 4.9-.4 7.6-1.4 2.1-1.4 2.4.2 3.7 2.7 2.1 8.9 6.3 8.1 5.4-.4-.4-.3-1.4.3-2.1.6-.8 1.2-2.9 1.4-4.8.1-2.5-.2-3.3-1.4-3.1-.8.1-2.6-1.1-3.9-2.7-2.4-2.8-2.4-2.9-.7-4.8 1-1.1 1.3-2 .7-2-.6 0-1.3.6-1.5 1.2-.3.7-.6.2-.6-1.1-.1-1.3.2-2.1.6-1.8.3.4 1.2-.1 1.9-1 1-1.5 1.3-1.2 2.3 2.7 2.2 8.6 2.9 8.8 2.6.7-.2-4.2-.6-8-.8-8.5-1-1.7-1.8-9-1-9.5.5-.3 1 .8 1.1 2.6.4 4.4 1.2 4.7 1.2.4 0-2-.4-3.9-1-4.2-.5-.3-1-1.2-1-1.8 0-.7.4-.6 1 .3.7 1.1.9-.3.8-4.7-.2-3.3-.6-5.9-.9-5.7-.3.2-1.4-.3-2.4-1-1.4-1-1.5-1.5-.5-2.1.9-.6 1.1-.4.5.6-.5.8-.4 1 0 .6.5-.4 1-1.3 1.1-2 .2-.7.7-2.8 1.3-4.7.9-3.1.9-3.3-.4-1.6-.8 1-1.1 2.4-.8 3 .4.6-.1.5-1.1-.3-.9-.8-1.6-1-1.5-.5.3 1.9-.1 3.4-1 3.4-.6 0-.8-1-.6-2.1.3-1.2.1-2.7-.2-3.3-1.2-1.9-1-4.6.3-4.6.7 0 1.8.8 2.3 1.7 1 1.7 1 1.6 1.1-.2 0-2.9-1.4-4.6-3.7-4.8-1.2 0-1.9-.6-1.6-1.2.2-.7-.3-1.8-1.2-2.5-1.3-1.1-1.5-.7-1.5 3.1zm6 21.8c0 .7.6 1.1 1.5.8.8-.4 1.7-.2 2 .4.4.5.1.8-.7.7-.8-.2-1.2.4-1 1.4.2 1.1-.3 1.8-1.2 1.8-.8 0-1.6.8-1.9 1.7-.2 1-.4.4-.4-1.4 0-1.8-.6-4-1.4-5-1.2-1.4-1.2-1.6 0-.8 1.1.6 1.2.5.5-.6-.4-.8-1-2.3-1.1-3.4-.3-1.8-.1-1.7 1.7.5 1.1 1.4 2 3.1 2 3.9zm-2.8 10.1c-.2 1.1 0 1.1 1.3 0 1.4-1.2 1.6-1 1.3 1.6-.4 3.9-2 4.8-3.5 2.1-1.6-2.9-1.6-6 0-5.4.6.2 1.1 1 .9 1.7zm.5 12.7c-.3 1-.5.4-.5-1.2 0-1.7.2-2.4.5-1.8.2.7.2 2.1 0 3zm3.2 15.2c.9.6 1 1.1.2 1.5-.6.4-1.1.2-1.1-.5s-.3-.9-.7-.5c-.5.4-.1 1.3.8 1.9.9.7 1.6 2 1.6 2.9 0 1.4-.4 1.4-2.3-.5-3.8-3.6-2.6-7.4 1.5-4.8zM422.7 148c-1.4 1.1-2.5 2.9-2.4 4 .2 2.3 1.6 2.7 1.8.5.3-2.8.4-3.3 1.2-3.9.4-.3.5-.3.2 0-.2.4 0 1.5.5 2.5.7 1.2.7 2 0 2.4-.5.3-1 1.1-1 1.8 0 .8.4.7 1.3-.1 1-1.1 2.1-9.2 1.2-9.2-.1 0-1.4.9-2.8 2zM539.8 146.6c-.6.6.1 12.6.8 13.3.2.2.4-2.8.4-6.7 0-7.1-.1-7.7-1.2-6.6zM45.5 148.1c-.4.6-.5 1.2-.2 1.5.2.3.7-.2 1-1.1.7-1.7.1-2-.8-.4zM271.2 149c0 1.4.2 1.9.5 1.2.2-.6.2-1.8 0-2.5-.3-.6-.5-.1-.5 1.3zM416.9 147.2c-.5 1.8-.6 3.8-.1 3.4.7-.8 1.2-3.6.6-3.6-.2 0-.4.1-.5.2zM514.8 150.7c.4 5.8 1.3 10.3 2.3 10.9 1.2.7 1.1-1.9-.3-8.8-1.4-6.6-2.4-7.7-2-2.1z"/><path style="fill:#000000" d="M544.1 148.6c0 1.1.3 1.4.6.6.3-.7.2-1.6-.1-1.9-.3-.4-.6.2-.5 1.3zM309 149.3c0 .7.5 1.8 1.2 2.5.9.9.9 1.2 0 1.2-.7 0-1.2.8-1.2 1.7.1 1.6.2 1.6 1.5-.1 2-2.6 1.9-6.6 0-6.6-.8 0-1.5.6-1.5 1.3zM502.6 149.5c.4.8.8 1.5 1 1.5.2 0 .4-.7.4-1.5s-.4-1.5-1-1.5c-.5 0-.7.7-.4 1.5zM241 154.1c0 2.9.2 5 .4 4.8.9-.9 1.3-9 .5-9.5-.5-.3-.9 1.8-.9 4.7zM324.2 151c0 1.4.2 1.9.5 1.2.2-.6.2-1.8 0-2.5-.3-.6-.5-.1-.5 1.3zM50.8 150.7c.6.2 1.8.2 2.5 0 .6-.3.1-.5-1.3-.5-1.4 0-1.9.2-1.2.5zM62.2 152.5c0 1.6.2 2.2.5 1.2.2-.9.2-2.3 0-3-.3-.6-.5.1-.5 1.8zM157.3 151.9c0 1.1.5 1.8.9 1.5.4-.3.5-1.1.1-1.9-.7-2.1-1.2-1.9-1 .4zM36.8 151.7c.7.3 1.6.2 1.9-.1.4-.3-.2-.6-1.3-.5-1.1 0-1.4.3-.6.6zM246.7 152.5c-.4.8-.2 1.7.3 2 .6.4 1 .4 1 .1 0-.2.3-1.1.6-2 .3-.9.2-1.6-.4-1.6-.5 0-1.2.7-1.5 1.5zM401.9 152.7c-1.3 1.6-1.2 1.7.4.4 1.6-1.3 2.1-2.1 1.3-2.1-.2 0-1 .8-1.7 1.7zM534.2 153.5c-.1 1.6-.2 5.1-.4 7.7-.2 3.1.1 4.9 1 5.3.6.2 1.2 0 1.2-.6s.4-.8.9-.5c.5.3 1.5-.2 2.2-1.2 1.3-1.5 1.2-1.6-.3-.4-1.4 1.1-1.8 1-2.8-.8-1.5-2.7-.9-7.6.8-7.2.8.1 1.1-.2.7-.8-.3-.6-1-.8-1.5-.5-.5.3-1.1-.5-1.3-1.7-.4-1.8-.5-1.6-.5.7zM51.7 153.1c-.9.6-2.1.8-2.6.4-.5-.3-1.2-.1-1.6.5-.4.6.6 1 2.4 1 1.6 0 3.3-.5 3.6-1.1 1-1.5.2-1.9-1.8-.8zM271 158.7c-.3 4-.1 6.8.3 6.4.4-.4.7-3.7.5-7.2l-.3-6.4-.5 7.2zM314 154.4c0 2.2.3 2.7 1.1 1.9.8-.8.8-1.6 0-3-.9-1.6-1-1.4-1.1 1.1zM260.6 153.8c-.3.5.1.9.9.9s1.2-.4.9-.9c-.3-.4-.7-.8-.9-.8-.2 0-.6.4-.9.8zM394.6 153.8c-.3.5.1.9.9.9s1.2-.4.9-.9c-.3-.4-.7-.8-.9-.8-.2 0-.6.4-.9.8zM267 155.6c0 .8.5 1.2 1 .9.6-.3 1-1 1-1.6 0-.5-.4-.9-1-.9-.5 0-1 .7-1 1.6zM303 155c0 .5.5 1 1.1 1 .5 0 .7-.5.4-1-.3-.6-.8-1-1.1-1-.2 0-.4.4-.4 1zM318.3 156.2c-1.9 2.2-1.9 2.4-.2 4 1.6 1.5 1.7 1.4 2.1-2.3.2-2.1.3-3.9.3-3.9-.1 0-1.1 1-2.2 2.2zM328 155c-1.3.9-1.3 1.1 0 2 1.5 1 2.5 0 1.8-2-.2-.6-.8-.6-1.8 0zM417.1 154.7c.1.4-.1 1.6-.6 2.6-.9 2-.1 3.2 1.4 2.2 1.4-.8 1.4-4.2.1-5-.6-.4-1-.3-.9.2zM283 155.9c0 .6.4 1.3 1 1.6.6.3.7-.1.4-.9-.7-1.8-1.4-2.1-1.4-.7zM49.8 156.7c.6.2 1.8.2 2.5 0 .6-.3.1-.5-1.3-.5-1.4 0-1.9.2-1.2.5zM61.1 158.4c-.7 1.3-1.1 3.2-.8 4.2.3 1.4.5 1.3.6-.7 0-1.4.6-3 1.3-3.7.6-.6.9-1.4.7-1.7-.3-.3-1.1.6-1.8 1.9zM309.6 157c-1.5.5-1.6.9-.7 1.4.7.5 1.8.3 2.4-.3 1.4-1.4.6-2-1.7-1.1zM519.6 159.1c.9 4.5 1 4.5 2.3.8.6-1.8.8-3 .5-2.6-.4.4-1.3.2-2.1-.4-1.1-.9-1.2-.5-.7 2.2zM246.7 159.1c-.4 1.6-.3 1.8.9.8.7-.6 1.1-1.5.8-2-.8-1.3-1.1-1.1-1.7 1.2z"/><path style="fill:#000000" d="M536.5 158c-.3.5-.1 1 .4 1 .6 0 1.1-.5 1.1-1 0-.6-.2-1-.4-1-.3 0-.8.4-1.1 1zM554.6 158.5c.4.8.8 1.5 1 1.5.2 0 .4-.7.4-1.5s-.4-1.5-1-1.5c-.5 0-.7.7-.4 1.5zM47.7 159.8c1.1.8 1.9.9 2.1.2.2-.5.9-.7 1.4-.4.7.4.8.2.4-.4-.4-.7-1.8-1.1-3.2-1-2.3.2-2.4.3-.7 1.6zM323.4 159.4c-.3.8-.4 2.3-.2 3.3.3 1.1.6.6.9-1.5.6-3.4.2-4.2-.7-1.8zM348.4 160.5c0 1.9.3 2.2 1.3 1.3 1-.8 1-1.4.2-2.4-1.5-1.8-1.5-1.8-1.5 1.1zM374.9 158.2c-.8 2.6-.4 3.4 1.7 3.4 2.2 0 2.2-.1.7-1.8-1.5-1.7-2.2-2.1-2.4-1.6zM300.9 161.8c0 1.5-.1 5.6-.2 9.1-.1 4.2.2 6.6 1 6.8.8.3 1.2-1.5 1.2-6.1 0-3.6.5-7.4 1-8.5 1.5-2.6 1.4-2.8-.9-3.4-1.6-.4-2 0-2.1 2.1zM312.9 160.7c-1.3 1.6-1.2 1.7.4.4 1.6-1.3 2.1-2.1 1.3-2.1-.2 0-1 .8-1.7 1.7zM392.5 160.1c-.4.6-.5 1.2-.2 1.5.2.3.7-.2 1-1.1.7-1.7.1-2-.8-.4zM57 161c-.9.6-1 1-.3 1 .6 0 1.5-.5 1.8-1 .8-1.2.4-1.2-1.5 0zM258 162.1c-1.1 1.9-.9 2.4 1.1 4 2.4 1.8 5.9 1.3 6.7-1 .3-.9-.3-.8-1.9.2-2.1 1.4-2.7 1.4-4.3.2-1.6-1.2-1.7-1.7-.6-3 .7-.8 1-1.8.7-2.1-.3-.3-1.1.4-1.7 1.7zM266 161.1c0 .5.5.7 1 .4.6-.3 1-.8 1-1.1 0-.2-.4-.4-1-.4-.5 0-1 .5-1 1.1zM424.2 161.3c-1.7 2-2.2 5.1-1.1 6.8.6 1 .9 1.1 1 .1.2-1.6.4-2.4 1.3-4.4 1.2-2.6.3-4.3-1.2-2.5zM46.9 162.6c-1.3 1.6 3.8 1.1 5.4-.5.8-.8.4-1.1-1.7-.9-1.5.1-3.2.8-3.7 1.4zM555.2 169.3c-.2 7.2-.6 9.3-2.4 11.7-1.8 2.5-2.4 2.8-4.2 1.7-1.2-.6-2.4-1-2.8-.9-.5.1-.8-.3-.8-.8 0-.6-.5-1-1.1-1-.8 0-.8.5.1 1.5.7.8 1.6 1.3 2 1 .4-.3 1 .2 1.4 1 .9 2.4 3.9 1.7 6.4-1.5 2.1-2.6 2.2-3.8 1.9-12.2l-.3-9.3-.2 8.8zM36.3 164.1c-.2 2.3.3 2.5 1 .4.4-.8.3-1.6-.1-1.9-.4-.3-.9.4-.9 1.5zM39 162.9c0 .6.7 1.1 1.5 1.1s1.5.9 1.5 2-.7 2-1.5 2-1.5.4-1.5 1c0 .5.5.9 1.2.7.6-.1 1.4.6 1.6 1.5.4 2-1 2.3-3.9.8-1.6-.9-1.9-.7-1.9 1 0 2.1 0 2.2 4.3 2.4l2.8.2-.3-6.5c-.2-5.3-.6-6.6-2-6.9-1-.2-1.8.1-1.8.7zM443.1 162.9c-1 .6-.9 1 .3 1.4.8.3 1.8.2 2.1-.3.8-1.3-.9-2-2.4-1.1zM53.6 163.8c-.2.4-.1 1.4.5 2.2.7 1.2.9 1 .9-.8 0-2.3-.5-2.8-1.4-1.4zM123.2 165c0 1.4.2 1.9.5 1.2.2-.6.2-1.8 0-2.5-.3-.6-.5-.1-.5 1.3zM170.5 164c-1.1.5-1.4.9-.6.9.8.1 1.1.7.7 1.7-.3.8-.2 1.3.3 1 .7-.5 2.4-4.8 1.8-4.5-.1 0-1.1.4-2.2.9zM174.1 164.4c-.9 1.1-.9 1.6.1 2.2.7.4 1 .4.6-.1-.4-.4-.3-1.4.3-2.2.6-.7.9-1.3.6-1.3-.2 0-1 .6-1.6 1.4zM309.1 164.6c0 1.1.3 1.4.6.6.3-.7.2-1.6-.1-1.9-.3-.4-.6.2-.5 1.3zM317 163c-.8 2.6-.7 4.1.2 3.2.6-.6.8-1.6.5-2.4-.3-.7-.6-1.1-.7-.8zM420.7 163.7c-.4.3-.7 1.3-.7 2.1 0 1.8 1.3.7 1.6-1.3.2-1.7.1-1.8-.9-.8zM438.5 164c-.3.5-.2 1 .4 1 .5 0 1.3-.5 1.6-1 .3-.6.2-1-.4-1-.5 0-1.3.4-1.6 1zM250 164.4c0 .2.8 1 1.8 1.7 1.5 1.3 1.6 1.2.3-.4s-2.1-2.1-2.1-1.3zM374.6 165.2c.3.5.9.7 1.2.4.3-.3 1.1-.1 1.8.5.8.7 1.4.7 1.9-.1.4-.6.3-1-.2-.9-.4.1-1 0-1.3-.1-2-.7-3.9-.7-3.4.2zM384.3 165.5c0 .8.4 1.2.9.9.5-.3.6-1 .3-1.5-.9-1.3-1.2-1.1-1.2.6zM544.2 166c0 1.4.2 1.9.5 1.2.2-.6.2-1.8 0-2.5-.3-.6-.5-.1-.5 1.3zM49.8 166.7c-1.8 2.2-3 6.3-1.7 6.3.5 0 .9-1 .9-2.2 0-1.2.7-3 1.7-4 .9-1 1.4-1.8 1.1-1.8-.3 0-1.2.8-2 1.7z"/><path style="fill:#000000" d="M417.3 166.1c-.7.7-1.3 1.8-1.3 2.3 0 .6.5.4 1-.4.7-1.1 1-.4 1 2.5 0 2.3-.5 4.6-1 5.1-.7.7-.6 1.1.4 1.1.8 0 1.3-.4 1-.8-.2-.4.4-1.3 1.5-1.8 2.5-1.4 3.1-1.4 3.1 0 0 .5-.5.7-1 .4-1.4-.8-3 3.7-1.9 5.1.5.6.5 1.5.1 2-.4.4.1.2 1.1-.5 1.2-1 1.5-1.7.7-2.5-1.2-1.2-1.4-3.7-.2-3.4 1.6.3 4.2-1.5 4.2-3.1s-4.4-4.3-5.5-3.3c-.3.3-.6 1.5-.7 2.6 0 1.2-.4.2-.7-2.2-.5-3.5-.8-4.1-1.8-3.1zM549.8 165.7c.7.3 1.6.2 1.9-.1.4-.3-.2-.6-1.3-.5-1.1 0-1.4.3-.6.6zM313.7 166.6c-.4.4-.7 1.4-.7 2.3 0 1.1.3 1.2 1.1.4.6-.6 1-1.6.7-2.3-.2-.6-.7-.8-1.1-.4zM342.5 167.9c.3 2.1 3.1 2.2 3.2 0 .1-1.1-.5-1.7-1.6-1.6-1 0-1.8.8-1.6 1.6zM270.5 167.9c-.3.6-1 .9-1.4.7-.3-.3-.7.4-.7 1.4 0 1.8.1 1.8 1.9-.1 1.1-1.1 1.7-2.3 1.4-2.5-.3-.3-.8 0-1.2.5zM310.2 169.5c0 1.6.2 2.2.5 1.2.2-.9.2-2.3 0-3-.3-.6-.5.1-.5 1.8zM399.2 168c.2.8-.2 1.4-.9 1.5-2.4.1-2.5 1.5-.1 1.5 2.6 0 3.3-1.9 1.4-3.7-.4-.4-.6-.1-.4.7zM371.3 169.7c0 .9.4 1 1.3.2.8-.7 1.4-.6 1.7.3.4.9.6.9.6-.2.1-1.2.3-1.2.9-.2.5.7 1.6 1 2.5.6 3-1.1 1.8-2-2.6-2-2.9 0-4.4.5-4.4 1.3zM452.6 170.6c-1.5 2.1-1.2 3.4.7 3.4.5 0 .7-.6.5-1.2-.3-.7.4-2 1.5-2.9 1.7-1.3 1.8-1.6.4-1.6-.9 0-2.3 1-3.1 2.3zM175 169.5c0 .7 3 1.3 3.4.7.3-.4-.4-.9-1.5-.9-1-.1-1.9 0-1.9.2zM306.1 170.8c0 1.3-.5 2.1-1 1.8-.5-.4-.7.3-.4 1.5.8 3 2.5.7 2-2.7-.3-2.3-.4-2.4-.6-.6zM308.2 171c0 1.4.2 1.9.5 1.2.2-.6.2-1.8 0-2.5-.3-.6-.5-.1-.5 1.3zM384 170c0 .5-.6.9-1.2.7-1-.1-1.3 3.1-1.4 13-.1 7.9.2 13.3.8 13.3.5 0 .6-.6.2-1.3-.6-.9-.3-.8.9.1 1.7 1.4 6.4 1.4 8.4-.1.6-.4 1.4-.3 1.8.3.9 1.4 6.5 1.3 6.5-.3 0-.9.2-.9.8.1.9 1.3 4.6 1.2 5.9-.3.5-.4.2-.5-.4-.1-.9.5-1.1-.3-.7-3.4l.6-4-4.4.1c-2.9.2-3.4.3-1.5.6 1.5.3 2.7 1.1 2.7 1.9 0 .8.4 1.3.9 1 .5-.4.7.4.4 1.5l-.6 2.1-1.2-2.2-1.2-2.3-2.3 2.3c-1.8 1.8-2.4 2-3.1.9-.5-.8-.9-1.6-.9-2 0-.3-1.1-.5-2.4-.5-1.4 0-2.2.5-1.9 1.1.6 1.6-2.3 3.9-3.2 2.5-.3-.5-.1-1 .5-1s.8-.5.4-1.1c-.4-.8-1.1-.4-1.9 1.1l-1.2 2.2-.6-2.2c-.3-1.2-1-2-1.4-1.7-.5.3-.9-.8-.8-2.4 0-3.3-.8-3.1 13.3-3 5.6 0 10.2-.3 10.3-.7.5-4.2.4-7.4-.3-8.4-.5-.9-.8-.9-.8-.2s-.7 1.5-1.6 1.8c-.8.3-1.2.2-.9-.3.3-.5 0-1.3-.6-1.7-.8-.5-.9-.3-.4.6.6 1 .4 1.2-.8.7-.9-.3-1.9-.2-2.2.3-.4.6-1.1 1-1.6 1-.6 0-.8-.4-.4-.9.6-1-2.7-.7-4.4.3-.5.4-1.2 0-1.4-.6-.4-1-.6-1-.6-.1-.1.7-.6 1.3-1.2 1.3-.5 0-.8-.4-.5-.9.4-.5-.2-.8-1.1-.7-2.2.4-4.8 4.2-3.4 5.1 1 .6 1.6-.8 1.2-2.9-.1-.5.4-.4 1.1.2.9.7 1.9.7 2.8.2.9-.6 1.7-.5 2.2.3.6.9.8.9.8-.1 0-.6.5-1.2 1.1-1.2.5 0 .8.4.4.9-.3.5-.1 1.2.4 1.6.6.3.8-.4.6-1.5-.2-1.1 0-1.8.5-1.5 1.5.9.3 4-1.5 3.7-1.2-.2-1.5.1-.9 1 .5.9.2.8-1.1-.2-1-.8-1.6-1-1.2-.3.4.6.3 1.5-.3 1.8-.6.4-1 .3-.9-.2.6-3.5-1.6-4.1-3.9-1-2.1 2.8-2.9 1.2-2.9-5.4 0-4.6.3-5.8 1.1-4.8 1.6 2 5.4 2 5.1 0-.1-.9-.7-1.7-1.3-1.7-.7-.1-1.6-.2-2.2-.3-.5 0-.7-.8-.4-1.6.4-.8.3-1.5 0-1.5s-.6.4-.6 1zm3.5 3.3c.4-.5.5-.2.1.5-.8 1.3-3.9.2-5.2-1.9-.3-.6.5-.4 1.8.5 1.4.9 2.8 1.3 3.3.9zm13.1 8.3c.1.9 0 1.3-.3 1-.4-.3-1.2-.1-1.9.5-1.4 1.2-1.4-.7 0-2.9.9-1.5 1.9-.9 2.2 1.4zm-7.1 11.4c.3.5.1 1-.4 1-.6 0-1.1-.5-1.1-1 0-.6.2-1 .4-1 .3 0 .8.4 1.1 1zM549 170.5c0 .8.7 1.5 1.5 1.5s1.5-.7 1.5-1.5-.7-1.5-1.5-1.5-1.5.7-1.5 1.5zM272.1 171.5c-1 6.8-1 9.9 0 8.2.6-.9.8-3.6.6-6-.2-2.3-.5-3.3-.6-2.2zM535.5 172c-.3 1.1-1.4 2-2.3 2-1.5 0-1.5.2-.2 1 3 2 5 1.2 5-2 0-3.4-1.5-4-2.5-1zM440.1 172.4c-.8 1-.9 1.6-.1 2.1.5.3 1 .5 1.1.3.4-1.8.7-3.8.4-3.8-.1 0-.8.6-1.4 1.4zM134.6 173.2c.3.5 1 .6 1.5.3 1.3-.9 1.1-1.2-.6-1.2-.8 0-1.2.4-.9.9zM181.5 173c-.3.5-.2 1 .2 1.2 1.3.7 3.3.3 3.6-.6.3-1.2-3.1-1.7-3.8-.6zM373.4 173.1c-.8 1.4 1.4 1.9 2.5.6.8-1 .7-1.4-.5-1.4-.8 0-1.7.4-2 .8z"/><path style="fill:#000000" d="M390.3 174.1c-.2 2.6 6.3 2.4 7-.2.6-2.2-1.2-2.5-3.2-.7-1 .9-1.2.9-.7.1.4-.7 0-1.1-1.2-1-1 0-1.9.9-1.9 1.8zM404.5 173.1c-.4.6-.3 1.5.3 2.1.6.6 1.1.4 1.5-.6.7-1.8-.9-3.1-1.8-1.5zM443.4 172.7c.3.4.1 1.2-.5 1.9-.7.8-.7 1.4.1 1.9.5.3 1-.1 1-.9 0-.9.3-1.5.8-1.4.4.2.9-.1 1.2-.6.3-.5-.3-1-1.3-1.2-1.1-.1-1.6 0-1.3.3zM127.6 174.2c.3.5 1 .6 1.5.3 1.3-.9 1.1-1.2-.6-1.2-.8 0-1.2.4-.9.9zM173.4 173.8c.4.3 1.4.7 2.2.8.9.1 1.3 0 1-.4-.4-.3-1.4-.7-2.2-.8-.9-.1-1.3 0-1 .4zM379 173.9c0 .7-.5.9-1.2.5-.7-.5-.8-.3-.3.5.5.9 1 1 1.8.2.6-.6.8-1.4.4-1.8-.4-.3-.7-.1-.7.6zM549 173.9c0 2 1.3 4.1 2.1 3.5 1.5-.9 1-4.4-.6-4.4-.8 0-1.5.4-1.5.9zM121.2 176c0 1.4.2 1.9.5 1.2.2-.6.2-1.8 0-2.5-.3-.6-.5-.1-.5 1.3zM135 175.9c0 .5-1 .7-2.2.3-1.3-.3-1.9-.1-1.5.6.9 1.3 4 .9 4.5-.6.2-.7.1-1.2-.2-1.2-.3 0-.6.4-.6.9zM170 176.2c0 1.5 4.2 1.9 5.5.6.4-.4-.1-.5-1.2-.4-1 .2-2.4-.1-3-.7-.9-.7-1.3-.5-1.3.5zM123 177c0 .5.5 1 1.1 1 .5 0 .7-.5.4-1-.3-.6-.8-1-1.1-1-.2 0-.4.4-.4 1zM180.6 176.8c-.3.5.1.9.9.9s1.2-.4.9-.9c-.3-.4-.7-.8-.9-.8-.2 0-.6.4-.9.8zM190.8 176.7c.7.3 1.6.2 1.9-.1.4-.3-.2-.6-1.3-.5-1.1 0-1.4.3-.6.6zM174 180c0 .5.6 1 1.4 1 .7 0 1.9.7 2.6 1.5 1 1.2 1.6 1.3 2.6.4 1.1-.9 1.4-.9 1.4 0 0 .8.6.9 1.8.2 1-.5 2.4-.6 3.3-.1 1.1.6 1.6.5 1.6-.5 0-2.5-6.2-4.1-8.6-2.1-.8.6-1.7.9-2 .8-3.2-1.9-4.1-2.2-4.1-1.2zm12.5 1.2c.3.3-.7.4-2.2.4-1.6-.1-3.3.2-4 .7-.6.4-1.4.3-1.9-.4-.4-.7-.3-.9.4-.5.6.3 1.3.2 1.6-.3.6-1 5.1-.9 6.1.1zM447.3 187.4l.1 8.6h4.8c3.6 0 4.8-.4 4.8-1.5 0-.8.4-1.5.8-1.5 1.3 0 .8-3.6-.8-5.4-1.4-1.8-2.3-1.4-2.6 1-.2 1 .2 1.2 1 .7.6-.4 0 .2-1.4 1.5-1.4 1.2-2.4 2.7-2.3 3.2.2.5-.4.7-1.2.4-.8-.4-1.5-1.6-1.6-2.8-.1-4.3-.9-12-1.3-12.3-.2-.2-.3 3.4-.3 8.1zM559 180.1c0 .5.5.7 1 .4.6-.3 1-.8 1-1.1 0-.2-.4-.4-1-.4-.5 0-1 .5-1 1.1zM110.3 180.7c.9.2 2.5.2 3.5 0 .9-.3.1-.5-1.8-.5-1.9 0-2.7.2-1.7.5zM119.8 180.7c.7.3 1.6.2 1.9-.1.4-.3-.2-.6-1.3-.5-1.1 0-1.4.3-.6.6zM128.8 180.7c.7.3 1.6.2 1.9-.1.4-.3-.2-.6-1.3-.5-1.1 0-1.4.3-.6.6zM424.3 181.7c-.7.3-1.3 1.4-1.3 2.6 0 1.6-.3 1.8-.9.9-.6-1-1-.8-1.4 1-1 3.4-.8 9.8.2 9.8 1.2 0 2.1-3.9 1-4.6-.5-.3-.9-1.3-.8-2.2 0-1.1.2-1.3.6-.4.3.8 1.3-.1 2.5-2.3 2-3.9 2.1-5.5.1-4.8zM488.2 182.2c-.7.7-1.2 1.6-1.2 2.2 0 .5.3.6.7.3.3-.4 1.2-.2 2 .4.9.9 1.3.8 1.3 0 0-.6-.5-1.1-1.1-1.1-.6 0-.9-.7-.5-1.5.7-1.8.4-1.9-1.2-.3zM557 181.8c0 .4 1 1.3 2.3 2.1 2.2 1.4 2.2 1.4.3-.8-2-2.2-2.6-2.5-2.6-1.3zM135.7 182.7c-.4.3-.7 1.6-.8 2.7 0 2.1-.1 2.1-.9.1-.7-1.7-.9-1.7-.9-.3-.1 1-.8 1.8-1.7 1.8-.9 0-1.4.6-1.1 1.3.3.8.1 2-.4 2.8-.6 1-.9.6-.9-1.4 0-1.6-.4-2.6-1-2.2-.5.3-1 1.3-1 2.1 0 1.8-2.4 4.5-3.4 3.9-.3-.3 0 .3.8 1.2.9.9 2.9 1.7 4.5 1.8 1.7.1 3.4.4 3.7.8.4.4-6.4.7-15.1.7s-15.5.3-15.1.7c.4.5 3.6.8 6.9.8 4.8 0 6.1.3 5.9 1.4-.2 1.1 0 1.2 1.1.3 1-.9 1.6-.9 2.5 0 2.1 2.1 1.3 2.5-4 2.4-4.1-.1-5.3.2-5.3 1.4 0 .9 1 1.5 2.3 1.6 3.4.2 4 1.4.7 1.4-4.7 0-1.5 1.8 3.5 2 2.5.1 5 .1 5.6.1 1.4-.1 2.4-7 1.2-7.7-.4-.3-.8 0-.8.7s-.2 1-.5.7c-1.1-1.1.8-3.8 2.7-3.8 1.1 0 1.6.4 1.3 1.1-.4.6.3.5 1.4-.3 1.8-1.1 2.3-1.1 3.1.2.6 1 1 1.1 1 .2 0-.6.4-1.2.8-1.2s.8 2 .8 4.5c-.1 2.8-.4 4.1-1 3.5-1.5-1.5-2.6-1.2-2.6.6 0 .8.5 1.2 1 .9.6-.3 1-.1 1 .4 0 1.9-2.2 1.2-2.7-.9-.3-1.1-1.4-2-2.4-2-1.9 0-2 .3-2.1 10-.1 6.1-.3 6 6.8 6h6.5l-.3-12.5c-.2-10-.6-12.5-1.8-12.9-1.2-.3-1.1-.4.2-.5 1.4-.1 1.6-1.2 1.5-7.6 0-4.1-.2-7.5-.2-7.5-.1 0-.5.3-.8.7zm-1.3 6.1c.3.5-.1.9-.9.9s-1.2-.4-.9-.9c.3-.4.7-.8.9-.8.2 0 .6.4.9.8zm.8 13c-.9.3-1 .8-.3 1.6.6.7.6 1.7.1 2.6-1 1.5-1.2 1-1.2-2.5 0-3 .2-3.6 1.4-2.9.9.6.9.9 0 1.2zm-16.2 5.4c0 .4-.7.8-1.5.8s-1.5-.4-1.5-.8c0-.5.7-.9 1.5-.9s1.5.4 1.5.9zm14.3 11.3c-.3.9-.8 1.4-1 1.1-.3-.3-.2-.9.2-1.5.9-1.6 1.5-1.3.8.4z"/><path style="fill:#000000" d="M124.2 186c0 1.9.2 2.7.5 1.7.2-.9.2-2.5 0-3.5-.3-.9-.5-.1-.5 1.8zM329 183.9c0 .6.4 1.3 1 1.6.6.3.7-.1.4-.9-.7-1.8-1.4-2.1-1.4-.7zM417.5 183.8c.2.3 0 1.3-.5 2.3-.6 1.1-.6 2-.1 2.4.7.4.8 6 .1 6-.1 0-.4 1.1-.6 2.4-.2 1.4-.2 2.2.2 1.9.3-.3.6-1.2.8-2 .1-.7.4-1.8.8-2.3.3-.6.5-2.1.4-3.5-.1-1.4.1-3.7.5-5.1.5-1.8.3-2.6-.7-2.6-.8 0-1.2.2-.9.5zM310.6 184.8c-.3.5.1.9.9.9s1.5-.4 1.5-.9c0-.4-.4-.8-.9-.8-.6 0-1.2.4-1.5.8zM450.6 185.3c.3 1 .9 1.5 1.2 1.2.3-.3 0-1.1-.7-1.8-1-.9-1.1-.8-.5.6zM499.6 185.7c-.6 1.4-.5 1.5.5.6.7-.7 1-1.5.7-1.8-.3-.3-.9.2-1.2 1.2zM553.5 184.7c.4.8 0 1.3-.9 1.3-2.1 0-2 1.6.1 2.4.9.4 2 .1 2.4-.6.9-1.3 1.4-.3 2.1 3.7.3 1.8.4 1.8 1.1.2.4-1.2-.3-2.7-2.4-5-1.7-1.7-2.8-2.6-2.4-2zM169.5 186c.4.6 1 .8 1.5.5.4-.3 1.4.3 2.1 1.3.7.9.9 1.4.5 1-.5-.4-1.5-.3-2.3.4-.9.7-1.3.8-1.1.1.2-.6-.1-1.3-.6-1.5-.5-.1-1 .5-1.2 1.4-.1 1 .2 1.8.8 1.8.6 0 .8.7.4 1.5-.4 1 .1 1.5 1.6 1.5 1.7 0 1.8-.3.8-1.5-1.5-1.8-.5-3.5 2-3 1 .2 2.5-.4 3.2-1.3 1.1-1.3 1.1-1.5-.4-.9-1 .3-1.9.3-2.2-.2-.3-.4 1.4-.7 3.8-.7 2.9 0 4.3.4 4.3 1.3s-.4 1-1.1.3c-1.4-1.4-2.9-1.3-2 .2.4.6.3.8-.4.4-1.2-.7-2.5 1-2.7 3.5-.1 1 .5 1.6 1.4 1.4.9-.1 1.5-1 1.3-2.1-.2-1.6.1-1.5 1.7.6 1.1 1.4 2.1 2.2 2.2 1.7.1-.4.3-1.2.4-1.7.1-.6.3-1.5.4-2.1 0-.5.5-.8.9-.5.4.2.8-.5.8-1.8 0-2.1-.4-2.2-8.3-2.4-5.3-.1-8.2.2-7.8.8zM186.5 185.9c-.3.5-.1 1.2.4 1.5.5.3 1.1-.1 1.5-.9.6-1.6-.9-2.1-1.9-.6zM507.5 186l-3 .8 3.3.1c1.7 0 3.2-.4 3.2-.9 0-.6-.1-.9-.2-.9-.2.1-1.6.5-3.3.9zM560.1 187.6c0 1.1.3 1.4.6.6.3-.7.2-1.6-.1-1.9-.3-.4-.6.2-.5 1.3zM113.8 187.7c.7.3 1.6.2 1.9-.1.4-.3-.2-.6-1.3-.5-1.1 0-1.4.3-.6.6zM314.6 187.8c-.2.4-.1 1.4.5 2.2.7 1.2.9 1 .9-.8 0-2.3-.5-2.8-1.4-1.4zM424.6 188.5c-.3.9-.6 2.4-.5 3.3 0 .9.5.4 1-1.2.9-3.2.6-4.8-.5-2.1zM318.8 188.7c.7.3 1.6.2 1.9-.1.4-.3-.2-.6-1.3-.5-1.1 0-1.4.3-.6.6zM324.8 188.7c.7.3 1.6.2 1.9-.1.4-.3-.2-.6-1.3-.5-1.1 0-1.4.3-.6.6zM329.3 188.7c.9.2 2.3.2 3 0 .6-.3-.1-.5-1.8-.5-1.6 0-2.2.2-1.2.5zM383.6 189.7c-.3.6.2 1.7 1 2.4 1.2 1 1.5 1 1.2-.2-.2-.8.7-1.5 2-1.7 1.2-.2 2.2-.7 2.2-1.2 0-1.2-5.9-.7-6.4.7zM392 189.2c0 .4.4.8.9.8.6 0 1.2-.4 1.5-.8.3-.5-.1-.9-.9-.9s-1.5.4-1.5.9zM113.5 190.3c-.4 1-.5 2.1-.1 2.4 1 1 1.8-.4 1.3-2.4-.4-1.7-.4-1.7-1.2 0z"/><path style="fill:#000000" d="M117.7 189.7c-.4.3-.7 1.7-.7 2.9 0 2.3-.2 2.3-11.7 2.7l-11.8.3 12.2.2 12.1.2.7-3.1c.7-3.1.4-4.4-.8-3.2zM241.8 192.4c-.4 3.3-.2 3.4 2.9 3.4 1.8 0 3.3-.3 3.4-.7 0-.3.2-1.7.5-3.1.3-1.7.1-2.1-.5-1.1-.7 1.1-1.1 1-2-.5-1-1.7-1-1.6-.7.6.2 1.4.9 2.4 1.6 2.2.6-.1.9.2.6.7-.3.5-1.4.7-2.5.4-1.2-.3-1.7-1.2-1.5-2.9.1-1.3-.1-2.4-.6-2.4-.4 0-1 1.5-1.2 3.4zM450.4 191.1c0 1.3.3 1.5 1.3.7.7-.6 1.3-1.4 1.3-1.8 0-.3-.6-.7-1.3-.7-.7 0-1.3.8-1.3 1.8zM459.9 190c-.3 2-.4 2.5-1.1 3.6-1 1.5 0 2.4 2.5 2.4 1.9 0 1.9-.1.2-2.6-.9-1.5-1.2-2.4-.7-2 .6.3 1.3.2 1.6-.3.3-.5-.1-1.1-.9-1.5-.8-.3-1.6-.1-1.6.4zM310.5 190.9c-.6 1.1.9 2.3 1.9 1.4.9-.9.7-2.3-.3-2.3-.6 0-1.2.4-1.6.9zM322.4 191.2c.3 1.7 3.6 2.3 3.6.8 0-.7-.6-1-1.4-.7-.8.3-1.7.2-2-.4-.2-.5-.3-.4-.2.3zM560.2 192.5c0 1.6.2 2.2.5 1.2.2-.9.2-2.3 0-3-.3-.6-.5.1-.5 1.8zM120 193.6c-1.3 3.2-1.3 3.1.5 3.1 1 0 1.5-1 1.5-2.9 0-3.5-.8-3.6-2-.2zM211.7 192.2c.7.8.9 1.9.5 2.4-.4.4 0 .3.9-.4.9-.6 1.8-1.1 2-.9.2.1.3 0 .1-.3-.2-.3-.7-.5-1-.5-.4 0-1.4-.4-2.2-1-1.2-.7-1.3-.6-.3.7zM317.9 191.1c-.5 2.5-.4 5.1.3 5.5.5.3.8.2.7-.3-.1-.4-.1-1.5 0-2.3.1-1.3.2-1.3 1.1 0 .5.8 1 1 1 .4 0-1.1-2.9-4.1-3.1-3.3zM328.4 193.4c-.9 2-.9 2.6.3 3 3.2 1.2 4.3.6 4.3-2.4 0-3.8-3-4.1-4.6-.6zM253.3 194.1c-.2 1.9 1.1 2.6 2.1 1 .3-.5 0-1.4-.7-1.9-1-.8-1.3-.6-1.4.9zM315.2 199.5c0 6.6.2 7.2.8 3.7.3-2.4.3-6-.1-8-.5-2.8-.7-1.6-.7 4.3zM356 194.4c0 3.1.6 3.4 1.3.6.3-1.1.1-2.3-.4-2.6-.5-.3-.9.6-.9 2zM89.3 194.5c0 .6.9 1.1 1.9 1.1 1 0 1.8-.5 1.8-1.1 0-.6-.8-1.1-1.8-1.1s-1.9.5-1.9 1.1zM261.6 193.8c-.3.6-.1 1.4.5 1.7 1.5 1 2.5-.3 1.2-1.6-.7-.7-1.3-.7-1.7-.1zM271 193.9c0 .5.5 1.3 1 1.6.6.3 1 .2 1-.4 0-.5-.4-1.3-1-1.6-.5-.3-1-.2-1 .4zM304.5 193.9c-.3.6-1.4.8-2.5.6-1.1-.2-2.2 0-2.5.6-.7 1-.2 1.1 8.2 1.2 5 .1 5.8-.2 6.2-1.8.3-1.6.1-1.7-1.1-.7-.8.6-1.7 1-1.9.8-1.2-1-5.9-1.5-6.4-.7zM533.5 193.9c-.3.5-.2 1.2.3 1.5.5.3.9-.1.9-.9 0-1.7-.3-1.9-1.2-.6zM267 195.2c0 .4.7.8 1.5.8s1.5-.4 1.5-.8c0-.5-.7-.9-1.5-.9s-1.5.4-1.5.9zM423.8 195.2c-.6 1.5.1 3.8 1.1 3.8.4 0 .7-1.1.7-2.5 0-2.6-1.1-3.4-1.8-1.3zM508 195c0 .5.5 1 1 1 .6 0 1-.5 1-1 0-.6-.4-1-1-1-.5 0-1 .4-1 1zM504 196.2c0 .4.4.8.9.8.6 0 1.2-.4 1.5-.8.3-.5-.1-.9-.9-.9s-1.5.4-1.5.9zM241.8 198.2c-.9.5-.5.8 1.2.9 1.4 0 3.3.2 4.3.4.9.2 1.7 0 1.7-.5 0-1.1-5.7-1.8-7.2-.8zM499.7 198.6c-1.1 3.6-.5 9.9 1.1 11.7.8.9 1.2 2 .9 2.4-.4.3-.7.1-.7-.5 0-.7-.4-1.2-1-1.2-.5 0-1 .8-1 1.8 0 2.7 8 3.1 8 .4.1-.9.7-3.4 1.4-5.4.9-2.4 1-4.1.4-5-.7-.9-.8-.8-.4.6.5 1.5.4 1.7-.8.7-1-.9-1.5-.8-1.9.3-.3.7-.1 1.8.4 2.3.5.5.1.9-1.1 1-2.2.2-2.4-.4-1.1-2.7 1.4-2 .2-3.3-1.6-1.8-1.3 1-1.4.8-1.1-1.2.2-2 .9-2.5 3.3-2.5 1.7.1 3.3-.4 3.7-1 .5-.6.8-.5.8.3 0 .7.5 1 1 .7 2.1-1.3.8-2.1-3.5-2-2.5 0-4.5.4-4.5 1 0 .5-.4.4-.9-.4-.7-1.1-1-1-1.4.5zm2.3 8.5c0 1.1-.4 1.8-1 1.4-.5-.3-.7-1.2-.3-2 .7-2.1 1.3-1.9 1.3.6zM536.6 197.8c-.3.5.1.9.9.9s1.2-.4.9-.9c-.3-.4-.7-.8-.9-.8-.2 0-.6.4-.9.8zM41 199c0 .5.5 1 1.1 1 .5 0 .7-.5.4-1-.3-.6-.8-1-1.1-1-.2 0-.4.4-.4 1zM93.4 198.9c.7 1 5.5 1.1 6.1.1.2-.4-1.2-.7-3.1-.8-1.9-.1-3.2.2-3 .7zM318 199.1c0 .5.5.7 1 .4.6-.3 1-.8 1-1.1 0-.2-.4-.4-1-.4-.5 0-1 .5-1 1.1zM322.4 199.1c-.7 1.3 1.1 1.8 2.6.8 1.7-1 3.7-1.2 2.7-.3-.3.4-.2 1.5.3 2.5.7 1.2.7 2 0 2.4-1.9 1.1-1 2.3 2 2.7 3.1.5 3.1.4 2.8-3.6-.2-2.8-.8-4.1-1.8-4.2-.8-.1-1.7-.2-2-.4-1.1-.6-6.2-.5-6.6.1zM418.9 199.7c-1.2 1.5-1.2 1.6.1.9.9-.4.8-.1-.2.7-2.8 2.2-2.2 4 .6 2.2 1.3-.9 2.3-2.2 2.2-3-.3-2.4-1.2-2.6-2.7-.8zM446 199.1c0 .5.5.7 1.2.3.7-.5.8-.3.3.7-1.1 1.7-1.3 7.9-.3 7.3.5-.3.8.4.8 1.5s-.4 2.2-.8 2.5c-1 .6-.2 8.6.9 8.6.5 0 .9-.9.9-2 0-1.2.9-4 2-6.2 1.1-2.3 2-5.4 2-7 0-2 .5-2.8 1.8-2.9.9 0 3-.2 4.6-.2 1.9-.1 3-.8 3.2-1.9.1-1.3-.4-1.7-2.2-1.6-1.4.2-2.4.9-2.4 1.8-.1 1.2-.4 1.1-1.5-.4-1.5-2-1.5-2-1.6 0 0 1.8-.1 1.8-.9-.1-.7-1.6-.9-1.7-.9-.3-.1 1.8-2.5 1.8-4.3 0-1.5-1.5-2.8-1.5-2.8-.1zm15.4.7c.3.5-.1.9-.9.9s-1.2-.4-.9-.9c.3-.4.7-.8.9-.8.2 0 .6.4.9.8zm-11.3 4.5c-.7.7-.5 1.4.6 2.2 1 .8 1.2 1.4.6 1.8-.6.4-1.8-.4-2.7-1.8-1.2-1.8-1.3-2.4-.4-2.3.7.2 1.2-.3 1-1-.1-.8.2-1.1.9-.7.7.5.8 1 0 1.8zM105 202.1c0 .5.5.7 1 .4.6-.3 1-.8 1-1.1 0-.2-.4-.4-1-.4-.5 0-1 .5-1 1.1zM252.3 202.5c0 .8.4 1.2.9.9.5-.3.6-1 .3-1.5-.9-1.3-1.2-1.1-1.2.6z"/><path style="fill:#000000" d="M318.6 203.1c.2.4 0 1-.6 1.4-2.3 1.4-.7 2.5 3.5 2.5 4.1 0 4.5-.2 4.1-2.3-.4-2.6-3.6-3.7-3.6-1.2 0 .9-.5 1.3-1 1-.6-.4-.8-1-.6-1.4.3-.4-.1-.8-.9-.8s-1.2.4-.9.8zM77.5 204.1c-.4.6-.5 1.2-.2 1.5.2.3.7-.2 1-1.1.7-1.7.1-2-.8-.4zM253.9 204.7c-1.2 1.6-1.2 1.7.2.6.9-.7 2-.9 2.4-.5.5.4.5.1.1-.6-.9-1.6-1.1-1.5-2.7.5zM88.5 205c-.4.6-1.1.7-1.7.4-.7-.5-.8-.2-.4.5.5.7 1.1 1 1.4.7.3-.3 1.1-.1 1.9.6 1.7 1.4 2.5.6 1.7-1.6-.7-1.8-2-2.1-2.9-.6zM100.2 206.4c-.6 1.3-.8 3.3-.5 4.4.2 1.1 0 2.3-.6 2.6-.6.4-1.2.2-1.2-.3-.3-2.6-.4-3-1-3.5-.4-.4-.6.4-.5 1.6.1 1.3-.4 3.5-1.1 5-.7 1.5-1.3 3.6-1.3 4.8 0 1.8.6 2 6.5 2 6.3 0 6.5-.1 6.5-2.5 0-1.4-.7-2.8-1.5-3.1-.8-.4-1.5-1.5-1.5-2.5s-.4-1.9-1-1.9c-.5 0-1-.7-1-1.5s-.6-1.5-1.2-1.5c-.9 0-1-.3-.2-.8 1.3-.8 2.5-5.2 1.5-5.2-.4 0-1.3 1.1-1.9 2.4zM423.5 205.3c-1.2.9-1.4 1.6-.7 2.1.6.3 1.6-.3 2.2-1.4 1.3-2.4 1-2.5-1.5-.7zM454 205c0 .5 2.1 1 4.6 1 2.7 0 4.3-.4 3.9-1-.3-.6-2.4-1-4.6-1-2.1 0-3.9.4-3.9 1zM61.6 205.8c-.3.5.1.9.9.9s1.2-.4.9-.9c-.3-.4-.7-.8-.9-.8-.2 0-.6.4-.9.8zM73.3 206.5c0 .8.4 1.2.9.9.5-.3.6-1 .3-1.5-.9-1.3-1.2-1.1-1.2.6zM70 207c0 .5.5 1 1.1 1 .5 0 .7-.5.4-1-.3-.6-.8-1-1.1-1-.2 0-.4.4-.4 1zM82 207c0 .5.5 1 1.1 1 .5 0 .7-.5.4-1-.3-.6-.8-1-1.1-1-.2 0-.4.4-.4 1zM454 208.7c0 1.5.2 1.5 2.4.7 2.2-.9 2-2-.4-2-1.1 0-2 .6-2 1.3zM40.4 209.4c.1.8.5 1.8.8 2.2.4.3.5-.1.4-1-.1-.8-.5-1.8-.8-2.2-.4-.3-.5.1-.4 1zM315 209.9c0 2.5.6 2.7 1.3.6.4-.8.2-1.7-.3-2-.6-.4-1 .3-1 1.4zM459.8 208.7c2.2.9 1.2 2.3-1.7 2.3-1.6 0-3.4.7-4.2 1.6-1.1 1.4-.8 1.5 2.9 1.1 2.5-.2 4.2 0 4.2.6 0 2.4 1.3-.6 1.5-3.3.1-2.5-.2-3-1.9-2.9-1.2 0-1.5.3-.8.6zM37.7 210.6c-.4 1-1 2.6-1.3 3.4-.4 1.2-.4 1.2.4.1.8-1 1.2-.9 2.4.8 1.3 1.8 1.7 1.9 2.1.7.4-.9.2-1.8-.4-2.2-.6-.3-1.4-1.5-1.8-2.7-.7-2-.8-2-1.4-.1zm2.4 3.1c1.3 1.6 1.2 1.7-.3.4-1-.7-1.8-1.5-1.8-1.7 0-.8.8-.3 2.1 1.3zM68.9 211.2c-.1.7-.2 2-.3 2.8-.2.8-.3 2.6-.4 4-.2 2-.4 2.2-1.2 1-.8-1.2-.9-.9-.7 1 .4 2.4.7 2.5 8.5 2.8 8 .3 8.2.2 8.2-2 0-1.3-.9-3.1-2-4-1.8-1.6-2-1.6-3 0-.9 1.4-1.1 1.4-.7.1.8-2.4-.9-4.7-2.4-3.2-.9.9-.9 1.6-.1 2.6.9 1 .8 1.4-.3 1.4-.7 0-1.3-.5-1.2-1.1.1-.6-.6-1-1.5-1-1.6.1-1.8-2.2-.3-4.6.3-.6-.1-1-.9-1-.9 0-1.6.6-1.7 1.2zM109.4 217.5l.1 6 4-.3c4.8-.5 4.5-.3 4.9-3.8.2-1.8 1.1-3.3 2.4-3.9 1.2-.5 2.2-1.7 2.2-2.5 0-1.2-1.4-1.5-6.9-1.5h-6.8l.1 6zM532.6 213.3c.3 1 .9 1.5 1.2 1.2.3-.3 0-1.1-.7-1.8-1-.9-1.1-.8-.5.6zM280 213.7c-3.3 1.3-5.7 6.3-3 6.3.6 0 1-.5 1-1.1 0-.8.6-.7 1.7.2 1.4 1.2 1.6 1.2 1.1-.1-.3-.8-.1-2.5.3-3.8.5-1.2.7-2.2.6-2.1-.1 0-.9.3-1.7.6zM283.1 213.5c-.1 1.2 1.9 3.5 3.1 3.5.4 0 .5-.7.2-1.5-.4-.8-1-1.3-1.4-1-.5.3-1.1-.1-1.3-.7-.3-.7-.6-.8-.6-.3zM551.4 214.4c-.3.8-.4 2.3-.2 3.3.3 1.1.6.6.9-1.5.6-3.4.2-4.2-.7-1.8zM61.7 215.7c.3.7.9 1 1.4.7 1.4-.8 1.1-2.1-.5-2.1-.8 0-1.2.6-.9 1.4zM325.7 215.7c-1 .9-.9 2.3.1 2.3.5 0 .9-.7.9-1.5 0-1.7-.1-1.8-1-.8zM453.8 218.5c-.4 3.4-.3 3.5 3.3 3.5 4 0 7.1-2.3 4.5-3.3-.9-.4-1.8-.2-2.1.2-.8 1.4-4.7 0-4.1-1.5.3-.7.1-1.6-.3-1.9-.5-.2-1.1 1.1-1.3 3zM407.5 217c-.3.5-.2 1 .4 1 .5 0 1.3-.5 1.6-1 .3-.6.2-1-.4-1-.5 0-1.3.4-1.6 1zM495.4 217.1c-.3.5 1.2.9 3.2.9 4.1 0 4.1-1 0-1.4-1.5-.2-2.9.1-3.2.5zM44.5 218c-.3.5-.3 1 .2 1 .4 0 .2.4-.6.9s-2.3.8-3.3.6c-1-.2-1.6 0-1.3.6.8 1.2-.8 1.2-2.1-.1-.7-.7-1.1-.6-1.1.3 0 1 1.8 1.4 6.6 1.5 6.3.1 6.7 0 6.6-2.1-.2-3-1.9-3.7-2.3-1-.2 1.3-.8 2.3-1.3 2.3s-.7-1.1-.5-2.5c.5-2.6.1-3.2-.9-1.5zM292.5 218c.3.5 1.1 1 1.6 1 .6 0 .7-.5.4-1-.3-.6-1.1-1-1.6-1-.6 0-.7.4-.4 1zM503.8 217.7c.7.3 1.6.2 1.9-.1.4-.3-.2-.6-1.3-.5-1.1 0-1.4.3-.6.6zM60.4 218.9c1.2 1.8-1.1 3.2-3.7 2.2-2.1-.8-2.7-.7-2.7.2 0 .8 1.5 1.4 4 1.5 3.1.2 3.8 0 3.4-1.2-.3-.8-.1-1.7.5-2.1.7-.3 1.1.3 1.1 1.5s.5 1.8 1 1.5c1.4-.9-.3-3.8-2.4-4.1-.9-.1-1.4.1-1.2.5z"/><path style="fill:#000000" d="M273.7 218.6c-.9 1 2.2 6.6 3.3 5.9 1.7-1.1 1.1-3.2-1.1-3.8-1.2-.3-1.8-1-1.4-1.6.7-1.2.2-1.5-.8-.5zM417.3 221c-3.7 3.3-4 4-1.8 4 .8 0 3 1.6 4.8 3.6 2.4 2.6 4.2 3.7 6.5 3.7 2.6.2 3.2.6 3.1 2.2-.1 1.1.1 2.8.6 3.8.6 1.5 1 1.5 2.4.5 1.4-1.1 1.4-1.1.3.4-1.1 1.4-1.6 1.4-4.1.2-1.6-.8-3.2-2.1-3.5-3-.3-.8-1.1-1.2-1.6-.9-1.3.8 6.9 7.5 9.1 7.5.9 0 2-.7 2.3-1.6.4-.9 1.3-1.4 2.2-1 .8.3 1.2.2.9-.3-.3-.5-.1-1.2.5-1.6.5-.3 1 .1 1 1 0 .8.7 1.8 1.5 2.1 1.1.5 1.2 1 .4 2.6-.6 1.1-.7 1.9-.2 1.6 5.1-2.4 6.3-3.3 5.9-4.5-.3-.8-.1-1.1.4-.8.6.3 1 .2 1-.3 0-1.3-4.2-3.2-6.5-2.9-1.5.1-2.1-.5-2.3-2.5-.3-2.8-5.4-7.4-7.1-6.4-.5.3-1.5-.2-2.2-1.2-1.3-1.6-1.2-1.6.6-.3 1.9 1.4 1.9 1.4.3-.3-.9-1-2.1-1.5-2.7-1.2-1.7 1.1-1.3 3.6.5 3.6 1.4 0 1.4.2.3 1.6-1.2 1.5-1.5 1.4-3.4-.8-1.1-1.4-3.5-3.3-5.2-4.4-3.7-2.1-4-3-1.6-5.6 2.4-2.7 1.2-2.1-2.4 1.2zm20.7 13.8c-.7.3-1.6-.2-2.1-.9-.5-.8-.9-1-.9-.6 0 .5-.5.5-1 .2-.6-.4-.8-1.1-.5-1.6.3-.5 1.8-.1 3.2.8 1.6 1.1 2.1 1.9 1.3 2.1zM450 219.5c0 1.3-1.1 1.9-3.1 1.7-.3-.1-.6.6-.6 1.4 0 .7.4 1.4.9 1.4.4 0 .8.5.8 1.1 0 .5-.4.7-1 .4-.5-.3-1-.2-1 .3 0 .6.7 1.3 1.6 1.6 2.1.8 2.6.8 2-.2-.3-.5.2-.9 1-.9.9 0 1.1.4.5 1-1.7 1.7 0 4.2 5.4 7.9 3 2.1 5.6 3.8 5.9 3.8.3 0 .6-2.7.6-6 0-4.1-.4-6-1.2-6-1 0-1-.2 0-.9 3.4-2.1-4.7-3.6-9.1-1.6-1.3.5-2.4.2-3.5-.9-1.4-1.4-1.4-1.6-.2-1.1 1.1.4 1.6-.2 1.8-2 .1-1.4 0-2.5-.3-2.5s-.5.7-.5 1.5zM88.9 220.7c-1.3 1.6-1.2 1.7.4.4.9-.7 1.7-1.5 1.7-1.7 0-.8-.8-.3-2.1 1.3zM119.6 220.6c-.8 2.1-.3 2.6 1.7 1.8.9-.3 1.3-1.2 1-2-.7-1.9-1.9-1.8-2.7.2zM159.5 221c1 1.1 2 2 2.3 2 .3 0-.3-.9-1.3-2s-2-2-2.3-2c-.3 0 .3.9 1.3 2z"/><path style="fill:#000000" d="M421.6 219.9c-.3.5.3 1.1 1.5 1.4 1.6.4 1.8.3.8-.9-1.3-1.6-1.6-1.7-2.3-.5zM265.5 224.2c-5.4 4.3-7.8 6.6-5.7 5.4 1.4-.8 1.5-.2.3 2.2-.5.9-1.3 2.8-1.8 4.2l-1 2.5-1.2-2.3c-1-1.9-1-2.7.1-4 2-2.4-5.2 2.7-9.2 6.7-1.9 1.9-2.9 3.1-2.2 2.7.6-.4 1.2-.2 1.2.3 0 .6-.4 1.1-1 1.1-.5 0-1 1.1-1 2.5 0 1.5-.6 2.5-1.4 2.5-2.2 0-2.9-1.9-1.4-3.7 1.1-1.4.8-1.3-1.5.2-2.5 1.6-5.4 5.4-4.5 5.9.2.1 2 .9 4.1 1.9 2 .9 3.7 2.2 3.7 2.9 0 .6 1.1.1 2.5-1.2 1.8-1.7 2.2-2.6 1.3-3.1-.7-.4-.9-1.1-.5-1.5.3-.4 1.3-.1 2.1.6.9.6 2.1 1 2.8.7.8-.3.2-1-1.5-1.7-2.4-1.2-3.1-1.1-5.8.9-1.7 1.3-3.3 2-3.6 1.8-.3-.3 1.4-1.8 3.6-3.3 2.3-1.4 4.1-2.9 4.1-3.1 0-.2-.5-.1-1.2.3s-.8.3-.4-.5c.4-.6 1.2-.9 1.7-.5.5.3 2.1-.2 3.5-1 2.9-2 2.9-.1 0 2.4-1.8 1.6-1.7 1.7.9 3.4 1.5 1 2.4 1.3 2.1.7-.7-1.2 1-5.1 2.8-6.3.6-.4 1.6-.6 2.3-.3.7.2 1.5 0 1.8-.5.4-.6.1-1-.5-1-.8 0-.8-.6 0-2 1.3-2.4 4.7-2.6 7.7-.5 1.8 1.3 2.3 1.3 3 .2.4-.8 2.2-2.1 3.8-3 2.7-1.4 2.8-1.6.8-1.7-2.2 0-2.2-.1-.5-3 3-5.2.4-5.6-6.4-.9-3.2 2.2-6.3 4.6-6.9 5.3-.5.7-2.3 2.1-4 3.2l-2.9 1.9 2.4-3.3c1.3-1.7 3-3.2 3.7-3.2.7 0 1.3-.5 1.3-1.1 0-.5-.5-.7-1.2-.3-.7.4-.8.3-.4-.4s1.6-1.2 2.7-1.2c1.2 0 4-1.4 6.4-3.1 3.5-2.5 4.2-3.5 3.5-4.9-2.1-4-3.3-3.9-8.5.2zm9.5 7.3c-.7.9-1.5 1.3-1.8 1-.3-.2.1-1.1.8-2 .7-.9 1.5-1.3 1.8-1 .3.2-.1 1.1-.8 2zM502.6 221.5c.4.8.8 1.5 1 1.5.2 0 .4-.7.4-1.5s-.4-1.5-1-1.5c-.5 0-.7.7-.4 1.5zM359.7 221.7c-.4.3-.7 1.1-.7 1.7 0 .6.5.5 1.2-.2.6-.6.9-1.4.7-1.7-.3-.3-.9-.2-1.2.2zM551.2 222.7c-.5 1-.7 2.4-.4 3.2.3.8 0 1.1-.6.7-.6-.3-1.3-.2-1.6.3-.4.5.2.8 1.1.7.9-.2 2-1.6 2.5-3.1.9-3.4.3-4.4-1-1.8zM328.5 223c-.4.6-1.1.7-1.7.4-.6-.4-.9-.1-.6.6.6 1.8 2.9 2.6 2.6.8-.2-.7.3-1.2 1-1.1.6.2 1.2-.2 1.2-.7 0-1.3-1.7-1.3-2.5 0zM479.5 223c-.3.5-.1 1 .4 1 .6 0 1.1-.5 1.1-1 0-.6-.2-1-.4-1-.3 0-.8.4-1.1 1zM543.5 222.8c-.2.2-.1 1.1.2 2 .4.9.2 1.3-.4.9-.5-.3-1 0-1 .7s.6 1.3 1.4 1.3c.7 0 1.3-.9 1.3-1.9 0-1 1-2.3 2.3-2.8 2.1-.8 2-.9-.6-.7-1.5.1-3 .3-3.2.5zM378.6 224.5c-.3.9 0 1.5.9 1.5.8 0 1.5-.7 1.5-1.5s-.4-1.5-.9-1.5-1.1.7-1.5 1.5zM37.8 225.7c.7.3 1.6.2 1.9-.1.4-.3-.2-.6-1.3-.5-1.1 0-1.4.3-.6.6zM41.4 225.7c.4.5 1.2.8 1.7.8s.9.3.9.7v2c0 .6-.9.3-2.1-.8-1.1-1-2-1.4-1.9-.9.2.6.1 1.3 0 1.7-.1.5-.3 1.4-.4 2 0 .7-.7 1.3-1.5 1.3s-1.5.8-1.7 1.7c-.1 1 .3 1.6.9 1.5.6-.1 1.3.7 1.5 1.8.4 1.7.2 1.8-1.2.6-1.4-1.2-1.6-1-1.6 1.3 0 1.9.4 2.5 1.2 2 2.1-1.3 4.9-1.2 3.8.1-.6.7-.4 1.9.5 3.2.8 1.2 1.7 2.9 1.9 4 1.2 5.4 1.8 6.3 4.8 6.3h2.9l-.5-8.8c-.2-4.8-.5-8.7-.6-8.7-.1 0-.3-1.7-.5-3.8-.4-5.3-2.4-6.8-2.8-2-.1 2.5-2.3 2.6-2.4.1-.1-1 .2-1.6.6-1.3.5.2.8-.8.8-2.3-.1-2.2-.7-2.8-2.6-3-1.3-.1-2.1.1-1.7.5zm1 5.4c-.3.5-1 .7-1.5.3-.5-.3-.7-1-.3-1.5.3-.5 1-.7 1.5-.3.5.3.7 1 .3 1.5zm.6 2.5c0 .8-1.9 1.3-2.4.6-.3-.5.1-.9.9-.9s1.5.2 1.5.3zM520.6 227.5c-.9 1.4-2.1 2.4-2.7 2.2-.7-.1-1.4.4-1.6 1-.3.7-.1 1.3.4 1.3 1.3 0 6.8-5.9 6.1-6.5-.3-.3-1.3.6-2.2 2zM412.9 227.7c-1.3 1.6-1.2 1.7.4.4 1.6-1.3 2.1-2.1 1.3-2.1-.2 0-1 .8-1.7 1.7zM170.2 229c.7 1.1 2.1 2 3 2 1 0 1.8.4 1.8 1 0 .5.6 1 1.3 1 1.2-.1-5.2-5.9-6.6-6-.4 0-.2.9.5 2zM332.2 227.8l-7.4.3 6.5 4.9c3.6 2.7 6.8 5.4 7.2 6 .3.5 1 1 1.6 1 1.1 0 1.3-11.7.2-12.2-.5-.2-4.1-.2-8.1 0zM375.1 228.6c1.3 1.6 2.9 1.9 2.9.5 0-.5-.9-1.1-2.1-1.4-1.6-.4-1.8-.3-.8.9zM415 228.9c0 .5.5 1.3 1 1.6.6.3 1 .2 1-.4 0-.5-.4-1.3-1-1.6-.5-.3-1-.2-1 .4zM282.5 230c-.3.5-.1 1 .4 1 .6 0 1.1-.5 1.1-1 0-.6-.2-1-.4-1-.3 0-.8.4-1.1 1zM282.8 233.4c-1.9 1.4-2.5 3.2-.8 2.1.6-.3 1 .4 1 1.6 0 1.7.3 2 1.1 1.2.6-.6.9-2.2.7-3.6-.3-2.3-.5-2.4-2-1.3zM390.6 233.7c-.6 1.4-.5 1.5.5.6.7-.7 1-1.5.7-1.8-.3-.3-.9.2-1.2 1.2zM549 233.1c0 .5.5.7 1 .4.6-.3 1-.8 1-1.1 0-.2-.4-.4-1-.4-.5 0-1 .5-1 1.1zM385 234.5c-1.4 1.6-.3 2 1.9.6.8-.5.9-1.1.3-1.5-.5-.3-1.5.1-2.2.9zM418.3 234.5c0 .8.4 1.2.9.9.5-.3.6-1 .3-1.5-.9-1.3-1.2-1.1-1.2.6zM177.3 235.5c0 .8.4 1.2.9.9.5-.3.6-1 .3-1.5-.9-1.3-1.2-1.1-1.2.6zM516 235.5c-.7.8-.9 1.5-.6 1.5.4 0 .2.9-.4 2-.8 1.5-.8 2 .1 2 .8 0 .8.4-.1 1.5-2.5 3 0 2.6 4-.6 3.3-2.7 3.8-3.5 2.5-3.8-1-.1-2.2.4-2.7 1.3-1.1 2-2.8 2.1-2.8 0 0-.8.5-1.2 1-.9.6.4 1-.5 1-1.9 0-3-.3-3.2-2-1.1zM149 237.7c0 .5.7 1.8 1.5 3 .9 1.3 1.1 2.3.5 2.6-.6.3-.5.4.2.2.7-.1 1.2-.8 1-1.5-.2-.7.3-1 1.2-.7.9.4 1.8.3 2-.2.5-.7-1-1.6-5.6-3.9-.5-.2-.8.1-.8.5zM170.5 240.3c.4 3.7.5 3.8 1.5 3.2.8-.5.8-1.1.1-1.9-.6-.7-.8-1.5-.5-1.8.3-.3.1-.9-.4-1.2-.5-.3-.8.5-.7 1.7zM382.1 240.9c-2.6 3.6-2.7 4.7-.3 2.3 1.1-.9 1.7-2 1.5-2.4-.2-.4.5-1.1 1.4-1.7 1-.6 1.3-1.1.6-1.1-.6 0-2.1 1.3-3.2 2.9zM166.1 240.6c.6.7 1.6 1.1 2.1.8 1.1-.7.3-1.7-1.8-2-1.2-.2-1.3.1-.3 1.2zM376.7 242.5c-.4.8-.1 1.7.6 2.1.7.4.9.4.5-.1-.4-.4-.3-1.4.3-2.2.7-.8.8-1.3.1-1.3-.5 0-1.2.7-1.5 1.5zM551.7 241.7c-.2.5-.3 1.6-.2 2.5.2.9-.4 1.9-1.2 2.2-.7.3-1.1.2-.8-.3.3-.5 0-1.3-.6-1.7-.7-.4-.9-.3-.5.4 1 1.7-1.3 2.5-2.9.9-.8-.8-1.3-1.6-1.2-1.9.1-.2-.5.4-1.4 1.3-1.5 1.6-1.8 1.6-3.2.2-.8-.8-2-1.2-2.7-.8-1.7 1 .8 3.5 2.8 2.8 1.5-.6 1.6-.5.2 1.3-1.4 1.9-1.4 1.9.8 0 1.6-1.4 2.5-1.7 3.3-.9.6.6 1.7 1 2.3.8.6-.2 2.3-.6 3.7-.9 2.2-.5 2.6-1.1 2.5-3.6-.1-3.2-.2-3.5-.9-2.3zm-6.6 5c1.3 1.6 1.2 1.7-.3.4-1-.7-1.8-1.5-1.8-1.7 0-.8.8-.3 2.1 1.3zM182 242.4c0 .2.7.7 1.6 1 .8.3 1.2.2.9-.4-.6-1-2.5-1.4-2.5-.6zM352 242.4c0 .2.8 1 1.8 1.7 1.5 1.3 1.6 1.2.3-.4s-2.1-2.1-2.1-1.3zM125.6 244.9c-.3.5.5 1.6 1.9 2.5 3.1 2 3.4 2 3-.2-.2-.9-.4-2-.4-2.5-.1-1-3.9-.9-4.5.2zM349.6 245.5c.4.8 1.1 1.5 1.6 1.5.6 0 .5-.6-.2-1.5-.7-.8-1.4-1.5-1.6-1.5-.2 0-.1.7.2 1.5zM483 245c0 .5.5 1 1 1 .6 0 1-.5 1-1 0-.6-.4-1-1-1-.5 0-1 .4-1 1zM517 245.5c-.7.9-.8 1.5-.2 1.5.5 0 1 2 .9 4.5 0 2.5-.4 4-.8 3.4-.4-.7-.5-1.9-.2-2.7.5-1.2.3-1.2-1.5-.1-1.8 1.1-1.9 1.5-.7 2.2 1.8 1 2 2.5.3 2.3-1.4-.1-1.8.6-1.8 3.1.1 1.7.2 1.7 1.4 0 1.3-1.7 1.5-1.7 2.4-.1 1.9 3.5 3.3.4 3.1-7.2-.2-7.8-.9-9.4-2.9-6.9z"/><path style="fill:#000000" d="M262.5 246c.3.5 1.2.7 2 .3 2.1-.7 1.9-1.3-.6-1.3-1.1 0-1.8.4-1.4 1zM487.6 247.1c-1.1 1.3-1.3 2-.4 1.7.7-.3 1.8.2 2.5 1.1.9 1.3.8 2-.3 3.2-1.3 1.5-1.3 1.7.5 2.2 2.3.6 4.1-3 2.2-4.3-.7-.4-1.1-1.1-1-1.6.3-1.9-.1-4.4-.9-4.4-.4 0-1.6 1-2.6 2.1zM511.3 247.6c-.3.8-.1 2 .6 2.7.8.8 1.1.4.9-1.6-.3-3.1-.6-3.4-1.5-1.1zM121.5 248c-.5.6-2.5 2.2-4.3 3.6-2.9 2.4-3.2 2.9-1.9 4.1 1.6 1.6 1.1 1.8 8.5-4.3 1.4-1.2 2.2-2.6 1.8-3.2-.9-1.4-2.7-1.5-4.1-.2zM441.2 248.3c-1.2 1.4-1.2 5.7-.1 5.7.4 0 1.4-1 2.3-2.3.9-1.2 1.4-1.6 1-.9-.5 1.2-.2 1.2 1.7.2 2.2-1.2 2.2-1.3.4-2.6-2.4-1.7-4-1.8-5.3-.1zM36.6 248.8c-.2.4-.1 1.4.3 2.1.6 1 1 .9 1.4-.3.6-1.6-.8-3.2-1.7-1.8zM141.9 250.7c-1.3 1.7-1.3 1.7.6.3 1.1-.8 2.2-1.6 2.4-1.7.2-.2 0-.3-.6-.3s-1.7.8-2.4 1.7zM557 250.1c0 .5.5.7 1 .4.6-.3 1-.8 1-1.1 0-.2-.4-.4-1-.4-.5 0-1 .5-1 1.1zM123 253.6c-2.5 2-4.5 4-4.5 4.4 0 1.2 8.8 7 9.7 6.4 1.5-1 .8-2.4-1.1-2.4-3.8 0-3-1.8 1-2.4 2.2-.3 4.2-1.3 4.5-2.1.4-.8 1.3-1.5 2.1-1.5s1.1.4.8 1c-1.2 2 .6 2.9 2.5 1.2 2.5-2 2.5-3.1.3-4.8-1.2-.8-2.2-.9-3-.2-.9.7-2 .4-3.9-1.1-1.5-1.2-2.9-2.1-3.3-2-.3 0-2.6 1.6-5.1 3.5zm7.9-.3c.6.8.8 1.7.5 2-.7.7-4.4-1.4-4.4-2.5 0-1.3 2.7-.9 3.9.5zM144.3 251.9c-1.6 1.4-1.9 2.1-1 3 1.7 1.7 2.7 1.3 2-.7-.3-.9-.3-1.4.2-1 1.1 1 4.7-1.1 4-2.3-.9-1.4-2.7-1-5.2 1zM154.5 252c.3.5 1.1 1 1.6 1 .6 0 .7-.5.4-1-.3-.6-1.1-1-1.6-1-.6 0-.7.4-.4 1zM507 253c-.9.6-1 1-.3 1 .6 0 1.5-.5 1.8-1 .8-1.2.4-1.2-1.5 0zM521.6 252.8c-.6 1-.2 3.9.7 4.8.4.4.7-.7.7-2.4 0-3.2-.4-3.9-1.4-2.4zM557 254.6c0 2.5 1.4 3.9 3.1 2.8.7-.4.7-1 .1-1.6-.6-.6-.8-1.6-.6-2.3.3-.6-.2-1.2-1.1-1.2-.9 0-1.5.9-1.5 2.3zM108.1 258.7c-2.9 2.2-3.1 2.7-1.6 3.5 1.1.7 2.4.5 4-.6 2.1-1.4 2.4-1.4 2.7 0 .2 1.3.6 1.3 2.1.2 1.6-1.2 1.6-1.5.2-3.6-2.1-2.8-3.2-2.8-7.4.5zM521 261.1c0 .5.5.7 1 .4.6-.3 1-.8 1-1.1 0-.2-.4-.4-1-.4-.5 0-1 .5-1 1.1zM557 261c0 .5.5 1 1.1 1 .5 0 .7-.5.4-1-.3-.6-.8-1-1.1-1-.2 0-.4.4-.4 1zM115.7 263.3l-2.8 2.2 5.1 3.4c3.6 2.4 5.4 3.1 6.1 2.4.8-.8.4-1.5-1.1-2.6-1.2-.8-1.9-2-1.6-2.6 1-1.5 5.8 1.8 5.2 3.5-.3.8 0 1.1 1 .7 1.2-.4.5-1.6-3.1-4.9-2.6-2.4-5-4.4-5.3-4.4-.4 0-1.9 1-3.5 2.3zm4.7 1.8c-.3.5-1 .7-1.5.3-.5-.3-.7-1-.3-1.5.3-.5 1-.7 1.5-.3.5.3.7 1 .3 1.5zM182 263c.7 1.4 1 11.4.8 30.3l-.3 28.2 17.9 14.3c9.9 7.8 18 14.1 18.2 13.9.2-.1-.1-2-.6-4.2s-1-11.8-1-21.3V307h-13v11.1l-4-3.2c-3.8-3-4-3.5-4-8.6V301h13v-14h-13v-12h3.4c2.1 0 3.6.6 4 1.5.4 1.1 2.2 1.5 7.1 1.5h6.5v-6.4c0-6.2-.1-6.5-3.4-8.5-3-1.9-4.9-2.1-18-2.1-14.4 0-14.7 0-13.6 2zM219 289.5V318l6.8 4.9c3.7 2.8 7 5 7.4 5.1.4 0 .9-6.6 1-14.7l.3-14.7 4 9.3c2.3 5.1 4.5 9.4 5 9.4.5.1 2.5-3.8 4.5-8.8l3.5-8.9.3 14.3c.3 16.2-.3 15.6 9 8.9l6.1-4.3v-28.8l.1-28.7h-14.9l-4.7 9.7-4.6 9.8-2.4-5c-1.3-2.8-3.3-7.1-4.4-9.8l-2.1-4.7H219v28.5zM272.2 263.3c-2.1 2.3-2.2 3-2.2 29.3v27l6.4 5.2c3.5 2.8 6.7 4.8 7 4.5.3-.4.6-5.3.6-11V308h6v11c0 6 .2 11 .5 11s3.7-2.4 7.5-5.2l7-5.2v-27.1c0-33.9 1.4-31.5-17.6-31.5-12.3 0-13.2.1-15.2 2.3zm17.8 21.2v9.5h-6v-19h6v9.5zM308.6 264.1l-2.6 3.1v51.5l8.2 6.4c4.4 3.5 8.5 6.3 8.9 6.2.5-.2 4.9-3.2 9.9-6.9l9-6.6V303h-15v3.4c0 2.7-.7 3.9-3.5 6l-3.5 2.7V275h3.5c3.3 0 3.5.2 3.5 3.5v3.5h15v-7.7c0-7-.2-7.9-2.7-10.5-2.7-2.8-2.8-2.8-15.4-2.8h-12.7l-2.6 3.1zM344 261.9c0 .6.5 1.3 1 1.6.6.4 1 7.1 1 16.9v16.3l9.8 5.5 9.7 5.5.3 4.3c.3 4.3.3 4.3-2 2.8-1.3-.8-2.7-2.5-3.3-3.6-.9-1.9-1.8-2.2-7.7-2.2H346v12.8l17.1 13.7c9.4 7.5 17.1 13.5 17.2 13.3.1-.1 0-10.8-.3-23.6l-.5-23.3-10-5.3-10-5.4-.3-8.1-.3-8.1h3.6c2.4 0 3.5.4 3.5 1.5 0 1.2 1.4 1.5 7 1.5h7v-6.4c0-6.3-.1-6.4-3.6-8.5-3.1-1.9-5.1-2.1-18-2.1-8.3 0-14.4.4-14.4.9zM81 263.6c0 .8.5 1.2 1 .9.6-.3 1-1 1-1.6 0-.5-.4-.9-1-.9-.5 0-1 .7-1 1.6zM508 267.2c0 4.2.1 4.2 1.3 1.8 1.4-2.6 1.1-6-.4-6-.5 0-.9 1.9-.9 4.2zM470.2 266c0 1.4.2 1.9.5 1.2.2-.6.2-1.8 0-2.5-.3-.6-.5-.1-.5 1.3zM505 266.8c0 1-.6 2.4-1.2 3.1-1.1 1-1 1.1.5.6 1.5-.6 2.6-5.5 1.2-5.5-.3 0-.5.8-.5 1.8zM512.2 269.1c-1.3 2.2-2.7 3.7-3.2 3.4-.6-.4-1-.1-1 .4 0 1.7.9 1.3 4.9-1.9 2.3-1.8 4.1-2.6 4.7-2 .6.6 1.5.5 2.4 0 1.2-.8 1.2-1-.4-1-1.1 0-2.7-.6-3.5-1.4-1.4-1.3-1.9-1-3.9 2.5zM36 267c0 .5.9 1 2 1s2-.5 2-1c0-.6-.9-1-2-1s-2 .4-2 1zM42.8 266.7c.7.3 1.6.2 1.9-.1.4-.3-.2-.6-1.3-.5-1.1 0-1.4.3-.6.6zM106.7 270.8l-4.3 3.8 2.2 1.7c3 2.3 4.3 2.1 3.7-.3-.3-1.1-1.2-2-2-2s-1.2-.4-.8-.9c.7-1.2 4.6-1.1 6.3.2.8.7 1.2.4 1.2-.9 0-1.5.2-1.6.9-.5.6 1 1 1 1.6.1.7-1.1-2.1-5-3.6-5-.4 0-2.8 1.7-5.2 3.8zM481.2 269c0 1.4.2 1.9.5 1.2.2-.6.2-1.8 0-2.5-.3-.6-.5-.1-.5 1.3zM549.9 267.2c0 .2-.2 4.5-.3 9.6-.2 7.2 0 9.2 1 8.8 1.3-.5 2.8 2.4 2.9 5.8 0 1.6.8 2 3.8 2.1l3.9.2-.6-6.7c-.6-8.2-1.5-12.2-2.7-11.5-.4.3-.6 1.2-.3 1.9.3.8 0 1.7-.5 2.1-.6.3-.9 1-.7 1.4.3.4-.1.8-.7.8-1.2 0-1.7-1.6-2-6.2-.1-1.1-.7-2.6-1.4-3.3-.7-.8-1.1-1.8-.8-2.3.4-.5.1-.9-.5-.9s-.8-.5-.5-1c.3-.6.4-1 .1-1-.3 0-.6.1-.7.2zM488.8 268.7c.7.3 1.6.2 1.9-.1.4-.3-.2-.6-1.3-.5-1.1 0-1.4.3-.6.6zM494 270c-.9.6-1 1-.3 1 .6 0 1.5-.5 1.8-1 .8-1.2.4-1.2-1.5 0zM471 270.9c0 .5.5 1.3 1 1.6.6.3 1 .2 1-.4 0-.5-.4-1.3-1-1.6-.5-.3-1-.2-1 .4zM500 271c0 .5.5 1 1 1 .6 0 1-.5 1-1 0-.6-.4-1-1-1-.5 0-1 .4-1 1zM521.8 270.6c-.5.4-.8 1.6-.8 2.8 0 1.4.3 1.7 1.1.9.6-.6.9-1.9.7-2.8-.1-.9-.6-1.3-1-.9zM486.5 271.9c-1 1.7 1.2 2.1 2.5.6 1-1.2 1-1.5-.3-1.5-.9 0-1.8.4-2.2.9zM115.4 274.5l-2.9 2.4 3.2-.1c2.2-.1 3-.5 2.6-1.5-.4-.9 0-1.1 1.1-.7.9.3 1.6.2 1.6-.4 0-2.1-2.8-1.9-5.6.3zM101 278.9c0 .5.7 1.2 1.6 1.5 2.2.9 2.4.8 1.8-.9-.7-1.6-3.4-2.1-3.4-.6zM108.5 280c-2.7 3-1.2 3.4 1.5.5 1.3-1.4 1.9-2.5 1.3-2.5-.5 0-1.8.9-2.8 2zM99 280.5c0 2 1.6 3.4 2.9 2.6.9-.6 1-1.1.2-1.5-.6-.4-1.1-.4-1.1.1 0 .4-.5.1-1-.7-.5-.8-1-1.1-1-.5zM109 283c0 .5.4 1 .9 1 .6 0 1.3-.5 1.6-1 .3-.6-.1-1-.9-1-.9 0-1.6.4-1.6 1zM508.7 289.5c-.4.8-.2 1.7.3 2 .6.4 1-.3 1-1.4 0-2.5-.6-2.7-1.3-.6zM94.3 293.8c.1 1.4.5 1.8 1.1 1.2.7-.7.6-1.4-.1-2.1-.9-.9-1.2-.7-1 .9zM88.6 296.6c-2.1 2.1-2.1 2.1 1.4 1.6 2.5-.3 2.8-.7 1.9-1.8-1.4-1.7-1.4-1.7-3.3.2zM518 296.8c0 1-.3 2.2-.7 2.6-.4.4-.8 2.6-.8 4.9 0 3.6-.3 4.2-2 3.9-1.5-.3-1.7-.1-.9.8.9.9 2.5.4 6.7-2.3 3-2 5.8-4.1 6.2-4.8 1-1.5-3.4-5.1-5.7-4.5-1.1.2-1.5-.1-1.1-1 .3-.8 0-1.4-.6-1.4s-1.1.8-1.1 1.8zM82 302c-1.4 2.6.3 3.4 2.4 1.1 1.5-1.6 1.5-1.9.2-2.4-1-.4-2 .1-2.6 1.3zM528.4 303.7c.2.9 1 1.7 1.9 1.9 2.3.3 2.1-.8-.2-2.3-1.6-1-1.9-.9-1.7.4zM532.1 307.4c-.9 1-.8 1.6.4 2.6.8.7 1.5.9 1.5.4s.7.2 1.6 1.4c1.3 1.9 1.4 2.5.2 3.9-1.1 1.4-1.1 1.6.2.9.8-.4.5.1-.8 1.1-2.1 1.7-2.1 2-.7 3.8 1.1 1.4 1.5 1.6 1.4.5-.3-2.8.1-4.1 1-3.6.5.4 1.2 0 1.4-.6.3-.8.6-.6.6.4.1 1-.5 1.8-1.1 1.8-.9 0-.8.3.2.9.8.6 1.8.7 2.2.5.4-.3.8.1.8.8 0 .7.7.2 1.6-1 1.5-2.1 1.5-2.5-.1-4.2-1-1.1-2.1-1.7-2.6-1.4-.4.2-1.3-.4-1.9-1.5-.7-1.3-.7-2.2 0-2.6 1-.6.3-1.6-3.1-4.3-1.3-1-1.9-1-2.8.2zM506.9 309.7c-1.3 1.6-1.2 1.7.4.4 1.6-1.3 2.1-2.1 1.3-2.1-.2 0-1 .8-1.7 1.7zM522 308.4c0 .2.7.9 1.5 1.6.9.7 1.5.8 1.5.2 0-.5-.7-1.2-1.5-1.6-.8-.3-1.5-.4-1.5-.2zM38.2 313.4l-3.1 2.3 2.9 2.1c3.5 2.6 4.3 2.7 6 .7 1.4-1.7 3-2 3-.4 0 .5-.6.7-1.2.3-.7-.4-.9-.3-.5.1.4.5 1.4 1 2.1 1.1 1.8.2.8-3.6-1.3-5.4-.9-.8-1.1-1.1-.5-.8.6.3 1.1-.1 1.1-.9 0-1.1-.4-1.2-1.4-.4-.9.8-1.7.8-2.6 0-1-.8-2.1-.5-4.5 1.3zM525.6 313.3c-1.5 1.1-1.4 1.3.5 2.5 1.2.8 1.8.9 1.5.3-.4-.5-.1-1.3.5-1.7.7-.4.9-.3.6.2-.8 1.4.9 3.8 2.2 3 .7-.5.8-1.3.1-2.5-1.3-2.5-3.5-3.2-5.4-1.8zM545.4 318.1c-.4 1.3-.7 2.9-.6 3.6.1.6-1.3 2.7-3.1 4.7-1.9 2-3.2 3.6-2.9 3.6.2 0 .1.6-.4 1.3-.5.7.1.1 1.4-1.3 1.2-1.4 2-1.8 1.7-.9-.6 1.7 1.8 4.9 3.6 4.9.6 0 .7.6.4 1.2-.4.7 0 .5.8-.4.8-1 1.7-1.5 2-1.1.4.3 1.6-.2 2.7-1.2 1.5-1.4 1.7-2.1.9-3.2-1.3-1.5.2-1.8 1.8-.2.6.6 1.8 1.2 2.8 1.3 1 .1 1.9 1 2.1 1.9.1.9-.1 1.6-.4 1.6-1.9-.3-3.2.2-3.2 1.2 0 .7 1 .9 2.6.5 1.4-.4 2.3-.3 2 .2-.3.4.4 1.5 1.5 2.2 2.4 1.8 2.4 2.7.2 3.3-1 .3-.5.4 1 .4 3.4-.2 5.7-2.4 3.7-3.7-.7-.4-1.9-.6-2.6-.3-2 .7-3.7-3.2-2-4.6 1.8-1.5 9 3 7.5 4.8-.5.6-.1.5.8-.3 1.4-1.3 1.4-1.8.3-3.1-.7-.9-1.9-1.4-2.6-1.1-.8.3-1.3 0-1.1-.6.1-.6-3.4-3.9-7.8-7.3-6-4.8-8.2-6-8.8-4.9-.4.7-1.4 1.1-2.3.7-1.1-.4-1.2-.8-.3-2 .9-1 .9-1.7.2-2.4-.8-.8-1.3-.4-1.9 1.2zm3.5 6.4c0 .5-.6.8-1.2.6-.7-.2-1.7-.4-2.4-.4s-1-.3-.8-.7c.7-1.1 4.5-.6 4.4.5zm-2.5 6.3c-1.4 2.2-2.8 2.1-3.2-.3-.5-2.1 1.9-3.8 3.3-2.4.6.6.6 1.5-.1 2.7zM30.5 320c-1 1.1-1.4 2-.9 2.1.5 0 0 .4-1.1.8-1.1.5-2.3.8-2.7.7-1.2-.2-4 4.3-3.3 5.4.3.6 1.3 1 2.1 1s1.4.4 1.4.9c0 1.6 4 2.3 5.5 1.1 2-1.7 1.9-3-.2-3-1.3 0-1.4-.3-.5-1.2.8-.8 1.5-.8 2.6.1 1 .8 1.6.9 2.1.1 1.1-1.7 4.3.7 5 3.9.9 4.4 6.3 8.6 6.1 4.8-.1-1.4.5-2.2 1.6-2.2.9 0 2-.4 2.4-.8.4-.4 0-.7-.8-.7-.9 0-1.9-.7-2.2-1.6-.6-1.7-2.7-.9-2.5.9.3 2.7-.2 4.8-1 4.3-.5-.3-.8-2.3-.6-4.3.2-4-1.2-6.2-3.4-5.5-1 .3-1.2 0-.8-1.1.3-.9-.1-2.1-.9-2.8-1.1-.9-1.2-1.5-.3-2.5.9-1.1.8-1.4-.7-1.1-1.1.1-2.4.6-3.1 1-.6.4-1.5.2-1.9-.4-.5-.8-.3-.9.6-.4.9.5 1.1.4.6-.3-.9-1.6-1-1.5-3.1.8zm4.7 2.5c1.8-.7 4 1.6 3 3.2-.5.7-1.1.7-2-.3-1-1-1-1.4-.1-1.4.7 0 1-.3.6-.6-.3-.3-1.1-.3-1.7.1-.8.5-.8 1 0 2 .7.8.7 1.5.1 1.9-.5.4-1.2.2-1.6-.4-.3-.5-1.7-.7-2.9-.4-1.5.4-2.5 0-2.9-.9-.4-1.1.1-1.4 1.8-1.3 1.8.3 2.2-.1 2-1.6-.3-1.6-.1-1.7.9-.9.7.6 2 .9 2.8.6zM525 319.6c0 .8.5 1.2 1 .9.6-.3 1-1 1-1.6 0-.5-.4-.9-1-.9-.5 0-1 .7-1 1.6zM49.6 322.5c-.3.9.1 1.8 1 2.2 1.9.7 2.8-.2 2.1-2.2-.8-1.9-2.3-1.9-3.1 0zm2.4.5c0 .5-.5 1-1.1 1-.5 0-.7-.5-.4-1 .3-.6.8-1 1.1-1 .2 0 .4.4.4 1z"/><path style="fill:#000000" d="M44.7 324.3c-.3.9.2 2.1 1.1 2.8.9.8 1.4.9 1 .5-.4-.5-.3-1.5.4-2.3.6-.7.8-1.6.4-2-.3-.3-.6 0-.6.8 0 1.1-.2 1.2-.9.1-.7-1.1-.9-1.1-1.4.1zM50.5 328c.3.5 1 1 1.6 1 .5 0 .9-.5.9-1 0-.6-.7-1-1.6-1-.8 0-1.2.4-.9 1zM555.1 331.9c-1.4.4-2.6 1.2-2.7 1.9-.1.7 0 .8.3.2.2-.5.8-.8 1.2-.5.5.2 1.7-.2 2.7-1 2.1-1.6 2-1.6-1.5-.6zM52 333.8c0 .5.7.9 1.5.9s1.5-.4 1.5-.9c0-.4-.7-.8-1.5-.8s-1.5.4-1.5.8zM34.5 338c1 1.1 2 2 2.3 2 .3 0-.3-.9-1.3-2s-2-2-2.3-2c-.3 0 .3.9 1.3 2zM548.4 338.4c.1.8.5 1.8.8 2.2.4.3.5-.1.4-1-.1-.8-.5-1.8-.8-2.2-.4-.3-.5.1-.4 1zM555.5 340c-1.6.7-1.7.9-.3.9.9.1 2-.4 2.3-.9.7-1.1.7-1.1-2 0z"/></svg>
