<?xml version="1.0" standalone="no"?>
<!DOCTYPE svg PUBLIC "-//W3C//DTD SVG 20010904//EN"
 "http://www.w3.org/TR/2001/REC-SVG-20010904/DTD/svg10.dtd">
<svg version="1.0" xmlns="http://www.w3.org/2000/svg"
 width="603.000000pt" height="368.000000pt" viewBox="0 0 603.000000 368.000000"
 preserveAspectRatio="xMidYMid meet">
<metadata>
Created by potrace 1.16, written by Peter Selinger 2001-2019
</metadata>
<g transform="translate(0.000000,368.000000) scale(0.100000,-0.100000)"
fill="#000000" stroke="none">
<path d="M0 1840 l0 -1840 3015 0 3015 0 0 1840 0 1840 -3015 0 -3015 0 0
-1840z m4193 1736 c4 -10 1 -13 -9 -9 -15 6 -19 23 -5 23 5 0 11 -7 14 -14z
m630 -11 l-18 -24 -251 -1 c-212 0 -254 2 -264 15 -7 8 -24 15 -39 15 -14 0
-33 4 -41 9 -8 6 109 10 308 10 l322 0 -17 -24z m902 1 c-56 -21 -77 -23 -303
-24 -235 -1 -243 0 -262 20 -22 24 -23 24 -38 -17 l-11 -30 3 35 c2 19 5 36 5
37 1 1 151 2 334 2 l332 -1 -60 -22z m-4387 -53 c48 -37 91 -73 95 -80 4 -7
15 -13 23 -13 14 0 15 -107 8 -962 l-6 -963 56 -40 c31 -22 56 -43 56 -47 0
-5 6 -8 14 -8 8 0 21 -8 28 -18 7 -9 30 -28 50 -42 37 -25 40 -35 9 -35 -18 0
-57 -27 -120 -82 -20 -18 -43 -33 -51 -33 -16 0 -16 -1 55 55 28 22 52 42 55
45 3 4 13 9 23 13 9 3 17 10 17 15 0 11 -77 9 -103 -3 -12 -5 -24 0 -42 19
-13 14 -29 26 -36 26 -8 0 -6 -7 4 -18 16 -18 15 -20 -28 -51 -43 -31 -57 -51
-35 -51 6 0 10 -5 10 -10 0 -6 -6 -10 -12 -9 -28 3 -36 -2 -48 -30 -8 -21 -17
-27 -31 -24 -20 6 -25 18 -10 27 11 7 2 46 -10 46 -26 0 -1 32 64 81 39 29 75
58 78 63 4 4 18 0 33 -9 14 -10 27 -13 27 -9 1 5 2 16 3 24 0 8 9 14 20 13 13
-1 15 2 8 9 -8 8 -19 6 -36 -6 -15 -9 -26 -12 -26 -7 0 6 8 14 17 20 10 5 15
12 12 15 -4 4 -116 -80 -443 -337 -43 -34 -98 -76 -121 -94 -47 -35 -66 -56
-41 -47 9 3 16 10 16 15 0 5 5 9 10 9 6 0 33 18 61 40 48 38 85 46 58 13 -10
-11 -10 -19 -1 -33 14 -23 -3 -31 -52 -23 -42 7 -47 -7 -11 -31 31 -20 31 -33
4 -55 -19 -15 -20 -20 -8 -40 12 -20 12 -24 -6 -36 -11 -8 -27 -20 -35 -28
-24 -22 -53 -29 -62 -15 -11 18 -10 28 2 28 5 0 19 9 31 21 15 15 28 19 47 14
26 -6 26 -6 -7 24 -19 17 -40 31 -47 31 -7 0 -15 5 -17 10 -3 6 -4 5 -3 -2 2
-7 -5 -24 -15 -37 -10 -13 -16 -28 -13 -33 3 -5 -4 -12 -15 -15 -17 -4 -19 -8
-10 -19 6 -8 17 -14 23 -14 15 0 38 -38 31 -51 -4 -5 -11 -7 -16 -4 -5 4 -9
-3 -9 -14 0 -16 -5 -19 -25 -15 -20 3 -25 0 -25 -16 0 -22 -3 -23 -37 -14 -13
4 -23 13 -23 20 0 8 -7 14 -16 14 -8 0 -12 -4 -9 -10 3 -5 -3 -10 -15 -10 -13
0 -19 4 -14 12 5 7 3 8 -6 3 -10 -6 -10 -11 3 -20 9 -7 14 -15 10 -18 -3 -4 1
-7 9 -7 9 0 19 -8 22 -17 5 -12 9 -14 18 -5 14 14 38 16 38 2 0 -15 -43 -35
-48 -21 -2 6 -9 11 -15 11 -7 0 -18 9 -25 20 -7 11 -19 20 -28 20 -8 0 -12 5
-9 10 3 6 -1 10 -10 10 -19 0 -45 23 -45 39 0 6 5 11 10 11 6 0 10 -4 10 -8 0
-5 14 -9 30 -10 34 -1 37 4 14 29 -15 17 -14 20 11 43 16 15 30 26 32 26 3 0
25 -16 49 -36 25 -20 47 -34 50 -31 3 3 -6 13 -20 22 -14 10 -23 22 -19 28 3
6 1 7 -5 3 -6 -3 -16 3 -22 14 -9 16 -8 22 6 27 9 3 26 15 37 27 12 12 35 31
52 43 16 12 28 24 25 26 -6 6 -312 -230 -345 -265 -14 -15 -8 -13 18 6 35 25
41 27 63 16 13 -8 24 -17 24 -22 0 -4 7 -8 15 -8 8 0 20 -9 27 -20 7 -11 17
-20 21 -20 9 0 37 -25 37 -33 0 -3 -24 -23 -54 -46 -43 -34 -58 -40 -73 -33
-13 7 -22 6 -33 -6 -13 -14 -13 -15 1 -10 16 6 68 -26 58 -37 -17 -17 -50 -12
-67 10 -11 13 -31 29 -45 36 -14 6 -29 18 -32 27 -5 13 -3 13 12 1 9 -8 14 -9
10 -2 -4 7 0 16 10 22 17 9 17 11 1 27 -10 10 -21 14 -25 10 -5 -5 -2 -11 5
-13 19 -7 14 -23 -8 -23 -11 0 -19 6 -18 13 2 6 -5 11 -14 9 -31 -5 -28 16 7
39 19 13 35 28 35 33 0 10 5 14 -127 -93 -57 -45 -103 -78 -103 -74 0 4 -5 1
-10 -7 -16 -25 -13 16 4 48 11 22 14 150 18 688 3 517 6 665 16 677 8 10 9 17
3 21 -5 4 -10 29 -9 56 0 35 3 48 11 43 9 -5 9 -3 1 8 -16 20 -16 261 -1 271
9 6 8 8 -1 8 -17 0 -15 168 2 189 8 11 8 13 -2 7 -8 -5 -12 1 -12 18 0 14 5
26 11 26 5 0 8 -4 5 -8 -3 -5 1 -9 7 -9 7 0 13 11 13 23 0 12 -4 20 -9 17 -5
-3 -7 5 -5 18 2 17 -1 23 -12 21 -12 -2 -12 0 2 11 21 16 33 61 23 84 -13 29
-14 44 -3 37 5 -4 8 7 6 27 -2 28 -7 33 -23 31 -19 -3 -19 -2 2 12 19 15 21
24 19 99 -2 85 2 127 13 127 3 0 6 -536 6 -1190 0 -654 1 -1190 3 -1190 4 0
133 100 173 134 45 39 53 45 164 131 137 107 304 240 302 241 -1 1 -16 -1 -34
-3 -22 -4 -30 -9 -26 -19 3 -9 -2 -14 -17 -14 -12 0 -18 -4 -15 -11 9 -13 -27
-8 -37 6 -5 6 -8 5 -8 -3 0 -7 -11 -17 -25 -22 -14 -5 -25 -16 -25 -24 0 -18
-21 -26 -78 -28 -43 -1 -41 -2 18 -8 l65 -7 -62 -1 c-34 -1 -65 -7 -68 -13 -5
-7 11 -9 49 -5 31 3 56 4 56 2 0 -5 -106 -86 -113 -86 -3 0 -8 12 -10 28 -3
22 -4 20 -6 -10 -1 -29 -8 -42 -34 -62 -31 -24 -43 -26 -138 -28 l-104 -2 95
-6 c93 -6 93 -6 30 -10 l-65 -3 53 -6 53 -6 -52 -40 c-28 -22 -65 -52 -82 -67
-18 -15 -35 -28 -39 -28 -4 0 -7 72 -7 160 l0 160 47 1 c26 0 57 2 70 3 13 2
25 -1 28 -6 3 -4 10 -5 16 -2 7 5 8 2 4 -5 -5 -7 -14 -10 -20 -8 -15 6 -17
-23 -4 -40 16 -20 37 -3 40 30 3 31 5 32 58 37 48 4 42 5 -45 10 l-100 6 101
2 100 2 3 45 c1 25 -2 45 -8 45 -5 0 -9 -17 -8 -37 l2 -38 -141 -3 -141 -3 -1
46 -1 45 149 0 150 0 1 48 c1 26 0 64 -1 85 -1 28 2 37 15 37 9 0 13 5 10 10
-4 6 -11 8 -16 5 -5 -4 -9 15 -8 42 1 39 3 43 9 23 4 -14 8 -20 9 -15 1 7 17
9 39 7 20 -3 33 -1 29 4 -4 4 -20 8 -34 9 -18 0 -29 7 -33 20 -3 11 -12 20
-20 20 -13 0 -15 -18 -13 -108 1 -80 -1 -107 -10 -104 -7 3 -12 -5 -12 -18 0
-13 3 -21 8 -18 4 2 7 -3 7 -11 0 -9 -7 -16 -15 -16 -17 0 -22 65 -5 75 10 6
6 40 -12 88 -12 30 -28 37 -23 10 2 -10 4 -18 5 -18 1 0 3 -37 5 -83 l4 -83
-39 3 -40 2 0 125 c0 130 8 163 12 49 l2 -66 23 17 c20 15 34 49 15 37 -5 -3
-8 6 -8 19 1 14 4 24 6 23 3 -1 15 4 28 11 22 12 23 14 7 31 -14 15 -14 18 -1
23 8 3 17 2 20 -4 2 -5 3 -4 2 3 -3 17 -116 21 -135 5 -11 -9 -13 -9 -8 0 4 6
1 13 -5 16 -7 2 73 6 177 7 425 6 685 5 685 -3 0 -4 13 2 30 14 25 19 27 25
18 43 -8 15 -9 282 -4 964 l6 944 -29 33 c-16 19 -31 32 -34 29 -2 -2 -10 2
-17 11 -10 12 -10 15 3 15 9 0 26 -13 38 -30 18 -23 25 -27 36 -18 10 8 12 7
8 -5 -4 -8 -1 -18 4 -22 6 -3 9 -10 6 -14 -2 -5 7 -6 20 -3 14 2 22 9 19 14
-3 5 -13 7 -21 4 -10 -4 -13 -2 -10 8 4 9 -10 27 -36 48 -23 18 -59 50 -82 71
-45 42 -51 44 -77 21 -16 -15 -65 -17 -470 -18 -250 -1 -462 3 -473 8 -11 5
-25 10 -32 11 -6 2 -19 8 -30 13 -13 8 135 11 510 12 l529 0 86 -67z m1272 53
c0 -8 -4 -17 -9 -21 -5 -3 -177 -5 -382 -6 -362 0 -372 1 -391 21 l-19 20 401
0 c342 0 400 -2 400 -14z m1307 -6 c5 -18 15 -24 34 -22 4 1 20 -11 35 -26 16
-14 32 -26 36 -24 13 3 29 -36 18 -43 -9 -6 -92 53 -115 82 -8 10 -105 14
-410 15 -368 3 -400 4 -403 20 -3 16 25 17 398 18 395 0 402 0 407 -20z m328
-16 c13 -9 28 -13 33 -10 5 3 21 -3 35 -14 24 -19 25 -25 25 -118 0 -53 2
-102 4 -107 2 -6 1 -10 -2 -11 -3 0 -15 -6 -27 -13 -18 -9 -23 -9 -23 0 0 7
-3 10 -6 6 -3 -3 -2 -12 2 -19 12 -18 12 -30 1 -53 -8 -16 -7 -18 4 -8 10 10
16 10 28 0 14 -10 14 -10 4 4 -7 9 -10 19 -6 22 3 4 2 7 -4 7 -5 0 -10 7 -10
15 0 8 4 15 9 15 14 0 26 -43 21 -80 -7 -52 -4 -85 7 -88 6 -2 10 -8 10 -13 0
-6 -4 -7 -10 -4 -9 6 -15 -17 -6 -26 2 -2 7 -247 10 -543 3 -343 9 -543 15
-549 7 -7 9 -3 6 12 -2 12 0 19 5 16 5 -3 7 -16 4 -29 -3 -16 3 -26 19 -34 20
-11 20 -11 2 -9 -12 1 -19 -3 -17 -11 1 -8 -2 -11 -8 -7 -6 3 -8 10 -5 15 3 5
1 11 -3 14 -5 3 -9 -22 -10 -56 0 -35 3 -55 8 -48 5 7 6 20 3 29 -4 14 -3 14
6 1 6 -8 11 -11 11 -6 0 5 6 3 13 -3 8 -6 16 -8 19 -6 3 3 5 -4 4 -15 0 -11
-5 -20 -11 -19 -5 0 -9 6 -7 13 1 7 -5 13 -13 13 -9 0 -14 -6 -11 -12 2 -7 0
-17 -5 -22 -7 -7 -1 -9 17 -9 14 1 32 10 39 20 16 21 12 52 -6 48 -11 -3 -11
-1 -2 8 6 7 15 10 21 6 12 -7 16 -133 4 -140 -5 -3 -27 -6 -50 -7 -32 -2 -42
-7 -42 -20 0 -10 4 -21 10 -24 6 -3 7 1 4 10 -5 12 -1 14 17 11 13 -3 26 -5
29 -6 3 -1 13 -1 23 0 16 1 17 -10 15 -142 l-3 -144 84 -65 c46 -35 90 -68 98
-72 12 -7 13 73 12 525 -1 499 2 978 7 978 1 0 14 -53 28 -117 15 -65 33 -145
42 -178 8 -33 17 -72 19 -86 2 -14 16 -79 31 -145 14 -65 41 -191 61 -279 19
-87 39 -167 44 -177 6 -10 7 -23 4 -28 -4 -6 10 -10 32 -11 64 -2 68 -3 71
-23 4 -17 -1 -18 -47 -13 l-50 6 9 -25 c6 -14 10 -37 10 -52 0 -15 5 -34 11
-42 8 -12 9 -10 4 7 -3 12 -1 24 5 28 7 4 7 12 0 25 -7 13 -7 21 0 25 5 3 10
1 10 -6 0 -8 4 -8 15 1 13 11 15 10 9 -6 -3 -10 -10 -29 -16 -40 -7 -16 -7
-33 2 -59 8 -24 9 -40 3 -44 -15 -9 -11 -41 5 -41 9 0 12 -6 8 -17 -5 -15 -3
-14 9 2 15 19 16 19 44 -11 22 -23 28 -37 24 -57 -8 -39 -19 -33 -27 13 -3 22
-10 40 -14 40 -4 0 -13 -19 -20 -43 -13 -43 -8 -92 9 -103 5 -3 7 -15 4 -27
-3 -12 -1 -35 3 -52 l9 -30 7 43 c6 34 59 224 146 527 5 17 21 75 34 130 14
55 30 109 35 120 13 27 57 162 67 205 8 32 9 28 15 -40 4 -41 8 -226 9 -411 1
-284 3 -339 16 -355 14 -18 15 -18 5 3 -8 15 -8 24 -1 28 6 4 10 3 9 -2 -3
-20 2 -34 11 -28 6 3 17 -1 26 -9 14 -15 13 -16 -8 -12 -39 6 -57 -10 -55 -49
2 -19 9 -40 16 -47 11 -11 12 -10 6 2 -7 12 -6 13 6 3 8 -6 17 -12 22 -12 20
-2 8 -15 -16 -16 -31 -2 -49 -15 -28 -23 11 -4 11 -6 0 -13 -10 -6 -5 -9 15
-9 16 0 27 -3 23 -6 -3 -4 6 -22 20 -41 21 -28 29 -32 37 -21 6 7 23 14 38 14
26 2 26 1 12 -31 -7 -18 -11 -35 -8 -38 10 -9 -30 -16 -86 -15 -30 1 -54 -1
-52 -5 1 -4 2 -12 2 -18 0 -8 4 -8 14 1 10 8 21 8 32 2 10 -5 32 -6 53 -1 48
11 104 11 97 0 -3 -5 -15 -7 -25 -4 -18 5 -19 -2 -15 -166 l4 -171 -90 2 c-50
2 -90 1 -89 -2 0 -6 119 -93 134 -99 6 -2 2 5 -7 16 -10 11 -18 25 -18 32 0 7
-4 10 -9 7 -14 -9 -41 4 -41 20 0 10 13 14 45 14 33 0 45 -4 45 -15 0 -8 5
-15 11 -15 6 0 9 7 6 15 -5 11 4 14 41 13 26 0 53 -5 61 -12 11 -8 15 -8 18 2
3 6 9 12 14 12 5 0 9 -36 9 -79 0 -44 4 -91 9 -104 14 -36 3 -40 -33 -13 -79
59 -73 45 8 -18 66 -51 84 -58 61 -23 -8 13 -17 37 -19 53 -3 16 -7 45 -10 64
-9 56 -14 2827 -5 2841 5 8 9 -5 11 -34 2 -26 8 -47 13 -47 6 0 10 4 10 9 0 5
2 12 6 15 3 3 5 -6 5 -19 0 -16 -6 -25 -16 -25 -17 0 -25 -36 -9 -45 5 -4 9 4
9 16 0 33 13 14 15 -21 3 -67 13 -35 14 49 2 84 1 90 -18 86 -19 -3 -23 16 -7
32 4 4 6 3 4 -4 -2 -6 2 -11 7 -11 6 -1 9 5 7 13 -1 7 2 16 8 20 7 4 10 -98
10 -316 0 -177 -2 -320 -4 -318 -3 3 -6 23 -7 46 -2 24 -9 45 -16 47 -7 3 -13
11 -12 18 0 10 2 10 6 1 13 -34 20 -5 19 76 -1 57 -5 86 -11 80 -16 -16 -22
-10 -17 19 2 15 1 24 -3 20 -11 -11 -14 -87 -4 -94 5 -3 6 2 3 10 -3 9 -2 16
4 16 14 0 23 -28 12 -35 -6 -4 -10 -22 -10 -41 0 -20 -5 -44 -10 -54 -6 -10
-6 -21 -1 -24 4 -3 6 -17 3 -31 -3 -18 0 -25 9 -23 16 4 21 -60 5 -70 -6 -4
-12 -15 -13 -26 -1 -12 2 -15 9 -8 12 12 38 5 38 -10 0 -5 -4 -7 -8 -4 -4 2
-8 -4 -8 -14 0 -10 4 -16 8 -14 4 3 8 0 8 -5 0 -6 -6 -11 -12 -11 -9 0 -8 -3
2 -10 13 -8 15 -55 14 -327 -1 -335 -1 -351 -16 -370 -5 -7 -5 -14 2 -18 14
-9 13 -48 -2 -64 -10 -11 -10 -13 0 -7 9 6 12 -12 12 -74 0 -62 -3 -79 -12
-74 -8 5 -7 0 2 -11 13 -15 16 -112 20 -679 5 -599 7 -665 23 -705 9 -24 15
-46 13 -48 -5 -6 -137 91 -180 131 -16 15 -63 53 -105 84 -42 31 -82 63 -90
70 -7 7 -49 40 -92 73 l-79 60 -26 -30 c-13 -16 -40 -39 -59 -51 -19 -12 -34
-27 -32 -33 1 -7 -6 -11 -17 -9 -10 2 -15 -1 -12 -7 4 -5 1 -13 -5 -17 -8 -5
-9 -3 -4 6 6 10 4 12 -9 7 -36 -14 -8 19 59 71 38 29 72 57 76 63 3 6 10 11
15 12 5 1 23 13 39 28 l30 28 -1 218 c0 120 -1 359 -2 532 -1 172 1 318 4 322
3 5 2 9 -3 9 -4 0 -27 -75 -51 -168 -23 -92 -54 -210 -68 -262 -50 -185 -66
-246 -90 -339 -14 -52 -27 -98 -30 -102 -11 -19 -24 -7 -34 31 -5 22 -14 57
-20 78 -5 20 -30 132 -55 247 -25 116 -64 287 -85 380 -21 94 -50 221 -64 283
-14 62 -26 132 -26 157 0 24 -4 46 -9 50 -6 3 -8 -211 -7 -555 2 -308 2 -560
0 -560 -3 0 -45 32 -94 70 -50 39 -90 67 -90 63 0 -5 16 -28 35 -52 19 -24 35
-47 35 -51 0 -8 -53 -33 -60 -28 -3 1 -4 10 -3 18 2 10 0 10 -3 3 -3 -7 -11
-13 -18 -13 -14 0 -16 97 -2 118 4 8 4 17 0 22 -10 9 -194 153 -235 183 -30
22 -35 53 -11 66 16 9 17 33 15 278 -3 328 -3 1640 0 1668 1 14 -4 20 -15 19
-10 -1 -15 2 -13 7 3 4 -3 17 -15 29 -24 24 -18 26 15 4z m841 -25 l-15 -34 2
30 c1 17 6 33 12 37 16 12 17 2 1 -33z m-1996 7 c0 -16 -119 -101 -128 -91 -4
4 4 15 18 24 13 9 39 28 56 43 17 15 34 25 38 21 3 -3 6 -1 6 5 0 7 2 12 5 12
3 0 5 -6 5 -14z m1027 -9 c0 -8 -6 -14 -14 -14 -9 0 -10 4 -2 14 6 7 12 13 14
13 1 0 2 -6 2 -13z m73 10 c0 -2 -10 -12 -22 -23 l-23 -19 19 23 c18 21 26 27
26 19z m-3902 -22 c12 2 25 -2 28 -8 4 -7 4 -9 -1 -5 -4 4 -14 3 -22 -4 -11
-9 -19 -6 -36 12 -12 13 -15 19 -6 12 8 -6 25 -10 37 -7z m2417 6 c3 -5 0 -13
-6 -17 -7 -4 -9 -3 -5 4 3 5 0 13 -6 15 -9 4 -10 6 -1 6 6 1 14 -3 18 -8z
m-949 -18 c-4 -26 -83 -77 -104 -68 -14 7 -13 9 8 15 14 4 24 13 22 20 -2 8 5
11 23 8 15 -3 25 -1 25 6 0 10 19 36 26 36 1 0 1 -8 0 -17z m3903 -4 c-12 -10
-25 -16 -28 -13 -3 4 0 9 7 11 6 3 10 8 8 12 -3 4 4 8 16 8 19 2 19 1 -3 -18z
m-2847 -72 c3 -12 6 -286 7 -609 1 -385 4 -588 11 -588 6 0 10 -7 10 -15 0 -9
6 -12 15 -9 13 5 15 -7 13 -82 -1 -71 -2 -77 -5 -29 -2 35 -9 64 -17 70 -8 6
-16 22 -19 35 -2 14 -5 -6 -6 -43 -1 -43 3 -66 9 -62 6 4 10 -7 9 -27 -1 -31
-1 -32 -9 -8 -6 20 -8 15 -9 -26 -1 -44 2 -52 24 -64 29 -15 33 -45 8 -54 -12
-5 -14 -9 -5 -18 15 -15 15 -28 2 -28 -6 0 -9 3 -8 8 0 4 -2 14 -5 22 -3 8 -8
24 -10 35 -3 11 -5 -13 -6 -54 0 -41 2 -71 5 -68 4 3 15 2 25 -4 17 -9 19 -23
19 -119 0 -93 -2 -108 -15 -104 -11 5 -12 11 -5 24 14 26 12 40 -5 40 -9 0
-15 9 -15 25 0 16 6 25 15 25 17 0 20 16 4 25 -6 4 -14 17 -19 29 -6 14 -9 -7
-9 -68 l-1 -89 -42 -36 c-41 -35 -114 -91 -158 -121 -48 -32 -201 -154 -266
-211 l-52 -47 -138 0 -138 1 -94 74 c-69 55 -97 72 -105 64 -8 -8 -7 -11 4
-11 9 0 29 -11 45 -25 16 -14 33 -25 38 -25 5 0 6 -3 3 -6 -3 -4 -2 -15 4 -25
7 -15 6 -17 -6 -13 -8 3 -12 10 -9 15 3 5 0 9 -6 9 -7 0 -28 16 -47 35 -19 19
-40 35 -46 35 -6 0 -3 6 7 13 16 11 6 22 -98 102 l-116 90 1 910 c0 501 4 933
9 960 10 67 11 54 12 -110 0 -77 2 -131 5 -120 3 11 10 23 16 27 14 9 20 115
7 123 -6 4 -7 11 -4 17 11 18 13 58 3 58 -5 0 -9 5 -9 10 0 6 6 10 14 10 21 0
22 -22 16 -595 -7 -722 -4 -935 15 -935 8 0 15 4 15 8 0 5 6 9 13 9 8 0 14 -6
14 -13 0 -7 -3 -13 -6 -12 -46 5 -51 -1 -51 -63 l0 -60 110 4 c61 3 113 6 115
9 2 2 5 27 6 55 1 29 6 50 11 47 4 -3 8 0 8 5 0 6 -4 11 -10 11 -5 0 -10 6
-10 14 0 9 7 12 20 9 11 -3 20 0 20 6 0 8 6 9 18 3 9 -5 24 -7 32 -5 12 4 12
3 2 -5 -8 -5 -13 -12 -13 -16 1 -3 -2 -5 -6 -3 -5 1 -7 6 -5 11 2 5 -3 4 -11
-2 -8 -7 -17 -9 -20 -5 -7 7 -10 -34 -7 -104 1 -24 -2 -44 -7 -44 -4 -1 -61
-2 -126 -4 -65 -1 -121 -5 -124 -9 -4 -3 55 -6 130 -6 l137 0 0 60 c0 33 4 60
9 60 6 0 8 -8 6 -18 -2 -13 3 -18 20 -18 13 0 21 4 19 8 -5 8 11 12 31 8 5 -1
7 2 2 6 -11 12 -49 16 -42 5 3 -5 0 -13 -6 -17 -8 -5 -9 -3 -4 6 6 9 4 11 -4
5 -10 -6 -11 -3 -1 14 6 12 15 19 21 16 5 -4 14 4 19 17 l10 23 -3 -25 c-2
-26 3 -27 51 -16 13 3 20 1 17 -5 -4 -5 -11 -7 -16 -4 -5 4 -9 1 -9 -5 0 -6
-6 -8 -12 -4 -7 4 -10 4 -6 -1 4 -4 3 -14 -3 -21 -7 -9 -6 -12 8 -9 10 1 17 7
16 13 -4 17 27 23 34 6 6 -17 -25 -56 -39 -48 -5 3 -4 -3 4 -15 8 -13 16 -17
22 -11 13 13 26 13 26 -1 0 -5 -4 -8 -9 -4 -5 3 -12 1 -15 -4 -3 -5 -35 -8
-71 -7 -36 1 -65 -2 -65 -7 0 -4 70 -7 155 -6 97 0 155 5 155 11 0 6 -6 8 -14
5 -8 -3 -22 1 -33 9 -10 9 -11 12 -3 8 9 -4 12 -3 7 2 -5 5 -13 10 -18 10 -5
1 -13 2 -19 3 -5 0 -10 7 -10 15 0 7 -21 31 -47 52 -27 21 -49 42 -51 46 -2 5
-8 8 -13 8 -6 0 -8 -4 -5 -8 3 -5 -1 -9 -9 -9 -10 0 -12 4 -5 12 5 7 7 14 5
17 -3 3 -6 163 -6 356 0 326 -1 351 -17 346 -16 -5 -16 -5 -1 5 15 10 17 42
18 278 1 155 6 272 11 277 7 7 10 2 10 -11 0 -11 7 -23 15 -27 9 -3 15 0 15 9
0 8 -4 15 -10 15 -5 0 -10 5 -10 10 0 7 58 10 168 8 l167 -3 -2 -775 c-2 -511
1 -765 7 -745 6 17 8 36 5 43 -2 6 2 12 10 12 8 0 12 -8 10 -20 -2 -11 1 -20
6 -20 5 0 9 7 7 16 -2 10 5 18 14 19 26 4 33 -13 14 -34 -9 -10 -16 -22 -16
-28 0 -6 -6 -13 -13 -16 -8 -3 -13 -16 -11 -29 1 -12 3 -26 3 -30 1 -5 10 -8
20 -8 22 0 37 -30 21 -40 -8 -5 -6 -9 4 -13 14 -6 16 10 16 136 0 87 4 137 9
128 5 -8 7 -20 4 -28 -4 -10 19 -13 113 -14 66 -1 108 -4 94 -8 -14 -4 -56 -6
-95 -4 -109 4 -114 2 -112 -55 2 -41 5 -48 20 -44 9 2 16 12 15 20 -2 9 2 17
9 17 18 0 27 13 17 28 -5 7 0 2 12 -11 20 -22 21 -22 35 -5 13 17 13 17 -6 3
-19 -14 -19 -14 -6 3 13 16 16 16 37 2 17 -11 25 -12 30 -3 4 6 3 8 -3 5 -6
-4 -16 -1 -22 6 -8 11 -4 13 19 12 16 -1 33 -5 37 -10 5 -4 2 -5 -6 0 -10 6
-12 4 -7 -4 6 -9 11 -9 22 0 27 22 25 2 -2 -24 -28 -28 -44 -34 -44 -17 0 15
-26 12 -40 -5 -10 -12 -16 -13 -29 -3 -14 11 -14 11 -3 -3 7 -9 9 -25 5 -34
-5 -14 -3 -16 8 -10 8 4 -4 -9 -26 -29 -22 -20 -47 -43 -56 -51 -9 -8 -23 -15
-32 -15 -9 0 -18 -4 -21 -9 -3 -5 -15 -7 -26 -4 -14 4 -19 12 -16 28 5 29 -3
38 -21 24 -18 -16 -17 -32 3 -25 8 3 12 2 9 -4 -3 -6 -16 -10 -28 -11 -15 -1
-11 -4 13 -11 44 -12 46 -14 30 -33 -19 -23 4 -18 25 5 10 11 22 20 27 20 5 0
52 34 104 75 52 41 108 82 124 92 l30 17 1 606 c1 1133 0 1091 15 1079 11 -9
13 -36 11 -111 -2 -55 0 -101 3 -103 4 -2 7 1 7 8 12 248 13 286 3 311 -5 15
-16 26 -23 23 -6 -2 -24 4 -39 15 -22 15 -25 22 -16 32 10 10 20 7 53 -16 22
-16 43 -39 47 -51z m2211 47 c-25 -25 -49 -33 -37 -11 4 7 3 8 -2 4 -5 -5 -9
-16 -9 -25 0 -11 -9 -18 -25 -20 -22 -2 -19 3 24 42 51 46 95 56 49 10z m-920
15 c-8 -8 -5 -17 12 -33 l24 -21 2 -915 c0 -503 1 -920 0 -927 -1 -6 -28 -31
-61 -55 -56 -41 -78 -67 -45 -54 8 3 -4 -13 -27 -36 -24 -23 -47 -41 -52 -39
-5 1 -6 -5 -3 -13 7 -18 -9 -31 -18 -16 -4 6 -12 8 -18 4 -12 -6 10 14 73 67
19 16 30 29 25 29 -19 0 -135 -101 -129 -112 4 -7 2 -8 -4 -4 -15 9 -152 -95
-147 -111 2 -7 -2 -10 -8 -7 -7 2 -31 -11 -54 -31 l-41 -35 -111 0 -112 0
-102 77 c-56 43 -109 83 -117 90 -165 134 -264 204 -271 192 -14 -22 -10 -56
7 -74 18 -17 24 -15 28 9 3 22 11 21 49 -3 18 -11 26 -21 19 -21 -9 0 -10 -5
-2 -19 14 -28 13 -41 -6 -41 -9 0 -12 5 -8 13 4 6 4 9 -1 5 -13 -12 -34 18
-29 43 5 22 4 22 -9 7 -9 -11 -22 -15 -38 -11 -29 7 -26 3 64 -66 37 -29 67
-48 67 -43 0 6 -5 12 -11 14 -9 3 -9 10 0 27 7 12 10 29 7 38 -8 19 56 -18
104 -62 19 -17 55 -47 80 -66 25 -18 50 -41 57 -49 7 -8 13 -11 13 -7 0 10 30
-18 30 -28 0 -4 -11 -5 -25 -3 -14 3 -25 0 -26 -6 0 -6 -5 1 -11 17 -10 28
-22 34 -33 17 -3 -5 -1 -10 5 -10 6 0 10 -8 8 -18 -4 -19 -39 -24 -50 -7 -5 6
-8 5 -8 -3 0 -7 -4 -10 -10 -7 -9 5 4 41 21 55 3 3 8 13 12 23 7 20 -3 23 -21
5 -6 -6 -21 -12 -31 -13 -15 -1 -20 4 -18 19 1 16 -4 21 -20 21 -12 0 -29 9
-38 20 -16 20 -16 20 -12 -2 6 -28 -20 -39 -43 -18 -17 15 -40 20 -40 9 0 -4
8 -13 18 -20 16 -13 16 -13 0 -14 -10 0 -18 5 -18 10 0 6 -7 10 -15 10 -14 0
-14 3 0 30 20 38 20 57 1 41 -16 -14 -43 -4 -66 24 -11 13 -15 13 -22 3 -6 -8
-7 19 -4 72 3 47 7 507 9 1023 3 894 4 938 21 955 11 9 16 12 13 6 -4 -7 2
-14 13 -17 11 -3 18 -13 17 -25 0 -11 -5 -18 -9 -16 -5 3 -5 10 -2 16 4 6 -1
8 -12 6 -17 -3 -19 -14 -20 -103 -1 -84 0 -91 6 -40 4 33 7 54 8 47 1 -7 6
-11 11 -7 14 8 21 -23 17 -73 -2 -27 0 -39 5 -30 6 9 9 6 9 -10 0 -15 -4 -21
-12 -16 -7 5 -8 3 -2 -7 4 -7 9 -115 10 -239 1 -124 3 -272 4 -330 1 -58 1
-107 0 -110 -1 -3 -4 -18 -6 -34 -4 -23 -2 -27 10 -23 18 7 22 -8 6 -18 -14
-9 -12 -55 2 -55 9 0 9 -3 0 -12 -9 -9 -12 -99 -11 -348 1 -184 4 -325 7 -313
8 26 21 20 41 -19 8 -16 18 -28 23 -28 15 0 48 35 48 51 0 11 7 16 18 15 13
-2 17 -13 19 -44 l2 -42 -76 0 c-70 0 -75 1 -70 20 3 11 1 18 -4 14 -5 -3 -9
-15 -9 -27 0 -15 20 -38 67 -74 38 -28 70 -50 72 -47 2 2 -9 14 -25 26 -16 13
-40 33 -54 45 l-25 22 62 1 62 0 -2 -59 c-2 -49 1 -61 17 -71 20 -13 20 -14 0
35 -4 9 1 17 10 21 9 3 13 10 10 15 -3 5 2 12 10 15 12 5 13 10 5 25 -9 18 -3
19 181 19 181 0 190 1 190 19 0 11 5 23 11 27 8 4 8 9 0 17 -6 6 -11 19 -11
28 0 15 24 17 253 18 l253 2 -1 -42 c-1 -32 -8 -47 -27 -63 -69 -58 -93 -74
-101 -69 -5 3 -4 9 3 13 9 6 9 9 1 15 -9 5 -9 10 0 21 8 10 8 14 0 14 -6 0
-11 7 -11 16 0 8 5 12 11 8 8 -4 8 0 0 15 -7 11 -8 21 -3 21 5 0 9 6 9 13 0
20 -23 16 -36 -6 -8 -11 -8 -16 -2 -12 6 3 11 -1 11 -9 0 -11 -10 -16 -31 -16
-27 0 -30 -2 -19 -15 10 -12 10 -18 0 -30 -6 -8 -15 -14 -18 -13 -4 0 -16 0
-27 -1 -16 -1 -17 -3 -6 -10 8 -5 22 -6 30 -2 29 14 66 -3 69 -32 3 -25 -5
-32 -31 -28 -5 1 -6 -3 -2 -9 3 -5 -1 -10 -10 -10 -9 0 -14 -4 -11 -9 11 -18
-27 -21 -40 -4 -13 17 -16 16 -44 -15 -16 -17 -32 -32 -35 -32 -3 0 -10 0 -17
0 -6 0 -4 -6 7 -13 10 -8 15 -18 12 -24 -3 -5 -41 -36 -84 -69 -43 -32 -81
-63 -85 -69 -4 -5 -8 -8 -8 -5 -4 57 -3 227 2 222 3 -4 8 -16 10 -27 2 -14 12
-20 33 -21 17 -1 33 -2 38 -4 4 -1 11 -3 16 -4 5 0 13 -4 17 -8 15 -16 24 -7
20 19 -3 15 0 33 6 40 8 9 7 13 -1 13 -9 0 -12 19 -10 58 3 91 0 176 -7 169
-4 -4 -6 -64 -6 -133 1 -70 -1 -131 -4 -135 -9 -15 -33 3 -29 22 2 10 0 21 -5
24 -5 3 -6 13 -3 22 4 11 3 14 -6 9 -8 -5 -14 -1 -18 13 -3 12 -9 21 -14 21
-5 0 -9 5 -9 11 0 5 5 7 12 3 7 -5 8 -3 3 6 -6 10 -11 10 -20 -3 -18 -25 -35
-21 -35 8 0 24 -2 25 -62 23 l-63 -2 57 -3 c56 -4 57 -5 60 -36 2 -19 8 -31
16 -29 6 1 12 -3 12 -9 0 -6 -7 -8 -16 -5 -13 5 -15 -8 -11 -109 l4 -115 -26
2 c-17 2 -25 -2 -23 -9 1 -7 -4 -13 -12 -13 -8 0 -16 -5 -18 -12 -3 -8 -13 -6
-31 8 l-26 19 -1 158 c0 86 -3 157 -7 157 -5 0 -7 -36 -5 -80 l4 -80 -38 0
c-37 0 -37 0 -18 21 14 15 15 20 4 17 -10 -2 -15 6 -16 22 -1 14 -2 38 -3 54
-1 38 -14 25 -16 -16 -1 -27 -6 -32 -26 -33 -20 -1 -24 3 -24 23 0 15 -6 26
-16 27 -14 3 -16 -6 -14 -56 2 -49 0 -59 -14 -59 -10 0 -23 6 -30 13 -8 6 -11
7 -8 1 4 -6 44 -40 89 -74 46 -35 101 -77 123 -94 22 -17 54 -44 72 -60 17
-16 38 -26 45 -23 7 3 137 101 288 218 184 142 274 217 272 228 -5 31 -2 1093
4 1102 3 5 -1 9 -8 10 -7 0 -8 2 -3 5 6 2 9 72 8 184 -1 170 0 180 17 180 10
0 21 3 23 8 7 13 -8 47 -22 50 -12 3 -12 1 0 -14 9 -12 9 -15 2 -10 -7 4 -13
3 -13 -3 0 -5 8 -12 18 -14 13 -4 12 -5 -5 -6 -21 -1 -21 2 -17 81 5 87 11
106 21 70 3 -12 9 -22 15 -22 5 0 4 8 -2 19 -7 14 -6 21 3 24 6 3 2 6 -10 6
-23 1 -29 11 -16 24 3 4 11 2 18 -3 8 -7 12 -5 12 5 0 8 -6 15 -13 15 -6 0
-14 7 -18 15 -3 8 -1 15 4 15 6 0 10 -4 10 -10 0 -5 4 -10 8 -10 5 0 7 14 4
30 -4 28 -5 29 -19 13 -14 -17 -14 -17 -9 0 4 11 0 17 -12 17 -9 0 -24 5 -32
10 -12 7 -13 11 -2 22 11 11 15 10 23 -5 6 -9 15 -14 21 -11 7 5 1 16 -18 32
-26 22 -27 24 -7 19 13 -3 26 -1 29 4 3 5 8 9 12 9 3 0 1 -5 -5 -11z m-3757
-149 c1 -82 -2 -150 -6 -150 -15 0 -19 14 -8 27 9 11 8 13 -3 11 -8 -2 -13 3
-11 11 1 7 -1 18 -5 25 -7 10 -8 20 -4 49 0 5 6 5 11 2 7 -4 7 -12 0 -25 -7
-13 -7 -21 0 -25 10 -6 12 0 13 50 0 19 -4 29 -12 27 -9 -2 -9 3 2 18 14 21
12 74 -3 65 -5 -3 -12 -1 -15 5 -4 6 -1 9 7 8 7 -2 14 7 16 19 3 18 -1 21 -20
17 -21 -4 -21 -4 -3 5 40 19 41 15 41 -139z m4734 145 c0 -13 -45 -105 -51
-105 -13 0 -15 44 -4 65 15 29 55 58 55 40z m-168 -87 c-7 -7 -12 -8 -12 -2 0
6 3 14 7 17 3 4 9 5 12 2 2 -3 -1 -11 -7 -17z m85 -24 c0 -10 -4 -11 -14 -3
-10 9 -13 7 -13 -10 0 -11 -4 -21 -10 -21 -11 0 -14 53 -4 63 9 9 41 -14 41
-29z m-4523 8 c3 -5 -1 -9 -9 -9 -8 0 -12 4 -9 9 3 4 7 8 9 8 2 0 6 -4 9 -8z
m791 -2 c3 -5 1 -10 -4 -10 -6 0 -11 5 -11 10 0 6 2 10 4 10 3 0 8 -4 11 -10z
m3772 -32 c-3 -8 -6 -5 -6 6 -1 11 2 17 5 13 3 -3 4 -12 1 -19z m-2071 -12 c2
-13 -1 -14 -10 -7 -7 6 -15 9 -18 6 -2 -3 -5 1 -5 9 0 20 30 13 33 -8z m1964
-2 c0 -8 5 -14 10 -14 6 0 10 -5 10 -11 0 -8 -4 -8 -14 0 -16 13 -29 54 -15
45 5 -3 9 -12 9 -20z m-1305 6 c3 -5 1 -10 -4 -10 -6 0 -11 5 -11 10 0 6 2 10
4 10 3 0 8 -4 11 -10z m1411 -97 c-6 -32 -22 -95 -42 -162 -3 -8 -7 -11 -10
-9 -5 6 47 208 54 208 2 0 1 -17 -2 -37z m-4731 -33 c-3 -5 5 -15 19 -21 23
-11 24 -16 23 -77 -2 -68 -14 -85 -38 -55 -8 10 -9 14 -2 10 18 -11 34 25 18
40 -7 6 -15 10 -17 7 -3 -2 -5 3 -5 10 0 8 3 15 6 14 28 -3 38 20 16 39 -4 4
-5 3 -1 -4 3 -6 2 -14 -4 -18 -5 -3 -11 -1 -11 4 -3 20 -4 26 -11 37 -4 6 -5
14 -1 18 10 9 15 7 8 -4z m4735 -142 c-59 -199 -58 -197 -59 -173 -1 11 -8 38
-16 61 -7 23 -17 65 -21 95 -4 30 -12 58 -18 62 -7 5 -3 7 9 5 17 -3 20 -12
23 -61 2 -31 7 -57 12 -57 6 0 10 -8 10 -17 1 -31 26 26 45 101 17 68 45 139
53 132 2 -2 -15 -69 -38 -148z m-4015 -545 l0 -631 -25 -20 c-14 -11 -35 -29
-47 -39 -12 -11 -34 -28 -48 -39 -49 -36 -65 -51 -58 -58 3 -3 -1 -6 -11 -6
-14 0 -73 -38 -143 -92 -9 -8 -12 146 -13 685 0 381 3 726 6 766 l7 71 166 -2
166 -3 0 -632z m2647 630 c-14 -3 -20 -9 -15 -16 4 -7 0 -7 -10 1 -17 15 -61
7 -52 -9 4 -5 1 -9 -4 -9 -6 0 -11 7 -11 15 0 8 -4 15 -10 15 -5 0 -6 -8 -3
-17 5 -13 2 -15 -11 -10 -10 4 -23 7 -29 7 -7 0 -6 4 3 10 12 8 11 10 -5 7
-11 -1 -26 -6 -32 -10 -7 -5 -13 -4 -13 1 0 6 -14 6 -36 -1 -22 -7 -38 -7 -42
-1 -10 14 -42 17 -42 4 0 -7 10 -20 23 -30 l22 -18 0 -681 c0 -375 3 -680 6
-678 3 1 58 43 122 92 l116 90 3 545 c2 696 1 643 16 647 6 3 12 11 12 19 0 8
3 14 8 14 4 0 7 -279 7 -621 0 -578 1 -621 18 -636 9 -9 17 -13 17 -9 0 4 10
1 23 -6 12 -7 28 -11 35 -10 9 2 12 -17 12 -68 l0 -70 -89 0 c-92 0 -121 5
-121 22 0 5 4 7 8 4 5 -3 28 1 53 9 43 13 38 18 -23 18 -27 0 -22 32 7 51 16
11 25 12 25 5 0 -8 4 -8 15 1 12 10 17 7 26 -14 13 -28 24 -33 34 -15 4 6 13
8 21 5 10 -4 14 2 14 18 0 16 -6 23 -17 23 -35 0 -43 3 -43 16 0 8 -7 14 -15
14 -8 0 -15 -7 -15 -14 0 -8 -3 -12 -8 -9 -20 12 -122 -74 -122 -102 0 -23
-25 -48 -34 -33 -7 11 -46 3 -46 -10 0 -5 13 -8 28 -7 38 3 47 -5 50 -46 l3
-35 -97 -3 c-82 -3 -97 -1 -105 14 -10 18 -13 1469 -3 1506 6 22 8 22 178 21
94 -1 161 -4 148 -6z m121 -10 c-7 -2 -19 -2 -25 0 -7 3 -2 5 12 5 14 0 19 -2
13 -5z m-153 -13 c0 -5 -7 -10 -15 -10 -8 0 -15 5 -15 10 0 6 7 10 15 10 8 0
15 -4 15 -10z m-2520 -134 c0 -3 -4 -8 -10 -11 -5 -3 -10 -1 -10 4 0 6 5 11
10 11 6 0 10 -2 10 -4z m-660 -30 c0 -3 -4 -8 -10 -11 -5 -3 -10 -1 -10 4 0 6
5 11 10 11 6 0 10 -2 10 -4z m3277 -118 c-2 -18 -4 -6 -4 27 0 33 2 48 4 33 2
-15 2 -42 0 -60z m170 50 c-3 -7 -5 -2 -5 12 0 14 2 19 5 13 2 -7 2 -19 0 -25z
m-2151 -1 c8 3 14 3 14 0 0 -14 -30 -14 -41 1 -11 14 -11 15 0 5 7 -6 20 -9
27 -6z m2034 3 c0 -5 -5 -10 -11 -10 -5 0 -7 5 -4 10 3 6 8 10 11 10 2 0 4 -4
4 -10z m-590 -10 c0 -5 -5 -10 -11 -10 -5 0 -7 5 -4 10 3 6 8 10 11 10 2 0 4
-4 4 -10z m1230 0 c0 -5 -5 -10 -11 -10 -5 0 -7 5 -4 10 3 6 8 10 11 10 2 0 4
-4 4 -10z m943 3 c-7 -2 -19 -2 -25 0 -7 3 -2 5 12 5 14 0 19 -2 13 -5z
m-3503 -24 c0 -6 -4 -7 -10 -4 -5 3 -10 11 -10 16 0 6 5 7 10 4 6 -3 10 -11
10 -16z m-1350 -14 c0 -14 -4 -25 -8 -25 -7 0 -8 31 -3 48 4 11 11 -3 11 -23z
m4540 5 c0 -5 -5 -10 -11 -10 -5 0 -7 5 -4 10 3 6 8 10 11 10 2 0 4 -4 4 -10z
m-3340 -4 c0 -3 -4 -8 -10 -11 -5 -3 -10 -1 -10 4 0 6 5 11 10 11 6 0 10 -2
10 -4z m2103 -3 c-13 -2 -33 -2 -45 0 -13 2 -3 4 22 4 25 0 35 -2 23 -4z m67
-3 c0 -5 -2 -10 -4 -10 -3 0 -8 5 -11 10 -3 6 -1 10 4 10 6 0 11 -4 11 -10z
m665 -54 c14 -12 -27 11 -47 27 -10 8 -18 18 -18 22 0 7 13 -2 65 -49z m642
32 c-3 -8 -6 -5 -6 6 -1 11 2 17 5 13 3 -3 4 -12 1 -19z m263 12 c0 -5 -2 -10
-4 -10 -3 0 -8 5 -11 10 -3 6 -1 10 4 10 6 0 11 -4 11 -10z m70 6 c0 -3 -4 -8
-10 -11 -5 -3 -10 -1 -10 4 0 6 5 11 10 11 6 0 10 -2 10 -4z m55 -6 c3 -5 1
-10 -4 -10 -6 0 -11 5 -11 10 0 6 2 10 4 10 3 0 8 -4 11 -10z m-222 -6 c11
-11 -3 -24 -18 -18 -8 4 -12 10 -9 15 6 11 18 12 27 3z m-3655 -35 c-3 -8 -7
-3 -11 10 -4 17 -3 21 5 13 5 -5 8 -16 6 -23z m2200 7 c-13 -13 -48 -10 -48 4
0 9 40 18 52 12 4 -1 2 -9 -4 -16z m722 3 c0 -6 -4 -7 -10 -4 -5 3 -10 11 -10
16 0 6 5 7 10 4 6 -3 10 -11 10 -16z m370 -3 c0 -2 -8 -10 -17 -17 -16 -13
-17 -12 -4 4 13 16 21 21 21 13z m-1263 -53 c-3 -10 -5 -2 -5 17 0 19 2 27 5
18 2 -10 2 -26 0 -35z m1143 2 c-24 -25 -46 -45 -49 -45 -3 0 0 5 7 12 7 7 12
20 12 30 0 10 5 15 13 12 7 -2 22 4 32 16 10 11 21 20 24 20 3 0 -15 -20 -39
-45z m300 35 c0 -5 -4 -10 -10 -10 -5 0 -10 5 -10 10 0 6 5 10 10 10 6 0 10
-4 10 -10z m-3476 -50 c-5 -5 -10 3 -11 18 -1 22 0 24 9 8 6 -10 6 -22 2 -26z
m2175 37 c-2 -1 -13 -9 -24 -17 -19 -14 -19 -14 -6 3 7 9 18 17 24 17 6 0 8
-1 6 -3z m655 -26 c-2 -3 -12 3 -22 13 -16 17 -16 18 5 5 12 -7 20 -15 17 -18z
m296 9 c0 -5 -4 -10 -10 -10 -5 0 -10 5 -10 10 0 6 5 10 10 10 6 0 10 -4 10
-10z m-1783 -47 c-3 -10 -5 -2 -5 17 0 19 2 27 5 18 2 -10 2 -26 0 -35z m777
18 c-7 -8 -35 9 -29 19 4 6 11 5 20 -3 7 -6 11 -14 9 -16z m-1854 3 c0 -8 -5
-12 -10 -9 -6 4 -8 11 -5 16 9 14 15 11 15 -7z m3240 2 c0 -2 -7 -9 -15 -16
-13 -11 -14 -10 -9 4 5 14 24 23 24 12z m250 -6 c0 -5 -5 -10 -11 -10 -5 0 -7
5 -4 10 3 6 8 10 11 10 2 0 4 -4 4 -10z m-4840 -10 c0 -5 -5 -10 -11 -10 -5 0
-7 5 -4 10 3 6 8 10 11 10 2 0 4 -4 4 -10z m743 -1 c-6 -6 -9 -18 -6 -25 3 -8
1 -14 -5 -14 -18 0 -20 24 -3 37 20 16 29 17 14 2z m2402 -8 c-8 -13 -35 -15
-35 -2 0 5 8 11 18 13 21 5 26 2 17 -11z m1773 2 c-10 -2 -28 -2 -40 0 -13 2
-5 4 17 4 22 1 32 -1 23 -4z m-5118 -23 c0 -11 -4 -20 -10 -20 -5 0 -10 9 -10
20 0 11 5 20 10 20 6 0 10 -9 10 -20z m1594 4 c3 -8 2 -12 -4 -9 -6 3 -10 10
-10 16 0 14 7 11 14 -7z m1083 10 c-3 -3 -12 -4 -19 -1 -8 3 -5 6 6 6 11 1 17
-2 13 -5z m210 -76 c-2 -18 -4 -6 -4 27 0 33 2 48 4 33 2 -15 2 -42 0 -60z
m-1318 42 c25 -21 29 -27 13 -24 -21 6 -72 54 -56 54 5 -1 24 -14 43 -30z
m2831 26 c0 -11 -19 -15 -25 -6 -3 5 1 10 9 10 9 0 16 -2 16 -4z m-4190 -22
c0 -8 -4 -12 -10 -9 -5 3 -10 10 -10 16 0 5 5 9 10 9 6 0 10 -7 10 -16z m585
6 c3 -5 1 -10 -4 -10 -6 0 -11 5 -11 10 0 6 2 10 4 10 3 0 8 -4 11 -10z m561
-18 c-4 -3 -14 2 -24 12 -16 18 -16 18 6 6 13 -6 21 -14 18 -18z m3571 13 c-5
-15 -34 -18 -34 -3 0 8 9 14 19 14 10 0 17 -5 15 -11z m-2120 -27 c-3 -7 -5
-2 -5 12 0 14 2 19 5 13 2 -7 2 -19 0 -25z m768 12 c-20 -22 -35 -26 -35 -10
0 6 7 10 15 10 8 0 15 5 15 10 0 6 5 10 12 10 6 0 3 -9 -7 -20z m-1425 0 c0
-5 -5 -10 -11 -10 -5 0 -7 5 -4 10 3 6 8 10 11 10 2 0 4 -4 4 -10z m1257 -12
c-3 -8 -6 -5 -6 6 -1 11 2 17 5 13 3 -3 4 -12 1 -19z m-2507 2 c-19 -13 -30
-13 -30 0 0 6 10 10 23 10 18 0 19 -2 7 -10z m645 -10 c10 -11 13 -20 7 -20
-6 0 -16 9 -22 20 -6 11 -9 20 -7 20 2 0 12 -9 22 -20z m1172 -2 c-3 -8 -6 -5
-6 6 -1 11 2 17 5 13 3 -3 4 -12 1 -19z m625 -62 c-2 -36 -7 -66 -11 -66 -6 0
-7 45 -2 140 1 10 4 11 9 4 4 -7 5 -42 4 -78z m1195 78 c-3 -3 -12 -4 -19 -1
-8 3 -5 6 6 6 11 1 17 -2 13 -5z m103 -5 c0 -10 -27 -19 -34 -12 -11 12 -6 19
14 19 11 0 20 -3 20 -7z m-4640 -9 c0 -5 -5 -10 -11 -10 -5 0 -7 5 -4 10 3 6
8 10 11 10 2 0 4 -4 4 -10z m1494 -28 c-3 -15 -10 -31 -16 -37 -8 -7 -9 -5 -4
8 3 10 6 30 6 43 0 14 4 23 9 19 5 -3 7 -18 5 -33z m1176 -2 c0 -22 -4 -40
-10 -40 -5 0 -10 18 -10 40 0 22 5 40 10 40 6 0 10 -18 10 -40z m1730 30 c0
-5 -2 -10 -4 -10 -3 0 -8 5 -11 10 -3 6 -1 10 4 10 6 0 11 -4 11 -10z m300
-42 c-4 -49 -5 -50 -8 -14 -3 34 2 66 10 66 2 0 1 -24 -2 -52z m-3886 34 c2
-4 -4 -13 -15 -20 -16 -11 -19 -9 -19 8 0 19 24 28 34 12z m2681 -1 c3 -5 1
-12 -5 -16 -5 -3 -10 1 -10 9 0 18 6 21 15 7z m1302 -13 c-3 -8 -6 -5 -6 6 -1
11 2 17 5 13 3 -3 4 -12 1 -19z m-4053 -20 c4 -17 2 -28 -4 -28 -5 0 -10 14
-10 32 0 36 4 35 14 -4z m707 0 c16 -30 0 -36 -21 -8 -11 14 -20 28 -20 32 0
14 31 -4 41 -24z m723 -49 c-20 -22 -54 -25 -54 -4 0 8 6 12 13 10 20 -8 38
10 41 41 5 42 9 43 13 6 3 -23 -1 -40 -13 -53z m633 59 c-3 -8 -6 -5 -6 6 -1
11 2 17 5 13 3 -3 4 -12 1 -19z m1372 -49 c-18 -11 -25 -1 -11 13 7 7 13 23
14 38 1 18 2 16 5 -9 3 -21 0 -37 -8 -42z m281 67 c0 -3 -4 -8 -10 -11 -5 -3
-10 -1 -10 4 0 6 5 11 10 11 6 0 10 -2 10 -4z m-1679 -46 c5 0 9 -4 9 -10 0
-5 -11 -10 -24 -10 -25 0 -31 24 -11 46 7 9 11 7 13 -7 2 -10 8 -19 13 -19z
m654 6 c8 3 15 13 15 21 0 8 4 12 10 8 14 -9 1 -31 -26 -44 -33 -15 -31 -16
-32 22 0 28 1 29 9 10 5 -15 14 -21 24 -17z m986 7 l24 -26 -27 19 c-15 10
-28 22 -28 27 0 12 5 8 31 -20z m-2834 -35 c3 -7 -8 -2 -25 10 -17 13 -35 28
-39 34 -3 7 8 2 25 -10 17 -13 35 -28 39 -34z m558 42 c3 -5 1 -10 -4 -10 -6
0 -11 5 -11 10 0 6 2 10 4 10 3 0 8 -4 11 -10z m-1940 -10 c-3 -5 -11 -10 -16
-10 -6 0 -7 5 -4 10 3 6 11 10 16 10 6 0 7 -4 4 -10z m862 -12 c-3 -8 -6 -5
-6 6 -1 11 2 17 5 13 3 -3 4 -12 1 -19z m3730 -70 c-2 -18 -4 -4 -4 32 0 36 2
50 4 33 2 -18 2 -48 0 -65z m267 76 c3 -9 6 -21 5 -27 0 -7 -4 -2 -9 10 -6 15
-15 21 -30 18 -11 -2 -18 0 -15 6 10 15 42 10 49 -7z m-509 -4 c3 -5 1 -10 -4
-10 -6 0 -11 5 -11 10 0 6 2 10 4 10 3 0 8 -4 11 -10z m-4408 -15 c0 -8 -4
-12 -9 -9 -5 3 -6 10 -3 15 9 13 12 11 12 -6z m-142 -15 c3 -5 -1 -10 -9 -10
-9 0 -16 5 -16 10 0 6 4 10 9 10 6 0 13 -4 16 -10z m48 -7 c-7 -2 -19 -2 -25
0 -7 3 -2 5 12 5 14 0 19 -2 13 -5z m659 -19 c-5 -35 -11 -44 -28 -44 -14 0
-15 2 -3 17 8 9 13 25 11 36 -2 12 1 18 10 15 7 -3 12 -14 10 -24z m1341 12
c4 -10 1 -13 -9 -9 -7 3 -14 9 -14 14 0 14 17 10 23 -5z m617 4 c0 -5 -4 -10
-10 -10 -5 0 -10 5 -10 10 0 6 5 10 10 10 6 0 10 -4 10 -10z m-1173 -6 c-3 -3
-12 -4 -19 -1 -8 3 -5 6 6 6 11 1 17 -2 13 -5z m1273 -14 c-6 -11 -16 -18 -21
-14 -6 3 -3 12 8 20 24 18 26 17 13 -6z m1982 -35 c3 3 8 -1 11 -10 9 -23 -4
-18 -51 16 -23 17 -39 35 -36 41 4 5 20 -4 38 -21 18 -17 35 -29 38 -26z
m-4654 38 c-21 -2 -57 -2 -80 0 -24 2 -7 4 37 4 44 0 63 -2 43 -4z m2756 -8
c-4 -8 -8 -15 -10 -15 -2 0 -4 7 -4 15 0 8 4 15 10 15 5 0 7 -7 4 -15z m-2878
-3 c6 -4 14 -19 18 -34 5 -21 3 -28 -9 -28 -11 0 -14 6 -9 24 4 17 0 27 -13
35 -10 6 -13 10 -8 11 6 0 15 -4 21 -8z m2114 -23 c0 -16 -4 -28 -9 -25 -5 3
-8 17 -8 31 0 14 3 25 8 25 5 0 9 -14 9 -31z m632 14 c19 -17 25 -63 8 -63 -5
0 -10 10 -10 22 0 12 -7 30 -17 40 -20 23 -6 24 19 1z m-571 -35 c2 -20 0 -40
-4 -44 -4 -4 -7 14 -7 41 0 56 7 57 11 3z m2353 -1 c4 -19 3 -26 -4 -22 -5 3
-10 18 -10 32 0 32 5 28 14 -10z m-1647 -10 c-27 -23 -36 -38 -31 -50 8 -21
13 -21 36 0 14 13 21 14 30 5 9 -9 8 -12 -4 -12 -9 0 -18 -9 -21 -20 -3 -13
-11 -18 -20 -14 -17 6 -29 -17 -17 -37 7 -11 13 -10 32 6 l23 20 -17 -21 c-21
-24 -25 -79 -5 -68 6 4 3 -2 -7 -14 -11 -12 -22 -22 -26 -22 -14 0 -19 43 -8
63 7 13 7 22 0 26 -6 3 -10 30 -9 60 2 48 6 57 37 82 19 16 37 29 40 29 3 -1
-12 -15 -33 -33z m1496 7 c-9 -15 -19 -21 -21 -15 -6 19 6 41 23 41 14 0 13
-3 -2 -26z m-2788 7 c3 -5 2 -12 -3 -15 -5 -3 -9 1 -9 9 0 17 3 19 12 6z m882
-13 c-3 -8 -6 -5 -6 6 -1 11 2 17 5 13 3 -3 4 -12 1 -19z m-1371 -13 c-3 -9 1
-12 13 -10 10 2 18 -3 18 -11 0 -15 -16 -18 -32 -6 -14 9 -17 55 -4 46 6 -3 8
-12 5 -19z m1624 -5 c0 -16 -4 -30 -8 -30 -5 0 -9 14 -10 30 0 17 4 30 9 30 5
0 9 -13 9 -30z m520 26 c0 -2 -9 -6 -20 -9 -11 -3 -18 -1 -14 4 5 9 34 13 34
5z m-3023 -38 c-3 -7 -5 -2 -5 12 0 14 2 19 5 13 2 -7 2 -19 0 -25z m4493 -3
c0 -5 -5 -3 -10 5 -5 8 -10 20 -10 25 0 6 5 3 10 -5 5 -8 10 -19 10 -25z
m-2463 -95 c-1 -74 -6 -119 -12 -117 -5 1 -9 13 -9 27 1 14 2 67 3 118 1 50 5
92 10 92 6 0 9 -50 8 -120z m1611 55 c0 -35 -2 -67 -7 -69 -5 -4 -8 121 -2
132 5 10 8 -7 9 -63z m895 15 c-6 -22 -7 -22 -14 -4 -4 10 -8 28 -8 39 -1 17
1 18 14 5 9 -10 12 -24 8 -40z m53 12 c-18 -16 -19 -16 -12 1 3 10 6 24 6 30
0 8 4 7 12 -1 10 -9 8 -16 -6 -30z m316 13 c3 -14 1 -25 -3 -25 -5 0 -9 11 -9
25 0 14 2 25 4 25 2 0 6 -11 8 -25z m-1946 -19 c-6 -19 -14 -32 -18 -30 -4 3
-5 11 -3 19 3 8 7 22 10 30 2 8 8 15 13 15 5 0 4 -15 -2 -34z m1411 12 c-3 -8
-6 -5 -6 6 -1 11 2 17 5 13 3 -3 4 -12 1 -19z m303 2 c0 -5 -7 -10 -16 -10 -8
0 -12 5 -9 10 3 6 10 10 16 10 5 0 9 -4 9 -10z m-4822 -25 c-3 -3 -9 2 -12 12
-6 14 -5 15 5 6 7 -7 10 -15 7 -18z m1982 -42 c0 -31 -3 -53 -7 -49 -10 10
-11 116 -1 110 4 -3 8 -30 8 -61z m248 43 c-1 -14 -6 -22 -10 -20 -12 7 -10
44 2 44 5 0 9 -11 8 -24z m19 2 c-3 -8 -6 -5 -6 6 -1 11 2 17 5 13 3 -3 4 -12
1 -19z m430 0 c-3 -8 -6 -5 -6 6 -1 11 2 17 5 13 3 -3 4 -12 1 -19z m485 13
c-8 -4 -13 -11 -13 -15 1 -3 -1 -6 -4 -6 -3 0 -5 2 -5 5 0 3 0 10 0 15 0 6 8
10 18 10 13 0 14 -2 4 -9z m1858 -12 c0 -17 -5 -20 -30 -17 -32 4 -37 21 -8
23 10 1 21 5 25 8 10 11 13 8 13 -14z m-4930 -11 c0 -16 -3 -19 -11 -11 -6 6
-8 16 -5 22 11 17 16 13 16 -11z m88 -88 c1 -99 1 -100 -23 -100 -13 0 -27 5
-31 12 -5 8 0 9 14 6 23 -6 24 -5 25 47 1 23 -4 31 -23 36 -23 6 -23 9 -2 13
20 4 29 18 24 41 -4 23 -13 30 -34 26 -5 0 -8 1 -8 4 0 8 44 24 51 19 4 -2 7
-49 7 -104z m912 60 c0 -27 -4 -50 -10 -50 -5 0 -9 17 -7 37 1 24 -2 38 -10
38 -6 0 -15 4 -20 9 -4 5 -3 7 2 3 6 -3 17 -2 25 4 8 5 16 9 18 9 1 0 2 -22 2
-50z m950 -9 c-1 -43 -2 -45 -16 -26 -9 13 -11 21 -4 23 7 3 7 9 -2 20 -10 12
-10 14 0 8 6 -4 12 -3 12 1 0 5 -6 15 -12 22 -11 10 -10 11 5 6 13 -6 17 -18
17 -54z m616 38 c3 -5 -4 -9 -15 -9 -12 0 -24 0 -28 -1 -5 0 -9 6 -11 14 -2
10 4 13 23 10 14 -3 28 -9 31 -14z m-559 -26 c-3 -10 -5 -4 -5 12 0 17 2 24 5
18 2 -7 2 -21 0 -30z m2373 11 c0 -2 -7 -4 -15 -4 -8 0 -15 4 -15 10 0 5 7 7
15 4 8 -4 15 -8 15 -10z m174 0 c3 -8 2 -12 -4 -9 -6 3 -10 10 -10 16 0 14 7
11 14 -7z m111 5 c11 -17 2 -18 -19 -3 -17 12 -17 14 -4 14 9 0 20 -5 23 -11z
m-1585 -9 c0 -5 -8 -14 -18 -19 -14 -7 -19 -6 -19 4 0 8 4 12 8 9 4 -2 10 0
14 6 8 13 15 13 15 0z m1920 6 c0 -2 -7 -6 -15 -10 -8 -3 -15 -1 -15 4 0 6 7
10 15 10 8 0 15 -2 15 -4z m-4056 -30 c-3 -7 12 -31 34 -52 52 -53 64 -87 12
-38 -21 20 -36 42 -33 47 3 6 1 7 -6 3 -6 -4 -19 -2 -27 5 -13 10 -12 14 2 30
20 23 25 24 18 5z m1196 4 c0 -5 -4 -10 -10 -10 -5 0 -10 5 -10 10 0 6 5 10
10 10 6 0 10 -4 10 -10z m890 -10 c0 -5 -5 -12 -10 -15 -6 -4 -8 -10 -5 -15 8
-12 -9 -20 -23 -11 -19 12 2 63 23 55 8 -3 15 -10 15 -14z m1418 -16 c-3 -14
-5 -12 -10 9 -3 19 -2 25 4 19 6 -6 8 -18 6 -28z m243 13 c-10 -9 -11 -8 -5 6
3 10 9 15 12 12 3 -3 0 -11 -7 -18z m-4761 3 c0 -5 -5 -10 -11 -10 -5 0 -7 5
-4 10 3 6 8 10 11 10 2 0 4 -4 4 -10z m65 -8 c-3 -3 -11 0 -18 7 -9 10 -8 11
6 5 10 -3 15 -9 12 -12z m4335 -16 c0 -5 -7 -3 -15 4 -8 7 -12 17 -9 22 7 10
24 -9 24 -26z m286 -46 c9 -50 19 -76 36 -92 13 -13 17 -18 9 -11 -11 10 -17
9 -27 -5 -12 -15 -13 -14 -14 13 0 17 -4 46 -9 65 -13 52 -21 113 -13 106 4
-4 12 -38 18 -76z m-2596 49 c0 -5 -4 -9 -10 -9 -5 0 -10 7 -10 16 0 8 5 12
10 9 6 -3 10 -10 10 -16z m137 -26 c-3 -10 -5 -4 -5 12 0 17 2 24 5 18 2 -7 2
-21 0 -30z m320 15 c-3 -8 -6 -5 -6 6 -1 11 2 17 5 13 3 -3 4 -12 1 -19z
m1188 12 c3 -6 -1 -7 -9 -4 -18 7 -21 14 -7 14 6 0 13 -4 16 -10z m915 -11 c0
-6 -4 -7 -10 -4 -5 3 -10 11 -10 16 0 6 5 7 10 4 6 -3 10 -11 10 -16z m451
-16 c-9 -16 -10 -14 -11 12 0 21 3 26 11 18 8 -8 8 -16 0 -30z m-5033 15 c-3
-7 -16 -13 -31 -13 -28 -2 -37 9 -14 18 23 10 49 7 45 -5z m2949 -14 c1 -18
-2 -23 -9 -16 -6 6 -8 18 -5 26 9 22 12 20 14 -10z m1963 -1 c0 -29 -12 -24
-17 7 -2 11 2 20 7 20 6 0 10 -12 10 -27z m-4979 -22 c16 -5 29 -12 29 -16 0
-12 -65 23 -66 36 0 8 1 9 3 2 2 -6 17 -16 34 -22z m2644 21 c-10 -10 -55 -13
-55 -4 0 15 10 19 36 14 14 -2 22 -7 19 -10z m503 6 c-3 -7 -11 -13 -19 -13
-9 0 -14 -10 -14 -26 1 -14 -4 -26 -11 -26 -19 0 -7 40 17 60 25 20 32 22 27
5z m1632 -20 c0 -7 -5 -6 -13 1 -8 6 -17 8 -20 4 -13 -12 -7 -44 8 -49 8 -4
12 -10 9 -16 -9 -14 -34 11 -34 34 0 11 5 28 11 39 8 16 13 18 25 8 8 -6 14
-16 14 -21z m-2703 0 c-3 -8 -6 -5 -6 6 -1 11 2 17 5 13 3 -3 4 -12 1 -19z
m133 18 c0 -3 -4 -8 -10 -11 -5 -3 -10 -1 -10 4 0 6 5 11 10 11 6 0 10 -2 10
-4z m1560 0 c0 -2 -8 -10 -17 -17 -16 -13 -17 -12 -4 4 13 16 21 21 21 13z
m1090 -11 c10 -12 10 -15 -4 -15 -9 0 -16 7 -16 15 0 8 2 15 4 15 2 0 9 -7 16
-15z m-2183 -72 c-2 -16 -4 -3 -4 27 0 30 2 43 4 28 2 -16 2 -40 0 -55z
m-2610 41 c-9 -9 -28 6 -21 18 4 6 10 6 17 -1 6 -6 8 -13 4 -17z m4472 -14 c0
-10 -3 -8 -9 5 -12 27 -12 43 0 25 5 -8 9 -22 9 -30z m-4568 14 c12 -14 11
-16 -5 -13 -11 2 -21 10 -24 17 -5 17 13 15 29 -4z m156 -6 c-3 -8 -6 -5 -6 6
-1 11 2 17 5 13 3 -3 4 -12 1 -19z m1893 -24 c0 -21 -4 -33 -10 -29 -5 3 -10
22 -10 41 0 21 4 33 10 29 6 -3 10 -22 10 -41z m557 -91 c-2 -27 -3 -5 -3 47
0 52 1 74 3 48 2 -27 2 -69 0 -95z m556 2 c-10 -7 -14 -17 -10 -21 4 -5 12 -2
17 6 6 10 10 -23 10 -94 0 -97 -2 -108 -14 -91 -8 11 -12 23 -9 28 2 4 -1 6
-9 5 -7 -2 -12 3 -10 10 1 8 -3 12 -10 10 -7 -3 -13 -16 -13 -29 0 -18 -5 -23
-19 -21 -13 2 -16 -1 -10 -10 4 -7 -5 -2 -21 11 -25 19 -31 20 -33 7 -2 -9 -7
-16 -10 -17 -4 0 -15 -2 -24 -4 -9 -2 -21 2 -26 8 -15 20 -10 43 10 43 11 0
14 -4 8 -10 -16 -16 -12 -34 8 -32 13 2 17 13 17 44 0 32 3 38 13 30 7 -6 11
-17 8 -24 -3 -7 2 -12 12 -12 9 0 24 -1 32 -3 8 -2 15 1 15 6 2 22 17 56 22
51 7 -6 43 33 43 46 0 4 -14 -5 -31 -22 -30 -28 -42 -34 -61 -31 -5 0 -8 -6
-8 -15 0 -8 -5 -12 -11 -9 -7 5 -5 13 6 25 22 24 10 47 -13 28 -15 -12 -16
-11 -3 4 7 10 17 15 22 12 5 -3 6 1 3 9 -2 7 -1 24 4 38 5 13 5 35 1 49 -4 14
-7 20 -8 15 -1 -6 -9 -15 -19 -22 -15 -9 -19 -8 -19 3 0 7 5 11 10 7 5 -3 7 3
3 13 -3 11 -1 26 4 34 5 8 10 10 10 4 0 -7 11 -9 25 -6 14 2 26 0 26 -7 3 -26
4 -30 11 -37 4 -4 3 -13 -3 -21 -6 -7 -8 -13 -5 -13 4 0 0 -10 -8 -22 -35 -50
-5 -81 32 -33 11 13 23 21 27 17 5 -4 5 -1 1 6 -4 6 -14 12 -22 12 -14 0 -13
2 0 16 9 8 14 19 11 24 -3 5 0 12 6 16 8 5 9 3 4 -7 -5 -8 -5 -11 0 -7 4 4 8
29 8 55 -1 73 12 77 15 4 2 -51 0 -65 -15 -76z m-1159 110 c-4 -8 -11 -12 -16
-9 -6 4 -5 10 3 15 19 12 19 11 13 -6z m118 -34 c-6 -3 -12 -24 -15 -46 -2
-26 -4 -16 -5 30 -2 67 -1 69 14 46 11 -15 13 -25 6 -30z m954 12 c-11 -11
-19 6 -11 24 8 17 8 17 12 0 3 -10 2 -21 -1 -24z m689 20 c-2 -10 -4 -19 -4
-21 -1 -2 -6 0 -11 3 -8 5 -7 11 1 21 15 18 18 18 14 -3z m882 -30 c-3 -10 -5
-2 -5 17 0 19 2 27 5 18 2 -10 2 -26 0 -35z m362 -88 c-1 -185 -1 -185 -11
-185 -5 0 -6 5 -3 10 12 19 -2 10 -26 -17 -22 -25 -22 -26 -1 -9 12 11 22 14
22 8 0 -6 7 -18 16 -26 8 -9 10 -16 4 -16 -6 0 -13 7 -17 15 -5 14 -7 14 -23
0 -23 -20 -27 -13 -33 55 -2 30 -2 42 0 27 3 -22 9 -28 26 -25 15 2 21 9 19
21 -2 9 2 17 8 17 6 0 10 47 10 132 0 72 2 129 5 127 2 -3 4 -63 4 -134z
m-2149 115 c0 -5 -4 -10 -10 -10 -5 0 -10 5 -10 10 0 6 5 10 10 10 6 0 10 -4
10 -10z m2240 -15 c0 -14 -2 -25 -4 -25 -2 0 -6 11 -8 25 -3 14 -1 25 3 25 5
0 9 -11 9 -25z m34 -119 c1 -74 -2 -129 -6 -123 -9 15 -11 273 -2 264 4 -4 7
-67 8 -141z m-2484 130 c0 -3 -4 -8 -10 -11 -5 -3 -10 -1 -10 4 0 6 5 11 10
11 6 0 10 -2 10 -4z m915 -5 c3 -5 2 -12 -3 -15 -5 -3 -9 1 -9 9 0 17 3 19 12
6z m-2518 -36 c-3 -6 4 -12 16 -12 23 -2 37 -19 37 -48 -1 -18 -1 -19 -11 -2
-5 9 -16 17 -23 17 -13 0 -15 -27 -3 -46 3 -6 5 -21 2 -33 -2 -11 0 -21 6 -21
9 0 13 15 10 34 -1 5 6 3 15 -5 10 -8 15 -9 11 -3 -3 6 0 20 8 30 13 17 13 15
4 -16 -6 -19 -11 -40 -13 -47 -1 -7 -6 -16 -11 -20 -4 -4 -5 -2 0 6 6 10 4 12
-5 6 -10 -6 -9 -11 5 -21 10 -7 21 -12 24 -10 3 2 7 -24 9 -57 1 -44 -1 -58
-8 -47 -6 9 -10 10 -10 3 0 -6 5 -15 10 -18 6 -3 10 -22 10 -42 0 -43 -8 -40
-12 4 -1 18 -6 29 -11 26 -8 -5 0 -78 10 -95 2 -5 6 -43 8 -85 3 -81 -4 -79
-26 7 -10 39 -13 42 -23 27 -7 -9 -16 -14 -19 -10 -4 3 -7 -5 -6 -18 0 -13 3
-18 6 -11 2 6 9 12 15 12 6 0 3 -9 -7 -20 -17 -19 -17 -20 7 -48 13 -16 31
-28 39 -27 12 2 15 -6 14 -31 -2 -19 -8 -40 -14 -48 -6 -7 -7 -17 -3 -21 8 -9
-54 33 -81 54 -16 13 -16 16 -2 37 18 27 20 71 4 76 -10 3 -11 51 -9 517 0 38
2 42 15 31 9 -7 14 -18 12 -25z m2749 -5 c0 -21 -7 -45 -13 -52 -9 -8 -13 -9
-13 -1 0 7 5 15 10 18 7 4 7 12 0 24 -5 10 -7 21 -5 25 3 3 2 3 -2 0 -8 -6 -9
-11 -12 -39 -2 -22 -16 -18 -18 5 -1 15 38 60 52 60 2 0 2 -18 1 -40z m1154
-32 c0 -39 -2 -69 -4 -67 -7 7 -14 127 -8 133 11 11 12 5 12 -66z m-4947 47
c-3 -9 -8 -14 -10 -11 -3 3 -2 9 2 15 9 16 15 13 8 -4z m2254 -17 c-3 -7 -5
-2 -5 12 0 14 2 19 5 13 2 -7 2 -19 0 -25z m1459 17 c-1 -8 -5 -17 -8 -21 -5
-4 -4 16 1 34 3 9 9 -1 7 -13z m992 -43 c14 -69 15 -95 3 -88 -14 9 -34 146
-21 146 4 0 11 -26 18 -58z m279 36 c-3 -8 -6 -5 -6 6 -1 11 2 17 5 13 3 -3 4
-12 1 -19z m-2327 -11 c0 -13 -7 -32 -15 -43 -13 -17 -14 -17 -15 -1 0 9 5 17
12 17 9 0 9 3 0 12 -17 17 -15 38 3 38 9 0 15 -9 15 -23z m1920 8 c0 -8 -2
-15 -4 -15 -2 0 -6 7 -10 15 -3 8 -1 15 4 15 6 0 10 -7 10 -15z m-2617 -47
c-6 -61 -13 -60 -13 1 0 29 4 50 9 47 4 -3 6 -25 4 -48z m824 20 c-3 -7 -5 -2
-5 12 0 14 2 19 5 13 2 -7 2 -19 0 -25z m-2714 15 c-7 -2 -19 -2 -25 0 -7 3
-2 5 12 5 14 0 19 -2 13 -5z m94 -30 c-3 -10 -5 -4 -5 12 0 17 2 24 5 18 2 -7
2 -21 0 -30z m956 22 c4 -8 3 -16 -1 -19 -4 -3 -9 4 -9 15 -2 23 3 25 10 4z
m-1196 -1 c-3 -3 -12 -4 -19 -1 -8 3 -5 6 6 6 11 1 17 -2 13 -5z m2099 -10
c-3 -9 -6 -18 -6 -20 0 -3 -4 -3 -10 1 -11 7 -2 35 12 35 6 0 7 -7 4 -16z
m1554 12 c0 -2 -8 -10 -17 -17 -16 -13 -17 -12 -4 4 13 16 21 21 21 13z m1320
-31 c5 3 12 1 15 -5 4 -6 1 -9 -7 -8 -17 4 -23 -45 -8 -72 10 -18 14 -19 28
-8 15 12 16 11 3 -4 -7 -10 -17 -15 -22 -12 -5 3 -9 1 -9 -5 0 -6 -6 -8 -12
-6 -9 4 -12 22 -10 53 2 26 3 61 4 77 0 23 1 25 5 7 2 -12 8 -20 13 -17z
m-4825 6 c-3 -6 -20 -11 -36 -11 -18 0 -28 4 -24 10 4 6 11 8 16 5 5 -4 17 -2
26 4 20 11 28 7 18 -8z m2178 -112 c-4 -4 -6 24 -3 64 l5 72 3 -64 c2 -35 -1
-68 -5 -72z m438 88 c-8 -8 -11 -3 -11 19 1 25 2 27 11 11 8 -14 8 -22 0 -30z
m-527 25 c3 -5 -1 -9 -9 -9 -8 0 -12 4 -9 9 3 4 7 8 9 8 2 0 6 -4 9 -8z m1340
0 c3 -5 -1 -9 -9 -9 -8 0 -12 4 -9 9 3 4 7 8 9 8 2 0 6 -4 9 -8z m-1274 -11
c0 -6 -4 -13 -10 -16 -5 -3 -10 1 -10 9 0 9 5 16 10 16 6 0 10 -4 10 -9z m355
-1 c3 -5 1 -10 -4 -10 -6 0 -11 5 -11 10 0 6 2 10 4 10 3 0 8 -4 11 -10z m157
-29 c-4 -37 -5 -38 -21 -23 -17 16 -17 18 2 40 11 12 21 22 22 22 0 0 -1 -18
-3 -39z m96 9 c-2 -6 -8 -6 -18 0 -13 9 -13 11 0 20 15 10 25 0 18 -20z m892
0 c0 -19 -17 -36 -27 -26 -3 3 -2 13 2 23 5 10 7 22 6 26 -1 5 3 6 9 2 5 -3
10 -15 10 -25z m-1346 4 c3 -8 2 -12 -4 -9 -6 3 -10 10 -10 16 0 14 7 11 14
-7z m-2321 -1 c-7 -2 -19 -2 -25 0 -7 3 -2 5 12 5 14 0 19 -2 13 -5z m99 -15
c-7 -7 -13 -23 -13 -37 -1 -20 -3 -21 -6 -7 -5 19 16 70 26 61 2 -3 -1 -11 -7
-17z m2491 1 c-6 -6 -17 -8 -24 -3 -9 5 -8 9 7 14 23 9 31 3 17 -11z m2111 8
c3 4 1 -8 -5 -26 -13 -37 -14 -37 -23 8 -5 27 -4 31 7 22 8 -6 17 -8 21 -4z
m-2740 -6 c3 -5 -1 -14 -8 -20 -12 -10 -13 -8 -9 8 6 23 9 25 17 12z m2896 -1
c0 -5 -5 -10 -11 -10 -5 0 -7 5 -4 10 3 6 8 10 11 10 2 0 4 -4 4 -10z m180 -5
c0 -8 -2 -15 -4 -15 -2 0 -6 7 -10 15 -3 8 -1 15 4 15 6 0 10 -7 10 -15z
m-5044 -7 c4 -6 3 -8 -4 -4 -5 3 -12 1 -14 -4 -2 -7 -10 -6 -21 2 -17 13 -16
14 7 16 14 1 28 -3 32 -10z m2725 -20 c-3 -21 -6 -26 -9 -15 -3 17 3 47 11 47
2 0 1 -15 -2 -32z m258 18 c8 -10 8 -16 -2 -24 -10 -9 -13 -6 -13 13 0 29 0
29 15 11z m274 -4 c15 -17 15 -18 -7 -18 -21 0 -25 8 -17 34 2 5 9 1 24 -16z
m-723 -9 c0 -2 -5 -13 -11 -24 -5 -11 -10 -49 -10 -85 0 -46 -4 -64 -12 -61
-8 2 -11 26 -10 68 1 35 2 76 2 91 1 21 5 25 21 21 11 -3 20 -7 20 -10z m100
13 c0 -2 -8 -10 -17 -17 -16 -13 -17 -12 -4 4 13 16 21 21 21 13z m783 -11
c-3 -9 -8 -14 -10 -11 -3 3 -2 9 2 15 9 16 15 13 8 -4z m-3348 -5 c-3 -5 -12
-10 -18 -10 -7 0 -6 4 3 10 19 12 23 12 15 0z m2005 -15 c-11 -13 -10 -18 6
-30 16 -12 22 -12 43 2 16 10 22 11 19 2 -8 -23 -43 -28 -67 -10 -20 16 -22
21 -11 40 6 13 14 20 17 17 3 -3 0 -13 -7 -21z m90 21 c0 -3 -4 -8 -10 -11 -5
-3 -10 -1 -10 4 0 6 5 11 10 11 6 0 10 -2 10 -4z m1574 -34 c-9 -20 -11 -28
-13 -44 -1 -10 -4 -9 -10 1 -11 17 -6 48 11 68 15 18 24 1 12 -25z m-3731 17
c-16 -16 -67 -21 -54 -5 5 6 22 13 37 14 21 2 25 -1 17 -9z m5015 -199 c-25
-32 -55 -39 -64 -15 -4 8 -10 13 -14 10 -4 -3 -13 2 -20 10 -9 10 -9 15 -1 15
6 0 11 -4 11 -10 0 -5 3 -9 8 -8 4 1 16 -3 28 -9 18 -11 24 -8 42 17 18 24 22
45 24 117 l2 88 3 -93 c3 -84 2 -96 -19 -122z m-5165 175 c-7 -21 -12 -19 -10
4 0 11 5 18 9 15 4 -3 5 -11 1 -19z m55 -46 l3 -65 -28 2 c-43 2 -43 3 -43 24
0 17 3 19 19 10 29 -15 43 -12 39 8 -2 9 -10 16 -16 15 -7 -2 -12 2 -12 7 0 6
7 10 15 10 8 0 15 9 15 20 0 11 -7 20 -15 20 -8 0 -15 5 -15 11 0 6 8 9 18 7
14 -3 18 -16 20 -69z m4027 51 c-3 -5 -13 -6 -21 -3 -12 4 -13 8 -3 14 15 9
32 2 24 -11z m-3905 -12 c0 -18 -2 -20 -9 -8 -6 8 -7 18 -5 22 9 14 14 9 14
-14z m687 -10 c-3 -7 -5 -2 -5 12 0 14 2 19 5 13 2 -7 2 -19 0 -25z m486 12
c-3 -11 -9 -23 -14 -26 -5 -3 -6 2 -3 10 4 10 1 16 -7 17 -8 0 -5 4 6 9 11 5
21 9 22 9 0 1 -1 -8 -4 -19z m28 7 c-6 -8 -7 -18 -3 -22 4 -5 1 -5 -6 -1 -10
6 -10 11 -1 22 6 8 14 14 16 14 3 0 0 -6 -6 -13z m1346 -9 c-3 -8 -6 -5 -6 6
-1 11 2 17 5 13 3 -3 4 -12 1 -19z m75 -10 c-7 -7 -10 -5 -7 8 5 29 6 30 12
16 3 -8 1 -18 -5 -24z m1044 17 c-3 -20 -16 -31 -16 -13 0 13 8 28 16 28 1 0
1 -7 0 -15z m189 5 c-3 -5 -11 -10 -16 -10 -6 0 -7 5 -4 10 3 6 11 10 16 10 6
0 7 -4 4 -10z m-1884 -17 c13 -16 12 -17 -3 -4 -10 7 -18 15 -18 17 0 8 8 3
21 -13z m1259 7 c3 -1 9 -2 13 -1 5 1 6 -3 2 -9 -5 -8 -11 -8 -19 -1 -7 6 -15
8 -18 5 -3 -3 -9 -1 -12 4 -5 9 14 9 34 2z m75 1 c3 -5 2 -12 -3 -15 -5 -3 -9
1 -9 9 0 17 3 19 12 6z m1592 -23 c-3 -7 -5 -2 -5 12 0 14 2 19 5 13 2 -7 2
-19 0 -25z m-4940 4 c-10 -10 -17 -28 -17 -40 0 -12 -4 -22 -9 -22 -13 0 -1
41 17 63 8 9 17 17 20 17 3 0 -2 -8 -11 -18z m3691 -46 c1 11 4 23 7 26 11 10
55 -17 55 -33 0 -16 -26 -34 -42 -31 -12 3 -10 -22 2 -34 8 -8 5 -15 -7 -25
-10 -7 -15 -9 -11 -5 4 5 4 14 -1 20 -11 14 5 59 19 51 5 -3 10 -1 10 4 0 14
-6 14 -31 0 -11 -5 -17 -14 -15 -18 3 -4 -2 -8 -10 -8 -10 0 -11 4 -4 11 5 5
10 28 10 51 0 29 -3 36 -10 25 -5 -8 -10 -10 -10 -4 0 5 6 16 13 23 10 10 13
4 18 -31 3 -24 7 -34 7 -22z m1319 58 c-3 -3 -12 -4 -19 -1 -8 3 -5 6 6 6 11
1 17 -2 13 -5z m-2376 -37 c-8 -8 -11 -7 -11 4 0 20 13 34 18 19 3 -7 -1 -17
-7 -23z m316 14 c-1 -22 -29 -21 -32 0 -2 8 6 16 16 16 11 1 17 -5 16 -16z
m-754 -20 c-18 -19 -19 -19 -19 -1 0 10 4 17 7 14 4 -2 11 1 14 7 4 5 9 8 12
5 3 -2 -3 -14 -14 -25z m404 -8 c-3 -10 -5 -4 -5 12 0 17 2 24 5 18 2 -7 2
-21 0 -30z m899 12 c1 -10 -7 -15 -24 -15 -24 0 -23 14 1 15 7 1 11 7 9 15 -2
8 0 11 4 7 4 -4 9 -14 10 -22z m-206 4 c0 -14 -34 -19 -42 -7 -6 10 -8 10 -9
-2 0 -11 -2 -11 -6 -2 -3 9 -9 10 -17 3 -9 -8 -13 -7 -13 2 0 8 15 13 44 13
24 0 43 -3 43 -7z m753 -8 c-11 -9 -18 -22 -15 -29 4 -12 -10 -17 -21 -6 -10
10 22 51 40 51 14 0 13 -3 -4 -16z m-2769 -3 c-3 -4 -11 -5 -19 -1 -21 7 -19
12 4 10 11 0 18 -5 15 -9z m1278 -50 c-6 -6 -11 -2 -15 11 -3 12 -1 19 4 15 5
-3 10 5 10 18 2 18 3 17 6 -6 3 -16 0 -33 -5 -38z m25 30 c-3 -7 -5 -2 -5 12
0 14 2 19 5 13 2 -7 2 -19 0 -25z m759 17 c-3 -8 -1 -16 4 -16 6 -1 15 -2 22
-3 6 0 12 -8 13 -17 3 -20 -35 -20 -51 0 -8 10 -11 -2 -11 -48 0 -66 8 -82 29
-54 23 31 45 25 39 -10 -1 -5 3 -6 9 -2 6 3 7 12 3 18 -4 7 2 5 12 -3 13 -10
16 -11 11 -2 -6 9 -3 12 9 10 18 -3 30 28 15 37 -5 3 -7 -4 -5 -15 2 -11 0
-18 -6 -15 -5 4 -7 11 -4 16 4 5 1 9 -4 9 -6 0 -11 -6 -11 -12 0 -10 -2 -10
-8 -1 -5 8 -13 9 -22 3 -9 -5 -19 -5 -28 2 -7 6 -12 7 -11 2 4 -21 -2 -35 -12
-29 -14 9 12 47 34 51 9 1 15 -2 11 -7 -3 -5 0 -9 5 -9 6 0 11 6 12 13 0 9 2
9 6 -1 2 -6 9 -10 14 -6 17 10 50 13 44 3 -4 -5 -2 -9 4 -9 5 0 12 4 16 10 3
5 13 6 22 3 12 -5 14 -3 8 7 -5 9 -4 11 4 6 6 -4 9 -12 6 -17 -3 -5 1 -6 9 -3
9 3 16 11 16 18 0 7 3 7 8 -2 7 -10 8 -42 3 -84 -1 -4 -47 -7 -103 -7 -141 1
-133 3 -133 -30 -1 -16 3 -27 8 -24 4 3 11 -5 14 -17 l6 -22 12 22 c8 15 15
19 19 11 4 -6 2 -11 -4 -11 -6 0 -8 -5 -5 -10 9 -14 38 9 32 25 -3 6 5 11 19
11 13 0 24 -2 24 -5 0 -4 4 -12 9 -20 7 -11 13 -9 31 9 l23 23 12 -23 12 -22
6 21 c3 11 1 19 -4 15 -5 -3 -9 2 -9 10 0 8 -12 16 -27 19 -19 3 -14 4 15 6
l44 1 -6 -40 c-4 -31 -2 -39 7 -34 6 4 9 3 4 -1 -13 -15 -50 -16 -59 -3 -6 10
-8 10 -8 1 0 -16 -56 -17 -65 -3 -4 6 -12 7 -18 3 -20 -15 -67 -15 -84 -1 -12
9 -15 10 -9 1 4 -7 3 -13 -2 -13 -6 0 -9 54 -8 133 1 99 4 131 14 130 6 -2 12
2 12 7 0 6 3 10 6 10 3 0 4 -7 0 -15z m1674 0 c0 -8 -7 -15 -15 -15 -8 0 -15
7 -15 15 0 8 7 15 15 15 8 0 15 -7 15 -15z m-2799 -92 c-8 -14 -9 -9 -6 22 6
73 8 80 12 38 2 -24 0 -51 -6 -60z m2659 67 c0 -32 -20 -40 -50 -20 -13 8 -13
10 2 10 9 0 20 9 23 20 10 30 25 24 25 -10z m-965 3 c-2 -10 -4 -19 -4 -21 -1
-2 -6 0 -11 3 -8 5 -7 11 1 21 15 18 18 18 14 -3z m-3045 1 c0 -8 -19 -13 -24
-6 -3 5 1 9 9 9 8 0 15 -2 15 -3z m483 -10 c-3 -9 -23 -13 -36 -6 -4 2 -5 7
-2 12 7 11 41 6 38 -6z m1906 -1 c-6 -7 -15 -10 -20 -7 -13 8 -3 21 15 21 12
0 13 -4 5 -14z m175 4 c-5 -8 -3 -8 7 1 20 18 38 15 32 -7 -7 -26 -72 -28 -70
-2 0 9 9 18 19 18 12 1 16 -3 12 -10z m129 -13 c-4 -10 -9 -12 -15 -6 -12 12
-1 35 12 27 5 -3 6 -13 3 -21z m397 10 c-3 -5 -8 -8 -12 -6 -5 1 -8 -5 -8 -14
0 -8 -5 -12 -10 -9 -8 5 -8 11 -1 19 6 7 8 15 5 19 -3 3 2 4 13 3 10 -2 16 -7
13 -12z m-3160 0 c0 -8 -19 -13 -24 -6 -3 5 1 9 9 9 8 0 15 -2 15 -3z m466 -6
c3 -4 -1 -5 -10 -4 -8 1 -18 5 -22 8 -3 4 1 5 10 4 8 -1 18 -5 22 -8z m2027
-9 c-8 -8 -13 -7 -18 2 -5 8 -4 10 3 5 7 -4 12 -2 12 5 0 7 3 9 7 6 4 -4 2
-12 -4 -18z m1727 2 c0 -26 -16 -35 -24 -15 -10 25 -7 34 9 34 8 0 15 -9 15
-19z m-4303 -23 c-3 -7 -5 -2 -5 12 0 14 2 19 5 13 2 -7 2 -19 0 -25z m141 10
c-5 -15 -36 -19 -45 -6 -4 7 2 9 15 6 12 -4 22 -2 22 3 0 5 3 9 6 9 3 0 4 -5
2 -12z m385 -2 c11 1 16 0 12 -4 -13 -13 -55 -9 -55 6 0 10 4 12 13 5 6 -6 20
-9 30 -7z m-498 -6 c3 -5 1 -10 -4 -10 -6 0 -11 5 -11 10 0 6 2 10 4 10 3 0 8
-4 11 -10z m579 2 c3 -5 -1 -9 -9 -9 -8 0 -12 4 -9 9 3 4 7 8 9 8 2 0 6 -4 9
-8z m103 2 c-3 -3 -12 -4 -19 -1 -8 3 -5 6 6 6 11 1 17 -2 13 -5z m-146 -46
c3 -1 12 2 20 8 24 20 86 4 86 -21 0 -10 -5 -11 -16 -5 -9 5 -23 4 -33 -1 -12
-7 -18 -6 -18 2 0 9 -3 9 -14 0 -10 -9 -16 -8 -26 4 -7 8 -19 15 -26 15 -8 0
-14 5 -14 10 0 10 9 7 41 -12z m2703 -34 c3 -27 5 -59 5 -70 1 -12 8 -24 16
-28 8 -3 14 -1 12 4 -1 5 9 20 23 32 14 13 20 19 14 15 -8 -5 -12 -3 -10 7 3
24 12 28 26 10 16 -18 21 -54 8 -54 -4 0 -8 -7 -8 -15 0 -11 -12 -15 -48 -15
l-48 0 -1 86 c-1 93 4 106 11 28z m1126 52 c0 -3 -4 -8 -10 -11 -5 -3 -10 -1
-10 4 0 6 5 11 10 11 6 0 10 -2 10 -4z m-4472 -13 c-10 -2 -26 -2 -35 0 -10 3
-2 5 17 5 19 0 27 -2 18 -5z m79 1 c-3 -3 -12 -4 -19 -1 -8 3 -5 6 6 6 11 1
17 -2 13 -5z m90 0 c-3 -3 -12 -4 -19 -1 -8 3 -5 6 6 6 11 1 17 -2 13 -5z
m2935 -59 c-12 -22 -22 -31 -25 -23 -4 9 -6 7 -6 -4 -1 -9 3 -19 8 -22 11 -7
2 -46 -10 -46 -10 0 -12 64 -2 98 4 18 8 20 14 10 6 -9 9 -7 9 9 0 12 6 23 13
26 20 7 19 -9 -1 -48z m652 40 c-4 -8 -1 -15 5 -15 6 0 11 -5 11 -11 0 -8 -4
-9 -13 0 -8 6 -17 8 -20 4 -4 -3 -7 -2 -7 3 0 9 20 34 27 34 1 0 0 -7 -3 -15z
m702 -6 c19 -22 19 -22 -3 -8 -13 8 -23 17 -23 21 0 12 6 9 26 -13z m-4229
-64 c1 -64 -1 -75 -15 -76 -13 -1 -14 -2 -2 -5 12 -4 16 -29 18 -129 l3 -125
-65 0 c-71 0 -69 -1 -68 60 1 97 2 100 21 100 10 0 21 -9 24 -20 5 -21 27 -28
27 -9 0 5 -4 7 -10 4 -5 -3 -10 1 -10 9 0 18 11 21 26 6 6 -6 9 7 10 35 0 25
-4 45 -8 45 -4 0 -8 -6 -8 -12 0 -9 -4 -8 -10 2 -8 13 -13 13 -31 2 -11 -8
-18 -9 -14 -3 3 7 -2 11 -13 11 -19 0 -38 -27 -27 -38 3 -3 5 0 5 7 0 7 4 10
8 7 12 -7 2 -76 -12 -77 -6 0 -31 0 -56 1 -50 2 -82 20 -35 20 33 0 27 12 -7
14 -13 1 -23 7 -23 16 0 12 12 15 53 14 53 -1 61 3 40 24 -9 9 -15 9 -25 0
-11 -9 -13 -8 -11 3 2 11 -11 14 -59 14 -33 0 -65 3 -69 8 -4 4 64 7 151 7 87
0 155 3 151 7 -3 4 -20 7 -37 8 -16 1 -36 9 -45 18 -8 9 -11 15 -8 12 10 -6
34 21 34 39 0 8 5 18 10 21 6 4 10 -6 10 -22 0 -20 3 -24 9 -14 5 8 7 20 4 28
-3 7 2 13 11 13 9 0 16 8 17 18 0 14 2 14 9 -3 8 -20 9 -20 9 1 1 17 9 34 16
34 0 0 2 -34 2 -75z m-120 18 c-3 -10 -5 -2 -5 17 0 19 2 27 5 18 2 -10 2 -26
0 -35z m2057 31 c3 -8 2 -12 -4 -9 -6 3 -10 10 -10 16 0 14 7 11 14 -7z m887
-13 c-4 -14 -6 -37 -5 -51 1 -14 -1 -29 -4 -35 -4 -5 -7 -16 -8 -23 -2 -8 -5
-17 -8 -20 -4 -3 -4 5 -2 19 2 13 5 24 6 24 7 0 6 56 -1 60 -5 4 -5 13 1 24 5
10 7 20 5 23 -3 3 1 5 9 5 10 0 12 -8 7 -26z m-1061 11 c0 -5 -7 -9 -15 -9 -8
0 -12 4 -9 9 3 4 9 8 15 8 5 0 9 -4 9 -8z m1388 -17 c-3 -3 -9 2 -12 12 -6 14
-5 15 5 6 7 -7 10 -15 7 -18z m483 2 c-10 -9 -11 -8 -5 6 3 10 9 15 12 12 3
-3 0 -11 -7 -18z m582 -54 c-7 -16 -8 -16 -11 2 -7 40 -12 50 -21 37 -4 -7
-15 -10 -24 -6 -21 8 -22 24 -1 24 9 0 13 5 9 13 -4 6 7 -3 24 -20 21 -23 28
-38 24 -50z m-3727 41 c0 -13 -4 -20 -8 -18 -4 3 -9 0 -9 -5 -1 -6 -3 -15 -4
-21 -1 -5 -3 -13 -4 -17 -1 -5 -11 3 -22 17 -16 21 -19 22 -17 6 2 -11 -4 -20
-13 -21 -9 -2 -15 4 -14 14 2 25 15 42 27 35 7 -4 8 -2 4 4 -9 15 6 16 20 2 7
-7 11 -6 11 3 0 9 -14 13 -43 13 -24 0 -41 -3 -38 -7 3 -5 12 -5 22 -2 15 6
15 4 4 -9 -7 -9 -22 -15 -32 -13 -25 5 -35 -12 -20 -30 10 -12 9 -15 -8 -15
-15 0 -20 5 -16 15 4 8 2 15 -4 15 -6 0 -9 8 -8 18 2 9 7 15 12 14 5 -2 8 -9
6 -15 -2 -7 2 -6 11 1 8 7 18 8 23 4 4 -4 2 1 -5 10 -7 10 -17 16 -21 13 -5
-3 -11 -1 -15 5 -4 6 25 9 78 8 79 -2 83 -3 83 -24z m28 11 c-4 -8 -10 -12
-15 -9 -11 6 -2 24 11 24 5 0 7 -7 4 -15z m3226 5 c0 -5 -15 -9 -32 -9 l-33 1
30 8 c17 4 31 8 33 9 1 0 2 -3 2 -9z m497 -22 c-3 -8 -6 -5 -6 6 -1 11 2 17 5
13 3 -3 4 -12 1 -19z m-4450 6 c-3 -3 -12 -4 -19 -1 -8 3 -5 6 6 6 11 1 17 -2
13 -5z m2003 -16 c0 -18 -2 -20 -9 -8 -6 8 -7 18 -5 22 9 14 14 9 14 -14z
m1091 -14 c-5 -16 -10 -21 -10 -12 -1 18 10 51 15 45 2 -1 -1 -16 -5 -33z
m-1044 20 c-3 -3 -12 -4 -19 -1 -8 3 -5 6 6 6 11 1 17 -2 13 -5z m60 0 c-3 -3
-12 -4 -19 -1 -8 3 -5 6 6 6 11 1 17 -2 13 -5z m56 -1 c-7 -2 -21 -2 -30 0
-10 3 -4 5 12 5 17 0 24 -2 18 -5z m577 -3 c0 -5 -10 -10 -22 -12 -13 -2 -22
-9 -20 -17 3 -12 0 -12 -12 -2 -8 7 -13 18 -10 24 5 14 64 19 64 7z m44 -2
c-3 -4 -9 -8 -15 -8 -5 0 -9 4 -9 8 0 5 7 9 15 9 8 0 12 -4 9 -9z m-2798 -35
c-11 -11 -19 6 -11 24 8 17 8 17 12 0 3 -10 2 -21 -1 -24z m39 -2 l-7 -31
-121 2 -122 2 118 3 c115 4 117 4 117 27 0 23 9 40 18 32 2 -3 1 -18 -3 -35z
m1251 15 c-2 -17 3 -26 15 -29 11 -3 22 -1 25 4 3 5 0 8 -6 7 -7 -2 -14 8 -16
22 -3 22 -3 23 7 6 9 -15 13 -16 20 -5 6 10 8 6 5 -11 -3 -14 -5 -28 -5 -31
-1 -4 -16 -7 -34 -7 -31 0 -33 1 -29 34 2 19 8 34 12 34 5 0 7 -11 6 -24z
m2094 14 c0 -4 -6 -12 -13 -18 -10 -8 -13 -6 -13 7 0 10 6 18 13 18 7 0 13 -4
13 -7z m94 -11 c-3 -5 -10 -6 -16 -3 -5 4 -2 -5 7 -20 17 -25 17 -26 -2 -26
-25 0 -35 9 -25 24 7 11 8 16 11 36 0 5 8 7 16 4 8 -4 12 -10 9 -15z m-1494 3
c0 -13 -12 -22 -22 -16 -10 6 -1 24 13 24 5 0 9 -4 9 -8z m116 -5 c8 3 14 0
14 -7 0 -15 -33 -9 -36 8 -1 7 0 8 2 3 3 -6 12 -7 20 -4z m2361 -24 c-3 -10
-5 -4 -5 12 0 17 2 24 5 18 2 -7 2 -21 0 -30z m-4387 -1 c0 -19 -5 -29 -15
-29 -18 0 -18 -1 -5 31 12 34 20 33 20 -2z m922 13 c3 0 8 -2 10 -5 2 -3 1 -4
-1 -3 -2 2 -11 -3 -20 -9 -9 -7 -13 -8 -9 -4 4 5 2 16 -5 24 -10 13 -9 14 3 7
8 -6 18 -10 22 -10z m1068 -19 c0 -6 -5 -4 -10 4 -9 13 -10 13 -11 0 -1 -8 -1
-19 0 -23 1 -5 -2 -6 -7 -3 -7 4 -8 30 -3 55 2 8 31 -22 31 -33z m120 4 c0
-30 -11 -36 -43 -24 -12 4 -12 10 -3 30 16 35 46 32 46 -6z m-776 -11 c-10
-16 -23 -9 -21 10 1 15 4 17 14 9 7 -5 10 -14 7 -19z m606 -81 c-6 -35 -8 -29
-8 37 0 59 2 71 7 43 4 -20 4 -56 1 -80z m413 82 c-7 -28 -13 -25 -13 6 0 14
4 23 9 20 5 -3 7 -15 4 -26z m-2643 5 c0 -6 -8 -11 -18 -11 -10 0 -19 5 -19
11 0 6 9 11 19 11 10 0 18 -5 18 -11z m1707 -11 c-9 -9 -28 6 -21 18 4 6 10 6
17 -1 6 -6 8 -13 4 -17z m93 5 c0 -6 -4 -7 -10 -4 -5 3 -10 11 -10 16 0 6 5 7
10 4 6 -3 10 -11 10 -16z m379 5 c2 -2 11 2 19 8 12 10 14 9 11 -7 -4 -16 -12
-19 -62 -18 -84 1 -89 2 -82 12 3 6 14 8 25 6 11 -2 22 0 25 6 5 8 52 3 64 -7z
m2238 1 c0 -8 -4 -12 -9 -9 -5 3 -6 10 -3 15 9 13 12 11 12 -6z m-2647 -7 c0
-4 -7 -8 -15 -8 -8 0 -15 4 -15 8 0 5 7 9 15 9 8 0 15 -4 15 -9z m1556 -13 c0
-26 -11 -34 -19 -12 -5 14 2 37 12 37 4 0 7 -11 7 -25z m844 15 c0 -5 -4 -10
-10 -10 -5 0 -10 5 -10 10 0 6 5 10 10 10 6 0 10 -4 10 -10z m-36 -12 c-3 -4
-9 -8 -15 -8 -5 0 -9 4 -9 8 0 5 7 9 15 9 8 0 12 -4 9 -9z m-2574 -28 c0 -5
-8 -7 -17 -5 -10 2 -29 4 -43 4 -17 1 -21 4 -12 9 15 10 72 3 72 -8z m2530 5
c0 6 20 10 45 10 43 1 56 -7 35 -20 -5 -3 -10 0 -10 7 0 8 -3 9 -8 3 -4 -6
-20 -11 -37 -10 -24 0 -31 -5 -33 -25 -3 -20 -2 -22 11 -12 18 15 30 2 16 -18
-13 -23 -11 -29 11 -27 12 1 16 5 11 10 -5 5 -7 16 -4 23 4 11 9 12 19 3 12
-10 13 -8 8 7 -4 14 -3 15 4 6 6 -9 5 -26 -4 -50 -7 -20 -13 -45 -14 -54 0
-27 -80 -23 -80 4 0 10 5 18 10 18 6 0 10 -5 10 -12 0 -6 3 -8 7 -5 3 4 -1 15
-9 24 -16 18 -22 81 -11 117 4 15 7 16 14 5 5 -8 9 -9 9 -4z m364 7 c3 -5 -1
-9 -9 -9 -8 0 -12 4 -9 9 3 4 7 8 9 8 2 0 6 -4 9 -8z m-4959 -12 c3 -5 1 -10
-4 -10 -6 0 -11 5 -11 10 0 6 2 10 4 10 3 0 8 -4 11 -10z m570 0 c-6 -10 -54
-9 -61 1 -2 5 11 8 30 7 19 -1 33 -4 31 -8z m2205 6 c0 -3 -4 -8 -10 -11 -5
-3 -10 -1 -10 4 0 6 5 11 10 11 6 0 10 -2 10 -4z m90 -6 c3 -2 12 -3 20 -4 10
-1 16 -14 18 -42 3 -40 3 -41 -28 -36 -30 4 -39 16 -20 27 7 4 7 12 0 24 -5
10 -6 21 -3 25 10 9 -10 7 -27 -3 -15 -10 -33 -5 -26 8 4 6 55 7 66 1z m926
-15 c1 -8 -9 -21 -22 -30 -28 -18 -34 0 -6 22 10 8 11 11 2 7 -13 -7 -13 -6
-1 9 15 18 24 16 27 -8z m272 13 c18 -18 42 -18 43 0 0 14 2 13 9 -3 8 -19 9
-19 9 -1 1 20 1 20 16 0 11 -15 14 -16 15 -4 0 9 10 16 24 18 18 1 23 -3 22
-16 -2 -11 -13 -18 -32 -19 -16 0 -37 -2 -46 -2 -13 -1 -18 -9 -18 -29 0 -16
-9 -47 -20 -70 -11 -22 -20 -50 -20 -62 0 -11 -4 -20 -9 -20 -11 0 -19 80 -9
86 4 3 8 14 8 25 0 11 -3 18 -8 15 -10 -6 -8 56 3 73 5 10 4 12 -3 7 -7 -4
-12 -2 -12 3 0 14 13 14 28 -1z m-3418 -22 c0 -3 -4 -8 -10 -11 -5 -3 -10 -1
-10 4 0 6 5 11 10 11 6 0 10 -2 10 -4z m1465 -5 c3 -5 2 -12 -3 -15 -5 -3 -9
1 -9 9 0 17 3 19 12 6z m669 -12 c-2 -4 0 -10 6 -14 5 -3 10 1 10 10 0 25 32
14 36 -12 4 -21 0 -23 -41 -23 -42 0 -58 11 -35 25 6 4 8 10 6 14 -3 4 1 8 9
8 8 0 12 -4 9 -8z m-2421 -14 c-3 -9 -8 -14 -10 -11 -3 3 -2 9 2 15 9 16 15
13 8 -4z m1783 3 c4 -7 4 -10 -1 -6 -4 4 -15 2 -24 -5 -14 -11 -14 -10 -2 6
16 20 18 21 27 5z m-1652 -14 c8 -22 0 -30 -17 -16 -8 7 -16 9 -19 6 -3 -3 -9
0 -14 7 -4 7 -3 10 4 5 6 -3 13 -2 17 4 9 15 22 12 29 -6z m108 -6 c-3 -13
-10 -26 -16 -30 -8 -5 -7 -8 2 -8 6 0 12 -7 12 -15 0 -8 5 -15 10 -15 6 0 10
-9 10 -19 0 -10 7 -21 15 -25 8 -3 15 -17 15 -31 0 -24 -2 -25 -65 -25 -59 0
-65 2 -65 20 0 12 6 33 13 48 7 15 12 37 11 50 -1 12 1 20 5 16 6 -5 7 -9 10
-35 0 -5 6 -7 12 -3 6 3 8 15 6 26 -6 21 11 68 24 68 4 0 5 -10 1 -22z m3228
2 c-6 -11 -16 -17 -22 -14 -7 5 -5 12 7 21 25 18 28 17 15 -7z m375 10 c4 -6
-12 -10 -39 -10 -25 0 -46 5 -46 10 0 6 18 10 39 10 22 0 43 -4 46 -10z
m-3991 -8 c3 -5 -1 -9 -9 -9 -8 0 -12 4 -9 9 3 4 7 8 9 8 2 0 6 -4 9 -8z m111
-1 c3 -5 2 -12 -3 -15 -5 -3 -9 1 -9 9 0 17 3 19 12 6z m-30 -11 c3 -5 1 -10
-4 -10 -6 0 -11 5 -11 10 0 6 2 10 4 10 3 0 8 -4 11 -10z m120 0 c3 -5 1 -10
-4 -10 -6 0 -11 5 -11 10 0 6 2 10 4 10 3 0 8 -4 11 -10z m3745 -11 c0 -6 -25
-19 -36 -19 -2 0 -4 6 -4 13 0 7 9 13 20 13 11 0 20 -3 20 -7z m-4164 -25 c1
-9 0 -13 -4 -10 -3 4 -7 14 -8 22 -1 9 0 13 4 10 3 -4 7 -14 8 -22z m2747 1
c-7 -21 -13 -19 -13 6 0 11 4 18 10 14 5 -3 7 -12 3 -20z m1462 -5 c-2 -27
-15 -57 -15 -33 0 6 -17 8 -42 6 -37 -4 -40 -3 -29 11 8 9 26 16 42 16 29 0
39 14 17 23 -7 3 -4 6 8 6 17 1 20 -4 19 -29z m-4216 -24 c6 -4 8 -13 4 -22
-4 -12 -8 -11 -21 7 -12 17 -16 18 -24 8 -8 -11 -8 -11 -4 1 3 8 9 24 13 34 6
19 7 19 14 -1 4 -12 12 -24 18 -27z m306 24 c-15 -24 -13 -47 3 -46 9 0 16 -4
15 -10 -1 -6 5 -11 12 -11 11 0 12 4 3 14 -8 10 -8 17 1 26 15 15 32 -8 24
-32 -4 -13 -2 -13 7 1 10 16 12 16 30 0 11 -9 20 -27 20 -40 0 -22 -2 -23 -82
-20 -78 3 -81 4 -85 28 -2 19 -1 22 7 10 8 -12 10 -10 12 10 1 14 2 32 4 40 1
8 2 21 3 28 1 6 8 12 17 12 8 0 12 -4 9 -10z m515 -20 c0 -8 -10 -20 -22 -25
-13 -6 -22 -21 -24 -39 -4 -35 -1 -33 -49 -38 l-40 -3 -1 60 -1 60 68 0 c55 0
69 -3 69 -15z m4108 -15 c-3 -3 -9 2 -12 12 -6 14 -5 15 5 6 7 -7 10 -15 7
-18z m-2527 -7 c-4 -13 -6 -30 -3 -38 5 -13 3 -13 -11 -1 -11 9 -17 10 -17 2
0 -6 -4 -11 -10 -11 -5 0 -10 7 -10 16 0 22 20 40 57 53 1 1 -1 -9 -6 -21z
m39 7 c4 3 10 -2 14 -10 3 -8 2 -15 -2 -15 -12 0 -32 23 -31 35 0 5 3 4 6 -3
2 -6 8 -10 13 -7z m2671 -17 c-3 -21 -6 -26 -9 -15 -3 17 3 47 11 47 2 0 1
-15 -2 -32z m-4881 11 c0 -15 -18 -19 -23 -6 -3 8 1 14 9 14 8 0 14 -4 14 -8z
m2627 -14 c0 -8 -4 -15 -9 -15 -10 0 -11 14 -1 23 9 10 10 9 10 -8z m1287 -9
c-6 -15 33 -29 41 -15 3 4 12 6 21 2 26 -10 -5 -33 -45 -33 -36 0 -37 1 -33
35 2 19 8 32 13 30 4 -3 6 -12 3 -19z m-459 4 c-3 -5 -11 -10 -16 -10 -6 0 -7
5 -4 10 3 6 11 10 16 10 6 0 7 -4 4 -10z m923 -4 c3 -3 -11 -6 -32 -6 -20 0
-35 4 -32 9 6 9 54 7 64 -3z m-4564 -21 c-2 -14 0 -25 5 -25 5 0 11 10 13 23
4 27 21 20 23 -10 1 -21 -3 -22 -66 -21 -48 1 -66 5 -66 15 0 9 4 10 11 3 13
-13 29 -13 21 -1 -3 6 3 8 13 6 10 -2 25 1 33 6 8 5 10 9 6 9 -5 0 -5 5 -2 10
10 17 14 11 9 -15z m2491 15 c3 -5 2 -10 -4 -10 -5 0 -13 5 -16 10 -3 6 -2 10
4 10 5 0 13 -4 16 -10z m2112 4 c-3 -3 -12 -4 -19 -1 -8 3 -5 6 6 6 11 1 17
-2 13 -5z m-4416 -27 c6 -10 5 -18 -1 -22 -5 -3 -10 3 -10 15 0 12 -4 18 -11
15 -6 -4 -8 -13 -5 -21 4 -12 -3 -14 -34 -12 -25 1 -40 7 -40 15 0 9 6 10 27
2 26 -10 49 4 37 22 -2 4 3 6 12 5 9 -1 20 -10 25 -19z m2104 12 c-4 -6 2 -13
14 -16 22 -6 28 -27 11 -38 -11 -7 -42 49 -33 59 10 10 15 7 8 -5z m1452 -7
c-24 -26 -21 -35 16 -56 17 -11 41 -30 52 -44 19 -22 22 -23 34 -8 11 14 11
16 -3 16 -18 0 -22 25 -5 36 6 3 18 -2 27 -12 16 -17 16 -17 -3 -3 -18 13 -19
13 -6 -3 7 -10 17 -15 22 -12 17 10 68 -36 71 -64 2 -20 8 -26 23 -25 23 3 65
-16 65 -29 0 -5 -4 -6 -10 -3 -5 3 -7 0 -4 -8 4 -12 -8 -21 -59 -45 -5 -3 -4
5 2 16 8 16 7 21 -4 26 -8 3 -15 13 -15 21 0 9 -5 13 -10 10 -6 -4 -8 -11 -5
-16 3 -5 -1 -6 -9 -3 -9 4 -18 -1 -22 -10 -3 -9 -14 -16 -23 -16 -22 0 -104
67 -91 75 5 3 13 -1 16 -9 3 -9 19 -22 35 -30 25 -12 30 -12 41 2 11 15 11 15
-3 4 -14 -10 -18 -10 -24 5 -5 10 -7 27 -6 38 1 16 -5 20 -31 22 -23 0 -41 11
-65 37 -18 20 -40 36 -48 36 -22 0 -19 7 18 40 36 33 48 39 24 12z m311 -7
c-2 -18 -7 -24 -18 -20 -12 5 -12 3 2 -11 11 -11 22 -14 35 -9 44 20 125 5 91
-16 -10 -7 -10 -9 0 -9 8 0 12 -19 12 -60 0 -33 -3 -60 -6 -60 -3 0 -29 17
-59 38 -54 37 -71 62 -54 79 6 6 4 10 -5 10 -8 0 -13 -4 -10 -9 6 -10 1 -10
-20 -2 -9 3 -16 10 -16 16 0 5 5 6 10 3 6 -3 10 -1 10 4 0 6 -4 11 -8 11 -5 0
-9 7 -9 14 0 8 3 15 6 14 20 -2 31 4 31 17 0 8 2 15 5 15 3 0 4 -11 3 -25z
m-3598 11 c0 -2 -8 -10 -17 -17 -16 -13 -17 -12 -4 4 13 16 21 21 21 13z m313
-10 c3 -8 -1 -17 -10 -20 -20 -8 -25 -3 -17 18 8 20 20 21 27 2z m382 -6 c10
-11 16 -20 13 -20 -3 0 -13 9 -23 20 -10 11 -16 20 -13 20 3 0 13 -9 23 -20z
m2634 6 c10 -12 8 -13 -8 -9 -12 3 -18 9 -15 14 7 12 10 11 23 -5z m-1499 -36
c7 -14 0 -24 -35 -49 -24 -17 -52 -31 -64 -31 -11 0 -23 -5 -27 -12 -4 -7 -3
-8 4 -4 7 4 12 2 12 -3 0 -6 -6 -11 -13 -11 -7 0 -24 -15 -37 -32 l-24 -33 29
19 c17 11 35 25 40 32 6 7 37 31 69 53 68 47 94 43 64 -9 -17 -29 -17 -30 5
-30 20 -1 19 -3 -8 -17 -16 -9 -34 -22 -38 -30 -7 -11 -12 -11 -30 2 -30 21
-64 19 -77 -5 -8 -14 -8 -20 0 -20 6 0 9 -4 5 -10 -3 -5 -11 -7 -18 -5 -7 3
-17 1 -23 -3 -18 -12 -35 -51 -28 -63 3 -6 -6 -3 -21 7 -26 17 -27 18 -9 34
29 25 29 44 0 24 -14 -8 -30 -13 -35 -10 -5 4 -13 1 -17 -5 -4 -8 -3 -9 4 -5
7 4 12 5 12 3 0 -2 -18 -17 -41 -31 -22 -15 -39 -30 -36 -33 3 -2 19 5 36 18
27 20 34 21 58 9 17 -7 23 -14 15 -17 -7 -3 -19 1 -28 7 -8 7 -18 10 -21 6 -4
-4 -2 -11 5 -15 9 -5 5 -14 -13 -31 -14 -13 -25 -18 -25 -12 0 7 -17 20 -37
29 -21 10 -39 18 -41 19 -9 5 20 43 45 59 23 15 26 16 15 2 -15 -18 -8 -37 14
-37 8 0 14 10 14 25 0 14 5 25 10 25 6 0 10 5 10 11 0 5 -6 7 -12 3 -7 -4 3 8
22 27 40 40 112 91 92 67 -11 -13 -11 -21 -1 -40 l12 -23 10 25 c5 14 13 33
18 42 12 24 11 30 -3 22 -21 -12 3 11 57 54 52 41 64 42 85 2z m2300 25 c0 -8
-2 -15 -4 -15 -2 0 -6 7 -10 15 -3 8 -1 15 4 15 6 0 10 -7 10 -15z m-1438 -17
c-7 -7 -12 -8 -12 -2 0 14 12 26 19 19 2 -3 -1 -11 -7 -17z m1920 -13 c-5 -15
-16 -29 -25 -31 -9 -1 -15 2 -11 7 3 5 10 6 16 3 6 -4 9 -1 6 7 -5 14 10 54
17 47 3 -2 1 -17 -3 -33z m-2212 15 c0 -5 -6 -9 -12 -7 -7 1 -12 -4 -10 -11 3
-18 -20 -10 -26 8 -3 7 0 10 6 6 6 -3 13 -2 17 4 8 13 25 13 25 0z m1500 0 c0
-5 -5 -10 -11 -10 -5 0 -7 5 -4 10 3 6 8 10 11 10 2 0 4 -4 4 -10z m663 0
c-13 -5 -23 -18 -23 -28 0 -10 -6 -19 -13 -19 -8 0 -14 6 -14 13 0 7 5 10 10
7 6 -4 8 0 4 9 -7 20 -4 23 30 25 26 2 27 1 6 -7z m-1663 -15 c0 -8 -7 -15
-15 -15 -9 0 -12 6 -9 15 4 8 10 15 15 15 5 0 9 -7 9 -15z m-3413 -11 c-3 -3
-12 -4 -19 -1 -8 3 -5 6 6 6 11 1 17 -2 13 -5z m60 -26 c0 -15 -3 -25 -8 -23
-4 3 -7 -3 -6 -13 1 -25 23 -24 24 1 4 48 24 33 28 -20 2 -21 4 -38 5 -38 1 0
4 -39 6 -87 l5 -88 -29 0 c-30 0 -36 9 -48 63 -2 11 -11 28 -19 40 -9 13 -11
25 -5 32 11 13 -17 14 -38 1 -8 -5 -12 1 -12 20 0 23 2 25 16 13 14 -12 16
-11 12 6 -2 11 -9 19 -15 18 -6 -1 -10 5 -9 15 2 9 9 17 17 17 8 0 15 6 15 13
1 6 3 15 4 20 1 4 2 11 0 17 -1 5 8 1 19 -9 12 -11 21 -14 21 -8 0 7 0 15 0
20 0 4 -4 7 -9 7 -5 0 -13 3 -17 8 -4 4 4 6 17 5 19 -2 25 -8 26 -30z m4748
-8 c-30 -31 -50 -39 -42 -17 2 6 9 11 16 10 6 -2 18 8 27 22 9 14 19 23 22 20
3 -3 -7 -19 -23 -35z m-1055 26 c0 -2 -8 -10 -17 -17 -16 -13 -17 -12 -4 4 13
16 21 21 21 13z m-2410 -36 c19 -16 29 -30 23 -30 -7 0 -13 5 -13 10 0 6 -8
10 -18 10 -9 0 -23 9 -30 20 -17 28 -3 24 38 -10z m1670 -41 c0 -55 -10 -74
-25 -49 -4 6 -36 33 -72 60 l-65 49 74 3 c40 2 76 2 81 0 4 -2 7 -30 7 -63z
m370 50 c0 -14 -16 -11 -29 5 -10 12 -8 13 8 9 12 -3 21 -9 21 -14z m390 -10
c0 -6 -4 -7 -10 -4 -5 3 -10 11 -10 16 0 6 5 7 10 4 6 -3 10 -11 10 -16z
m-1330 1 c0 -5 -5 -10 -11 -10 -5 0 -7 5 -4 10 3 6 8 10 11 10 2 0 4 -4 4 -10z
m1 -83 c-8 -8 -11 -5 -11 12 0 12 -4 19 -10 16 -17 -11 -11 7 8 21 15 11 17
10 20 -13 2 -14 -1 -30 -7 -36z m1070 40 c-10 -9 -11 -8 -5 6 3 10 9 15 12 12
3 -3 0 -11 -7 -18z m1599 19 c0 -3 -4 -8 -10 -11 -5 -3 -10 -1 -10 4 0 6 5 11
10 11 6 0 10 -2 10 -4z m-1641 -27 c-22 -14 -33 -10 -19 6 7 8 17 12 22 9 6
-4 5 -10 -3 -15z m326 12 c3 -5 2 -12 -3 -15 -5 -3 -9 1 -9 9 0 17 3 19 12 6z
m-2410 -10 c3 -5 2 -12 -3 -15 -5 -3 -9 1 -9 9 0 17 3 19 12 6z m3395 -17 c0
-14 -4 -23 -10 -19 -5 3 -10 -1 -10 -9 0 -21 17 -20 28 0 5 9 17 14 27 13 13
-3 8 -11 -25 -38 -40 -32 -65 -36 -40 -6 9 11 9 15 1 15 -9 0 -9 5 -1 20 6 11
8 20 4 20 -3 0 -1 7 6 15 17 21 20 19 20 -11z m-3648 -23 c28 -14 30 -35 2
-24 -9 3 -14 0 -12 -7 2 -7 -3 -14 -10 -15 -7 -2 -8 -1 -2 2 6 3 4 13 -5 26
-16 23 -20 40 -7 35 4 -2 19 -10 34 -17z m184 -9 c-3 -3 -1 -11 5 -18 7 -8 7
-14 -1 -19 -5 -3 -11 -3 -11 2 -6 36 -5 52 3 47 5 -3 7 -9 4 -12z m2131 7 c-9
-6 -16 -13 -14 -17 2 -4 -4 -15 -15 -24 -24 -24 -23 -13 3 23 11 16 26 29 32
29 7 0 4 -5 -6 -11z m-2162 -11 c4 -3 2 -9 -3 -12 -5 -3 -15 1 -21 8 -10 11
-9 14 3 12 9 -1 18 -5 21 -8z m2096 -21 c-6 -8 -7 -18 -3 -22 4 -5 2 -5 -5 -1
-14 8 -6 36 9 36 7 0 6 -5 -1 -13z m1745 -17 c1 -25 -3 -31 -25 -36 -14 -3
-31 -7 -37 -9 -6 -2 -17 2 -23 8 -8 8 -17 5 -33 -9 -22 -19 -22 -19 -8 0 14
18 13 19 -2 13 -20 -7 -45 18 -28 28 7 4 19 0 27 -8 14 -14 17 -14 32 2 9 9
15 15 14 13 -1 -3 4 -11 12 -19 16 -16 39 -8 29 9 -4 7 -2 8 5 4 6 -4 9 -12 6
-17 -3 -5 1 -6 8 -3 8 3 14 13 12 22 -2 15 2 32 8 32 1 0 3 -14 3 -30z m-3681
10 c3 -6 -1 -7 -9 -4 -18 7 -21 14 -7 14 6 0 13 -4 16 -10z m1696 -7 c13 -16
12 -17 -3 -4 -17 13 -22 21 -14 21 2 0 10 -8 17 -17z m-2240 -10 c0 -5 2 -16
4 -25 4 -22 1 -22 -30 -2 -14 9 -22 20 -19 25 6 11 44 12 45 2z m2209 -8 c7
-9 8 -15 2 -15 -5 0 -12 7 -16 15 -3 8 -4 15 -2 15 2 0 9 -7 16 -15z m1340 5
c0 -5 -4 -10 -10 -10 -5 0 -10 5 -10 10 0 6 5 10 10 10 6 0 10 -4 10 -10z
m349 -74 c2 -76 -12 -107 -31 -72 -9 16 -11 16 -24 -1 -12 -17 -13 -17 -14 0
0 25 4 32 18 31 17 -2 15 13 -3 23 -12 7 -11 11 7 22 18 11 20 11 15 -1 -3 -8
-2 -20 2 -27 4 -6 8 9 8 34 1 25 -4 45 -9 45 -6 0 -5 6 2 15 20 25 27 9 29
-69z m-2539 70 c0 -9 -30 -14 -35 -6 -4 6 3 10 14 10 12 0 21 -2 21 -4z m2251
-13 c1 -10 1 -22 0 -27 -1 -5 3 -12 10 -16 19 -13 1 -49 -22 -43 -18 5 -18 7
-5 22 11 12 12 19 3 32 -7 9 -18 14 -25 11 -9 -3 -7 4 4 17 22 26 34 27 35 4z
m217 -20 c2 -20 -1 -24 -9 -16 -7 7 -9 19 -6 27 9 23 12 20 15 -11z m-3872 5
c4 -6 -4 -20 -18 -32 -74 -61 -69 -59 -85 -43 -13 12 -10 17 19 41 18 14 38
30 43 36 14 13 32 12 41 -2z m3209 -2 c18 -13 18 -14 -4 -26 -19 -10 -22 -10
-17 2 4 7 -1 3 -10 -9 -21 -29 -29 -29 -31 -1 -4 43 27 60 62 34z m-4082 -22
c-4 -12 -8 -13 -14 -3 -9 15 -2 32 11 24 5 -3 6 -13 3 -21z m1066 13 c-2 -1
-13 -9 -24 -17 -19 -14 -19 -14 -6 3 7 9 18 17 24 17 6 0 8 -1 6 -3z m4141 -1
c0 -3 -4 -8 -10 -11 -5 -3 -10 -1 -10 4 0 6 5 11 10 11 6 0 10 -2 10 -4z
m-4276 -27 c19 -15 30 -18 39 -11 8 7 18 6 30 -2 22 -17 22 -28 -3 -48 -19
-17 -37 -8 -25 12 3 6 0 10 -8 10 -8 0 -17 -7 -21 -15 -3 -8 -23 -18 -45 -21
-40 -6 -48 -24 -10 -24 19 0 26 -14 11 -24 -9 -6 -97 52 -97 64 0 8 85 79 96
79 4 1 18 -8 33 -20z m181 12 c7 -12 -29 -33 -40 -23 -5 4 -5 -1 -2 -10 7 -20
-3 -24 -20 -7 -9 9 -6 16 10 30 25 20 43 24 52 10z m70 -11 c3 -5 2 -10 -4
-10 -5 0 -13 5 -16 10 -3 6 -2 10 4 10 5 0 13 -4 16 -10z m3520 -10 c-3 -5
-12 -10 -18 -10 -7 0 -6 4 3 10 19 12 23 12 15 0z m145 -22 c0 -17 -3 -28 -7
-24 -9 9 -13 38 -7 48 10 15 14 8 14 -24z m366 17 c-2 -7 0 -17 6 -23 12 -12
-7 -27 -22 -17 -16 10 -12 52 5 52 9 0 14 -6 11 -12z m-4441 -47 c14 -21 14
-24 -2 -36 -15 -11 -19 -11 -21 2 -3 14 -6 14 -27 0 -16 -11 -29 -13 -40 -6
-15 8 -13 13 16 35 42 33 53 33 74 5z m4075 -22 c0 -3 -4 -8 -10 -11 -5 -3
-10 -1 -10 4 0 6 5 11 10 11 6 0 10 -2 10 -4z m355 -6 c3 -5 1 -10 -4 -10 -6
0 -11 5 -11 10 0 6 2 10 4 10 3 0 8 -4 11 -10z m-4340 -44 c36 -33 43 -45 31
-49 -10 -4 -13 -1 -10 7 6 17 -42 50 -52 35 -3 -6 4 -18 16 -26 15 -11 19 -18
11 -26 -7 -7 -25 0 -61 24 l-51 34 28 22 c16 13 31 23 35 23 3 0 27 -20 53
-44z m891 23 c33 -20 34 -23 34 -85 l0 -64 -65 0 c-49 0 -67 4 -71 15 -4 9
-19 15 -40 15 l-34 0 0 -60 0 -60 65 0 65 0 0 -70 0 -70 -65 0 -65 0 0 -53 c0
-51 2 -56 40 -86 l40 -32 0 56 0 55 65 0 65 0 0 -172 c0 -95 5 -191 10 -213 5
-22 8 -41 6 -42 -2 -2 -83 61 -182 139 l-179 143 3 282 c2 189 -1 289 -8 303
-11 20 -8 20 136 20 131 0 150 -2 180 -21z m224 -26 c11 -27 31 -70 44 -98
l24 -50 46 98 47 97 75 0 74 0 -1 -287 0 -288 -61 -43 c-93 -67 -87 -73 -90
89 l-3 143 -35 -89 c-20 -50 -40 -89 -45 -88 -5 0 -27 43 -50 94 l-40 93 -3
-147 c-1 -81 -6 -147 -10 -147 -4 1 -37 23 -74 51 l-68 49 0 285 0 285 75 0
74 0 21 -47z m667 25 c23 -21 23 -22 23 -293 l0 -271 -70 -52 c-38 -28 -72
-52 -75 -52 -3 0 -5 50 -5 110 l0 110 -30 0 -30 0 0 -103 c0 -57 -3 -106 -6
-110 -3 -3 -35 17 -70 45 l-64 52 0 270 c0 340 -13 316 174 316 119 0 132 -2
153 -22z m366 -6 c25 -26 27 -35 27 -105 l0 -77 -75 0 -75 0 0 35 c0 33 -2 35
-35 35 l-35 0 0 -201 0 -200 35 27 c28 21 35 33 35 60 l0 34 75 0 75 0 0 -74
0 -74 -90 -66 c-50 -37 -94 -67 -99 -69 -4 -1 -45 27 -89 62 l-82 64 0 258 0
257 26 31 26 31 127 0 c126 0 127 0 154 -28z m371 7 c35 -21 36 -22 36 -85 l0
-64 -70 0 c-56 0 -70 3 -70 15 0 11 -11 15 -35 15 l-36 0 3 -81 3 -81 100 -54
100 -53 5 -233 c3 -128 4 -235 3 -236 -1 -2 -78 58 -172 133 l-171 137 0 64 0
64 68 0 c59 0 68 -3 77 -22 6 -11 20 -28 33 -36 23 -15 23 -15 20 28 l-3 43
-97 55 -98 55 0 163 c0 98 -4 165 -10 169 -30 19 3 25 134 25 129 0 149 -2
180 -21z m-2934 2 c0 -6 -4 -13 -10 -16 -5 -3 -10 1 -10 9 0 9 5 16 10 16 6 0
10 -4 10 -9z m4272 -18 c2 -10 -2 -29 -9 -43 -12 -24 -13 -24 -13 18 0 42 14
58 22 25z m-395 -25 c-3 -7 -5 -2 -5 12 0 14 2 19 5 13 2 -7 2 -19 0 -25z
m353 -2 c0 -14 -8 -27 -17 -31 -15 -5 -16 -4 -5 6 6 7 12 21 12 31 0 10 2 18
5 18 3 0 5 -11 5 -24z m136 -6 c16 0 16 -2 4 -10 -9 -5 -18 -6 -24 0 -6 6 -24
-2 -47 -20 -40 -32 -49 -36 -49 -19 0 5 4 8 10 4 5 -3 19 12 32 34 20 35 25
38 39 25 8 -8 24 -14 35 -14z m-4796 10 c0 -5 -9 -10 -20 -10 -11 0 -20 5 -20
10 0 6 9 10 20 10 11 0 20 -4 20 -10z m47 4 c-3 -3 -12 -4 -19 -1 -8 3 -5 6 6
6 11 1 17 -2 13 -5z m697 -23 c10 -11 15 -25 11 -31 -6 -9 -10 -9 -16 1 -7 11
-9 10 -9 -5 0 -13 -4 -16 -12 -9 -17 13 -56 14 -63 2 -4 -5 0 -9 8 -9 8 0 17
-9 20 -20 6 -24 -7 -26 -37 -3 l-22 17 43 38 c51 44 54 45 77 19z m3673 -13
c-3 -7 -5 -2 -5 12 0 14 2 19 5 13 2 -7 2 -19 0 -25z m688 22 c-3 -5 -1 -10 5
-10 6 0 9 -4 5 -9 -3 -5 1 -15 8 -23 7 -7 13 -22 14 -33 3 -46 8 -62 20 -62 6
0 10 4 7 8 -2 4 1 11 7 14 5 4 8 13 5 21 -3 7 -1 16 3 19 12 7 21 -33 27 -115
l6 -67 -39 2 c-30 1 -38 5 -38 21 -1 34 -16 63 -29 58 -10 -4 -12 16 -10 88 3
105 2 98 10 98 3 0 2 -4 -1 -10z m-598 -6 c-3 -3 -12 -4 -19 -1 -8 3 -5 6 6 6
11 1 17 -2 13 -5z m48 -14 c-3 -5 -12 -10 -18 -10 -7 0 -6 4 3 10 19 12 23 12
15 0z m-225 -21 c0 -6 -4 -7 -10 -4 -5 3 -10 11 -10 16 0 6 5 7 10 4 6 -3 10
-11 10 -16z m290 11 c0 -5 -4 -10 -10 -10 -5 0 -10 5 -10 10 0 6 5 10 10 10 6
0 10 -4 10 -10z m201 -33 c-8 -8 -11 -5 -11 9 0 27 14 41 18 19 2 -9 -1 -22
-7 -28z m-331 18 c-7 -8 -16 -12 -21 -9 -13 8 -1 24 18 24 13 0 13 -3 3 -15z
m-3680 -17 c0 -6 -7 -7 -16 -4 -11 4 -15 2 -11 -7 4 -10 -4 -14 -26 -15 l-32
-1 29 24 c28 22 56 24 56 3z m-166 -53 c6 -17 4 -18 -18 -9 -20 8 -21 24 -2
24 8 0 16 -7 20 -15z m56 -10 c-13 -14 -26 -23 -28 -20 -7 7 29 45 41 45 6 0
0 -11 -13 -25z m-90 -12 c0 5 5 5 11 1 8 -4 7 -9 -2 -15 -13 -8 -29 6 -29 26
0 6 5 3 10 -5 5 -8 10 -11 10 -7z m105 -13 c-3 -5 -10 -10 -16 -10 -5 0 -9 5
-9 10 0 6 7 10 16 10 8 0 12 -4 9 -10z m3985 -71 c0 -11 -4 -18 -10 -14 -5 3
-7 12 -3 20 7 21 13 19 13 -6z m-4146 -49 c-6 -6 -10 -2 -11 12 -2 16 1 18 10
9 7 -7 8 -14 1 -21z m-35 -14 c9 -11 6 -15 -19 -18 -35 -5 -35 -5 -14 16 19
19 19 19 33 2z m4278 0 c-4 -9 0 -12 11 -10 23 6 67 -30 57 -45 -4 -7 -32 -28
-62 -48 -42 -27 -58 -32 -67 -23 -8 9 -6 11 9 8 17 -3 20 3 20 39 0 23 4 45 8
49 4 4 7 16 7 26 0 10 5 18 11 18 6 0 9 -6 6 -14z m-4353 -67 c-21 -23 -38
-15 -24 11 6 12 16 17 26 13 13 -5 13 -8 -2 -24z m4476 -21 c0 -14 -33 0 -36
15 -2 13 1 14 17 4 10 -6 19 -15 19 -19z m58 -45 c8 -7 9 -14 2 -18 -7 -4 -7
-13 0 -26 6 -11 15 -17 19 -15 5 3 16 -3 26 -14 16 -17 16 -21 1 -42 -9 -12
-16 -17 -16 -10 0 7 -4 11 -8 8 -4 -2 -14 -1 -22 5 -10 6 -11 9 -2 9 6 0 12 8
11 18 0 10 -3 12 -6 4 -2 -6 -9 -10 -14 -6 -9 5 -13 -8 -10 -36 1 -11 -3 -9
-14 5 -14 18 -14 21 7 38 13 10 16 15 8 11 -13 -7 -13 -5 -2 9 12 14 11 20 -2
39 -9 12 -16 19 -16 14 0 -5 -7 -3 -15 4 -12 10 -13 16 -4 26 12 15 20 11 57
-23z m-288 13 c0 -2 -8 -10 -17 -17 -16 -13 -17 -12 -4 4 13 16 21 21 21 13z
m160 -18 c0 -6 -6 -5 -15 2 -8 7 -15 14 -15 16 0 2 7 1 15 -2 8 -4 15 -11 15
-16z m-4797 -19 c10 8 14 7 14 -4 0 -8 -5 -12 -11 -9 -6 3 -4 0 5 -8 21 -18
31 -56 13 -54 -7 1 -17 6 -21 11 -4 4 -2 5 5 1 6 -4 12 -2 12 3 0 16 -16 13
-30 -4 -17 -20 -25 -19 -60 7 l-29 21 31 23 c24 18 35 21 45 13 9 -8 17 -8 26
0z m4857 -30 c7 -12 6 -20 -1 -25 -13 -8 -30 16 -22 30 3 5 1 6 -6 2 -6 -4 -9
-12 -5 -17 3 -6 -3 -5 -15 3 -19 12 -20 14 -5 25 19 14 41 7 54 -18z m161 -42
c-9 -12 -8 -16 3 -20 9 -4 19 0 23 7 6 11 28 -1 88 -49 44 -34 79 -67 78 -73
-2 -6 3 -9 11 -6 7 3 19 -2 26 -11 11 -13 11 -18 -3 -31 -9 -8 -13 -9 -8 -3
15 18 -57 63 -75 48 -17 -14 0 -53 20 -46 7 3 19 1 26 -3 20 -13 -3 -35 -37
-37 -15 0 -20 1 -10 4 22 6 22 15 -2 33 -11 7 -18 18 -15 22 3 5 -6 6 -20 2
-16 -4 -26 -2 -26 5 0 10 13 15 32 12 3 0 5 7 4 16 -2 9 -11 18 -21 19 -10 1
-22 7 -28 13 -16 16 -31 13 -18 -2 8 -11 6 -18 -9 -32 -11 -10 -23 -15 -27
-12 -3 4 -12 -1 -20 -11 -8 -9 -12 -11 -8 -4 3 6 2 12 -4 12 -18 0 -42 32 -36
49 3 9 -5 5 -17 -9 -13 -14 -19 -20 -14 -13 5 7 6 13 4 13 -3 0 10 16 29 36
18 20 32 41 31 47 -1 7 2 23 6 36 6 16 11 20 19 12 7 -7 7 -14 -2 -24z m-5135
1 c5 -7 3 -8 -6 -3 -9 5 -11 4 -6 -4 4 -6 13 -8 19 -4 7 4 20 9 31 10 15 3 16
0 7 -11 -9 -10 -8 -16 3 -25 8 -7 12 -19 9 -28 -4 -11 -2 -14 8 -11 22 7 36
-15 34 -55 -2 -20 1 -40 6 -43 8 -5 13 16 10 43 -2 18 19 26 25 9 3 -9 13 -16
22 -16 8 0 12 -3 8 -7 -4 -4 -15 -8 -24 -8 -11 0 -17 -8 -16 -22 2 -38 -52 4
-61 48 -7 32 -39 56 -50 39 -5 -8 -11 -7 -21 1 -11 9 -18 9 -26 1 -9 -9 -8
-12 5 -12 21 0 22 -13 2 -30 -15 -12 -55 -5 -55 11 0 5 -6 9 -14 9 -8 0 -18 4
-21 10 -7 11 21 56 33 54 4 -1 16 2 27 7 11 4 16 8 11 8 -5 1 -1 10 9 21 21
23 22 24 31 8z m4934 3 c0 -6 -4 -13 -10 -16 -5 -3 -10 1 -10 9 0 9 5 16 10
16 6 0 10 -4 10 -9z m-4743 -36 c7 -20 -2 -29 -21 -22 -9 4 -13 13 -10 22 8
19 23 19 31 0z m-57 -16 c0 8 3 11 6 8 4 -4 2 -13 -4 -20 -7 -8 -8 -18 -4 -23
4 -4 -1 -3 -10 5 -9 7 -14 19 -11 28 5 12 7 12 14 1 7 -11 9 -10 9 1z m60 -39
c0 -5 -4 -10 -9 -10 -6 0 -13 5 -16 10 -3 6 1 10 9 10 9 0 16 -4 16 -10z
m5036 -45 c-10 -8 -22 -12 -27 -10 -4 3 -10 0 -12 -5 -3 -6 -4 -5 -3 2 1 7 13
15 27 19 35 10 36 10 15 -6z m-5016 -13 c0 -5 -7 -9 -15 -9 -8 0 -15 4 -15 9
0 4 7 8 15 8 8 0 15 -4 15 -8z m-195 -42 c10 -11 16 -20 13 -20 -3 0 -13 9
-23 20 -10 11 -16 20 -13 20 3 0 13 -9 23 -20z m5141 -16 c1 -9 0 -13 -4 -10
-3 4 -7 14 -8 22 -1 9 0 13 4 10 3 -4 7 -14 8 -22z m79 -4 c-3 -5 -14 -10 -23
-9 -14 0 -13 2 3 9 27 11 27 11 20 0z"/>
<path d="M317 3559 c7 -7 15 -10 18 -7 3 3 -2 9 -12 12 -14 6 -15 5 -6 -5z"/>
<path d="M1413 3373 c-16 -6 -18 -163 -3 -163 5 0 9 10 8 23 -1 37 2 71 6 66
3 -2 8 -38 11 -79 4 -41 9 -77 11 -79 2 -2 4 50 4 117 0 124 -2 130 -37 115z"/>
<path d="M1428 3050 c-7 -24 -3 -38 8 -28 3 4 4 17 2 30 l-3 23 -7 -25z"/>
<path d="M1430 2989 c0 -5 -4 -7 -10 -4 -5 3 -10 1 -10 -4 0 -16 16 -13 30 4
9 10 9 15 1 15 -6 0 -11 -5 -11 -11z"/>
<path d="M1416 2925 c3 -7 1 -16 -4 -19 -16 -9 -2 -45 14 -39 10 4 12 0 8 -11
-3 -9 -2 -16 3 -16 5 0 10 20 10 44 1 35 -3 45 -17 49 -12 3 -17 0 -14 -8z"/>
<path d="M1413 2802 c1 -13 7 -18 19 -14 11 2 17 5 16 6 -2 1 -11 7 -20 15
-15 11 -17 10 -15 -7z"/>
<path d="M315 2451 c-3 -5 -2 -12 3 -15 5 -3 9 1 9 9 0 17 -3 19 -12 6z"/>
<path d="M927 1413 c-8 -14 -4 -183 5 -183 4 0 8 43 8 95 0 89 -3 106 -13 88z"/>
<path d="M1134 1346 c7 -75 7 -76 -22 -93 -36 -23 -118 -93 -108 -93 4 0 49
33 99 73 51 40 121 95 157 122 36 27 67 50 69 52 2 2 2 6 -2 9 -5 5 -79 -45
-97 -66 -3 -3 -22 -19 -42 -34 l-38 -28 0 60 c0 34 -5 64 -11 68 -8 5 -9 -15
-5 -70z"/>
<path d="M1160 1408 c0 -9 5 -20 10 -23 13 -8 13 5 0 25 -8 13 -10 13 -10 -2z"/>
<path d="M1012 1383 c-7 -3 -20 -19 -28 -36 l-16 -32 28 26 c16 15 35 24 42
22 6 -3 12 2 12 11 0 16 -13 19 -38 9z"/>
<path d="M776 1358 c3 -5 10 -6 15 -3 13 9 11 12 -6 12 -8 0 -12 -4 -9 -9z"/>
<path d="M1574 1352 c4 -3 14 -7 22 -8 9 -1 13 0 10 4 -4 3 -14 7 -22 8 -9 1
-13 0 -10 -4z"/>
<path d="M1095 1319 c-4 -6 -5 -12 -2 -15 2 -3 7 2 10 11 7 17 1 20 -8 4z"/>
<path d="M833 1285 c-17 -19 -35 -35 -41 -35 -6 0 -14 -5 -17 -10 -4 -7 16
-10 59 -8 61 2 66 4 66 25 0 13 -4 23 -10 23 -5 0 -10 9 -10 20 0 29 -13 25
-47 -15z m30 -32 c-7 -2 -19 -2 -25 0 -7 3 -2 5 12 5 14 0 19 -2 13 -5z"/>
<path d="M670 1239 c0 -5 18 -9 40 -9 22 0 40 3 40 8 0 4 -18 8 -40 9 -22 1
-40 -3 -40 -8z"/>
<path d="M537 1193 c-11 -10 -8 -45 2 -38 6 3 9 14 8 25 -1 23 -1 22 -10 13z"/>
<path d="M678 1118 c9 -9 15 -9 24 0 9 9 7 12 -12 12 -19 0 -21 -3 -12 -12z"/>
<path d="M720 1121 c0 -11 87 -13 125 -2 23 6 12 8 -47 9 -43 1 -78 -3 -78 -7z"/>
<path d="M940 820 c0 -5 5 -10 11 -10 5 0 7 5 4 10 -3 6 -8 10 -11 10 -2 0 -4
-4 -4 -10z"/>
<path d="M370 816 c0 -2 14 -6 30 -8 17 -3 30 -1 30 4 0 4 -13 8 -30 8 -16 0
-30 -2 -30 -4z"/>
<path d="M725 770 c-3 -5 1 -10 9 -10 9 0 16 5 16 10 0 6 -4 10 -9 10 -6 0
-13 -4 -16 -10z"/>
<path d="M755 750 c-3 -5 -1 -10 4 -10 6 0 11 5 11 10 0 6 -2 10 -4 10 -3 0
-8 -4 -11 -10z"/>
<path d="M532 638 c-19 -19 -14 -28 16 -28 21 0 28 5 29 20 2 23 -26 27 -45 8z"/>
<path d="M592 572 c-15 -13 -20 -20 -12 -14 8 6 18 11 23 11 4 1 10 1 15 2 4
1 15 2 24 3 25 2 22 21 -3 22 -11 1 -33 -10 -47 -24z"/>
<path d="M3970 3499 c0 -5 5 -7 10 -4 6 3 10 8 10 11 0 2 -4 4 -10 4 -5 0 -10
-5 -10 -11z"/>
<path d="M3990 3487 c0 -2 6 -10 14 -16 11 -9 16 -9 22 1 4 7 4 10 -1 6 -4 -4
-14 -3 -22 3 -7 6 -13 9 -13 6z"/>
<path d="M4304 3483 c3 -6 1 -13 -6 -15 -17 -6 -18 -115 -2 -115 13 0 10 79
-2 99 -4 6 -3 8 4 4 16 -10 26 14 12 27 -10 9 -11 9 -6 0z"/>
<path d="M4314 3399 c6 -70 16 -75 14 -6 -1 32 -6 57 -10 57 -5 0 -6 -23 -4
-51z"/>
<path d="M4280 3331 c0 -5 6 -12 13 -14 10 -4 10 -6 0 -6 -7 -1 -13 -6 -13
-11 0 -7 6 -7 19 -1 10 6 20 8 23 6 3 -3 5 2 5 10 0 8 -2 13 -5 10 -3 -2 -13
0 -23 6 -12 6 -19 6 -19 0z"/>
<path d="M5639 3268 c5 -12 9 -26 10 -30 0 -5 3 -8 6 -8 27 0 29 1 15 10 -8 5
-15 17 -15 26 0 10 -6 19 -13 21 -9 4 -10 -1 -3 -19z"/>
<path d="M5671 3204 c0 -11 3 -14 6 -6 3 7 2 16 -1 19 -3 4 -6 -2 -5 -13z"/>
<path d="M5634 3199 c-3 -6 -2 -15 4 -21 6 -6 11 -2 15 11 5 22 -7 29 -19 10z"/>
<path d="M4294 3178 c-5 -7 -6 -40 -3 -73 6 -65 8 -61 15 28 4 59 3 66 -12 45z"/>
<path d="M4304 3042 c-16 -11 -13 -82 4 -82 12 0 12 3 2 15 -9 10 -9 15 -1 15
6 0 11 7 11 15 0 8 -5 15 -11 15 -8 0 -8 5 1 15 13 16 11 19 -6 7z"/>
<path d="M5637 2850 c-3 -11 -1 -23 4 -26 5 -3 9 -2 10 3 0 4 2 16 4 26 5 24
-11 22 -18 -3z"/>
<path d="M4296 2632 c-3 -5 1 -9 9 -9 8 0 12 4 9 9 -3 4 -7 8 -9 8 -2 0 -6 -4
-9 -8z"/>
<path d="M5650 2620 c-24 -15 -7 -18 20 -3 14 7 18 13 10 13 -8 0 -22 -4 -30
-10z"/>
<path d="M4301 2514 c0 -11 3 -14 6 -6 3 7 2 16 -1 19 -3 4 -6 -2 -5 -13z"/>
<path d="M4303 2355 c0 -8 4 -12 9 -9 5 3 6 10 3 15 -9 13 -12 11 -12 -6z"/>
<path d="M5241 1934 c0 -11 3 -14 6 -6 3 7 2 16 -1 19 -3 4 -6 -2 -5 -13z"/>
<path d="M4386 1748 c3 -5 10 -6 15 -3 13 9 11 12 -6 12 -8 0 -12 -4 -9 -9z"/>
<path d="M4371 1684 c4 -21 -2 -35 -11 -29 -16 10 -12 -11 5 -25 11 -9 19 -10
28 -1 10 8 14 7 14 -5 0 -10 -8 -14 -26 -12 -23 3 -26 -1 -28 -30 -1 -18 -8
-43 -16 -56 -14 -21 -14 -24 1 -37 47 -39 93 -71 98 -67 3 3 -18 22 -46 43
-50 37 -58 49 -40 60 6 3 10 15 10 25 0 10 5 22 12 26 6 4 8 3 4 -4 -3 -6 -2
-13 3 -16 10 -7 24 22 16 34 -3 4 5 11 18 15 14 4 17 8 9 12 -10 4 -10 8 0 21
8 9 8 13 2 9 -7 -4 -15 0 -18 9 -3 8 -2 12 3 9 5 -3 12 -1 15 4 4 5 -2 8 -11
6 -10 -1 -24 2 -31 8 -7 6 -12 6 -11 1z"/>
<path d="M5410 1140 c0 -5 5 -10 10 -10 6 0 10 5 10 10 0 6 -4 10 -10 10 -5 0
-10 -4 -10 -10z"/>
<path d="M5322 1027 c1 -17 3 -27 5 -20 3 8 13 8 40 -3 19 -8 36 -14 38 -12 2
2 -17 18 -40 35 l-44 33 1 -33z"/>
<path d="M5336 975 c-3 -9 0 -15 9 -15 8 0 15 -6 15 -14 0 -25 28 -26 44 -1
19 29 20 35 5 35 -5 0 -8 -4 -4 -9 11 -19 -12 -19 -25 0 -17 23 -36 25 -44 4z"/>
<path d="M5392 889 c2 -6 8 -10 13 -10 5 0 11 4 13 10 2 6 -4 11 -13 11 -9 0
-15 -5 -13 -11z"/>
<path d="M5451 637 c0 -17 58 -61 67 -52 4 4 1 10 -7 13 -8 3 -25 15 -38 28
-13 13 -23 18 -22 11z"/>
<path d="M1645 3150 c-3 -5 -1 -10 4 -10 6 0 11 5 11 10 0 6 -2 10 -4 10 -3 0
-8 -4 -11 -10z"/>
<path d="M2104 3128 c-3 -5 25 -7 63 -7 73 1 68 6 -10 11 -27 2 -51 0 -53 -4z"/>
<path d="M2315 3130 c-3 -5 -2 -10 4 -10 5 0 13 5 16 10 3 6 2 10 -4 10 -5 0
-13 -4 -16 -10z"/>
<path d="M2370 3133 c-8 -3 -18 -11 -22 -17 -5 -7 -52 -11 -130 -11 l-123 0
-5 -110 c-6 -131 -18 -129 -16 3 1 50 -2 92 -5 92 -4 0 -8 -47 -8 -105 -1 -82
2 -105 12 -105 10 0 14 -16 16 -51 1 -43 -1 -50 -12 -41 -10 9 -14 8 -14 -3 0
-7 5 -13 11 -12 17 3 20 -114 4 -124 -9 -6 -9 -9 -1 -9 9 0 12 -85 13 -337 0
-186 2 -350 3 -364 2 -22 27 -47 126 -123 68 -53 124 -96 125 -96 0 0 -2 35
-5 77 -3 43 -4 341 -3 662 3 588 4 600 36 601 3 0 4 -13 2 -30 -3 -17 -1 -30
5 -30 6 0 9 28 8 70 -1 38 -2 70 -2 69 0 0 -7 -3 -15 -6z m-5 -64 c-10 -15
-25 -10 -19 6 4 8 10 12 15 9 5 -3 7 -10 4 -15z m-215 -731 c0 -5 -5 -8 -10
-8 -6 0 0 -14 12 -31 23 -31 34 -109 14 -109 -6 0 -5 -5 2 -12 7 -7 12 -23 12
-37 0 -24 -1 -24 -17 -8 -14 14 -15 19 -5 26 11 6 11 10 0 18 -24 19 -39 25
-36 15 2 -6 -1 -12 -7 -13 -5 -2 -11 8 -13 24 -4 33 4 34 36 5 20 -18 24 -19
19 -5 -4 10 -2 17 6 17 9 0 9 2 0 8 -7 4 -11 18 -8 30 2 14 -1 22 -10 22 -8 0
-12 6 -9 13 2 7 -5 23 -16 35 -25 27 -18 47 10 29 11 -6 20 -15 20 -19z m57
-69 c2 -11 -1 -18 -6 -14 -6 3 -9 14 -8 25 2 23 10 17 14 -11z m-96 -132 c-10
-9 -11 -8 -5 6 3 10 9 15 12 12 3 -3 0 -11 -7 -18z m99 -7 c0 -15 40 -51 49
-45 5 3 7 -4 4 -14 -4 -17 -8 -18 -24 -8 -11 7 -17 18 -14 25 3 9 0 10 -13 3
-14 -8 -17 -5 -18 20 -1 16 2 29 7 29 5 0 9 -4 9 -10z m-87 -49 c1 -11 12 -33
24 -49 21 -25 24 -25 33 -9 6 9 16 17 23 17 7 0 6 -4 -3 -10 -12 -8 -11 -10 8
-10 16 0 22 6 22 21 0 12 4 17 11 14 6 -4 9 -19 7 -35 -1 -15 2 -34 8 -41 6
-8 11 -26 12 -40 1 -23 -2 -25 -31 -24 -23 1 -33 7 -36 20 -3 16 -1 17 12 7
23 -20 30 12 7 33 -26 24 -40 11 -33 -31 5 -32 4 -36 -13 -32 -12 2 -19 12
-20 26 -1 12 -5 26 -9 30 -5 4 -5 -1 -2 -10 6 -17 -6 -31 -30 -34 -7 -1 -13 4
-13 12 0 9 5 12 12 8 8 -5 9 -2 3 12 -4 10 -10 53 -13 94 -3 56 -1 72 8 64 6
-6 12 -21 13 -33z m193 14 c1 -8 -2 -15 -6 -15 -5 0 -8 9 -7 20 1 21 10 18 13
-5z m0 -144 c5 -32 3 -42 -6 -36 -6 4 -9 13 -6 20 2 7 -2 16 -11 19 -13 5 -13
9 -2 23 10 12 10 14 2 9 -9 -5 -13 0 -13 16 0 39 29 -2 36 -51z"/>
<path d="M2110 2023 c0 -5 9 -18 20 -28 11 -10 20 -14 20 -8 0 5 -9 18 -20 28
-11 10 -20 14 -20 8z"/>
<path d="M2268 3123 c6 -2 18 -2 25 0 6 3 1 5 -13 5 -14 0 -19 -2 -12 -5z"/>
<path d="M1624 3045 c0 -50 3 -74 10 -72 14 5 15 100 2 109 -7 5 -7 8 2 8 6 0
12 7 12 15 0 8 -6 15 -13 15 -9 0 -13 -21 -13 -75z"/>
<path d="M2775 3040 c-3 -5 -1 -10 4 -10 6 0 11 5 11 10 0 6 -2 10 -4 10 -3 0
-8 -4 -11 -10z"/>
<path d="M2770 3001 c0 -6 5 -13 10 -16 6 -3 10 1 10 9 0 9 -4 16 -10 16 -5 0
-10 -4 -10 -9z"/>
<path d="M2360 2980 c0 -6 5 -10 10 -10 6 0 10 -5 10 -11 0 -5 -4 -8 -9 -4
-10 6 -10 -52 0 -70 3 -5 5 -22 4 -37 -1 -16 2 -28 6 -28 6 0 5 54 -1 70 -1 3
-1 10 0 15 11 43 9 73 -5 79 -8 3 -15 1 -15 -4z"/>
<path d="M1633 2963 c-7 -3 -13 -11 -13 -19 0 -9 5 -12 13 -8 10 6 10 4 0 -7
-17 -18 -16 -71 2 -95 8 -10 15 -14 15 -7 0 6 -5 15 -10 18 -8 5 -7 11 1 21 9
11 8 14 -2 14 -11 0 -12 2 -1 9 17 11 12 80 -5 74z"/>
<path d="M2776 2955 c4 -8 8 -15 10 -15 2 0 4 7 4 15 0 8 -4 15 -10 15 -5 0
-7 -7 -4 -15z"/>
<path d="M2781 2914 c0 -11 3 -14 6 -6 3 7 2 16 -1 19 -3 4 -6 -2 -5 -13z"/>
<path d="M1625 2800 c4 -6 11 -8 16 -5 14 9 11 15 -7 15 -8 0 -12 -5 -9 -10z"/>
<path d="M2852 1760 c0 -19 2 -27 5 -17 2 9 2 25 0 35 -3 9 -5 1 -5 -18z"/>
<path d="M1830 1680 c0 -6 8 -10 17 -8 12 2 17 -5 19 -27 1 -16 2 -34 3 -38 0
-5 16 0 34 11 17 11 38 17 45 15 6 -3 12 2 12 11 0 9 7 16 16 16 12 0 14 -7 9
-32 -4 -18 -12 -38 -17 -45 -5 -7 -5 -13 0 -17 6 -3 15 1 22 9 7 8 9 15 6 15
-4 0 0 10 8 22 9 12 16 30 16 40 0 10 4 18 9 18 4 0 7 -11 6 -25 -2 -14 0 -27
4 -30 4 -2 7 12 6 31 -2 25 0 33 7 26 6 -6 12 -38 13 -72 l3 -62 -119 4 -119
3 1 -25 c1 -18 3 -20 6 -7 4 16 16 18 106 17 56 -1 110 -1 120 -1 15 1 17 12
17 79 l0 77 -72 0 c-40 0 -78 -3 -85 -8 -6 -4 -14 -3 -18 3 -8 13 -75 13 -75
0z m105 -17 c-1 -11 -9 -17 -19 -15 -9 2 -15 -1 -14 -5 2 -4 -1 -9 -6 -11 -6
-1 -11 4 -12 13 -1 9 5 15 16 15 10 0 22 5 25 10 9 15 14 12 10 -7z"/>
<path d="M2090 1682 c0 -5 3 -12 7 -16 10 -10 11 -46 1 -46 -4 0 -8 -12 -8
-27 0 -14 3 -23 7 -19 4 4 8 13 8 19 0 7 5 14 10 17 6 3 11 -26 13 -77 3 -78
2 -82 -20 -86 -13 -2 3 -5 34 -6 31 0 65 -4 75 -7 17 -5 17 -5 1 6 -13 8 -18
24 -18 61 0 28 4 48 9 45 10 -7 9 13 -1 29 -8 13 -5 77 5 92 4 6 3 14 -2 17
-5 4 -12 2 -16 -4 -4 -6 -12 -7 -18 -3 -9 5 -9 3 -1 -8 7 -8 12 -57 13 -116
l2 -103 -25 0 c-24 0 -25 1 -28 96 -2 52 0 102 5 109 4 8 2 17 -5 22 -19 11
-48 14 -48 5z m41 -23 c-2 -8 -4 -19 -4 -26 0 -7 -4 -10 -9 -7 -5 3 -6 10 -2
15 3 5 1 16 -6 24 -9 11 -7 13 7 10 10 -1 16 -9 14 -16z"/>
<path d="M2229 1676 c-5 -42 -3 -73 6 -85 8 -12 7 -13 -5 -6 -12 7 -13 6 -3
-6 6 -8 12 -34 11 -57 0 -42 11 -74 13 -36 0 10 2 46 4 79 1 33 3 62 5 65 1 3
2 9 1 14 -1 5 5 16 13 25 13 15 12 16 -15 17 -16 1 -30 -3 -30 -10z"/>
<path d="M1766 1668 c3 -4 9 -6 14 -3 5 3 11 1 15 -4 3 -6 -3 -15 -14 -20 -11
-6 -23 -25 -26 -43 -4 -18 -12 -39 -17 -45 -7 -9 -3 -15 17 -23 53 -20 53 -21
57 89 2 53 2 55 -24 56 -15 1 -25 -2 -22 -7z m33 -100 c-7 -13 -12 -24 -11
-25 1 -2 -1 -3 -5 -2 -5 1 -7 5 -5 10 1 5 -2 9 -8 9 -5 0 -7 7 -4 15 4 8 15
15 25 15 17 0 18 -3 8 -22z"/>
<path d="M1843 1663 c-8 -3 -13 -22 -13 -45 0 -46 11 -45 15 0 1 16 5 35 9 41
8 12 7 12 -11 4z"/>
<path d="M2320 1650 c0 -5 -8 -7 -17 -3 -12 3 -10 -1 5 -12 25 -18 51 -8 38
14 -9 14 -26 14 -26 1z"/>
<path d="M2360 1609 c0 -5 5 -7 10 -4 6 3 10 8 10 11 0 2 -4 4 -10 4 -5 0 -10
-5 -10 -11z"/>
<path d="M1901 1597 c-8 -10 -7 -14 2 -14 8 0 14 6 14 14 0 7 -1 13 -2 13 -2
0 -8 -6 -14 -13z"/>
<path d="M1931 1576 c-8 -10 -9 -16 -1 -21 5 -3 10 -5 11 -3 4 18 7 38 4 38
-1 0 -8 -6 -14 -14z"/>
<path d="M2546 1567 c3 -10 9 -15 12 -12 3 3 0 11 -7 18 -10 9 -11 8 -5 -6z"/>
<path d="M1660 1557 c0 -8 86 -82 191 -163 271 -211 279 -217 279 -207 0 5
-21 22 -47 38 l-46 30 54 11 c45 10 49 12 20 13 -30 1 -32 3 -20 18 10 11 10
14 2 9 -10 -5 -13 9 -13 58 l0 66 -34 0 c-21 0 -36 -6 -40 -15 -3 -8 -9 -15
-13 -14 -20 3 -24 -2 -13 -16 7 -8 23 -15 36 -15 15 0 24 -6 24 -15 0 -8 -9
-15 -21 -15 -11 0 -18 4 -15 8 3 5 -1 9 -9 9 -8 0 -15 -4 -15 -8 0 -9 41 -24
55 -20 6 1 5 -3 -2 -10 -6 -6 -9 -18 -6 -25 8 -23 -10 -16 -47 17 -19 17 -55
44 -80 61 -25 17 -49 36 -55 42 -5 7 -26 23 -45 36 -40 28 -69 52 -111 94 -20
19 -29 23 -29 13z m408 -200 c2 -48 -1 -67 -13 -77 -12 -10 -15 -10 -15 3 0 9
4 18 8 21 5 3 8 22 7 43 -1 35 -3 38 -32 38 -17 0 -35 4 -39 8 -5 4 -1 5 7 2
9 -3 22 1 29 10 7 8 20 15 29 15 13 0 17 -12 19 -63z"/>
<path d="M1886 1509 c4 -8 30 -6 38 2 3 3 -5 5 -19 5 -13 0 -22 -3 -19 -7z"/>
<path d="M1976 1512 c-3 -5 1 -9 9 -9 8 0 12 4 9 9 -3 4 -7 8 -9 8 -2 0 -6 -4
-9 -8z"/>
<path d="M2067 1514 c-3 -4 -3 -19 0 -35 l5 -28 -63 -4 -64 -3 68 -2 67 -2 0
40 c0 40 -2 45 -13 34z"/>
<path d="M1790 1495 c0 -8 7 -15 16 -15 14 0 14 3 4 15 -7 8 -14 15 -16 15 -2
0 -4 -7 -4 -15z"/>
<path d="M2340 1460 l-25 -8 28 -1 c15 -1 27 4 27 9 0 6 -1 10 -2 9 -2 -1 -14
-5 -28 -9z"/>
<path d="M2273 1453 c9 -2 23 -2 30 0 6 3 -1 5 -18 5 -16 0 -22 -2 -12 -5z"/>
<path d="M1898 1443 c7 -3 16 -2 19 1 4 3 -2 6 -13 5 -11 0 -14 -3 -6 -6z"/>
<path d="M2248 1433 c7 -3 16 -2 19 1 4 3 -2 6 -13 5 -11 0 -14 -3 -6 -6z"/>
<path d="M2300 1430 c0 -5 6 -10 14 -10 8 0 18 5 21 10 3 6 -3 10 -14 10 -12
0 -21 -4 -21 -10z"/>
<path d="M2354 1423 c2 -10 -1 -21 -6 -24 -6 -4 2 -6 16 -6 39 0 42 -10 12
-38 -41 -38 -60 -45 -123 -47 l-58 -2 53 -3 c28 -2 52 -7 52 -10 0 -8 -81 -83
-90 -83 -4 0 -11 -7 -14 -16 -8 -20 35 10 96 68 24 24 63 59 86 79 30 25 40
41 36 53 -4 11 -13 15 -25 11 -14 -5 -19 -1 -19 14 0 12 -4 21 -9 21 -5 0 -8
-8 -7 -17z"/>
<path d="M1898 1423 c7 -3 16 -2 19 1 4 3 -2 6 -13 5 -11 0 -14 -3 -6 -6z"/>
<path d="M1958 1423 c7 -3 16 -2 19 1 4 3 -2 6 -13 5 -11 0 -14 -3 -6 -6z"/>
<path d="M2131 1417 c-6 -8 -7 -18 -3 -22 4 -5 -2 -5 -13 -1 -11 4 -16 4 -12
0 4 -4 2 -13 -5 -21 -8 -11 -7 -12 5 -7 18 7 18 -23 -1 -35 -7 -4 -5 -11 8
-19 19 -11 20 -9 18 29 -1 26 4 44 13 50 12 7 12 9 0 9 -11 0 -11 3 -1 15 7 8
10 15 7 15 -2 0 -10 -6 -16 -13z"/>
<path d="M2160 1419 c0 -5 5 -7 10 -4 6 4 10 -18 10 -59 0 -46 -4 -66 -12 -67
-7 0 -3 -5 10 -11 12 -6 26 -8 30 -3 4 4 1 10 -5 12 -8 3 -13 24 -13 54 0 38
3 48 13 43 8 -6 8 -3 -1 9 -8 9 -11 21 -7 27 3 6 -3 10 -14 10 -12 0 -21 -5
-21 -11z"/>
<path d="M2298 1389 c16 -19 32 -17 32 5 0 8 -11 14 -24 14 -22 0 -23 -2 -8
-19z"/>
<path d="M2250 1380 c0 -5 5 -10 11 -10 5 0 7 5 4 10 -3 6 -8 10 -11 10 -2 0
-4 -4 -4 -10z"/>
<path d="M2220 1371 c0 -6 4 -12 8 -15 5 -3 9 1 9 9 0 8 -4 15 -9 15 -4 0 -8
-4 -8 -9z"/>
<path d="M2230 1280 c-9 -6 -10 -10 -3 -10 6 0 15 5 18 10 8 12 4 12 -15 0z"/>
<path d="M2151 1253 c11 -3 14 -12 11 -36 -4 -28 -3 -30 11 -19 8 7 14 22 12
34 -4 16 -2 18 10 8 12 -10 15 -9 15 4 0 12 -9 16 -37 15 -21 -1 -31 -3 -22
-6z"/>
<path d="M4106 3204 c-4 -10 -1 -14 6 -12 15 5 23 28 10 28 -5 0 -13 -7 -16
-16z"/>
<path d="M4104 3092 c3 -6 2 -13 -3 -16 -9 -6 -6 -50 5 -67 2 -4 -2 -10 -8
-12 -10 -4 -10 -6 0 -6 7 -1 10 -6 6 -13 -4 -6 -3 -8 3 -5 13 8 14 115 1 123
-6 4 -8 2 -4 -4z"/>
<path d="M4111 2948 c0 -10 -6 -18 -13 -18 -9 0 -9 -3 0 -12 16 -16 25 -5 19
24 -3 14 -5 16 -6 6z"/>
<path d="M4102 2853 c0 -28 2 -33 8 -18 6 17 3 55 -5 55 -2 0 -3 -17 -3 -37z"/>
<path d="M3794 1668 l-19 -23 23 19 c21 18 27 26 19 26 -2 0 -12 -10 -23 -22z"/>
<path d="M3596 1668 c3 -4 9 -8 15 -8 5 0 9 4 9 8 0 5 -7 9 -15 9 -8 0 -12 -4
-9 -9z"/>
<path d="M3841 1664 c-10 -7 -20 -11 -23 -9 -3 3 -5 -2 -5 -10 0 -10 4 -12 12
-5 7 5 16 6 20 2 5 -4 5 -1 1 6 -4 6 -2 13 3 13 26 3 30 4 35 10 12 11 -25 5
-43 -7z"/>
<path d="M4017 1659 c7 -7 15 -10 18 -7 3 3 -2 9 -12 12 -14 6 -15 5 -6 -5z"/>
<path d="M3981 1646 c-8 -10 -9 -16 -1 -21 5 -3 10 -5 11 -3 4 18 7 38 4 38
-1 0 -8 -6 -14 -14z"/>
<path d="M3767 1639 c7 -7 15 -10 18 -7 3 3 -2 9 -12 12 -14 6 -15 5 -6 -5z"/>
<path d="M3840 1609 c-1 -21 -2 -22 -13 -8 -14 18 -77 21 -77 4 0 -12 28 -14
47 -2 13 8 36 -16 25 -29 -4 -5 2 -1 14 9 11 9 25 14 29 10 5 -5 3 1 -5 12 -8
11 -16 22 -17 24 -2 2 -3 -7 -3 -20z"/>
<path d="M3066 1570 c7 -7 19 -7 35 -1 23 9 22 10 -10 10 -24 1 -32 -2 -25 -9z"/>
<path d="M3235 1570 c4 -6 11 -8 16 -5 14 9 11 15 -7 15 -8 0 -12 -5 -9 -10z"/>
<path d="M3295 1570 c4 -6 11 -8 16 -5 14 9 11 15 -7 15 -8 0 -12 -5 -9 -10z"/>
<path d="M3728 1483 c6 -2 18 -2 25 0 6 3 1 5 -13 5 -14 0 -19 -2 -12 -5z"/>
<path d="M3783 1483 c9 -2 23 -2 30 0 6 3 -1 5 -18 5 -16 0 -22 -2 -12 -5z"/>
<path d="M3611 1354 c0 -11 3 -14 6 -6 3 7 2 16 -1 19 -3 4 -6 -2 -5 -13z"/>
<path d="M705 3101 c5 -40 15 -54 15 -21 0 13 3 20 7 16 4 -4 6 -315 5 -691
-2 -377 0 -685 4 -685 4 0 60 43 126 96 l118 96 0 496 c0 273 2 533 5 577 6
128 15 121 -128 117 -80 -2 -119 0 -112 7 6 5 24 11 40 13 20 3 10 5 -27 8
l-58 5 5 -34z m85 -801 c-5 -40 -3 -50 8 -50 12 0 12 -4 -2 -24 -15 -23 -14
-25 4 -31 11 -4 20 -9 21 -13 0 -4 2 -17 5 -30 2 -13 0 -21 -5 -17 -5 3 -12 1
-16 -5 -3 -5 1 -10 9 -10 23 0 23 -171 1 -190 -8 -7 -15 -19 -15 -26 0 -8 -3
-14 -7 -14 -10 0 -9 73 1 88 3 6 2 13 -4 17 -6 4 -7 13 -2 21 11 20 -6 147
-21 156 -15 9 -17 108 -3 105 6 -1 12 15 14 36 2 20 7 37 11 37 4 0 5 -22 1
-50z m50 -21 c0 -6 7 -9 15 -5 13 4 14 2 5 -14 -6 -11 -17 -20 -25 -20 -7 0
-15 -10 -18 -22 -2 -13 -4 -2 -4 25 -1 34 2 47 13 47 8 0 14 -5 14 -11z m52
-66 c-2 -12 -8 -20 -13 -17 -14 8 -11 41 4 41 9 0 12 -9 9 -24z m-32 -62 c0
-17 -18 -21 -24 -6 -3 9 0 15 9 15 8 0 15 -4 15 -9z m50 -53 c0 -6 -7 -5 -15
2 -8 7 -15 17 -15 22 0 6 7 5 15 -2 8 -7 15 -17 15 -22z m33 15 c-3 -7 -6 -13
-8 -13 -2 0 -5 6 -8 13 -3 8 1 14 8 14 7 0 11 -6 8 -14z m-165 -22 c2 -12 0
-30 -4 -39 -4 -9 -6 -20 -6 -24 1 -5 -2 -8 -8 -8 -5 0 -10 23 -10 51 0 36 4
49 13 47 6 -3 13 -15 15 -27z m103 8 c16 -11 33 -18 38 -14 5 3 13 1 16 -5 4
-7 -5 -10 -24 -8 -17 1 -31 5 -31 9 0 4 -9 9 -20 12 -11 3 -20 10 -20 16 0 16
8 14 41 -10z m4 -106 c-2 -7 0 -15 5 -18 7 -4 7 -13 0 -24 -5 -10 -7 -20 -5
-23 3 -3 -1 -5 -9 -5 -11 0 -12 4 -3 20 10 16 8 21 -10 34 -22 15 -31 52 -16
67 10 9 44 -36 38 -51z m60 27 c3 -5 1 -10 -4 -10 -6 0 -11 5 -11 10 0 6 2 10
4 10 3 0 8 -4 11 -10z m-168 -61 c2 -30 0 -39 -6 -29 -6 8 -7 18 -5 22 3 4 0
8 -5 8 -6 0 -11 12 -11 26 0 45 25 21 27 -27z m78 1 c3 -5 1 -10 -4 -10 -6 0
-11 5 -11 10 0 6 2 10 4 10 3 0 8 -4 11 -10z m-5 -45 c11 -13 9 -20 -10 -40
-13 -13 -27 -22 -31 -19 -5 3 -6 -2 -3 -11 7 -17 -23 -68 -35 -60 -5 2 -8 -1
-7 -8 0 -6 -3 -13 -9 -14 -5 -2 -10 2 -9 7 1 6 2 38 3 73 l2 62 19 -23 19 -22
15 22 c9 12 16 28 16 35 0 18 15 16 30 -2z"/>
<path d="M766 2237 c3 -10 9 -15 12 -12 3 3 0 11 -7 18 -10 9 -11 8 -5 -6z"/>
<path d="M831 1904 c0 -11 3 -14 6 -6 3 7 2 16 -1 19 -3 4 -6 -2 -5 -13z"/>
<path d="M921 3126 c12 -10 99 -16 99 -7 0 7 -22 11 -52 11 -28 0 -49 -2 -47
-4z"/>
<path d="M711 3024 c0 -11 3 -14 6 -6 3 7 2 16 -1 19 -3 4 -6 -2 -5 -13z"/>
<path d="M1005 2989 c-4 -6 -5 -12 -2 -15 2 -3 7 2 10 11 7 17 1 20 -8 4z"/>
<path d="M702 2865 c1 -69 5 -120 9 -114 11 19 11 227 -1 234 -7 4 -10 -34 -8
-120z"/>
<path d="M1001 2884 c0 -11 3 -14 6 -6 3 7 2 16 -1 19 -3 4 -6 -2 -5 -13z"/>
<path d="M1003 2825 c0 -22 2 -30 4 -17 2 12 2 30 0 40 -3 9 -5 -1 -4 -23z"/>
<path d="M1001 2744 c0 -11 3 -14 6 -6 3 7 2 16 -1 19 -3 4 -6 -2 -5 -13z"/>
<path d="M3366 3023 c2 -85 3 -93 14 -93 14 0 12 33 -2 49 -10 11 -10 13 0 7
9 -5 12 6 12 43 0 35 -4 51 -13 51 -9 0 -12 -17 -11 -57z"/>
<path d="M3665 3071 c-3 -5 -1 -12 5 -16 5 -3 10 1 10 9 0 18 -6 21 -15 7z"/>
<path d="M3673 2990 c0 -30 2 -43 4 -27 2 15 2 39 0 55 -2 15 -4 2 -4 -28z"/>
<path d="M3360 2911 c0 -6 5 -13 11 -17 8 -5 8 -9 -1 -14 -7 -4 -9 -17 -4 -34
9 -37 19 -23 20 30 1 31 -3 44 -13 44 -7 0 -13 -4 -13 -9z"/>
<path d="M3671 2874 c0 -11 3 -14 6 -6 3 7 2 16 -1 19 -3 4 -6 -2 -5 -13z"/>
<path d="M3366 2794 c-5 -14 -4 -15 9 -4 17 14 19 20 6 20 -5 0 -12 -7 -15
-16z"/>
<path d="M3675 1810 c-3 -5 -12 -7 -19 -4 -8 3 -16 -3 -18 -14 -4 -16 0 -19
23 -18 15 1 31 5 36 9 4 5 4 8 -2 7 -22 -5 -27 1 -15 15 7 8 10 15 7 15 -3 0
-8 -4 -12 -10z"/>
<path d="M3746 1769 c2 -4 -6 -10 -18 -12 -16 -3 -13 -4 8 -4 29 1 46 24 18
24 -7 0 -11 -4 -8 -8z"/>
<path d="M3510 1956 c0 -2 7 -9 15 -16 9 -7 15 -8 15 -2 0 5 -7 12 -15 16 -8
3 -15 4 -15 2z"/>
<path d="M3555 1951 c-3 -5 -2 -12 3 -15 5 -3 9 1 9 9 0 17 -3 19 -12 6z"/>
<path d="M1503 2005 c1 -11 7 -26 11 -34 7 -11 6 -12 -5 -6 -12 8 -12 6 0 -8
8 -10 14 -32 14 -50 0 -18 2 -24 4 -14 3 9 11 17 19 17 9 0 14 7 12 18 -2 10
2 16 10 14 8 -1 11 2 7 7 -3 6 -12 8 -20 4 -9 -3 -15 1 -15 8 0 8 -9 25 -20
39 -18 22 -20 23 -17 5z"/>
<path d="M1490 1863 c1 -27 24 -63 35 -55 6 4 11 20 13 36 3 26 1 28 -13 16
-13 -11 -15 -11 -13 0 2 7 -3 15 -9 17 -8 3 -13 -3 -13 -14z"/>
<path d="M1512 1745 c0 -16 2 -22 5 -12 2 9 2 23 0 30 -3 6 -5 -1 -5 -18z"/>
<path d="M1510 1573 c0 -10 11 -28 24 -40 19 -19 23 -19 23 -5 0 9 -7 22 -16
29 -9 6 -13 15 -8 19 4 4 7 2 7 -5 0 -7 5 -9 11 -5 8 4 7 9 -2 15 -22 14 -39
10 -39 -8z"/>
<path d="M3824 1961 c13 -21 44 -32 52 -19 4 7 3 10 -1 5 -5 -4 -19 0 -33 9
-13 9 -21 11 -18 5z"/>
<path d="M3984 1878 c-14 -22 -14 -41 0 -29 7 6 15 8 19 5 3 -3 4 1 3 10 -3
23 -13 29 -22 14z"/>
<path d="M3920 1750 c0 -5 5 -10 11 -10 5 0 7 5 4 10 -3 6 -8 10 -11 10 -2 0
-4 -4 -4 -10z"/>
<path d="M1804 1869 c-3 -5 -10 -6 -16 -3 -7 4 -8 2 -4 -5 5 -7 13 -8 19 -4 7
5 24 8 40 7 33 -1 27 8 -8 12 -13 1 -27 -2 -31 -7z"/>
<path d="M1326 1792 c-3 -5 1 -9 9 -9 8 0 12 4 9 9 -3 4 -7 8 -9 8 -2 0 -6 -4
-9 -8z"/>
<path d="M1339 1671 c-2 -14 -2 -38 0 -53 1 -9 4 -9 11 2 5 9 5 19 -1 26 -7 8
-6 13 3 16 9 3 9 6 0 12 -7 4 -13 2 -13 -3z"/>
<path d="M1160 1608 c0 -4 7 -8 15 -8 8 0 15 4 15 8 0 5 -7 9 -15 9 -8 0 -15
-4 -15 -9z"/>
<path d="M1325 1499 c-4 -6 -5 -12 -2 -15 2 -3 7 2 10 11 7 17 1 20 -8 4z"/>
<path d="M5007 1615 c-4 -8 -2 -17 3 -20 6 -4 10 3 10 14 0 25 -6 27 -13 6z"/>
<path d="M4596 1682 c-3 -5 1 -9 9 -9 8 0 12 4 9 9 -3 4 -7 8 -9 8 -2 0 -6 -4
-9 -8z"/>
<path d="M4492 1648 c2 -7 -3 -12 -10 -10 -9 1 -8 -5 4 -23 9 -14 21 -22 27
-18 6 4 4 10 -6 18 -11 8 -13 15 -6 22 8 8 7 13 0 18 -7 4 -10 1 -9 -7z"/>
<path d="M380 1556 c0 -2 8 -10 18 -17 15 -13 16 -12 3 4 -13 16 -21 21 -21
13z"/>
<path d="M4335 1361 c-3 -5 -1 -12 5 -16 5 -3 10 -3 10 2 0 4 4 2 9 -6 5 -7
14 -12 21 -9 8 2 3 10 -13 21 -14 9 -29 13 -32 8z"/>
<path d="M2740 1375 c-7 -9 -11 -18 -8 -20 3 -3 11 1 18 10 7 9 11 18 8 20 -3
3 -11 -1 -18 -10z"/>
<path d="M406 1381 c-4 -5 -2 -12 3 -15 5 -4 12 -2 15 3 4 5 2 12 -3 15 -5 4
-12 2 -15 -3z"/>
<path d="M406 1338 c3 -5 10 -6 15 -3 13 9 11 12 -6 12 -8 0 -12 -4 -9 -9z"/>
<path d="M5430 1226 c0 -2 8 -10 18 -17 15 -13 16 -12 3 4 -13 16 -21 21 -21
13z"/>
<path d="M1270 1152 c0 -11 37 -32 44 -25 8 9 -14 33 -30 33 -8 0 -14 -3 -14
-8z"/>
<path d="M1186 1041 c-4 -5 -2 -12 3 -15 5 -4 12 -2 15 3 4 5 2 12 -3 15 -5 4
-12 2 -15 -3z"/>
<path d="M2840 835 l0 -95 30 0 30 0 0 95 0 95 -30 0 -30 0 0 -95z"/>
<path d="M5445 440 c-2 -4 1 -7 8 -7 7 0 17 -2 24 -4 6 -2 12 1 12 6 1 11 -37
16 -44 5z"/>
<path d="M5441 401 c-14 -9 -12 -44 3 -45 5 -1 14 7 20 16 13 21 -3 41 -23 29z"/>
<path d="M315 452 c2 -15 -2 -19 -20 -16 -17 1 -22 -2 -18 -13 4 -9 14 -13 29
-9 12 3 26 1 29 -4 4 -6 11 -8 16 -4 6 4 6 11 -1 19 -8 10 -8 15 0 20 6 4 14
4 17 1 4 -3 1 -6 -6 -6 -9 0 -9 -4 1 -14 9 -10 15 -10 20 -3 10 16 -12 39 -30
32 -8 -3 -21 0 -28 6 -10 8 -12 7 -9 -9z"/>
<path d="M505 450 c-3 -5 -1 -10 4 -10 6 0 11 5 11 10 0 6 -2 10 -4 10 -3 0
-8 -4 -11 -10z"/>
</g>
</svg>
